<svg width="274" height="274" viewBox="0 0 274 274" fill="none" xmlns="http://www.w3.org/2000/svg">
<g clip-path="url(#clip0_600_54)">
<path d="M194 118L194 1.19769e-05L138.626 9.55643e-06L138.626 94.1115C138.626 111.02 124.66 124.587 107.759 124.099L0.500007 121L0.500004 189L123 189C162.212 189 194 157.212 194 118Z" fill="#C99F5C"/>
<path d="M194.337 35.2136L139.639 9.80253C138.249 9.15688 136.679 10.25 136.803 11.7774L137.077 15.1689C137.135 15.8868 137.574 16.5181 138.228 16.8216L192.926 42.2327C194.316 42.8783 195.886 41.7852 195.762 40.2578L195.488 36.8663C195.43 36.1484 194.991 35.517 194.337 35.2136Z" fill="white"/>
<path d="M195.299 18.405L140.6 -7.00601C139.21 -7.65165 137.641 -6.55857 137.764 -5.03112L138.038 -1.63968C138.096 -0.92171 138.536 -0.290396 139.189 0.0130828L193.887 25.4241C195.277 26.0698 196.847 24.9767 196.724 23.4492L196.45 20.0578C196.392 19.3398 195.952 18.7085 195.299 18.405Z" fill="white"/>
<path d="M194.299 52.405L139.6 26.994C138.21 26.3484 136.641 27.4414 136.764 28.9689L137.038 32.3603C137.096 33.0783 137.536 33.7096 138.189 34.0131L192.887 59.4241C194.277 60.0698 195.847 58.9767 195.724 57.4492L195.45 54.0578C195.392 53.3398 194.952 52.7085 194.299 52.405Z" fill="white"/>
<path d="M194.26 69.5965L139.562 44.1855C138.172 43.5398 136.602 44.6329 136.725 46.1603L136.999 49.5518C137.057 50.2698 137.497 50.9011 138.15 51.2046L192.849 76.6156C194.239 77.2612 195.808 76.1681 195.685 74.6407L195.411 71.2493C195.353 70.5313 194.913 69.9 194.26 69.5965Z" fill="white"/>
<path d="M194.221 86.788L139.523 61.3769C138.133 60.7313 136.563 61.8244 136.687 63.3518L136.961 66.7433C137.019 67.4612 137.458 68.0925 138.112 68.396L192.81 93.8071C194.2 94.4527 195.77 93.3596 195.646 91.8322L195.372 88.4407C195.314 87.7228 194.875 87.0914 194.221 86.788Z" fill="white"/>
<path d="M194.183 103.979L139.484 78.5684C138.094 77.9228 136.525 79.0158 136.648 80.5433L136.922 83.9347C136.98 84.6527 137.42 85.284 138.073 85.5875L192.771 110.999C194.161 111.644 195.731 110.551 195.608 109.024L195.333 105.632C195.275 104.914 194.836 104.283 194.183 103.979Z" fill="white"/>
<path d="M194.144 121.171L139.445 95.7599C138.056 95.1142 136.486 96.2073 136.609 97.7348L136.883 101.126C136.941 101.844 137.381 102.475 138.034 102.779L192.733 128.19C194.122 128.836 195.692 127.743 195.569 126.215L195.295 122.824C195.237 122.106 194.797 121.474 194.144 121.171Z" fill="white"/>
<path d="M189.528 138.57L134.837 108.97C133.498 108.246 131.873 109.223 131.885 110.745L131.912 114.235C131.918 114.964 132.319 115.632 132.96 115.978L187.651 145.578C188.99 146.302 190.615 145.325 190.603 143.803L190.576 140.313C190.57 139.584 190.168 138.916 189.528 138.57Z" fill="white"/>
<path d="M178.346 159.148L128.353 116.244C127.212 115.264 125.438 115.848 125.102 117.314L124.282 120.887C124.115 121.611 124.364 122.368 124.928 122.852L174.921 165.756C176.062 166.736 177.836 166.152 178.173 164.686L178.992 161.113C179.159 160.389 178.91 159.632 178.346 159.148Z" fill="white"/>
<path d="M161.048 175.406L125.731 119.794C124.925 118.524 123.058 118.565 122.309 119.87L120.483 123.048C120.113 123.692 120.131 124.489 120.529 125.116L155.846 180.728C156.653 181.998 158.52 181.956 159.269 180.652L161.094 177.474C161.465 176.83 161.447 176.033 161.048 175.406Z" fill="white"/>
<path d="M140.062 184.457L121.737 121.179C121.319 119.734 119.515 119.251 118.43 120.293L115.787 122.833C115.252 123.348 115.045 124.117 115.252 124.831L133.577 188.11C133.996 189.554 135.8 190.038 136.884 188.995L139.527 186.456C140.063 185.941 140.269 185.171 140.062 184.457Z" fill="white"/>
<path d="M114.964 188.96L114.973 123.082C114.973 121.577 113.375 120.611 112.043 121.311L108.798 123.014C108.14 123.36 107.728 124.042 107.728 124.785L107.719 190.663C107.719 192.168 109.317 193.134 110.649 192.435L113.894 190.731C114.552 190.385 114.964 189.703 114.964 188.96Z" fill="white"/>
<path d="M98.0839 188.007L102.847 122.301C102.955 120.801 101.431 119.722 100.052 120.323L96.693 121.788C96.0118 122.085 95.5515 122.735 95.4977 123.477L90.7349 189.183C90.6261 190.683 92.1503 191.762 93.5291 191.161L96.8886 189.696C97.5698 189.399 98.0301 188.748 98.0839 188.007Z" fill="white"/>
<path d="M83.0839 188.007L87.8467 122.301C87.9555 120.801 86.4313 119.722 85.0525 120.323L81.693 121.788C81.0118 122.085 80.5515 122.735 80.4977 123.477L75.7349 189.183C75.6261 190.683 77.1503 191.762 78.5291 191.161L81.8886 189.696C82.5698 189.399 83.0301 188.748 83.0839 188.007Z" fill="white"/>
<path d="M68.0839 188.007L72.8467 122.301C72.9555 120.801 71.4313 119.722 70.0525 120.323L66.693 121.788C66.0118 122.085 65.5515 122.735 65.4977 123.477L60.7349 189.183C60.6261 190.683 62.1503 191.762 63.5291 191.161L66.8886 189.696C67.5698 189.399 68.0301 188.748 68.0839 188.007Z" fill="white"/>
<path d="M53.0839 188.007L57.8467 122.301C57.9555 120.801 56.4313 119.722 55.0525 120.323L51.693 121.788C51.0118 122.085 50.5515 122.735 50.4977 123.477L45.7349 189.183C45.6261 190.683 47.1503 191.762 48.5291 191.161L51.8886 189.696C52.5698 189.399 53.0301 188.748 53.0839 188.007Z" fill="white"/>
<path d="M38.0839 188.007L42.8467 122.301C42.9555 120.801 41.4313 119.722 40.0525 120.323L36.693 121.788C36.0118 122.085 35.5515 122.735 35.4977 123.477L30.7349 189.183C30.6261 190.683 32.1503 191.762 33.5291 191.161L36.8886 189.696C37.5698 189.399 38.0301 188.748 38.0839 188.007Z" fill="white"/>
<path d="M23.4952 187.958L27.8709 121.277C27.9691 119.782 26.4491 118.714 25.0757 119.313L21.7016 120.784C21.0158 121.083 20.5543 121.74 20.5053 122.487L16.1296 189.167C16.0315 190.663 17.5515 191.731 18.9248 191.132L22.299 189.66C22.9848 189.361 23.4462 188.704 23.4952 187.958Z" fill="white"/>
<path d="M8.08386 187.007L12.8467 121.301C12.9555 119.801 11.4313 118.722 10.0525 119.323L6.69299 120.788C6.01177 121.085 5.55145 121.735 5.49772 122.477L0.734854 188.183C0.6261 189.683 2.15028 190.762 3.52912 190.161L6.88859 188.696C7.56981 188.399 8.03013 187.748 8.08386 187.007Z" fill="white"/>
<rect x="7.00001" y="118" width="76" height="7" rx="3.5" transform="rotate(90 7.00001 118)" fill="#4B4949"/>
<rect x="126" y="1.19769e-05" width="77" height="7" rx="3.5" fill="#4B4949"/>
</g>
<defs>
<clipPath id="clip0_600_54">
<rect width="274" height="274" fill="white" transform="translate(274 1.19769e-05) rotate(90)"/>
</clipPath>
</defs>
</svg>
