<svg width="274" height="274" viewBox="0 0 274 274" fill="none" xmlns="http://www.w3.org/2000/svg">
<g clip-path="url(#clip0_600_324)">
<path d="M273.5 85L151 85C111.788 85 80 116.788 80 156L80 246L48.5 274L108.25 274L168 274L135.374 246L135.374 179.888C135.374 162.981 149.34 149.413 166.241 149.901L273.5 153L273.5 85Z" fill="#C99F5C"/>
<path d="M79.9632 241.425L157.199 272.769C158.202 273.176 159.347 272.712 159.782 271.721L161.327 268.208C161.775 267.19 161.306 266.002 160.284 265.565L81.0089 231.626C79.6248 231.034 78.107 232.125 78.2283 233.626L78.7217 239.733C78.7826 240.486 79.2629 241.141 79.9632 241.425Z" fill="white"/>
<path d="M74.7106 254.329L130.387 280.598C131.778 281.255 133.358 280.161 133.234 278.629L132.942 275.012C132.884 274.298 132.449 273.67 131.802 273.364L76.1252 247.095C74.7345 246.439 73.1545 247.533 73.2783 249.065L73.5705 252.682C73.6281 253.395 74.063 254.024 74.7106 254.329Z" fill="white"/>
<path d="M62.7106 266.329L118.387 292.598C119.778 293.255 121.358 292.161 121.234 290.629L120.942 287.012C120.884 286.298 120.449 285.67 119.802 285.364L64.1252 259.095C62.7345 258.439 61.1545 259.533 61.2783 261.065L61.5705 264.682C61.6281 265.395 62.063 266.024 62.7106 266.329Z" fill="white"/>
<path d="M79.7013 221.595L134.4 247.006C135.79 247.652 137.359 246.559 137.236 245.031L136.962 241.64C136.904 240.922 136.464 240.29 135.811 239.987L81.1125 214.576C79.7228 213.93 78.153 215.023 78.2764 216.551L78.5504 219.942C78.6084 220.66 79.048 221.292 79.7013 221.595Z" fill="white"/>
<path d="M79.74 204.404L134.438 229.815C135.828 230.46 137.398 229.367 137.275 227.84L137.001 224.448C136.943 223.73 136.503 223.099 135.85 222.795L81.1512 197.384C79.7614 196.739 78.1917 197.832 78.3151 199.359L78.5891 202.751C78.6471 203.469 79.0867 204.1 79.74 204.404Z" fill="white"/>
<path d="M79.7787 187.212L134.477 212.623C135.867 213.269 137.437 212.176 137.313 210.648L137.039 207.257C136.981 206.539 136.542 205.907 135.888 205.604L81.1899 180.193C79.8001 179.547 78.2304 180.64 78.3538 182.168L78.6278 185.559C78.6858 186.277 79.1254 186.909 79.7787 187.212Z" fill="white"/>
<path d="M79.8173 170.021L134.516 195.432C135.906 196.077 137.475 194.984 137.352 193.457L137.078 190.065C137.02 189.347 136.58 188.716 135.927 188.413L81.2286 163.001C79.8388 162.356 78.2691 163.449 78.3925 164.976L78.6665 168.368C78.7245 169.086 79.1641 169.717 79.8173 170.021Z" fill="white"/>
<path d="M79.856 152.829L134.555 178.24C135.944 178.886 137.514 177.793 137.391 176.265L137.117 172.874C137.059 172.156 136.619 171.525 135.966 171.221L81.2673 145.81C79.8775 145.164 78.3078 146.257 78.4312 147.785L78.7052 151.176C78.7632 151.894 79.2028 152.526 79.856 152.829Z" fill="white"/>
<path d="M84.4723 135.43L139.163 165.03C140.502 165.754 142.127 164.777 142.115 163.255L142.088 159.765C142.082 159.036 141.681 158.368 141.04 158.022L86.3488 128.422C85.0102 127.698 83.385 128.675 83.397 130.197L83.4243 133.687C83.43 134.416 83.8315 135.084 84.4723 135.43Z" fill="white"/>
<path d="M95.6543 114.852L145.647 157.756C146.788 158.736 148.562 158.152 148.898 156.686L149.718 153.114C149.885 152.389 149.636 151.632 149.072 151.148L99.0793 108.244C97.9378 107.264 96.164 107.848 95.8275 109.314L95.0075 112.887C94.8412 113.611 95.0903 114.368 95.6543 114.852Z" fill="white"/>
<path d="M112.952 98.5944L148.269 154.206C149.075 155.476 150.942 155.435 151.691 154.13L153.517 150.952C153.887 150.308 153.869 149.511 153.471 148.884L118.154 93.2719C117.347 92.0021 115.48 92.0435 114.731 93.3479L112.906 96.526C112.535 97.1704 112.553 97.967 112.952 98.5944Z" fill="white"/>
<path d="M133.938 89.5426L152.263 152.821C152.682 154.266 154.485 154.749 155.57 153.707L158.213 151.167C158.748 150.652 158.955 149.883 158.748 149.169L140.423 85.8904C140.004 84.4456 138.2 83.9624 137.116 85.0047L134.473 87.5442C133.937 88.0591 133.731 88.8287 133.938 89.5426Z" fill="white"/>
<path d="M159.036 85.0397L159.027 150.918C159.027 152.423 160.625 153.389 161.957 152.689L165.202 150.986C165.86 150.64 166.272 149.958 166.272 149.215L166.281 83.3366C166.281 81.8323 164.683 80.8662 163.351 81.5655L160.106 83.2692C159.448 83.6147 159.036 84.2965 159.036 85.0397Z" fill="white"/>
<path d="M175.916 85.993L171.153 151.699C171.045 153.2 172.569 154.278 173.948 153.677L177.307 152.212C177.988 151.915 178.449 151.265 178.502 150.523L183.265 84.8171C183.374 83.3167 181.85 82.2379 180.471 82.8392L177.111 84.3043C176.43 84.6014 175.97 85.2517 175.916 85.993Z" fill="white"/>
<path d="M190.916 85.993L186.153 151.699C186.045 153.2 187.569 154.278 188.948 153.677L192.307 152.212C192.988 151.915 193.449 151.265 193.502 150.523L198.265 84.8171C198.374 83.3167 196.85 82.2379 195.471 82.8392L192.111 84.3043C191.43 84.6014 190.97 85.2517 190.916 85.993Z" fill="white"/>
<path d="M205.916 85.993L201.153 151.699C201.045 153.2 202.569 154.278 203.948 153.677L207.307 152.212C207.988 151.915 208.449 151.265 208.502 150.523L213.265 84.8171C213.374 83.3167 211.85 82.2379 210.471 82.8392L207.111 84.3043C206.43 84.6014 205.97 85.2517 205.916 85.993Z" fill="white"/>
<path d="M220.916 85.993L216.153 151.699C216.045 153.2 217.569 154.278 218.948 153.677L222.307 152.212C222.988 151.915 223.449 151.265 223.502 150.523L228.265 84.8171C228.374 83.3167 226.85 82.2379 225.471 82.8392L222.111 84.3043C221.43 84.6014 220.97 85.2517 220.916 85.993Z" fill="white"/>
<path d="M235.916 85.993L231.153 151.699C231.045 153.2 232.569 154.278 233.948 153.677L237.307 152.212C237.988 151.915 238.449 151.265 238.502 150.523L243.265 84.8171C243.374 83.3167 241.85 82.2379 240.471 82.8392L237.111 84.3043C236.43 84.6014 235.97 85.2517 235.916 85.993Z" fill="white"/>
<path d="M250.505 86.0421L246.129 152.723C246.031 154.218 247.551 155.286 248.924 154.687L252.298 153.216C252.984 152.917 253.446 152.26 253.495 151.513L257.87 84.8325C257.968 83.3375 256.449 82.2694 255.075 82.8683L251.701 84.3398C251.015 84.6389 250.554 85.2956 250.505 86.0421Z" fill="white"/>
<path d="M265.916 86.993L261.153 152.699C261.045 154.2 262.569 155.278 263.948 154.677L267.307 153.212C267.988 152.915 268.449 152.265 268.502 151.523L273.265 85.8171C273.374 84.3167 271.85 83.2379 270.471 83.8392L267.111 85.3043C266.43 85.6014 265.97 86.2517 265.916 86.993Z" fill="white"/>
<rect x="267" y="156" width="76" height="7" rx="3.5" transform="rotate(-90 267 156)" fill="#4B4949"/>
<rect x="170" y="274" width="121" height="7" rx="3.5" transform="rotate(180 170 274)" fill="#4B4949"/>
<ellipse cx="113.926" cy="126.618" rx="59.163" ry="53.7435" transform="rotate(15.6116 113.926 126.618)" fill="#4B4949"/>
<ellipse cx="115.426" cy="125.713" rx="51.0715" ry="46.3932" transform="rotate(30 115.426 125.713)" fill="#D9D9D9"/>
<path d="M113.397 124.542C113.448 124.999 113.667 126.134 113.972 126.62C114.127 126.866 114.414 127.014 114.684 127.063C114.954 127.112 115.232 127.032 115.43 126.83C115.629 126.628 115.739 126.306 115.711 126.041C115.683 125.776 115.514 125.578 115.3 125.459C115.087 125.34 114.834 125.306 114.665 125.424C114.495 125.541 114.417 125.811 114.386 125.777C114.129 125.5 114.25 124.817 113.96 124.596C113.816 124.601 113.677 124.847 113.696 125.075C113.715 125.304 113.897 125.509 114.084 125.719" stroke="#C99F5C" stroke-width="5" stroke-linecap="round"/>
<path d="M114.278 81.1984C114.278 81.2174 114.278 81.2364 114.278 82.3382C114.278 83.44 114.278 85.6241 114.212 87.2361C114.147 88.848 114.017 89.8216 113.882 90.9477" stroke="#C99F5C" stroke-width="2" stroke-linecap="round"/>
<path d="M68.3288 127.947L81.9715 127.947" stroke="#C99F5C" stroke-width="2" stroke-linecap="round"/>
<path d="M115.02 168.6V158.832" stroke="#C99F5C" stroke-width="2" stroke-linecap="round"/>
<path d="M154.764 127.81C154.809 127.81 154.854 127.81 155.738 127.81C156.622 127.81 158.342 127.81 160.817 127.703" stroke="#C99F5C" stroke-width="2" stroke-linecap="round"/>
<path d="M131.35 85.0095L131.35 84.4402" stroke="white" stroke-width="2" stroke-linecap="round"/>
<path d="M143.972 91.2273C143.962 91.2273 143.952 91.2273 143.678 91.3262C143.403 91.425 142.864 91.6227 142.482 91.8793C142.099 92.1359 141.89 92.4455 141.674 92.7645" stroke="white" stroke-width="2" stroke-linecap="round"/>
<path d="M154.134 102.466C154.099 102.466 154.064 102.466 153.608 102.466C153.152 102.466 152.277 102.466 151.281 102.512" stroke="white" stroke-width="2" stroke-linecap="round"/>
<path d="M160.663 113.418C160.644 113.418 160.624 113.418 159.949 113.418C159.274 113.418 157.943 113.418 156.189 113.763" stroke="white" stroke-width="2" stroke-linecap="round"/>
<path d="M161.765 141.012C161.756 141.012 161.746 141.012 161.481 141.012C161.215 141.012 160.694 141.012 160.285 140.942C159.876 140.873 159.596 140.733 159.073 140.498" stroke="white" stroke-width="2" stroke-linecap="round"/>
<path d="M156.032 154.455C155.977 154.455 155.516 154.403 154.635 154.24C153.739 153.959 152.982 153.578 152.309 153.09C151.931 152.81 151.481 152.461 150.637 151.906" stroke="white" stroke-width="2" stroke-linecap="round"/>
<path d="M144.709 164.555C144.709 164.537 144.696 164.237 144.659 163.654C144.634 163.36 144.599 163.07 144.494 162.7C144.389 162.331 144.216 161.89 144.037 161.435" stroke="white" stroke-width="2" stroke-linecap="round"/>
<path d="M129.802 169.608C129.802 169.629 129.802 169.651 129.825 169.792C129.849 169.932 129.897 170.192 129.982 170.977" stroke="white" stroke-width="2" stroke-linecap="round"/>
<path d="M104.893 170.496V169.792" stroke="white" stroke-width="2" stroke-linecap="round"/>
<path d="M90.6736 162.803C90.6736 162.793 90.6736 162.783 90.755 162.657C90.8365 162.531 90.9995 162.288 91.8378 161.776" stroke="white" stroke-width="2" stroke-linecap="round"/>
<path d="M80.9391 154.743C80.9486 154.743 80.9581 154.743 81.5697 154.726C82.1814 154.71 83.3948 154.676 84.6451 154.642" stroke="white" stroke-width="2" stroke-linecap="round"/>
<path d="M71.8533 140.948L74.8918 140.948" stroke="white" stroke-width="2" stroke-linecap="round"/>
<path d="M67.8716 118.04L69.9671 118.04" stroke="white" stroke-width="2" stroke-linecap="round"/>
<path d="M70.7227 105.5H72.8301" stroke="white" stroke-width="2" stroke-linecap="round"/>
<path d="M78.1763 93.896C78.1763 93.9051 78.1763 93.9143 78.3034 94.056C78.4306 94.1977 78.6848 94.4716 79.0936 94.8738" stroke="white" stroke-width="2" stroke-linecap="round"/>
<path d="M88.5087 85.4527C88.5087 85.4717 88.5087 85.4907 88.5087 85.938C88.5087 86.3853 88.5087 87.2604 88.6069 88.5756" stroke="white" stroke-width="2" stroke-linecap="round"/>
<path d="M99.4986 85.175V81.4096" stroke="white" stroke-width="2" stroke-linecap="round"/>
<path d="M114 125C113.888 124.717 112.349 122.756 107.483 116.709C106.048 114.925 104.702 113.396 102.725 111.023C100.307 108.12 97.6339 105.397 95.6578 102.813C93.8345 100.43 92.4335 99.0609 91.8878 98.6056C91.6464 98.4041 91.1617 98.8545 90.8715 99.1619C89.4275 100.691 89.2333 103.605 89.0645 104.444C88.6856 106.327 90.0688 99.4274 90.8044 97.7159C91.0784 97.0784 91.3732 97.0014 91.799 97C93.8985 96.9933 95.5181 97.9154 97.6782 98.5418C98.3817 98.7288 99.086 98.8032 99.9787 98.8585C100.422 98.9095 100.846 99.0069 101.538 99.1267" stroke="#C99F5C" stroke-width="2" stroke-linecap="round"/>
</g>
<defs>
<clipPath id="clip0_600_324">
<rect width="274" height="274" fill="white" transform="translate(0 274) rotate(-90)"/>
</clipPath>
</defs>
</svg>
