<svg width="367" height="801" viewBox="0 0 367 801" fill="none" xmlns="http://www.w3.org/2000/svg">
<g id="santa">
<g id="Group">
<path id="JambeG" d="M155.104 769.128L140.971 499.937L114.929 501.306L128.54 760.547L129.037 760.706L91.2287 774.573C84.3897 776.828 80.674 784.202 82.9287 791.042C85.1834 797.884 92.5569 801.595 99.3975 799.342L146.148 782.195C151.859 780.313 155.379 774.852 155.104 769.128Z" fill="#AC0B0E"/>
<path id="JambeD" d="M206.895 769.128L221.027 499.937L247.071 501.306L233.46 760.547L232.963 760.706L270.771 774.573C277.61 776.828 281.326 784.202 279.071 791.042C276.817 797.884 269.443 801.595 262.603 799.342L215.852 782.195C210.138 780.313 206.62 774.852 206.895 769.128Z" fill="#AC0B0E"/>
<path id="Vector" d="M107.816 483.156C107.816 523.574 140.582 556.339 180.999 556.339C221.416 556.339 254.182 523.573 254.182 483.156H107.816Z" fill="#AC0B0E"/>
<path id="Vector_2" d="M251.351 300.862C246.646 290.943 236.554 284.027 224.899 284.027H137.099C125.443 284.027 115.351 290.943 110.648 300.862C65.4677 305.949 107.816 344.373 107.816 390.888C107.816 436.427 107.816 445.5 107.815 480.554H254.182C254.182 436 261 425.539 261 380C261 333.484 296.529 305.949 251.351 300.862Z" fill="#AC0B0E"/>
</g>
<path id="Vector_3" d="M255.812 459.773H254.178H202.732V293.405H159.266V459.773H107.821H106.187C94.1897 459.773 84.4537 469.509 84.4537 481.506C84.4537 493.503 94.1897 503.238 106.187 503.238H110.602H251.395H255.81C267.807 503.238 277.543 493.503 277.543 481.506C277.545 469.509 267.807 459.773 255.812 459.773Z" fill="#FFD089"/>
<path id="Vector_4" d="M254.177 420.115H107.821C100.619 420.115 94.7819 414.279 94.7819 407.076C94.7819 399.873 100.619 394.037 107.821 394.037H254.177C261.379 394.037 267.217 399.873 267.217 407.076C267.217 414.279 261.379 420.115 254.177 420.115Z" fill="#460929"/>
<g id="Tete">
<path id="Vector_5" d="M105.579 164.696V238.552C105.579 257.189 112.341 274.246 123.521 287.39C132.823 298.326 145.184 306.566 159.266 310.791C166.151 312.86 173.437 313.972 180.999 313.972C188.562 313.972 195.848 312.86 202.732 310.791C216.815 306.566 229.176 298.326 238.477 287.39C249.657 274.246 256.42 257.189 256.42 238.552V164.696H105.579Z" fill="white"/>
<path id="Vector_6" d="M255.812 154.977C256.212 158.158 256.42 161.392 256.42 164.696C256.42 206.353 222.656 240.099 180.982 240.099C139.343 240.099 105.579 206.352 105.579 164.696C105.579 161.392 105.788 158.158 106.187 154.977H255.812Z" fill="#F7D0BC"/>
<path id="Vector_7" d="M255.804 154.975H106.193C105.785 158.157 105.574 161.399 105.574 164.691C105.574 206.357 139.346 240.104 180.987 240.104C222.652 240.104 256.428 206.358 256.428 164.691C256.426 161.399 256.213 158.157 255.804 154.975Z" fill="#EDB99E"/>
<path id="Vector_8" d="M195.587 38.5422L257.256 111.511H104.744L166.413 38.5422C170.29 41.9672 175.402 44.0532 181.001 44.0532C186.598 44.0532 191.709 41.9672 195.587 38.5422Z" fill="#AC0B0E"/>
<g id="Group_2">
<path id="Vector_9" d="M181.001 44.047C193.164 44.047 203.024 34.1867 203.024 22.0235C203.024 9.86025 193.164 0 181.001 0C168.838 0 158.977 9.86025 158.977 22.0235C158.977 34.1867 168.838 44.047 181.001 44.047Z" fill="white"/>
<path id="Vector_10" d="M104.747 111.511C92.7365 111.511 83.0006 121.247 83.0006 133.258C83.0006 145.269 92.7365 154.977 104.747 154.977H257.251C269.262 154.977 278.998 145.269 278.998 133.258C278.998 121.247 269.262 111.511 257.251 111.511H104.747Z" fill="white"/>
</g>
<path id="Vector 122" d="M150.295 172.138C150.094 172.138 150.147 173.291 150.976 175.251C151.386 176.219 152.838 176.486 153.5 176.094C154.162 175.702 154.262 174.476 153.772 173.588C153.281 172.7 152.197 172.187 150.811 170.418" stroke="black" stroke-width="2" stroke-linecap="round"/>
<path id="Vector 123" d="M209.633 168.663C209.588 168.663 209.542 168.663 210.093 168.975C210.643 169.286 211.789 169.909 211.841 170.011C211.892 170.112 210.814 169.674 209.641 166.11" stroke="black" stroke-width="2" stroke-linecap="round"/>
<path id="Vector 124" d="M161 215.519C161.053 216.192 164.315 222.931 168.478 228.28C171.08 231.623 174.732 232.697 176.48 233.25C178.486 233.885 180.517 233.593 185.214 232.732C196.143 230.728 203.849 228.437 204.947 227.767C208.098 225.848 210.136 217.852 210.476 214.529C208.659 212.413 206.111 210.676 205.553 209.451C205.355 208.75 205.331 207.888 205.307 207" stroke="black" stroke-width="2" stroke-linecap="round"/>
<path id="Vector 125" d="M186.485 178.656C186.53 179.261 187.535 182.408 188.836 185.716C189.289 186.867 189.145 187.939 188.687 188.799C187.793 189.407 186.615 189.76 185.409 189.924C184.809 189.98 184.232 189.98 183.638 189.98" stroke="black" stroke-width="2" stroke-linecap="round"/>
<path id="Vector 126" d="M154 212L149.5 238L142 244.5L109 212L117 203L196.5 192H253.5L247 225.5L222.5 238L211.5 203L154 212Z" fill="white"/>
</g>
<g id="BrasG">
<path id="Vector 134" d="M28 479.5L10 464.881L46 381.5L90.5237 309.817C93.5147 305.001 99.9062 303.632 104.607 306.8L110.737 310.931C115.305 314.01 116.523 320.204 113.46 324.783L66.5 395L28 479.5Z" fill="#AC0B0E"/>
<path id="Vector 135" d="M28 479.5L10 464.881L46 381.5L90.5237 309.817C93.5147 305.001 99.9062 303.632 104.607 306.8L110.737 310.931C115.305 314.01 116.523 320.204 113.46 324.783L66.5 395L28 479.5Z" fill="#AC0B0E"/>
<ellipse id="Ellipse 82" cx="16" cy="479" rx="16" ry="15" fill="#AC0B0E"/>
</g>
<g id="BrasD">
<path id="Vector 134_2" d="M335.873 479.251L353.848 464.653L317.898 381.388L273.444 309.817C270.453 305.001 264.062 303.632 259.361 306.8L253.263 310.91C248.695 313.988 247.477 320.182 250.54 324.761L297.427 394.869L335.873 479.251Z" fill="#AC0B0E"/>
<ellipse id="Ellipse 82_2" cx="15.9777" cy="14.9791" rx="15.9777" ry="14.9791" transform="matrix(-1 0 0 1 363.834 463.773)" fill="#AC0B0E"/>
</g>
</g>
</svg>
