<svg width="137" height="274" viewBox="0 0 137 274" fill="none" xmlns="http://www.w3.org/2000/svg">
<g clip-path="url(#clip0_593_3)">
<rect x="-137" width="274" height="274" fill="white"/>
<line x1="-426.354" y1="340.646" x2="196.646" y2="-282.354" stroke="#C99F5C"/>
<line x1="-399.354" y1="364.646" x2="223.646" y2="-258.354" stroke="#C99F5C"/>
<line x1="-372.354" y1="388.646" x2="250.646" y2="-234.354" stroke="#C99F5C"/>
<line x1="-345.354" y1="412.646" x2="277.646" y2="-210.354" stroke="#C99F5C"/>
<line x1="-318.354" y1="436.646" x2="304.646" y2="-186.354" stroke="#C99F5C"/>
<line x1="-291.354" y1="460.646" x2="331.646" y2="-162.354" stroke="#C99F5C"/>
<line x1="-264.354" y1="484.646" x2="358.646" y2="-138.354" stroke="#C99F5C"/>
<line x1="-237.354" y1="508.646" x2="385.646" y2="-114.354" stroke="#C99F5C"/>
<line x1="-210.354" y1="532.646" x2="412.646" y2="-90.3535" stroke="#C99F5C"/>
<line x1="-183.354" y1="556.646" x2="439.646" y2="-66.3535" stroke="#C99F5C"/>
<ellipse cx="0.0485064" cy="136.73" rx="84.9659" ry="99.5315" transform="rotate(43.0926 0.0485064 136.73)" fill="#C99F5C"/>
<path d="M-25.0972 165.116L-26.6108 167.084C-26.6108 167.084 -26.8127 167.387 -27.2163 167.992C-27.62 168.598 -28.0236 169.203 -28.4272 169.809C-28.8309 170.414 -29.4364 171.07 -30.2437 171.776C-31.0509 172.483 -31.6564 173.038 -32.0601 173.441C-32.4637 173.845 -32.5646 174.4 -32.3628 175.106C-31.4546 176.015 -30.4455 176.317 -29.3354 176.015C-28.2254 175.611 -27.2668 175.409 -26.4595 175.409C-25.5513 175.409 -24.744 175.561 -24.0376 175.863C-23.2303 176.065 -22.4735 176.015 -21.7671 175.712C-20.9598 175.308 -20.4048 175.157 -20.1021 175.258C-19.4966 175.46 -18.6388 175.258 -17.5288 174.652C-16.4188 173.946 -15.6115 173.643 -15.1069 173.744C-14.5015 173.744 -13.9465 173.795 -13.4419 173.896C-12.8364 173.996 -12.3823 173.996 -12.0796 173.896C-11.6759 173.694 -11.3732 173.845 -11.1714 174.35C-10.5659 175.561 -10.6668 177.226 -11.4741 179.345C-11.9787 179.547 -12.8364 179.698 -14.0474 179.799C-15.1574 179.799 -15.9142 179.547 -16.3179 179.042C-16.7215 179.244 -17.2765 179.597 -17.9829 180.102C-18.5884 180.505 -19.2948 180.707 -20.1021 180.707C-20.8084 180.707 -21.3634 180.858 -21.7671 181.161C-22.2716 180.757 -22.7762 180.657 -23.2808 180.858C-23.6844 180.959 -24.4917 181.01 -25.7026 181.01C-26.8127 180.909 -27.8722 181.06 -28.8813 181.464C-29.7896 181.767 -30.7482 181.514 -31.7573 180.707C-33.4728 181.514 -35.3901 182.069 -37.5093 182.372C-39.5275 182.574 -41.1925 182.978 -42.5044 183.583C-43.7153 184.088 -44.674 184.592 -45.3804 185.097C-45.9858 185.5 -46.7931 185.551 -47.8022 185.248C-48.2059 185.349 -48.5591 185.5 -48.8618 185.702C-49.0636 185.904 -49.4673 185.904 -50.0728 185.702C-50.88 185.097 -51.4855 184.592 -51.8892 184.188C-52.091 183.684 -52.0405 183.179 -51.7378 182.675C-51.3341 182.17 -51.0819 181.565 -50.981 180.858C-50.7791 180.152 -50.4259 179.547 -49.9214 179.042C-49.5177 178.235 -49.2655 177.781 -49.1646 177.68C-48.9627 177.579 -48.7104 177.226 -48.4077 176.62C-48.105 176.015 -47.7013 175.46 -47.1968 174.955C-46.6922 174.451 -46.0868 173.441 -45.3804 171.928C-44.5731 170.414 -44.0685 169.657 -43.8667 169.657C-43.6649 169.657 -42.8576 168.244 -41.4448 165.419C-40.0321 162.493 -39.2248 160.727 -39.0229 160.121C-38.7202 159.516 -38.1652 158.658 -37.3579 157.548C-36.5506 156.438 -35.7938 154.521 -35.0874 151.796C-34.5828 150.585 -34.3306 149.727 -34.3306 149.223C-34.2297 148.617 -34.0783 147.86 -33.8765 146.952C-33.5737 146.044 -33.2205 145.035 -32.8169 143.925C-32.3123 142.714 -32.0601 141.806 -32.0601 141.2C-32.0601 140.494 -31.9591 139.787 -31.7573 139.081C-31.5555 138.375 -31.3032 137.567 -31.0005 136.659C-30.5968 135.65 -30.3446 134.742 -30.2437 133.935C-30.0418 133.026 -29.9409 132.37 -29.9409 131.967C-29.9409 131.462 -29.8905 131.008 -29.7896 130.604C-29.5877 130.201 -29.4364 129.848 -29.3354 129.545C-29.2345 129.242 -29.1336 128.939 -29.0327 128.637C-28.8309 128.334 -28.73 128.031 -28.73 127.729C-28.6291 127.426 -28.4272 126.82 -28.1245 125.912C-27.7209 124.903 -27.519 123.793 -27.519 122.582L-27.8218 120.766C-27.3172 119.353 -27.0649 118.445 -27.0649 118.041C-27.0649 117.234 -26.9136 116.073 -26.6108 114.56L-26.4595 112.289C-26.2576 111.28 -26.2576 110.624 -26.4595 110.321C-26.6613 109.918 -26.7622 109.413 -26.7622 108.808C-26.7622 108.202 -26.7118 107.496 -26.6108 106.688C-26.409 105.78 -26.5099 104.923 -26.9136 104.115C-27.2163 103.308 -27.3172 102.854 -27.2163 102.753C-27.1154 102.551 -27.2668 102.147 -27.6704 101.542C-28.0741 100.836 -28.3263 100.281 -28.4272 99.877C-28.5282 99.3724 -28.6795 98.9183 -28.8813 98.5146C-29.0832 98.0101 -29.3354 97.4551 -29.6382 96.8496C-29.9409 96.2441 -30.1932 95.6387 -30.395 95.0332C-31.8078 94.7305 -33.0187 94.2259 -34.0278 93.5195C-35.0369 92.7122 -36.2479 92.2077 -37.6606 92.0059C-38.5688 92.3086 -39.5275 92.7122 -40.5366 93.2168C-41.4448 93.6204 -42.3026 93.7214 -43.1099 93.5195C-43.4126 93.8223 -43.7153 94.1755 -44.0181 94.5791C-44.3208 94.9827 -44.8254 95.3864 -45.5317 95.79C-46.1372 96.0928 -46.6922 96.6478 -47.1968 97.4551C-47.7013 98.2624 -48.2059 98.9183 -48.7104 99.4229C-49.1141 99.9274 -49.6187 100.382 -50.2241 100.785C-50.8296 101.189 -51.3846 101.643 -51.8892 102.147C-52.5955 103.358 -52.9487 104.216 -52.9487 104.721C-52.9487 105.225 -53.201 105.578 -53.7056 105.78C-53.6047 106.789 -53.7056 107.445 -54.0083 107.748C-54.2101 107.95 -54.3615 108.202 -54.4624 108.505C-54.5633 108.808 -54.5633 109.11 -54.4624 109.413C-54.3615 109.716 -54.4624 110.372 -54.7651 111.381C-54.967 112.39 -54.866 113.399 -54.4624 114.408C-54.0588 115.316 -53.4533 115.922 -52.646 116.225C-52.7469 116.729 -52.6965 117.082 -52.4946 117.284C-52.1919 117.486 -52.091 117.789 -52.1919 118.192C-51.3846 118.091 -50.7791 118.091 -50.3755 118.192C-49.8709 118.192 -49.2655 118.041 -48.5591 117.738C-47.8527 116.527 -47.6004 115.316 -47.8022 114.105C-47.9032 112.794 -47.7013 111.431 -47.1968 110.019C-46.3895 109.817 -45.3804 109.918 -44.1694 110.321C-42.9585 110.624 -42.1007 111.028 -41.5962 111.532C-41.5962 111.936 -41.5457 112.289 -41.4448 112.592C-41.243 112.794 -41.0916 113.197 -40.9907 113.803C-40.8898 114.307 -41.0412 114.913 -41.4448 115.619C-41.7476 116.225 -41.6971 117.082 -41.2935 118.192C-41.798 118.899 -42.2521 119.605 -42.6558 120.312C-42.9585 121.018 -43.3117 121.573 -43.7153 121.977C-44.0181 122.279 -44.3713 122.431 -44.7749 122.431C-45.0776 122.33 -45.2795 122.481 -45.3804 122.885C-46.5913 122.784 -47.1968 122.834 -47.1968 123.036C-47.1968 123.238 -47.1968 123.44 -47.1968 123.642C-47.8022 123.339 -48.3068 123.288 -48.7104 123.49C-49.1141 123.692 -49.7196 123.743 -50.5269 123.642C-51.3341 123.44 -52.1414 122.986 -52.9487 122.279C-53.756 121.573 -54.7147 121.169 -55.8247 121.068C-56.1274 120.766 -56.3293 120.463 -56.4302 120.16C-56.5311 119.757 -56.8338 119.151 -57.3384 118.344C-57.742 117.536 -58.0952 116.981 -58.3979 116.679C-58.5998 116.275 -58.8016 115.771 -59.0034 115.165C-59.1043 114.459 -59.0539 113.651 -58.8521 112.743C-58.5493 111.734 -58.6502 110.725 -59.1548 109.716C-58.7511 109.11 -58.5998 108.454 -58.7007 107.748C-58.8016 107.042 -58.8016 106.487 -58.7007 106.083C-58.5998 105.578 -58.4484 105.074 -58.2466 104.569C-57.9438 104.065 -57.6916 103.56 -57.4897 103.056C-57.2879 102.45 -57.0861 101.895 -56.8843 101.391C-56.5815 100.785 -56.3293 100.18 -56.1274 99.5742C-55.8247 98.8678 -55.3201 98.1615 -54.6138 97.4551C-53.9074 96.6478 -53.4533 95.79 -53.2515 94.8818C-52.4442 94.3773 -51.7882 93.8223 -51.2837 93.2168C-50.6782 92.5104 -49.8709 92.0563 -48.8618 91.8545C-48.8618 91.1481 -48.7104 90.694 -48.4077 90.4922C-48.105 90.2904 -47.9032 89.9372 -47.8022 89.4326C-46.2886 88.9281 -44.7749 88.3226 -43.2612 87.6162C-41.7476 86.8089 -40.7384 86.4053 -40.2339 86.4053C-39.7293 86.3044 -38.7707 86.2035 -37.3579 86.1025L-34.7847 85.7998C-33.7756 86.3044 -33.0187 86.5566 -32.5142 86.5566C-32.0096 86.5566 -31.4546 86.6576 -30.8491 86.8594C-30.1427 86.9603 -29.2345 87.0612 -28.1245 87.1621C-27.0145 87.263 -26.0054 87.6162 -25.0972 88.2217C-24.0881 88.8271 -23.2303 89.3317 -22.5239 89.7354C-21.4139 90.6436 -20.7075 91.1481 -20.4048 91.249C-20.1021 91.249 -19.7489 91.4004 -19.3452 91.7031C-18.9416 92.0059 -18.5884 92.46 -18.2856 93.0654C-17.9829 93.6709 -17.5288 93.9736 -16.9233 93.9736C-16.6206 95.6891 -15.7124 97.0514 -14.1987 98.0605C-14.4006 98.4642 -14.4006 98.8174 -14.1987 99.1201C-13.896 99.4229 -13.6942 99.776 -13.5933 100.18C-13.3914 100.583 -13.2905 100.987 -13.2905 101.391C-13.1896 101.794 -12.9878 102.349 -12.6851 103.056C-12.3823 103.762 -12.0796 104.519 -11.7769 105.326C-11.4741 106.033 -11.3732 106.537 -11.4741 106.84C-11.575 107.042 -11.575 107.395 -11.4741 107.899C-11.2723 108.404 -11.0705 109.06 -10.8687 109.867C-9.65771 113.197 -9.30452 116.83 -9.80908 120.766L-9.65771 121.371C-10.3641 121.876 -10.6668 122.632 -10.5659 123.642C-10.465 124.55 -10.5155 125.508 -10.7173 126.518C-10.8182 127.426 -10.9696 128.233 -11.1714 128.939C-11.2723 129.545 -11.1714 130.1 -10.8687 130.604C-11.4741 131.412 -11.8273 132.37 -11.9282 133.48C-12.0291 134.59 -12.231 135.549 -12.5337 136.356C-12.7355 137.164 -12.9373 137.769 -13.1392 138.173C-13.341 138.576 -13.5933 139.182 -13.896 139.989C-14.0978 140.797 -14.2492 141.705 -14.3501 142.714C-14.3501 143.723 -14.8547 144.379 -15.8638 144.682C-15.7629 145.691 -16.116 146.599 -16.9233 147.406C-16.8224 147.709 -16.9233 148.415 -17.2261 149.525C-17.2261 150.635 -17.4279 151.443 -17.8315 151.947C-18.2352 152.452 -18.5379 152.956 -18.7397 153.461C-18.9416 153.865 -18.992 154.268 -18.8911 154.672C-18.7902 155.076 -18.8911 155.631 -19.1938 156.337C-19.4966 156.942 -20.0516 157.75 -20.8589 158.759C-21.5653 159.667 -22.1203 160.373 -22.5239 160.878C-22.8267 161.282 -23.1799 161.736 -23.5835 162.24C-23.6844 162.644 -23.8358 162.947 -24.0376 163.148C-24.1385 163.35 -24.189 163.703 -24.189 164.208C-24.7944 164.713 -25.0972 165.015 -25.0972 165.116ZM23.6431 106.386L29.5464 105.023C30.4546 105.023 31.2619 105.175 31.9683 105.478C32.7756 105.78 33.5324 105.982 34.2388 106.083C34.9451 106.184 35.6011 106.234 36.2065 106.234C36.812 106.133 37.4175 106.133 38.0229 106.234C38.7293 106.335 39.3853 106.537 39.9907 106.84C40.5962 107.042 41.3026 106.991 42.1099 106.688C42.3117 107.092 42.564 107.243 42.8667 107.143C43.4722 106.941 44.3299 107.395 45.4399 108.505C46.2472 109.009 46.6509 109.363 46.6509 109.564C46.7518 109.665 46.9536 109.867 47.2563 110.17C47.66 110.473 48.1646 110.826 48.77 111.229C49.3755 111.532 49.981 111.936 50.5864 112.44C50.8892 113.55 51.6965 114.913 53.0083 116.527C53.2101 117.032 53.4119 117.94 53.6138 119.252C53.9165 120.564 54.3201 121.825 54.8247 123.036C55.4302 124.146 55.7329 125.155 55.7329 126.063C55.7329 126.871 55.7834 127.527 55.8843 128.031L56.187 131.059L55.5815 132.875C55.5815 132.976 55.5815 133.228 55.5815 133.632C55.6825 133.935 55.6825 134.338 55.5815 134.843C55.4806 135.246 55.3293 135.751 55.1274 136.356C54.9256 136.962 54.9256 137.618 55.1274 138.324C54.6229 138.627 54.3201 139.132 54.2192 139.838C54.2192 140.443 53.967 140.897 53.4624 141.2C52.6551 142.411 52.201 143.168 52.1001 143.471C51.9992 143.773 51.8478 144.127 51.646 144.53L50.8892 146.044C50.5864 146.649 49.981 147.104 49.0728 147.406C48.2655 147.608 47.7104 147.911 47.4077 148.314C47.2059 148.617 47.0041 148.92 46.8022 149.223C45.6922 149.727 44.8849 150.232 44.3804 150.736C43.8758 151.241 43.3713 151.594 42.8667 151.796C42.4631 151.998 41.908 152.2 41.2017 152.401C40.4953 152.502 39.8394 152.654 39.2339 152.855C38.6284 153.057 37.7707 153.209 36.6606 153.31C35.6515 153.31 34.7433 153.461 33.936 153.764C33.1287 153.965 32.7251 154.117 32.7251 154.218C32.7251 154.319 32.0692 154.521 30.7573 154.823C29.4455 155.126 28.285 155.277 27.2759 155.277L23.9458 154.521C23.3403 154.42 22.6844 154.47 21.978 154.672C21.3726 154.874 20.7671 154.874 20.1616 154.672C19.5562 154.369 19.0516 154.016 18.6479 153.612C18.2443 153.108 17.5884 152.855 16.6802 152.855C16.4784 152.452 16.1756 152.149 15.772 151.947C15.4692 151.745 15.0656 151.493 14.561 151.19C14.0565 150.888 13.451 150.585 12.7446 150.282C12.2401 149.273 11.5337 148.516 10.6255 148.012C9.8182 147.406 9.31364 146.498 9.11182 145.287C7.29541 144.177 6.13493 142.663 5.63037 140.746C5.52946 140.443 5.479 140.141 5.479 139.838C5.57992 139.535 5.479 139.132 5.17627 138.627C4.97445 138.122 4.67171 137.567 4.26807 136.962C3.6626 135.852 3.56169 134.389 3.96533 132.572C3.96533 131.563 4.01579 131.008 4.1167 130.907C4.31852 130.705 4.41943 130.453 4.41943 130.15C4.52035 129.747 4.46989 129.293 4.26807 128.788C4.16715 128.284 4.16715 127.628 4.26807 126.82C4.46989 126.013 4.87354 125.206 5.479 124.398C6.08447 123.591 6.33675 122.733 6.23584 121.825C6.63949 121.623 6.89176 121.321 6.99268 120.917C7.1945 120.412 7.49723 119.857 7.90088 119.252C8.30452 118.546 8.45589 118.091 8.35498 117.89C8.35498 117.688 8.90999 116.981 10.02 115.771C11.13 114.459 11.7355 113.349 11.8364 112.44C12.6437 112.44 13.1483 112.239 13.3501 111.835C13.6528 111.33 13.9556 110.876 14.2583 110.473C14.6619 110.473 14.9647 110.372 15.1665 110.17C15.4692 109.968 15.8224 109.766 16.2261 109.564C16.6297 109.363 17.0334 109.161 17.437 108.959C17.8407 108.656 18.3452 108.454 18.9507 108.354C19.6571 108.152 20.2625 107.849 20.7671 107.445C21.8771 106.739 22.8358 106.386 23.6431 106.386ZM48.0132 127.274L46.4995 124.853C46.4995 124.247 46.3986 123.692 46.1968 123.188C45.995 122.683 45.8436 122.229 45.7427 121.825C45.1372 120.917 44.8345 120.312 44.8345 120.009C44.8345 119.605 44.7336 119.252 44.5317 118.949C44.4308 118.546 44.2795 118.091 44.0776 117.587C43.8758 117.082 43.5731 116.679 43.1694 116.376C42.8667 115.972 42.5135 115.619 42.1099 115.316C41.7062 114.913 41.2521 114.459 40.7476 113.954C40.1421 114.055 39.6375 113.954 39.2339 113.651C38.8302 113.349 38.3761 113.147 37.8716 113.046C37.367 112.844 36.812 112.743 36.2065 112.743C35.702 112.743 35.147 112.693 34.5415 112.592C33.7342 111.986 32.826 111.583 31.8169 111.381L29.6978 110.775C28.5877 110.473 26.2163 111.381 22.5835 113.5C22.3817 114.509 22.0789 115.468 21.6753 116.376C21.3726 117.183 21.3221 118.293 21.5239 119.706C20.8175 121.018 20.6662 122.077 21.0698 122.885C20.5653 123.49 20.2625 124.146 20.1616 124.853C20.0607 125.458 19.8084 126.618 19.4048 128.334C19.0011 130.049 18.9507 132.017 19.2534 134.237C19.6571 136.356 19.9093 138.072 20.0103 139.384C20.4139 139.586 20.7166 139.939 20.9185 140.443C21.1203 140.948 21.423 141.604 21.8267 142.411C22.2303 143.118 22.4321 143.723 22.4321 144.228C23.2394 144.833 23.9458 145.539 24.5513 146.347C25.4595 146.549 26.2668 146.801 26.9731 147.104C27.7804 147.406 28.5877 147.709 29.395 148.012C30.2023 147.608 30.9087 147.457 31.5142 147.558C32.1196 147.659 32.7251 147.608 33.3306 147.406C33.936 147.204 34.4406 146.952 34.8442 146.649C35.3488 146.347 35.8029 146.145 36.2065 146.044C36.7111 145.842 37.1652 145.792 37.5688 145.893C38.0734 145.893 38.4771 145.792 38.7798 145.59C39.1834 145.388 39.4862 145.186 39.688 144.984C39.8898 144.682 40.243 144.328 40.7476 143.925C41.2521 143.521 41.5549 143.37 41.6558 143.471C41.7567 143.471 41.9585 143.319 42.2612 143.017C42.6649 142.714 43.0181 142.462 43.3208 142.26C43.7244 141.957 44.1281 141.553 44.5317 141.049C44.9354 140.544 45.3895 140.09 45.894 139.687C46.3986 139.283 46.9536 138.829 47.5591 138.324C48.0636 136.306 48.215 134.54 48.0132 133.026C47.8114 131.412 47.8114 129.494 48.0132 127.274Z" fill="#4B4949"/>
</g>
<rect x="-136" y="1" width="272" height="272" stroke="#C99F5C" stroke-width="2"/>
<defs>
<clipPath id="clip0_593_3">
<rect x="-137" width="274" height="274" fill="white"/>
</clipPath>
</defs>
</svg>
