<svg width="411" height="274" viewBox="0 0 411 274" fill="none" xmlns="http://www.w3.org/2000/svg">
<g clip-path="url(#clip0_593_79)">
<rect x="-411" width="822" height="274" fill="white"/>
<ellipse cx="-0.174928" cy="136.518" rx="113.004" ry="106.914" transform="rotate(15 -0.174928 136.518)" fill="#C99F5C"/>
<path d="M355.544 52.7691L342.9 67.8201L330.036 52.7691L336.092 53.604L321.183 34.0132L328.638 35.8657L314.661 11.7841L373.365 11.7841L357.874 35.8657L365.794 34.9394L350.516 53.604L355.544 52.7691Z" fill="#4B4949"/>
<rect x="350.239" y="13.563" width="11.563" height="11.563" transform="rotate(-180 350.239 13.563)" fill="#4B4949"/>
<path d="M168.821 221.051L181.465 206L194.329 221.051L188.273 220.216L203.182 239.807L195.727 237.954L209.704 262.036L151 262.036L166.491 237.954L158.571 238.881L173.849 220.216L168.821 221.051Z" fill="#4B4949"/>
<rect x="174.126" y="260.257" width="11.563" height="11.563" fill="#4B4949"/>
<path d="M273.714 52.7691L261.069 67.8201L248.205 52.7691L254.262 53.604L239.353 34.0132L246.808 35.8657L232.83 11.7841L291.535 11.7841L276.043 35.8657L283.964 34.9394L268.686 53.604L273.714 52.7691Z" fill="#C99F5C"/>
<rect x="268.409" y="13.563" width="11.563" height="11.563" transform="rotate(-180 268.409 13.563)" fill="#C99F5C"/>
<path d="M250.525 221.051L263.17 206L276.034 221.051L269.977 220.216L284.886 239.807L277.432 237.954L291.409 262.036L232.704 262.036L248.196 237.954L240.275 238.881L255.553 220.216L250.525 221.051Z" fill="#C99F5C"/>
<rect x="255.83" y="260.257" width="11.563" height="11.563" fill="#C99F5C"/>
<path d="M191.883 52.7691L179.239 67.8201L166.375 52.7691L172.432 53.604L157.523 34.0132L164.977 35.8657L151 11.7841L209.704 11.7841L194.213 35.8657L202.133 34.9394L186.855 53.604L191.883 52.7691Z" fill="#4B4949"/>
<rect x="186.578" y="13.563" width="11.563" height="11.563" transform="rotate(-180 186.578 13.563)" fill="#4B4949"/>
<path d="M332.23 221.051L344.874 206L357.738 221.051L351.681 220.216L366.59 239.807L359.136 237.954L373.113 262.036L314.409 262.036L329.9 237.954L321.98 238.881L337.258 220.216L332.23 221.051Z" fill="#4B4949"/>
<rect x="337.535" y="260.257" width="11.563" height="11.563" fill="#4B4949"/>
<path d="M-23.7349 165.116L-25.2485 167.084C-25.2485 167.084 -25.4504 167.387 -25.854 167.992C-26.2576 168.598 -26.6613 169.203 -27.0649 169.809C-27.4686 170.414 -28.0741 171.07 -28.8813 171.776C-29.6886 172.483 -30.2941 173.038 -30.6978 173.441C-31.1014 173.845 -31.2023 174.4 -31.0005 175.106C-30.0923 176.015 -29.0832 176.317 -27.9731 176.015C-26.8631 175.611 -25.9045 175.409 -25.0972 175.409C-24.189 175.409 -23.3817 175.561 -22.6753 175.863C-21.868 176.065 -21.1112 176.015 -20.4048 175.712C-19.5975 175.308 -19.0425 175.157 -18.7397 175.258C-18.1343 175.46 -17.2765 175.258 -16.1665 174.652C-15.0565 173.946 -14.2492 173.643 -13.7446 173.744C-13.1392 173.744 -12.5841 173.795 -12.0796 173.896C-11.4741 173.996 -11.02 173.996 -10.7173 173.896C-10.3136 173.694 -10.0109 173.845 -9.80908 174.35C-9.20361 175.561 -9.30452 177.226 -10.1118 179.345C-10.6164 179.547 -11.4741 179.698 -12.6851 179.799C-13.7951 179.799 -14.5519 179.547 -14.9556 179.042C-15.3592 179.244 -15.9142 179.597 -16.6206 180.102C-17.2261 180.505 -17.9325 180.707 -18.7397 180.707C-19.4461 180.707 -20.0011 180.858 -20.4048 181.161C-20.9093 180.757 -21.4139 180.657 -21.9185 180.858C-22.3221 180.959 -23.1294 181.01 -24.3403 181.01C-25.4504 180.909 -26.5099 181.06 -27.519 181.464C-28.4272 181.767 -29.3859 181.514 -30.395 180.707C-32.1105 181.514 -34.0278 182.069 -36.147 182.372C-38.1652 182.574 -39.8302 182.978 -41.1421 183.583C-42.353 184.088 -43.3117 184.592 -44.0181 185.097C-44.6235 185.5 -45.4308 185.551 -46.4399 185.248C-46.8436 185.349 -47.1968 185.5 -47.4995 185.702C-47.7013 185.904 -48.105 185.904 -48.7104 185.702C-49.5177 185.097 -50.1232 184.592 -50.5269 184.188C-50.7287 183.684 -50.6782 183.179 -50.3755 182.675C-49.9718 182.17 -49.7196 181.565 -49.6187 180.858C-49.4168 180.152 -49.0636 179.547 -48.5591 179.042C-48.1554 178.235 -47.9032 177.781 -47.8022 177.68C-47.6004 177.579 -47.3481 177.226 -47.0454 176.62C-46.7427 176.015 -46.339 175.46 -45.8345 174.955C-45.3299 174.451 -44.7244 173.441 -44.0181 171.928C-43.2108 170.414 -42.7062 169.657 -42.5044 169.657C-42.3026 169.657 -41.4953 168.244 -40.0825 165.419C-38.6698 162.493 -37.8625 160.727 -37.6606 160.121C-37.3579 159.516 -36.8029 158.658 -35.9956 157.548C-35.1883 156.438 -34.4315 154.521 -33.7251 151.796C-33.2205 150.585 -32.9683 149.727 -32.9683 149.223C-32.8674 148.617 -32.716 147.86 -32.5142 146.952C-32.2114 146.044 -31.8582 145.035 -31.4546 143.925C-30.95 142.714 -30.6978 141.806 -30.6978 141.2C-30.6978 140.494 -30.5968 139.787 -30.395 139.081C-30.1932 138.375 -29.9409 137.567 -29.6382 136.659C-29.2345 135.65 -28.9823 134.742 -28.8813 133.935C-28.6795 133.026 -28.5786 132.37 -28.5786 131.967C-28.5786 131.462 -28.5282 131.008 -28.4272 130.604C-28.2254 130.201 -28.0741 129.848 -27.9731 129.545C-27.8722 129.242 -27.7713 128.939 -27.6704 128.637C-27.4686 128.334 -27.3677 128.031 -27.3677 127.729C-27.2668 127.426 -27.0649 126.82 -26.7622 125.912C-26.3586 124.903 -26.1567 123.793 -26.1567 122.582L-26.4595 120.766C-25.9549 119.353 -25.7026 118.445 -25.7026 118.041C-25.7026 117.234 -25.5513 116.073 -25.2485 114.56L-25.0972 112.289C-24.8953 111.28 -24.8953 110.624 -25.0972 110.321C-25.299 109.918 -25.3999 109.413 -25.3999 108.808C-25.3999 108.202 -25.3494 107.496 -25.2485 106.688C-25.0467 105.78 -25.1476 104.923 -25.5513 104.115C-25.854 103.308 -25.9549 102.854 -25.854 102.753C-25.7531 102.551 -25.9045 102.147 -26.3081 101.542C-26.7118 100.836 -26.964 100.281 -27.0649 99.877C-27.1659 99.3724 -27.3172 98.9183 -27.519 98.5146C-27.7209 98.0101 -27.9731 97.4551 -28.2759 96.8496C-28.5786 96.2441 -28.8309 95.6387 -29.0327 95.0332C-30.4455 94.7305 -31.6564 94.2259 -32.6655 93.5195C-33.6746 92.7122 -34.8856 92.2077 -36.2983 92.0059C-37.2065 92.3086 -38.1652 92.7122 -39.1743 93.2168C-40.0825 93.6204 -40.9403 93.7214 -41.7476 93.5195C-42.0503 93.8223 -42.353 94.1755 -42.6558 94.5791C-42.9585 94.9827 -43.4631 95.3864 -44.1694 95.79C-44.7749 96.0928 -45.3299 96.6478 -45.8345 97.4551C-46.339 98.2624 -46.8436 98.9183 -47.3481 99.4229C-47.7518 99.9274 -48.2563 100.382 -48.8618 100.785C-49.4673 101.189 -50.0223 101.643 -50.5269 102.147C-51.2332 103.358 -51.5864 104.216 -51.5864 104.721C-51.5864 105.225 -51.8387 105.578 -52.3433 105.78C-52.2424 106.789 -52.3433 107.445 -52.646 107.748C-52.8478 107.95 -52.9992 108.202 -53.1001 108.505C-53.201 108.808 -53.201 109.11 -53.1001 109.413C-52.9992 109.716 -53.1001 110.372 -53.4028 111.381C-53.6047 112.39 -53.5037 113.399 -53.1001 114.408C-52.6965 115.316 -52.091 115.922 -51.2837 116.225C-51.3846 116.729 -51.3341 117.082 -51.1323 117.284C-50.8296 117.486 -50.7287 117.789 -50.8296 118.192C-50.0223 118.091 -49.4168 118.091 -49.0132 118.192C-48.5086 118.192 -47.9032 118.041 -47.1968 117.738C-46.4904 116.527 -46.2381 115.316 -46.4399 114.105C-46.5409 112.794 -46.339 111.431 -45.8345 110.019C-45.0272 109.817 -44.0181 109.918 -42.8071 110.321C-41.5962 110.624 -40.7384 111.028 -40.2339 111.532C-40.2339 111.936 -40.1834 112.289 -40.0825 112.592C-39.8807 112.794 -39.7293 113.197 -39.6284 113.803C-39.5275 114.307 -39.6789 114.913 -40.0825 115.619C-40.3853 116.225 -40.3348 117.082 -39.9312 118.192C-40.4357 118.899 -40.8898 119.605 -41.2935 120.312C-41.5962 121.018 -41.9494 121.573 -42.353 121.977C-42.6558 122.279 -43.009 122.431 -43.4126 122.431C-43.7153 122.33 -43.9172 122.481 -44.0181 122.885C-45.229 122.784 -45.8345 122.834 -45.8345 123.036C-45.8345 123.238 -45.8345 123.44 -45.8345 123.642C-46.4399 123.339 -46.9445 123.288 -47.3481 123.49C-47.7518 123.692 -48.3573 123.743 -49.1646 123.642C-49.9718 123.44 -50.7791 122.986 -51.5864 122.279C-52.3937 121.573 -53.3524 121.169 -54.4624 121.068C-54.7651 120.766 -54.967 120.463 -55.0679 120.16C-55.1688 119.757 -55.4715 119.151 -55.9761 118.344C-56.3797 117.536 -56.7329 116.981 -57.0356 116.679C-57.2375 116.275 -57.4393 115.771 -57.6411 115.165C-57.742 114.459 -57.6916 113.651 -57.4897 112.743C-57.187 111.734 -57.2879 110.725 -57.7925 109.716C-57.3888 109.11 -57.2375 108.454 -57.3384 107.748C-57.4393 107.042 -57.4393 106.487 -57.3384 106.083C-57.2375 105.578 -57.0861 105.074 -56.8843 104.569C-56.5815 104.065 -56.3293 103.56 -56.1274 103.056C-55.9256 102.45 -55.7238 101.895 -55.522 101.391C-55.2192 100.785 -54.967 100.18 -54.7651 99.5742C-54.4624 98.8678 -53.9578 98.1615 -53.2515 97.4551C-52.5451 96.6478 -52.091 95.79 -51.8892 94.8818C-51.0819 94.3773 -50.4259 93.8223 -49.9214 93.2168C-49.3159 92.5104 -48.5086 92.0563 -47.4995 91.8545C-47.4995 91.1481 -47.3481 90.694 -47.0454 90.4922C-46.7427 90.2904 -46.5409 89.9372 -46.4399 89.4326C-44.9263 88.9281 -43.4126 88.3226 -41.8989 87.6162C-40.3853 86.8089 -39.3761 86.4053 -38.8716 86.4053C-38.367 86.3044 -37.4084 86.2035 -35.9956 86.1025L-33.4224 85.7998C-32.4132 86.3044 -31.6564 86.5566 -31.1519 86.5566C-30.6473 86.5566 -30.0923 86.6576 -29.4868 86.8594C-28.7804 86.9603 -27.8722 87.0612 -26.7622 87.1621C-25.6522 87.263 -24.6431 87.6162 -23.7349 88.2217C-22.7257 88.8271 -21.868 89.3317 -21.1616 89.7354C-20.0516 90.6436 -19.3452 91.1481 -19.0425 91.249C-18.7397 91.249 -18.3866 91.4004 -17.9829 91.7031C-17.5793 92.0059 -17.2261 92.46 -16.9233 93.0654C-16.6206 93.6709 -16.1665 93.9736 -15.561 93.9736C-15.2583 95.6891 -14.3501 97.0514 -12.8364 98.0605C-13.0382 98.4642 -13.0382 98.8174 -12.8364 99.1201C-12.5337 99.4229 -12.3319 99.776 -12.231 100.18C-12.0291 100.583 -11.9282 100.987 -11.9282 101.391C-11.8273 101.794 -11.6255 102.349 -11.3228 103.056C-11.02 103.762 -10.7173 104.519 -10.4146 105.326C-10.1118 106.033 -10.0109 106.537 -10.1118 106.84C-10.2127 107.042 -10.2127 107.395 -10.1118 107.899C-9.90999 108.404 -9.70817 109.06 -9.50635 109.867C-8.29541 113.197 -7.94222 116.83 -8.44678 120.766L-8.29541 121.371C-9.00179 121.876 -9.30452 122.632 -9.20361 123.642C-9.1027 124.55 -9.15316 125.508 -9.35498 126.518C-9.45589 127.426 -9.60726 128.233 -9.80908 128.939C-9.90999 129.545 -9.80908 130.1 -9.50635 130.604C-10.1118 131.412 -10.465 132.37 -10.5659 133.48C-10.6668 134.59 -10.8687 135.549 -11.1714 136.356C-11.3732 137.164 -11.575 137.769 -11.7769 138.173C-11.9787 138.576 -12.231 139.182 -12.5337 139.989C-12.7355 140.797 -12.8869 141.705 -12.9878 142.714C-12.9878 143.723 -13.4924 144.379 -14.5015 144.682C-14.4006 145.691 -14.7537 146.599 -15.561 147.406C-15.4601 147.709 -15.561 148.415 -15.8638 149.525C-15.8638 150.635 -16.0656 151.443 -16.4692 151.947C-16.8729 152.452 -17.1756 152.956 -17.3774 153.461C-17.5793 153.865 -17.6297 154.268 -17.5288 154.672C-17.4279 155.076 -17.5288 155.631 -17.8315 156.337C-18.1343 156.942 -18.6893 157.75 -19.4966 158.759C-20.203 159.667 -20.758 160.373 -21.1616 160.878C-21.4644 161.282 -21.8175 161.736 -22.2212 162.24C-22.3221 162.644 -22.4735 162.947 -22.6753 163.148C-22.7762 163.35 -22.8267 163.703 -22.8267 164.208C-23.4321 164.713 -23.7349 165.015 -23.7349 165.116ZM12.2905 141.806L12.4419 139.838C13.3501 138.93 13.8042 138.173 13.8042 137.567C13.8042 136.962 13.9051 136.457 14.1069 136.054C14.3088 135.549 14.561 134.994 14.8638 134.389C15.2674 133.783 15.4692 133.077 15.4692 132.27C16.1756 131.361 16.5793 130.907 16.6802 130.907C16.882 130.806 17.0838 130.352 17.2856 129.545C17.5884 128.637 17.8407 127.88 18.0425 127.274C18.3452 126.568 18.5975 125.811 18.7993 125.004C19.0011 124.197 19.203 123.692 19.4048 123.49C19.6066 123.288 19.9598 122.885 20.4644 122.279C20.5653 121.775 20.6157 121.371 20.6157 121.068C20.6157 120.16 20.8175 119.403 21.2212 118.798C21.6248 118.091 21.8267 117.587 21.8267 117.284C21.8267 116.881 21.9276 116.477 22.1294 116.073C22.3312 115.569 22.5835 115.064 22.8862 114.56C23.189 113.954 23.2899 113.298 23.189 112.592C24.5008 111.785 25.3586 110.826 25.7622 109.716C26.2668 108.505 26.6704 107.748 26.9731 107.445C27.2759 107.143 27.5786 106.789 27.8813 106.386C28.285 105.276 28.5373 104.721 28.6382 104.721C28.7391 104.721 28.84 104.569 28.9409 104.267C29.1427 103.863 29.7482 103.459 30.7573 103.056C31.8674 102.652 32.7251 102.248 33.3306 101.845C33.3306 101.138 33.4315 100.785 33.6333 100.785C33.936 100.785 34.1883 100.684 34.3901 100.482C34.592 100.281 35.0965 100.281 35.9038 100.482C36.7111 100.583 37.367 100.583 37.8716 100.482C38.1743 100.583 38.3761 100.836 38.4771 101.239C38.6789 101.542 38.9312 101.794 39.2339 101.996C41.4539 103.812 42.3117 105.276 41.8071 106.386C42.1099 106.588 42.1603 106.89 41.9585 107.294C41.8576 107.698 41.908 108.152 42.1099 108.656C42.3117 109.161 42.4126 109.564 42.4126 109.867C42.5135 110.069 42.7658 110.574 43.1694 111.381C43.674 112.087 43.5226 112.844 42.7153 113.651C43.0181 114.459 43.1694 115.316 43.1694 116.225C43.1694 117.133 43.2199 117.991 43.3208 118.798L43.6235 120.917C43.6235 121.522 43.5226 121.926 43.3208 122.128C43.2199 122.229 43.0685 122.632 42.8667 123.339L43.3208 125.307C43.4217 126.316 43.3713 127.274 43.1694 128.183C43.0685 129.091 43.3208 129.949 43.9263 130.756C43.5226 131.765 43.3208 132.724 43.3208 133.632L43.9263 136.508C43.9263 137.012 43.7749 137.719 43.4722 138.627C43.2703 139.434 43.1694 140.191 43.1694 140.897C43.2703 141.604 43.0685 142.209 42.564 142.714C43.3713 144.228 43.674 145.691 43.4722 147.104C42.9676 149.525 43.119 151.897 43.9263 154.218C43.9263 154.722 43.8758 155.126 43.7749 155.429C43.7749 155.731 43.8758 156.135 44.0776 156.64C44.2795 157.043 44.3299 157.598 44.229 158.305C44.1281 158.91 44.1785 159.617 44.3804 160.424C44.6831 160.928 44.8345 161.534 44.8345 162.24C44.9354 162.947 45.0868 163.401 45.2886 163.603C45.5913 163.703 45.8436 163.855 46.0454 164.057C47.1554 163.956 48.3159 163.956 49.5269 164.057C50.7378 164.158 51.8478 164.057 52.8569 163.754C53.967 163.35 54.8752 163.048 55.5815 162.846C56.2879 162.543 57.1457 162.543 58.1548 162.846C58.4575 163.451 58.7098 164.309 58.9116 165.419C59.1134 166.428 59.3153 167.286 59.5171 167.992C58.3062 169.001 57.3979 169.556 56.7925 169.657C56.187 169.758 55.632 170.01 55.1274 170.414C54.7238 170.212 54.3706 170.111 54.0679 170.111H53.0083C52.6047 170.111 52.3019 170.212 52.1001 170.414C51.8983 170.515 51.5955 170.616 51.1919 170.717C50.8892 170.818 50.536 170.818 50.1323 170.717C49.7287 170.515 49.3755 170.414 49.0728 170.414C48.8709 170.919 48.4168 171.221 47.7104 171.322C47.105 171.423 46.55 171.575 46.0454 171.776C45.6418 172.685 45.6418 173.593 46.0454 174.501C46.55 175.409 46.6004 176.166 46.1968 176.771C45.894 177.377 45.894 177.73 46.1968 177.831C46.4995 177.932 46.7013 178.184 46.8022 178.588L45.2886 183.432C45.3895 184.643 45.339 185.399 45.1372 185.702C45.0363 186.005 44.9858 186.257 44.9858 186.459L45.4399 189.335C45.5409 189.638 45.5409 189.94 45.4399 190.243C45.339 190.445 45.2886 190.748 45.2886 191.151C45.3895 191.555 45.339 191.959 45.1372 192.362C45.0363 192.766 45.1372 193.371 45.4399 194.179C45.8436 194.986 46.1463 195.642 46.3481 196.146C46.4491 199.779 45.2886 202.201 42.8667 203.412C42.0594 203.412 41.1512 203.261 40.1421 202.958C39.2339 202.756 38.3761 202.605 37.5688 202.504C36.9634 201.798 36.2065 201.041 35.2983 200.233C34.6929 198.619 34.5415 197.156 34.8442 195.844C35.2479 194.633 35.3993 193.422 35.2983 192.211C35.2983 191 35.147 190.344 34.8442 190.243C34.5415 190.142 34.2388 190.041 33.936 189.94C34.3397 189.335 34.6929 188.881 34.9956 188.578C35.0965 185.954 35.147 183.331 35.147 180.707C35.147 177.982 34.8442 175.308 34.2388 172.685C33.3306 172.886 32.4728 173.139 31.6655 173.441C30.9591 173.643 30.0005 173.845 28.7896 174.047C27.6795 174.148 26.8722 174.35 26.3677 174.652C25.8631 174.955 25.2072 174.854 24.3999 174.35C23.8953 174.451 23.5422 174.602 23.3403 174.804C23.1385 175.006 22.6844 175.207 21.978 175.409C21.3726 175.51 20.6662 175.46 19.8589 175.258C19.1525 174.955 18.4461 174.955 17.7397 175.258C17.0334 175.46 16.4784 175.661 16.0747 175.863C15.6711 176.065 15.217 176.216 14.7124 176.317C14.3088 176.418 13.9051 176.469 13.5015 176.469C13.1987 176.368 12.7446 176.368 12.1392 176.469C11.6346 176.57 11.0291 176.771 10.3228 177.074C9.61637 177.377 8.85954 177.427 8.05225 177.226C6.13493 178.033 4.82308 178.285 4.1167 177.982C3.41032 177.579 2.85531 177.326 2.45166 177.226C1.34163 173.795 1.19027 170.465 1.99756 167.235C2.60303 166.327 2.90576 165.772 2.90576 165.57C2.90576 165.268 3.2085 164.107 3.81396 162.089C4.41943 159.97 5.17627 158.557 6.08447 157.851C6.18538 157.043 6.7404 155.782 7.74951 154.066C7.74951 152.755 7.85042 152.048 8.05225 151.947C8.25407 151.745 8.45589 151.493 8.65771 151.19C8.85954 150.888 9.06136 150.333 9.26318 149.525C9.96956 146.498 10.9787 143.925 12.2905 141.806ZM33.7847 155.731C33.2801 154.722 32.9774 153.965 32.8765 153.461C33.2801 151.947 33.5324 149.071 33.6333 144.833C33.8351 140.595 34.1379 137.769 34.5415 136.356C34.3397 135.852 34.1883 135.146 34.0874 134.237C33.9865 133.228 33.8351 132.471 33.6333 131.967C33.5324 131.462 33.5324 130.958 33.6333 130.453C33.7342 129.848 33.6838 129.242 33.4819 128.637C33.1792 128.334 32.7251 128.132 32.1196 128.031C31.5142 127.93 30.9591 128.132 30.4546 128.637C30.0509 129.04 29.8996 129.646 30.0005 130.453C28.6886 130.958 27.73 133.279 27.1245 137.416C26.9227 138.425 26.8722 139.283 26.9731 139.989C26.6704 140.393 26.2668 140.746 25.7622 141.049C25.3586 141.251 25.0054 141.856 24.7026 142.865C24.5008 143.773 24.3494 144.429 24.2485 144.833C24.1476 145.237 24.0972 145.59 24.0972 145.893C24.1981 146.195 24.1981 146.649 24.0972 147.255C23.9963 147.759 23.7944 148.415 23.4917 149.223C23.189 149.929 22.9871 150.635 22.8862 151.342C22.6844 151.645 22.4321 151.846 22.1294 151.947C21.8267 151.947 21.6753 152.149 21.6753 152.553C21.3726 152.956 21.1707 153.511 21.0698 154.218C20.9689 154.924 20.6662 155.479 20.1616 155.883C19.6571 156.186 19.3543 156.539 19.2534 156.942C19.1525 157.346 19.1525 157.649 19.2534 157.851C19.3543 158.052 19.4048 158.406 19.4048 158.91C18.7993 159.818 18.547 160.676 18.6479 161.483C18.4461 161.988 18.0929 162.745 17.5884 163.754C17.0838 164.662 16.8315 165.469 16.8315 166.176C18.1434 166.781 19.0011 167.034 19.4048 166.933C19.9093 166.832 20.313 166.781 20.6157 166.781C21.0194 166.781 21.6753 166.63 22.5835 166.327C24.1981 166.125 25.8127 166.075 27.4272 166.176C29.1427 166.277 30.6564 166.024 31.9683 165.419C32.1701 164.813 32.5233 164.309 33.0278 163.905C33.6333 163.502 33.936 162.997 33.936 162.392C34.0369 161.786 34.0369 161.181 33.936 160.575C33.8351 159.97 33.6838 159.112 33.4819 158.002C33.2801 156.892 33.381 156.135 33.7847 155.731Z" fill="#4B4949"/>
</g>
<rect x="-410" y="1" width="820" height="272" stroke="#C99F5C" stroke-width="2"/>
<defs>
<clipPath id="clip0_593_79">
<rect x="-411" width="822" height="274" fill="white"/>
</clipPath>
</defs>
</svg>
