<svg width="411" height="274" viewBox="0 0 411 274" fill="none" xmlns="http://www.w3.org/2000/svg">
<g clip-path="url(#clip0_593_79)">
<rect width="822" height="274" fill="white"/>
<ellipse cx="410.825" cy="136.518" rx="113.004" ry="106.914" transform="rotate(15 410.825 136.518)" fill="#C99F5C"/>
<path d="M238.292 52.7691L225.648 67.8201L212.784 52.7691L218.841 53.604L203.932 34.0132L211.386 35.8656L197.409 11.7841L256.113 11.7841L240.622 35.8657L248.542 34.9394L233.264 53.604L238.292 52.7691Z" fill="#4B4949"/>
<rect x="232.987" y="13.563" width="11.563" height="11.563" transform="rotate(-180 232.987 13.563)" fill="#4B4949"/>
<path d="M52.821 221.051L65.4654 206L78.3294 221.051L72.2726 220.216L87.1817 239.807L79.7271 237.954L93.7044 262.036L35 262.036L50.4914 237.954L42.571 238.881L57.849 220.216L52.821 221.051Z" fill="#4B4949"/>
<rect x="58.126" y="260.257" width="11.563" height="11.563" fill="#4B4949"/>
<path d="M156.588 52.7691L143.943 67.8201L131.079 52.7691L137.136 53.604L122.227 34.0132L129.682 35.8656L115.704 11.7841L174.409 11.7841L158.917 35.8657L166.838 34.9394L151.56 53.604L156.588 52.7691Z" fill="#C99F5C"/>
<rect x="151.283" y="13.563" width="11.563" height="11.563" transform="rotate(-180 151.283 13.563)" fill="#C99F5C"/>
<path d="M134.525 221.051L147.17 206L160.034 221.051L153.977 220.216L168.886 239.807L161.432 237.954L175.409 262.036L116.704 262.036L132.196 237.954L124.275 238.881L139.553 220.216L134.525 221.051Z" fill="#C99F5C"/>
<rect x="139.83" y="260.257" width="11.563" height="11.563" fill="#C99F5C"/>
<path d="M74.8834 52.7691L62.239 67.8201L49.375 52.7691L55.4318 53.604L40.5227 34.0132L47.9772 35.8656L34 11.7841L92.7044 11.7841L77.2129 35.8657L85.1334 34.9394L69.8554 53.604L74.8834 52.7691Z" fill="#4B4949"/>
<rect x="69.5784" y="13.563" width="11.563" height="11.563" transform="rotate(-180 69.5784 13.563)" fill="#4B4949"/>
<path d="M216.23 221.051L228.874 206L241.738 221.051L235.681 220.216L250.59 239.807L243.136 237.954L257.113 262.036L198.409 262.036L213.9 237.954L205.98 238.881L221.258 220.216L216.23 221.051Z" fill="#4B4949"/>
<rect x="221.535" y="260.257" width="11.563" height="11.563" fill="#4B4949"/>
<path d="M387.265 165.116L385.751 167.084C385.751 167.084 385.55 167.387 385.146 167.992C384.742 168.598 384.339 169.203 383.935 169.809C383.531 170.414 382.926 171.07 382.119 171.776C381.311 172.483 380.706 173.038 380.302 173.441C379.899 173.845 379.798 174.4 380 175.106C380.908 176.015 381.917 176.317 383.027 176.015C384.137 175.611 385.096 175.409 385.903 175.409C386.811 175.409 387.618 175.561 388.325 175.863C389.132 176.065 389.889 176.015 390.595 175.712C391.403 175.308 391.958 175.157 392.26 175.258C392.866 175.46 393.723 175.258 394.833 174.652C395.944 173.946 396.751 173.643 397.255 173.744C397.861 173.744 398.416 173.795 398.92 173.896C399.526 173.996 399.98 173.996 400.283 173.896C400.686 173.694 400.989 173.845 401.191 174.35C401.796 175.561 401.695 177.226 400.888 179.345C400.384 179.547 399.526 179.698 398.315 179.799C397.205 179.799 396.448 179.547 396.044 179.042C395.641 179.244 395.086 179.597 394.379 180.102C393.774 180.505 393.068 180.707 392.26 180.707C391.554 180.707 390.999 180.858 390.595 181.161C390.091 180.757 389.586 180.657 389.082 180.858C388.678 180.959 387.871 181.01 386.66 181.01C385.55 180.909 384.49 181.06 383.481 181.464C382.573 181.767 381.614 181.514 380.605 180.707C378.889 181.514 376.972 182.069 374.853 182.372C372.835 182.574 371.17 182.978 369.858 183.583C368.647 184.088 367.688 184.592 366.982 185.097C366.376 185.5 365.569 185.551 364.56 185.248C364.156 185.349 363.803 185.5 363.5 185.702C363.299 185.904 362.895 185.904 362.29 185.702C361.482 185.097 360.877 184.592 360.473 184.188C360.271 183.684 360.322 183.179 360.625 182.675C361.028 182.17 361.28 181.565 361.381 180.858C361.583 180.152 361.936 179.547 362.441 179.042C362.845 178.235 363.097 177.781 363.198 177.68C363.4 177.579 363.652 177.226 363.955 176.62C364.257 176.015 364.661 175.46 365.166 174.955C365.67 174.451 366.276 173.441 366.982 171.928C367.789 170.414 368.294 169.657 368.496 169.657C368.697 169.657 369.505 168.244 370.917 165.419C372.33 162.493 373.138 160.727 373.339 160.121C373.642 159.516 374.197 158.658 375.004 157.548C375.812 156.438 376.569 154.521 377.275 151.796C377.779 150.585 378.032 149.727 378.032 149.223C378.133 148.617 378.284 147.86 378.486 146.952C378.789 146.044 379.142 145.035 379.545 143.925C380.05 142.714 380.302 141.806 380.302 141.2C380.302 140.494 380.403 139.787 380.605 139.081C380.807 138.375 381.059 137.567 381.362 136.659C381.765 135.65 382.018 134.742 382.119 133.935C382.32 133.026 382.421 132.37 382.421 131.967C382.421 131.462 382.472 131.008 382.573 130.604C382.775 130.201 382.926 129.848 383.027 129.545C383.128 129.242 383.229 128.939 383.33 128.637C383.531 128.334 383.632 128.031 383.632 127.729C383.733 127.426 383.935 126.82 384.238 125.912C384.641 124.903 384.843 123.793 384.843 122.582L384.541 120.766C385.045 119.353 385.297 118.445 385.297 118.041C385.297 117.234 385.449 116.073 385.751 114.56L385.903 112.289C386.105 111.28 386.105 110.624 385.903 110.321C385.701 109.918 385.6 109.413 385.6 108.808C385.6 108.202 385.651 107.496 385.751 106.688C385.953 105.78 385.852 104.923 385.449 104.115C385.146 103.308 385.045 102.854 385.146 102.753C385.247 102.551 385.096 102.147 384.692 101.542C384.288 100.836 384.036 100.281 383.935 99.877C383.834 99.3724 383.683 98.9183 383.481 98.5146C383.279 98.0101 383.027 97.4551 382.724 96.8496C382.421 96.2441 382.169 95.6387 381.967 95.0332C380.555 94.7305 379.344 94.2259 378.334 93.5195C377.325 92.7122 376.114 92.2077 374.702 92.0059C373.793 92.3086 372.835 92.7122 371.826 93.2168C370.917 93.6204 370.06 93.7214 369.252 93.5195C368.95 93.8223 368.647 94.1755 368.344 94.5791C368.042 94.9827 367.537 95.3864 366.831 95.79C366.225 96.0928 365.67 96.6478 365.166 97.4551C364.661 98.2624 364.156 98.9183 363.652 99.4229C363.248 99.9274 362.744 100.382 362.138 100.785C361.533 101.189 360.978 101.643 360.473 102.147C359.767 103.358 359.414 104.216 359.414 104.721C359.414 105.225 359.161 105.578 358.657 105.78C358.758 106.789 358.657 107.445 358.354 107.748C358.152 107.95 358.001 108.202 357.9 108.505C357.799 108.808 357.799 109.11 357.9 109.413C358.001 109.716 357.9 110.372 357.597 111.381C357.395 112.39 357.496 113.399 357.9 114.408C358.304 115.316 358.909 115.922 359.716 116.225C359.615 116.729 359.666 117.082 359.868 117.284C360.17 117.486 360.271 117.789 360.17 118.192C360.978 118.091 361.583 118.091 361.987 118.192C362.491 118.192 363.097 118.041 363.803 117.738C364.51 116.527 364.762 115.316 364.56 114.105C364.459 112.794 364.661 111.431 365.166 110.019C365.973 109.817 366.982 109.918 368.193 110.321C369.404 110.624 370.262 111.028 370.766 111.532C370.766 111.936 370.817 112.289 370.917 112.592C371.119 112.794 371.271 113.197 371.372 113.803C371.472 114.307 371.321 114.913 370.917 115.619C370.615 116.225 370.665 117.082 371.069 118.192C370.564 118.899 370.11 119.605 369.707 120.312C369.404 121.018 369.051 121.573 368.647 121.977C368.344 122.279 367.991 122.431 367.587 122.431C367.285 122.33 367.083 122.481 366.982 122.885C365.771 122.784 365.166 122.834 365.166 123.036C365.166 123.238 365.166 123.44 365.166 123.642C364.56 123.339 364.056 123.288 363.652 123.49C363.248 123.692 362.643 123.743 361.835 123.642C361.028 123.44 360.221 122.986 359.414 122.279C358.606 121.573 357.648 121.169 356.538 121.068C356.235 120.766 356.033 120.463 355.932 120.16C355.831 119.757 355.528 119.151 355.024 118.344C354.62 117.536 354.267 116.981 353.964 116.679C353.763 116.275 353.561 115.771 353.359 115.165C353.258 114.459 353.308 113.651 353.51 112.743C353.813 111.734 353.712 110.725 353.208 109.716C353.611 109.11 353.763 108.454 353.662 107.748C353.561 107.042 353.561 106.487 353.662 106.083C353.763 105.578 353.914 105.074 354.116 104.569C354.418 104.065 354.671 103.56 354.873 103.056C355.074 102.45 355.276 101.895 355.478 101.391C355.781 100.785 356.033 100.18 356.235 99.5742C356.538 98.8678 357.042 98.1615 357.749 97.4551C358.455 96.6478 358.909 95.79 359.111 94.8818C359.918 94.3773 360.574 93.8223 361.079 93.2168C361.684 92.5104 362.491 92.0563 363.5 91.8545C363.5 91.1481 363.652 90.694 363.955 90.4922C364.257 90.2904 364.459 89.9372 364.56 89.4326C366.074 88.9281 367.587 88.3226 369.101 87.6162C370.615 86.8089 371.624 86.4053 372.128 86.4053C372.633 86.3044 373.592 86.2035 375.004 86.1025L377.578 85.7998C378.587 86.3044 379.344 86.5566 379.848 86.5566C380.353 86.5566 380.908 86.6576 381.513 86.8594C382.22 86.9603 383.128 87.0612 384.238 87.1621C385.348 87.263 386.357 87.6162 387.265 88.2217C388.274 88.8271 389.132 89.3317 389.838 89.7354C390.948 90.6436 391.655 91.1481 391.958 91.249C392.26 91.249 392.613 91.4004 393.017 91.7031C393.421 92.0059 393.774 92.46 394.077 93.0654C394.379 93.6709 394.833 93.9736 395.439 93.9736C395.742 95.6891 396.65 97.0514 398.164 98.0605C397.962 98.4642 397.962 98.8174 398.164 99.1201C398.466 99.4229 398.668 99.776 398.769 100.18C398.971 100.583 399.072 100.987 399.072 101.391C399.173 101.794 399.375 102.349 399.677 103.056C399.98 103.762 400.283 104.519 400.585 105.326C400.888 106.033 400.989 106.537 400.888 106.84C400.787 107.042 400.787 107.395 400.888 107.899C401.09 108.404 401.292 109.06 401.494 109.867C402.705 113.197 403.058 116.83 402.553 120.766L402.705 121.371C401.998 121.876 401.695 122.632 401.796 123.642C401.897 124.55 401.847 125.508 401.645 126.518C401.544 127.426 401.393 128.233 401.191 128.939C401.09 129.545 401.191 130.1 401.494 130.604C400.888 131.412 400.535 132.37 400.434 133.48C400.333 134.59 400.131 135.549 399.829 136.356C399.627 137.164 399.425 137.769 399.223 138.173C399.021 138.576 398.769 139.182 398.466 139.989C398.264 140.797 398.113 141.705 398.012 142.714C398.012 143.723 397.508 144.379 396.499 144.682C396.599 145.691 396.246 146.599 395.439 147.406C395.54 147.709 395.439 148.415 395.136 149.525C395.136 150.635 394.934 151.443 394.531 151.947C394.127 152.452 393.824 152.956 393.623 153.461C393.421 153.865 393.37 154.268 393.471 154.672C393.572 155.076 393.471 155.631 393.168 156.337C392.866 156.942 392.311 157.75 391.503 158.759C390.797 159.667 390.242 160.373 389.838 160.878C389.536 161.282 389.182 161.736 388.779 162.24C388.678 162.644 388.527 162.947 388.325 163.148C388.224 163.35 388.173 163.703 388.173 164.208C387.568 164.713 387.265 165.015 387.265 165.116ZM423.291 141.806L423.442 139.838C424.35 138.93 424.804 138.173 424.804 137.567C424.804 136.962 424.905 136.457 425.107 136.054C425.309 135.549 425.561 134.994 425.864 134.389C426.267 133.783 426.469 133.077 426.469 132.27C427.176 131.361 427.579 130.907 427.68 130.907C427.882 130.806 428.084 130.352 428.286 129.545C428.588 128.637 428.841 127.88 429.042 127.274C429.345 126.568 429.597 125.811 429.799 125.004C430.001 124.197 430.203 123.692 430.405 123.49C430.607 123.288 430.96 122.885 431.464 122.279C431.565 121.775 431.616 121.371 431.616 121.068C431.616 120.16 431.818 119.403 432.221 118.798C432.625 118.091 432.827 117.587 432.827 117.284C432.827 116.881 432.928 116.477 433.129 116.073C433.331 115.569 433.583 115.064 433.886 114.56C434.189 113.954 434.29 113.298 434.189 112.592C435.501 111.785 436.359 110.826 436.762 109.716C437.267 108.505 437.67 107.748 437.973 107.445C438.276 107.143 438.579 106.789 438.881 106.386C439.285 105.276 439.537 104.721 439.638 104.721C439.739 104.721 439.84 104.569 439.941 104.267C440.143 103.863 440.748 103.459 441.757 103.056C442.867 102.652 443.725 102.248 444.331 101.845C444.331 101.138 444.431 100.785 444.633 100.785C444.936 100.785 445.188 100.684 445.39 100.482C445.592 100.281 446.097 100.281 446.904 100.482C447.711 100.583 448.367 100.583 448.872 100.482C449.174 100.583 449.376 100.836 449.477 101.239C449.679 101.542 449.931 101.794 450.234 101.996C452.454 103.812 453.312 105.276 452.807 106.386C453.11 106.588 453.16 106.89 452.958 107.294C452.858 107.698 452.908 108.152 453.11 108.656C453.312 109.161 453.413 109.564 453.413 109.867C453.514 110.069 453.766 110.574 454.169 111.381C454.674 112.087 454.523 112.844 453.715 113.651C454.018 114.459 454.169 115.316 454.169 116.225C454.169 117.133 454.22 117.991 454.321 118.798L454.624 120.917C454.624 121.522 454.523 121.926 454.321 122.128C454.22 122.229 454.069 122.632 453.867 123.339L454.321 125.307C454.422 126.316 454.371 127.274 454.169 128.183C454.069 129.091 454.321 129.949 454.926 130.756C454.523 131.765 454.321 132.724 454.321 133.632L454.926 136.508C454.926 137.012 454.775 137.719 454.472 138.627C454.27 139.434 454.169 140.191 454.169 140.897C454.27 141.604 454.069 142.209 453.564 142.714C454.371 144.228 454.674 145.691 454.472 147.104C453.968 149.525 454.119 151.897 454.926 154.218C454.926 154.722 454.876 155.126 454.775 155.429C454.775 155.731 454.876 156.135 455.078 156.64C455.279 157.043 455.33 157.598 455.229 158.305C455.128 158.91 455.179 159.617 455.38 160.424C455.683 160.928 455.834 161.534 455.834 162.24C455.935 162.947 456.087 163.401 456.289 163.603C456.591 163.703 456.844 163.855 457.045 164.057C458.155 163.956 459.316 163.956 460.527 164.057C461.738 164.158 462.848 164.057 463.857 163.754C464.967 163.35 465.875 163.048 466.582 162.846C467.288 162.543 468.146 162.543 469.155 162.846C469.458 163.451 469.71 164.309 469.912 165.419C470.113 166.428 470.315 167.286 470.517 167.992C469.306 169.001 468.398 169.556 467.792 169.657C467.187 169.758 466.632 170.01 466.127 170.414C465.724 170.212 465.371 170.111 465.068 170.111H464.008C463.605 170.111 463.302 170.212 463.1 170.414C462.898 170.515 462.596 170.616 462.192 170.717C461.889 170.818 461.536 170.818 461.132 170.717C460.729 170.515 460.375 170.414 460.073 170.414C459.871 170.919 459.417 171.221 458.71 171.322C458.105 171.423 457.55 171.575 457.045 171.776C456.642 172.685 456.642 173.593 457.045 174.501C457.55 175.409 457.6 176.166 457.197 176.771C456.894 177.377 456.894 177.73 457.197 177.831C457.5 177.932 457.701 178.184 457.802 178.588L456.289 183.432C456.389 184.643 456.339 185.399 456.137 185.702C456.036 186.005 455.986 186.257 455.986 186.459L456.44 189.335C456.541 189.638 456.541 189.94 456.44 190.243C456.339 190.445 456.289 190.748 456.289 191.151C456.389 191.555 456.339 191.959 456.137 192.362C456.036 192.766 456.137 193.371 456.44 194.179C456.844 194.986 457.146 195.642 457.348 196.146C457.449 199.779 456.289 202.201 453.867 203.412C453.059 203.412 452.151 203.261 451.142 202.958C450.234 202.756 449.376 202.605 448.569 202.504C447.963 201.798 447.207 201.041 446.298 200.233C445.693 198.619 445.542 197.156 445.844 195.844C446.248 194.633 446.399 193.422 446.298 192.211C446.298 191 446.147 190.344 445.844 190.243C445.542 190.142 445.239 190.041 444.936 189.94C445.34 189.335 445.693 188.881 445.996 188.578C446.097 185.954 446.147 183.331 446.147 180.707C446.147 177.982 445.844 175.308 445.239 172.685C444.331 172.886 443.473 173.139 442.666 173.441C441.959 173.643 441 173.845 439.79 174.047C438.68 174.148 437.872 174.35 437.368 174.652C436.863 174.955 436.207 174.854 435.4 174.35C434.895 174.451 434.542 174.602 434.34 174.804C434.139 175.006 433.684 175.207 432.978 175.409C432.373 175.51 431.666 175.46 430.859 175.258C430.153 174.955 429.446 174.955 428.74 175.258C428.033 175.46 427.478 175.661 427.075 175.863C426.671 176.065 426.217 176.216 425.712 176.317C425.309 176.418 424.905 176.469 424.501 176.469C424.199 176.368 423.745 176.368 423.139 176.469C422.635 176.57 422.029 176.771 421.323 177.074C420.616 177.377 419.86 177.427 419.052 177.226C417.135 178.033 415.823 178.285 415.117 177.982C414.41 177.579 413.855 177.326 413.452 177.226C412.342 173.795 412.19 170.465 412.998 167.235C413.603 166.327 413.906 165.772 413.906 165.57C413.906 165.268 414.208 164.107 414.814 162.089C415.419 159.97 416.176 158.557 417.084 157.851C417.185 157.043 417.74 155.782 418.75 154.066C418.75 152.755 418.85 152.048 419.052 151.947C419.254 151.745 419.456 151.493 419.658 151.19C419.86 150.888 420.061 150.333 420.263 149.525C420.97 146.498 421.979 143.925 423.291 141.806ZM444.785 155.731C444.28 154.722 443.977 153.965 443.876 153.461C444.28 151.947 444.532 149.071 444.633 144.833C444.835 140.595 445.138 137.769 445.542 136.356C445.34 135.852 445.188 135.146 445.087 134.237C444.986 133.228 444.835 132.471 444.633 131.967C444.532 131.462 444.532 130.958 444.633 130.453C444.734 129.848 444.684 129.242 444.482 128.637C444.179 128.334 443.725 128.132 443.12 128.031C442.514 127.93 441.959 128.132 441.455 128.637C441.051 129.04 440.9 129.646 441 130.453C439.689 130.958 438.73 133.279 438.125 137.416C437.923 138.425 437.872 139.283 437.973 139.989C437.67 140.393 437.267 140.746 436.762 141.049C436.359 141.251 436.005 141.856 435.703 142.865C435.501 143.773 435.349 144.429 435.249 144.833C435.148 145.237 435.097 145.59 435.097 145.893C435.198 146.195 435.198 146.649 435.097 147.255C434.996 147.759 434.794 148.415 434.492 149.223C434.189 149.929 433.987 150.635 433.886 151.342C433.684 151.645 433.432 151.846 433.129 151.947C432.827 151.947 432.675 152.149 432.675 152.553C432.373 152.956 432.171 153.511 432.07 154.218C431.969 154.924 431.666 155.479 431.162 155.883C430.657 156.186 430.354 156.539 430.253 156.942C430.153 157.346 430.153 157.649 430.253 157.851C430.354 158.052 430.405 158.406 430.405 158.91C429.799 159.818 429.547 160.676 429.648 161.483C429.446 161.988 429.093 162.745 428.588 163.754C428.084 164.662 427.832 165.469 427.832 166.176C429.143 166.781 430.001 167.034 430.405 166.933C430.909 166.832 431.313 166.781 431.616 166.781C432.019 166.781 432.675 166.63 433.583 166.327C435.198 166.125 436.813 166.075 438.427 166.176C440.143 166.277 441.656 166.024 442.968 165.419C443.17 164.813 443.523 164.309 444.028 163.905C444.633 163.502 444.936 162.997 444.936 162.392C445.037 161.786 445.037 161.181 444.936 160.575C444.835 159.97 444.684 159.112 444.482 158.002C444.28 156.892 444.381 156.135 444.785 155.731Z" fill="#4B4949"/>
</g>
<rect x="1" y="1" width="820" height="272" stroke="#C99F5C" stroke-width="2"/>
<defs>
<clipPath id="clip0_593_79">
<rect width="822" height="274" fill="white"/>
</clipPath>
</defs>
</svg>
