<svg width="274" height="274" viewBox="0 0 274 274" fill="none" xmlns="http://www.w3.org/2000/svg">
<rect width="548" height="274" fill="#AC0B0E"/>
<path d="M135.296 19.5205H135.12" stroke="white" stroke-width="8" stroke-linecap="round"/>
<path d="M25 18.3195L25.176 18.3195" stroke="white" stroke-width="8" stroke-linecap="round"/>
<path d="M158 17.3595L158.176 17.3595" stroke="white" stroke-width="8" stroke-linecap="round"/>
<path d="M266.296 21.4405L266.12 21.4405" stroke="white" stroke-width="8" stroke-linecap="round"/>
<path d="M113.176 17H113" stroke="white" stroke-width="8" stroke-linecap="round"/>
<path d="M47.1198 20.84L47.2958 20.84" stroke="white" stroke-width="8" stroke-linecap="round"/>
<path d="M180.12 19.88L180.296 19.88" stroke="white" stroke-width="8" stroke-linecap="round"/>
<path d="M244.176 18.92L244 18.92" stroke="white" stroke-width="8" stroke-linecap="round"/>
<path d="M91.176 19.88H91" stroke="white" stroke-width="8" stroke-linecap="round"/>
<path d="M69.1198 17.96L69.2958 17.96" stroke="white" stroke-width="8" stroke-linecap="round"/>
<path d="M202.12 17L202.296 17" stroke="white" stroke-width="8" stroke-linecap="round"/>
<path d="M222.176 21.8L222 21.8" stroke="white" stroke-width="8" stroke-linecap="round"/>
<path d="M21.3745 138.243L21.3745 138.075" stroke="white" stroke-width="8" stroke-linecap="round"/>
<path d="M23.6255 154.281L23.6255 154.449" stroke="white" stroke-width="8" stroke-linecap="round"/>
<path d="M24.6255 34.2807L24.6255 34.449" stroke="white" stroke-width="8" stroke-linecap="round"/>
<path d="M23 237.008L23 236.84" stroke="white" stroke-width="8" stroke-linecap="round"/>
<path d="M24 117.008L24 116.84" stroke="white" stroke-width="8" stroke-linecap="round"/>
<path d="M21 175.516L21 175.684" stroke="white" stroke-width="8" stroke-linecap="round"/>
<path d="M22 55.5158L22 55.6841" stroke="white" stroke-width="8" stroke-linecap="round"/>
<path d="M20 215.888L20 215.72" stroke="white" stroke-width="8" stroke-linecap="round"/>
<path d="M21 95.8883L21 95.7201" stroke="white" stroke-width="8" stroke-linecap="round"/>
<path d="M24 196.636L24 196.804" stroke="white" stroke-width="8" stroke-linecap="round"/>
<path d="M25 76.6358L25 76.804" stroke="white" stroke-width="8" stroke-linecap="round"/>
<path d="M135.296 254.721H135.12" stroke="white" stroke-width="8" stroke-linecap="round"/>
<path d="M25 253.52L25.176 253.52" stroke="white" stroke-width="8" stroke-linecap="round"/>
<path d="M158 252.56L158.176 252.56" stroke="white" stroke-width="8" stroke-linecap="round"/>
<path d="M266.296 256.641L266.12 256.641" stroke="white" stroke-width="8" stroke-linecap="round"/>
<path d="M113.176 252.2H113" stroke="white" stroke-width="8" stroke-linecap="round"/>
<path d="M47.1198 256.04L47.2958 256.04" stroke="white" stroke-width="8" stroke-linecap="round"/>
<path d="M180.12 255.08L180.296 255.08" stroke="white" stroke-width="8" stroke-linecap="round"/>
<path d="M244.176 254.12L244 254.12" stroke="white" stroke-width="8" stroke-linecap="round"/>
<path d="M91.176 255.08H91" stroke="white" stroke-width="8" stroke-linecap="round"/>
<path d="M69.1198 253.16L69.2958 253.16" stroke="white" stroke-width="8" stroke-linecap="round"/>
<path d="M202.12 252.2L202.296 252.2" stroke="white" stroke-width="8" stroke-linecap="round"/>
<path d="M222.176 257L222 257" stroke="white" stroke-width="8" stroke-linecap="round"/>
<path d="M258.228 117.436L257.774 120.16C257.774 120.665 257.774 121.119 257.774 121.522C257.875 121.825 257.875 122.33 257.774 123.036C257.673 123.642 257.522 124.398 257.32 125.307C257.118 126.114 257.168 127.073 257.471 128.183C257.875 128.586 257.925 129.898 257.623 132.118C257.32 134.338 257.723 137.012 258.833 140.141C258.329 141.553 258.178 143.118 258.379 144.833C258.581 146.448 258.632 147.81 258.531 148.92C258.531 150.03 258.329 151.392 257.925 153.007C257.623 154.521 257.572 156.387 257.774 158.607C257.976 160.827 258.077 162.997 258.077 165.116C258.077 167.235 257.925 168.648 257.623 169.354C257.32 170.061 257.068 170.717 256.866 171.322C256.664 171.928 256.513 172.634 256.412 173.441C256.311 174.249 256.109 175.359 255.806 176.771C255.604 178.083 255.503 179.446 255.503 180.858C254.898 181.868 254.04 182.624 252.93 183.129C251.82 183.533 250.761 184.088 249.751 184.794C248.843 184.592 248.086 184.542 247.481 184.643C246.976 184.743 246.32 184.693 245.513 184.491C245.311 184.289 245.059 183.936 244.756 183.432C244.454 182.826 244.1 182.322 243.697 181.918C243.394 181.514 243.192 181.111 243.091 180.707C242.99 180.202 242.99 179.748 243.091 179.345C243.192 178.941 243.243 178.336 243.243 177.528C243.344 176.62 243.293 175.46 243.091 174.047C242.889 172.634 243.041 171.524 243.545 170.717C243.243 170.212 243.142 169.657 243.243 169.052C243.344 168.345 243.394 167.689 243.394 167.084L242.789 164.511C242.889 163.703 242.789 162.745 242.486 161.635L242.789 159.516C242.789 156.186 242.435 154.016 241.729 153.007C241.931 152.704 242.032 152.3 242.032 151.796C242.032 151.291 242.183 150.938 242.486 150.736C242.587 150.232 242.435 149.879 242.032 149.677C241.729 149.475 241.88 148.466 242.486 146.649C241.981 143.622 241.729 141.099 241.729 139.081L242.334 137.113C242.334 136.811 242.234 136.508 242.032 136.205C241.931 135.801 242.032 134.944 242.334 133.632C242.738 132.219 242.889 130.604 242.789 128.788C242.789 126.972 242.789 125.256 242.789 123.642L243.394 121.674L243.091 119.555C243.091 117.94 242.839 116.729 242.334 115.922C241.628 115.922 241.073 116.174 240.669 116.679C240.064 117.688 239.458 118.192 238.853 118.192C238.147 119.302 237.642 119.958 237.339 120.16C237.138 120.261 236.986 120.412 236.885 120.614C232.042 121.119 228.711 121.926 226.895 123.036C226.39 122.733 225.785 122.683 225.079 122.885C224.473 122.986 223.868 123.036 223.262 123.036C221.648 122.532 220.487 122.279 219.781 122.279C219.175 122.279 218.469 122.178 217.662 121.977C217.359 121.068 217.359 120.009 217.662 118.798C218.166 118.394 218.62 118.192 219.024 118.192C219.428 118.091 219.983 117.89 220.689 117.587C221.496 117.284 222.051 117.234 222.354 117.436C222.758 117.536 223.615 117.486 224.927 117.284C226.239 116.981 227.803 116.527 229.62 115.922C231.537 115.215 232.849 114.761 233.555 114.56C234.766 114.156 235.775 113.55 236.583 112.743C237.693 112.34 238.348 112.188 238.55 112.289C238.853 111.785 239.257 111.381 239.761 111.078C240.266 110.674 240.468 109.968 240.367 108.959C240.871 108.454 241.376 108.051 241.88 107.748C242.385 107.445 242.587 106.89 242.486 106.083C242.99 106.083 243.545 105.78 244.151 105.175C244.857 104.468 245.311 103.913 245.513 103.51C245.715 103.005 245.765 102.602 245.665 102.299C245.564 101.895 245.614 101.492 245.816 101.088C246.421 100.684 246.775 100.281 246.875 99.877C247.077 99.3724 247.431 99.0192 247.935 98.8174C248.742 99.0192 249.55 99.0192 250.357 98.8174C251.164 98.5146 251.921 98.4137 252.627 98.5146C254.343 99.221 255.302 99.8265 255.503 100.331C255.806 100.735 256.159 101.542 256.563 102.753C257.168 103.762 257.421 104.519 257.32 105.023C257.32 105.427 257.37 105.881 257.471 106.386C257.572 106.789 257.723 107.193 257.925 107.597C258.127 107.899 258.278 108.454 258.379 109.262C258.581 109.968 258.581 111.33 258.379 113.349C258.178 115.266 258.127 116.376 258.228 116.679C258.329 116.981 258.329 117.234 258.228 117.436ZM311.963 176.015L310.147 176.317C309.542 176.721 309.087 177.276 308.785 177.982C307.876 178.083 307.019 178.437 306.211 179.042C305.505 179.547 304.698 180.051 303.79 180.556C302.982 181.06 302.225 181.464 301.519 181.767C300.813 182.069 300.258 182.322 299.854 182.523C299.45 182.725 298.996 182.927 298.492 183.129C298.088 183.23 297.533 183.28 296.827 183.28C296.221 183.179 295.565 183.179 294.859 183.28C294.253 183.381 293.648 183.533 293.042 183.734C292.437 183.936 291.68 183.987 290.772 183.886C289.965 183.785 289.056 183.381 288.047 182.675C287.038 181.968 285.928 181.615 284.717 181.615C284.314 180.808 283.658 180.303 282.75 180.102C281.942 179.9 281.135 179.698 280.328 179.496C280.126 178.992 279.924 178.437 279.722 177.831C279.52 177.125 279.268 176.519 278.965 176.015C278.36 173.996 278.259 172.281 278.663 170.868C279.066 169.455 279.773 168.547 280.782 168.144C281.892 168.749 282.548 169.809 282.75 171.322C282.951 172.735 283.153 174.198 283.355 175.712C283.86 175.611 284.263 175.51 284.566 175.409C284.97 175.308 285.424 175.308 285.928 175.409C288.148 177.326 289.965 178.285 291.377 178.285L293.951 177.528C295.969 177.528 298.492 175.813 301.519 172.382C303.941 170.565 305.303 169.102 305.606 167.992C305.707 167.589 306.01 167.084 306.514 166.479C307.019 165.873 307.221 165.52 307.12 165.419C307.12 165.217 307.17 164.965 307.271 164.662C307.473 164.258 307.725 163.855 308.028 163.451C308.331 162.947 308.583 162.392 308.785 161.786C309.087 161.483 309.289 161.08 309.39 160.575C309.592 159.97 309.895 159.263 310.298 158.456C310.702 157.649 311.055 156.438 311.358 154.823C311.762 153.108 312.064 151.897 312.266 151.19C312.468 150.383 312.619 149.677 312.72 149.071C312.821 148.365 312.821 147.759 312.72 147.255C312.72 146.649 312.771 145.59 312.872 144.076C312.972 142.462 312.771 140.746 312.266 138.93C311.56 138.829 311.055 138.98 310.752 139.384C310.551 139.787 310.147 139.989 309.542 139.989C309.239 141.604 308.532 142.815 307.422 143.622C306.312 144.328 305.303 145.085 304.395 145.893C303.689 145.691 302.982 145.741 302.276 146.044C301.67 146.347 301.115 146.296 300.611 145.893C300.106 145.893 299.804 146.044 299.703 146.347C299.602 146.549 299.349 146.7 298.946 146.801C297.331 146.296 296.019 146.498 295.01 147.406C293.9 146.902 292.639 146.851 291.226 147.255C289.914 147.659 288.653 147.659 287.442 147.255C286.231 146.851 285.424 146.649 285.02 146.649C284.616 146.549 284.213 146.397 283.809 146.195C283.506 145.993 283.153 145.741 282.75 145.438C282.447 145.035 281.892 144.631 281.084 144.228C280.277 143.824 279.773 143.622 279.571 143.622C279.369 143.521 279.167 143.42 278.965 143.319C278.461 142.209 278.108 141.705 277.906 141.806C277.805 141.806 277.653 141.705 277.452 141.503C277.452 140.797 277.149 139.989 276.543 139.081C275.938 138.173 275.686 137.214 275.787 136.205C275.484 135.801 275.232 135.398 275.03 134.994C274.929 134.59 274.677 134.288 274.273 134.086C274.576 133.581 274.323 132.27 273.516 130.15C273.415 129.646 273.466 129.242 273.667 128.939C273.869 128.536 274.021 128.082 274.122 127.577L273.819 124.701C273.819 124.197 273.92 123.642 274.122 123.036C274.424 122.431 274.424 121.876 274.122 121.371C274.626 121.472 274.878 121.27 274.878 120.766C274.878 120.261 275.08 119.908 275.484 119.706C275.585 117.789 275.988 116.326 276.695 115.316C277.502 114.206 278.007 112.844 278.208 111.229C278.713 110.624 279.218 109.918 279.722 109.11C280.227 108.202 280.832 107.395 281.539 106.688C282.245 105.982 282.649 105.427 282.75 105.023C282.951 104.62 283.153 104.317 283.355 104.115C284.364 103.51 285.171 102.904 285.777 102.299C286.382 101.693 287.291 101.239 288.501 100.937C289.309 100.432 289.864 100.23 290.167 100.331C290.57 100.331 290.974 100.23 291.377 100.028C291.781 99.8265 292.185 99.4733 292.588 98.9688C293.093 98.3633 293.648 97.9596 294.253 97.7578C294.859 97.4551 296.019 97.4046 297.735 97.6064C299.45 97.7074 300.611 97.7074 301.216 97.6064C301.822 97.5055 302.478 97.556 303.184 97.7578C303.991 97.9596 304.647 98.4137 305.152 99.1201C305.656 99.7256 306.464 100.23 307.574 100.634C307.876 101.946 308.532 102.803 309.542 103.207C310.551 103.611 311.459 104.216 312.266 105.023C313.376 105.225 314.032 105.629 314.234 106.234C314.436 106.84 314.789 107.042 315.293 106.84C315.798 108.656 316.504 109.766 317.413 110.17C317.614 111.986 318.119 113.399 318.926 114.408C319.734 115.417 320.188 115.922 320.289 115.922C320.389 115.922 320.541 115.972 320.743 116.073C321.247 117.486 321.6 118.546 321.802 119.252C322.004 120.665 322.458 122.077 323.165 123.49C323.871 124.903 324.275 125.963 324.375 126.669C324.577 127.375 324.83 128.031 325.132 128.637C325.435 129.141 325.536 129.494 325.435 129.696C325.435 129.797 325.586 130.302 325.889 131.21C326.192 132.017 326.293 132.825 326.192 133.632C326.192 134.439 326.192 135.297 326.192 136.205L326.797 140.897C326.797 141.301 326.696 141.755 326.495 142.26C326.394 142.663 326.242 143.42 326.041 144.53C325.94 145.64 325.889 147.204 325.889 149.223C325.99 151.14 325.586 152.755 324.678 154.066V156.488C323.568 158.305 322.862 159.97 322.559 161.483C322.055 161.685 321.701 162.089 321.5 162.694C321.399 163.199 320.995 163.502 320.289 163.603C320.188 164.612 319.734 165.57 318.926 166.479C318.22 167.387 317.766 168.043 317.564 168.446C317.362 168.749 317.059 168.9 316.656 168.9C316.555 169.405 316.403 169.809 316.202 170.111C316 170.313 315.748 170.666 315.445 171.171C315.142 171.575 314.738 172.029 314.234 172.533C313.83 173.038 313.427 173.593 313.023 174.198C312.72 174.703 312.518 175.106 312.417 175.409C312.317 175.611 312.165 175.813 311.963 176.015ZM309.844 128.183L309.239 125.609C309.239 125.206 309.239 124.802 309.239 124.398C309.34 123.995 309.239 123.339 308.936 122.431C308.633 121.522 308.331 120.463 308.028 119.252C307.725 117.94 307.372 116.981 306.968 116.376C306.666 115.67 306.514 114.913 306.514 114.105C305.808 113.096 305.354 112.592 305.152 112.592C304.95 112.491 304.748 112.289 304.546 111.986C304.345 111.583 304.193 111.129 304.092 110.624C304.092 110.019 303.941 109.514 303.638 109.11C302.73 108.404 302.024 107.849 301.519 107.445C301.014 107.042 300.611 106.739 300.308 106.537C298.492 105.528 296.171 105.528 293.345 106.537C293.143 107.546 292.79 108.555 292.286 109.564C289.965 114.206 288.804 117.688 288.804 120.009L287.896 126.82L288.501 130.604C288.602 131.412 288.552 132.169 288.35 132.875C288.249 133.581 288.249 134.187 288.35 134.691C288.552 135.196 288.804 135.751 289.107 136.356C289.511 136.861 289.763 137.416 289.864 138.021C290.671 138.627 291.327 139.081 291.832 139.384C292.336 139.586 292.689 139.787 292.891 139.989C293.194 140.09 293.9 140.242 295.01 140.443C296.221 140.544 297.533 140.393 298.946 139.989C300.359 139.586 301.67 139.283 302.881 139.081C303.184 138.576 303.588 138.173 304.092 137.87C304.698 137.466 305.253 137.012 305.757 136.508C306.161 135.701 306.918 134.439 308.028 132.724C309.239 131.008 309.844 129.494 309.844 128.183Z" fill="white"/>
</svg>
