<svg width="137" height="274" viewBox="0 0 137 274" fill="none" xmlns="http://www.w3.org/2000/svg">
<g clip-path="url(#clip0_593_3)">
<rect width="274" height="274" fill="white"/>
<line x1="-289.354" y1="340.646" x2="333.646" y2="-282.354" stroke="#C99F5C"/>
<line x1="-262.354" y1="364.646" x2="360.646" y2="-258.354" stroke="#C99F5C"/>
<line x1="-235.354" y1="388.646" x2="387.646" y2="-234.354" stroke="#C99F5C"/>
<line x1="-208.354" y1="412.646" x2="414.646" y2="-210.354" stroke="#C99F5C"/>
<line x1="-181.354" y1="436.646" x2="441.646" y2="-186.354" stroke="#C99F5C"/>
<line x1="-154.354" y1="460.646" x2="468.646" y2="-162.354" stroke="#C99F5C"/>
<line x1="-127.354" y1="484.646" x2="495.646" y2="-138.354" stroke="#C99F5C"/>
<line x1="-100.354" y1="508.646" x2="522.646" y2="-114.354" stroke="#C99F5C"/>
<line x1="-73.3536" y1="532.646" x2="549.646" y2="-90.3535" stroke="#C99F5C"/>
<line x1="-46.3536" y1="556.646" x2="576.646" y2="-66.3535" stroke="#C99F5C"/>
<ellipse cx="137.049" cy="136.73" rx="84.9659" ry="99.5315" transform="rotate(43.0926 137.049 136.73)" fill="#C99F5C"/>
<path d="M111.903 165.116L110.389 167.084C110.389 167.084 110.187 167.387 109.784 167.992C109.38 168.598 108.976 169.203 108.573 169.809C108.169 170.414 107.564 171.07 106.756 171.776C105.949 172.483 105.344 173.038 104.94 173.441C104.536 173.845 104.435 174.4 104.637 175.106C105.545 176.015 106.555 176.317 107.665 176.015C108.775 175.611 109.733 175.409 110.541 175.409C111.449 175.409 112.256 175.561 112.962 175.863C113.77 176.065 114.527 176.015 115.233 175.712C116.04 175.308 116.595 175.157 116.898 175.258C117.503 175.46 118.361 175.258 119.471 174.652C120.581 173.946 121.389 173.643 121.893 173.744C122.499 173.744 123.054 173.795 123.558 173.896C124.164 173.996 124.618 173.996 124.92 173.896C125.324 173.694 125.627 173.845 125.829 174.35C126.434 175.561 126.333 177.226 125.526 179.345C125.021 179.547 124.164 179.698 122.953 179.799C121.843 179.799 121.086 179.547 120.682 179.042C120.278 179.244 119.723 179.597 119.017 180.102C118.412 180.505 117.705 180.707 116.898 180.707C116.192 180.707 115.637 180.858 115.233 181.161C114.728 180.757 114.224 180.657 113.719 180.858C113.316 180.959 112.508 181.01 111.297 181.01C110.187 180.909 109.128 181.06 108.119 181.464C107.21 181.767 106.252 181.514 105.243 180.707C103.527 181.514 101.61 182.069 99.4907 182.372C97.4725 182.574 95.8075 182.978 94.4956 183.583C93.2847 184.088 92.326 184.592 91.6196 185.097C91.0142 185.5 90.2069 185.551 89.1978 185.248C88.7941 185.349 88.4409 185.5 88.1382 185.702C87.9364 185.904 87.5327 185.904 86.9272 185.702C86.12 185.097 85.5145 184.592 85.1108 184.188C84.909 183.684 84.9595 183.179 85.2622 182.675C85.6659 182.17 85.9181 181.565 86.019 180.858C86.2209 180.152 86.5741 179.547 87.0786 179.042C87.4823 178.235 87.7345 177.781 87.8354 177.68C88.0373 177.579 88.2896 177.226 88.5923 176.62C88.895 176.015 89.2987 175.46 89.8032 174.955C90.3078 174.451 90.9132 173.441 91.6196 171.928C92.4269 170.414 92.9315 169.657 93.1333 169.657C93.3351 169.657 94.1424 168.244 95.5552 165.419C96.9679 162.493 97.7752 160.727 97.9771 160.121C98.2798 159.516 98.8348 158.658 99.6421 157.548C100.449 156.438 101.206 154.521 101.913 151.796C102.417 150.585 102.669 149.727 102.669 149.223C102.77 148.617 102.922 147.86 103.124 146.952C103.426 146.044 103.779 145.035 104.183 143.925C104.688 142.714 104.94 141.806 104.94 141.2C104.94 140.494 105.041 139.787 105.243 139.081C105.444 138.375 105.697 137.567 106 136.659C106.403 135.65 106.655 134.742 106.756 133.935C106.958 133.026 107.059 132.37 107.059 131.967C107.059 131.462 107.11 131.008 107.21 130.604C107.412 130.201 107.564 129.848 107.665 129.545C107.765 129.242 107.866 128.939 107.967 128.637C108.169 128.334 108.27 128.031 108.27 127.729C108.371 127.426 108.573 126.82 108.875 125.912C109.279 124.903 109.481 123.793 109.481 122.582L109.178 120.766C109.683 119.353 109.935 118.445 109.935 118.041C109.935 117.234 110.086 116.073 110.389 114.56L110.541 112.289C110.742 111.28 110.742 110.624 110.541 110.321C110.339 109.918 110.238 109.413 110.238 108.808C110.238 108.202 110.288 107.496 110.389 106.688C110.591 105.78 110.49 104.923 110.086 104.115C109.784 103.308 109.683 102.854 109.784 102.753C109.885 102.551 109.733 102.147 109.33 101.542C108.926 100.836 108.674 100.281 108.573 99.877C108.472 99.3724 108.32 98.9183 108.119 98.5146C107.917 98.0101 107.665 97.4551 107.362 96.8496C107.059 96.2441 106.807 95.6387 106.605 95.0332C105.192 94.7305 103.981 94.2259 102.972 93.5195C101.963 92.7122 100.752 92.2077 99.3394 92.0059C98.4312 92.3086 97.4725 92.7122 96.4634 93.2168C95.5552 93.6204 94.6974 93.7214 93.8901 93.5195C93.5874 93.8223 93.2847 94.1755 92.9819 94.5791C92.6792 94.9827 92.1746 95.3864 91.4683 95.79C90.8628 96.0928 90.3078 96.6478 89.8032 97.4551C89.2987 98.2624 88.7941 98.9183 88.2896 99.4229C87.8859 99.9274 87.3813 100.382 86.7759 100.785C86.1704 101.189 85.6154 101.643 85.1108 102.147C84.4045 103.358 84.0513 104.216 84.0513 104.721C84.0513 105.225 83.799 105.578 83.2944 105.78C83.3953 106.789 83.2944 107.445 82.9917 107.748C82.7899 107.95 82.6385 108.202 82.5376 108.505C82.4367 108.808 82.4367 109.11 82.5376 109.413C82.6385 109.716 82.5376 110.372 82.2349 111.381C82.033 112.39 82.134 113.399 82.5376 114.408C82.9412 115.316 83.5467 115.922 84.354 116.225C84.2531 116.729 84.3035 117.082 84.5054 117.284C84.8081 117.486 84.909 117.789 84.8081 118.192C85.6154 118.091 86.2209 118.091 86.6245 118.192C87.1291 118.192 87.7345 118.041 88.4409 117.738C89.1473 116.527 89.3996 115.316 89.1978 114.105C89.0968 112.794 89.2987 111.431 89.8032 110.019C90.6105 109.817 91.6196 109.918 92.8306 110.321C94.0415 110.624 94.8993 111.028 95.4038 111.532C95.4038 111.936 95.4543 112.289 95.5552 112.592C95.757 112.794 95.9084 113.197 96.0093 113.803C96.1102 114.307 95.9588 114.913 95.5552 115.619C95.2524 116.225 95.3029 117.082 95.7065 118.192C95.202 118.899 94.7479 119.605 94.3442 120.312C94.0415 121.018 93.6883 121.573 93.2847 121.977C92.9819 122.279 92.6287 122.431 92.2251 122.431C91.9224 122.33 91.7205 122.481 91.6196 122.885C90.4087 122.784 89.8032 122.834 89.8032 123.036C89.8032 123.238 89.8032 123.44 89.8032 123.642C89.1978 123.339 88.6932 123.288 88.2896 123.49C87.8859 123.692 87.2804 123.743 86.4731 123.642C85.6659 123.44 84.8586 122.986 84.0513 122.279C83.244 121.573 82.2853 121.169 81.1753 121.068C80.8726 120.766 80.6707 120.463 80.5698 120.16C80.4689 119.757 80.1662 119.151 79.6616 118.344C79.258 117.536 78.9048 116.981 78.6021 116.679C78.4002 116.275 78.1984 115.771 77.9966 115.165C77.8957 114.459 77.9461 113.651 78.1479 112.743C78.4507 111.734 78.3498 110.725 77.8452 109.716C78.2489 109.11 78.4002 108.454 78.2993 107.748C78.1984 107.042 78.1984 106.487 78.2993 106.083C78.4002 105.578 78.5516 105.074 78.7534 104.569C79.0562 104.065 79.3084 103.56 79.5103 103.056C79.7121 102.45 79.9139 101.895 80.1157 101.391C80.4185 100.785 80.6707 100.18 80.8726 99.5742C81.1753 98.8678 81.6799 98.1615 82.3862 97.4551C83.0926 96.6478 83.5467 95.79 83.7485 94.8818C84.5558 94.3773 85.2118 93.8223 85.7163 93.2168C86.3218 92.5104 87.1291 92.0563 88.1382 91.8545C88.1382 91.1481 88.2896 90.694 88.5923 90.4922C88.895 90.2904 89.0968 89.9372 89.1978 89.4326C90.7114 88.9281 92.2251 88.3226 93.7388 87.6162C95.2524 86.8089 96.2616 86.4053 96.7661 86.4053C97.2707 86.3044 98.2293 86.2035 99.6421 86.1025L102.215 85.7998C103.224 86.3044 103.981 86.5566 104.486 86.5566C104.99 86.5566 105.545 86.6576 106.151 86.8594C106.857 86.9603 107.765 87.0612 108.875 87.1621C109.986 87.263 110.995 87.6162 111.903 88.2217C112.912 88.8271 113.77 89.3317 114.476 89.7354C115.586 90.6436 116.292 91.1481 116.595 91.249C116.898 91.249 117.251 91.4004 117.655 91.7031C118.058 92.0059 118.412 92.46 118.714 93.0654C119.017 93.6709 119.471 93.9736 120.077 93.9736C120.379 95.6891 121.288 97.0514 122.801 98.0605C122.599 98.4642 122.599 98.8174 122.801 99.1201C123.104 99.4229 123.306 99.776 123.407 100.18C123.609 100.583 123.709 100.987 123.709 101.391C123.81 101.794 124.012 102.349 124.315 103.056C124.618 103.762 124.92 104.519 125.223 105.326C125.526 106.033 125.627 106.537 125.526 106.84C125.425 107.042 125.425 107.395 125.526 107.899C125.728 108.404 125.93 109.06 126.131 109.867C127.342 113.197 127.695 116.83 127.191 120.766L127.342 121.371C126.636 121.876 126.333 122.632 126.434 123.642C126.535 124.55 126.485 125.508 126.283 126.518C126.182 127.426 126.03 128.233 125.829 128.939C125.728 129.545 125.829 130.1 126.131 130.604C125.526 131.412 125.173 132.37 125.072 133.48C124.971 134.59 124.769 135.549 124.466 136.356C124.264 137.164 124.063 137.769 123.861 138.173C123.659 138.576 123.407 139.182 123.104 139.989C122.902 140.797 122.751 141.705 122.65 142.714C122.65 143.723 122.145 144.379 121.136 144.682C121.237 145.691 120.884 146.599 120.077 147.406C120.178 147.709 120.077 148.415 119.774 149.525C119.774 150.635 119.572 151.443 119.168 151.947C118.765 152.452 118.462 152.956 118.26 153.461C118.058 153.865 118.008 154.268 118.109 154.672C118.21 155.076 118.109 155.631 117.806 156.337C117.503 156.942 116.948 157.75 116.141 158.759C115.435 159.667 114.88 160.373 114.476 160.878C114.173 161.282 113.82 161.736 113.417 162.24C113.316 162.644 113.164 162.947 112.962 163.148C112.861 163.35 112.811 163.703 112.811 164.208C112.206 164.713 111.903 165.015 111.903 165.116ZM160.643 106.386L166.546 105.023C167.455 105.023 168.262 105.175 168.968 105.478C169.776 105.78 170.532 105.982 171.239 106.083C171.945 106.184 172.601 106.234 173.207 106.234C173.812 106.133 174.417 106.133 175.023 106.234C175.729 106.335 176.385 106.537 176.991 106.84C177.596 107.042 178.303 106.991 179.11 106.688C179.312 107.092 179.564 107.243 179.867 107.143C180.472 106.941 181.33 107.395 182.44 108.505C183.247 109.009 183.651 109.363 183.651 109.564C183.752 109.665 183.954 109.867 184.256 110.17C184.66 110.473 185.165 110.826 185.77 111.229C186.375 111.532 186.981 111.936 187.586 112.44C187.889 113.55 188.696 114.913 190.008 116.527C190.21 117.032 190.412 117.94 190.614 119.252C190.917 120.564 191.32 121.825 191.825 123.036C192.43 124.146 192.733 125.155 192.733 126.063C192.733 126.871 192.783 127.527 192.884 128.031L193.187 131.059L192.582 132.875C192.582 132.976 192.582 133.228 192.582 133.632C192.682 133.935 192.682 134.338 192.582 134.843C192.481 135.246 192.329 135.751 192.127 136.356C191.926 136.962 191.926 137.618 192.127 138.324C191.623 138.627 191.32 139.132 191.219 139.838C191.219 140.443 190.967 140.897 190.462 141.2C189.655 142.411 189.201 143.168 189.1 143.471C188.999 143.773 188.848 144.127 188.646 144.53L187.889 146.044C187.586 146.649 186.981 147.104 186.073 147.406C185.265 147.608 184.71 147.911 184.408 148.314C184.206 148.617 184.004 148.92 183.802 149.223C182.692 149.727 181.885 150.232 181.38 150.736C180.876 151.241 180.371 151.594 179.867 151.796C179.463 151.998 178.908 152.2 178.202 152.401C177.495 152.502 176.839 152.654 176.234 152.855C175.628 153.057 174.771 153.209 173.661 153.31C172.652 153.31 171.743 153.461 170.936 153.764C170.129 153.965 169.725 154.117 169.725 154.218C169.725 154.319 169.069 154.521 167.757 154.823C166.445 155.126 165.285 155.277 164.276 155.277L160.946 154.521C160.34 154.42 159.684 154.47 158.978 154.672C158.373 154.874 157.767 154.874 157.162 154.672C156.556 154.369 156.052 154.016 155.648 153.612C155.244 153.108 154.588 152.855 153.68 152.855C153.478 152.452 153.176 152.149 152.772 151.947C152.469 151.745 152.066 151.493 151.561 151.19C151.056 150.888 150.451 150.585 149.745 150.282C149.24 149.273 148.534 148.516 147.625 148.012C146.818 147.406 146.314 146.498 146.112 145.287C144.295 144.177 143.135 142.663 142.63 140.746C142.529 140.443 142.479 140.141 142.479 139.838C142.58 139.535 142.479 139.132 142.176 138.627C141.974 138.122 141.672 137.567 141.268 136.962C140.663 135.852 140.562 134.389 140.965 132.572C140.965 131.563 141.016 131.008 141.117 130.907C141.319 130.705 141.419 130.453 141.419 130.15C141.52 129.747 141.47 129.293 141.268 128.788C141.167 128.284 141.167 127.628 141.268 126.82C141.47 126.013 141.874 125.206 142.479 124.398C143.084 123.591 143.337 122.733 143.236 121.825C143.639 121.623 143.892 121.321 143.993 120.917C144.194 120.412 144.497 119.857 144.901 119.252C145.305 118.546 145.456 118.091 145.355 117.89C145.355 117.688 145.91 116.981 147.02 115.771C148.13 114.459 148.736 113.349 148.836 112.44C149.644 112.44 150.148 112.239 150.35 111.835C150.653 111.33 150.956 110.876 151.258 110.473C151.662 110.473 151.965 110.372 152.167 110.17C152.469 109.968 152.822 109.766 153.226 109.564C153.63 109.363 154.033 109.161 154.437 108.959C154.841 108.656 155.345 108.454 155.951 108.354C156.657 108.152 157.263 107.849 157.767 107.445C158.877 106.739 159.836 106.386 160.643 106.386ZM185.013 127.274L183.5 124.853C183.5 124.247 183.399 123.692 183.197 123.188C182.995 122.683 182.844 122.229 182.743 121.825C182.137 120.917 181.834 120.312 181.834 120.009C181.834 119.605 181.734 119.252 181.532 118.949C181.431 118.546 181.279 118.091 181.078 117.587C180.876 117.082 180.573 116.679 180.169 116.376C179.867 115.972 179.514 115.619 179.11 115.316C178.706 114.913 178.252 114.459 177.748 113.954C177.142 114.055 176.638 113.954 176.234 113.651C175.83 113.349 175.376 113.147 174.872 113.046C174.367 112.844 173.812 112.743 173.207 112.743C172.702 112.743 172.147 112.693 171.542 112.592C170.734 111.986 169.826 111.583 168.817 111.381L166.698 110.775C165.588 110.473 163.216 111.381 159.583 113.5C159.382 114.509 159.079 115.468 158.675 116.376C158.373 117.183 158.322 118.293 158.524 119.706C157.818 121.018 157.666 122.077 158.07 122.885C157.565 123.49 157.263 124.146 157.162 124.853C157.061 125.458 156.808 126.618 156.405 128.334C156.001 130.049 155.951 132.017 156.253 134.237C156.657 136.356 156.909 138.072 157.01 139.384C157.414 139.586 157.717 139.939 157.918 140.443C158.12 140.948 158.423 141.604 158.827 142.411C159.23 143.118 159.432 143.723 159.432 144.228C160.239 144.833 160.946 145.539 161.551 146.347C162.459 146.549 163.267 146.801 163.973 147.104C164.78 147.406 165.588 147.709 166.395 148.012C167.202 147.608 167.909 147.457 168.514 147.558C169.12 147.659 169.725 147.608 170.331 147.406C170.936 147.204 171.441 146.952 171.844 146.649C172.349 146.347 172.803 146.145 173.207 146.044C173.711 145.842 174.165 145.792 174.569 145.893C175.073 145.893 175.477 145.792 175.78 145.59C176.183 145.388 176.486 145.186 176.688 144.984C176.89 144.682 177.243 144.328 177.748 143.925C178.252 143.521 178.555 143.37 178.656 143.471C178.757 143.471 178.958 143.319 179.261 143.017C179.665 142.714 180.018 142.462 180.321 142.26C180.724 141.957 181.128 141.553 181.532 141.049C181.935 140.544 182.389 140.09 182.894 139.687C183.399 139.283 183.954 138.829 184.559 138.324C185.064 136.306 185.215 134.54 185.013 133.026C184.811 131.412 184.811 129.494 185.013 127.274Z" fill="#4B4949"/>
</g>
<rect x="1" y="1" width="272" height="272" stroke="#C99F5C" stroke-width="2"/>
<defs>
<clipPath id="clip0_593_3">
<rect width="274" height="274" fill="white"/>
</clipPath>
</defs>
</svg>
