<svg width="137" height="274" viewBox="0 0 137 274" fill="none" xmlns="http://www.w3.org/2000/svg">
<g clip-path="url(#clip0_593_34)">
<rect width="274" height="274" fill="#AC0B0E"/>
<path d="M19 12.6833H34" stroke="white" stroke-width="2"/>
<path d="M39.0081 13.0359L53.9915 12.3308" stroke="white" stroke-width="2"/>
<path d="M59.0153 12.2087L73.9853 13.1579" stroke="white" stroke-width="2"/>
<path d="M79.0157 13.1728L93.9837 12.1939" stroke="white" stroke-width="2"/>
<path d="M99.0305 12.0124L113.97 13.3543" stroke="white" stroke-width="2"/>
<path d="M119.016 13.1707L133.984 12.196" stroke="white" stroke-width="2"/>
<path d="M18.6833 252.683L18.6833 237.683" stroke="white" stroke-width="2"/>
<path d="M19.0359 232.675L18.3308 217.692" stroke="white" stroke-width="2"/>
<path d="M18.2087 212.668L19.1579 197.698" stroke="white" stroke-width="2"/>
<path d="M19.1728 192.668L18.1938 177.7" stroke="white" stroke-width="2"/>
<path d="M18.0124 172.653L19.3543 157.713" stroke="white" stroke-width="2"/>
<path d="M19.1706 152.668L18.196 137.7" stroke="white" stroke-width="2"/>
<path d="M18 132.652L19.3667 117.714" stroke="white" stroke-width="2"/>
<path d="M19.0953 112.672L18.2713 97.695" stroke="white" stroke-width="2"/>
<path d="M18.2075 92.6679L19.1591 77.6981" stroke="white" stroke-width="2"/>
<path d="M19.2588 72.6616L18.1079 57.7058" stroke="white" stroke-width="2"/>
<path d="M18.3771 52.6769L18.9895 37.6894" stroke="white" stroke-width="2"/>
<path d="M18.6833 32.6833L18.6833 17.6833" stroke="white" stroke-width="2"/>
<path d="M133.968 261.05L119.031 259.683" stroke="white" stroke-width="2"/>
<path d="M113.989 259.955L99.0116 260.779" stroke="white" stroke-width="2"/>
<path d="M93.9846 260.843L79.0148 259.891" stroke="white" stroke-width="2"/>
<path d="M73.9783 259.791L59.0225 260.942" stroke="white" stroke-width="2"/>
<path d="M53.9935 260.673L39.0061 260.061" stroke="white" stroke-width="2"/>
<path d="M34 260.367L19 260.367" stroke="white" stroke-width="2"/>
<path d="M42.8031 37.5487H54.8488" stroke="white" stroke-width="2"/>
<path d="M58.8705 37.8318L70.903 37.2656" stroke="white" stroke-width="2"/>
<path d="M74.9374 37.1676L86.9591 37.9299" stroke="white" stroke-width="2"/>
<path d="M90.9987 37.9418L103.019 37.1557" stroke="white" stroke-width="2"/>
<path d="M107.072 37.0099L119.069 38.0876" stroke="white" stroke-width="2"/>
<path d="M123.121 37.9401L135.141 37.1574" stroke="white" stroke-width="2"/>
<path d="M42.5487 230.281L42.5487 218.235" stroke="white" stroke-width="2"/>
<path d="M42.8319 214.214L42.2657 202.181" stroke="white" stroke-width="2"/>
<path d="M42.1676 198.147L42.9299 186.125" stroke="white" stroke-width="2"/>
<path d="M42.9418 182.085L42.1557 170.065" stroke="white" stroke-width="2"/>
<path d="M42.01 166.012L43.0876 154.015" stroke="white" stroke-width="2"/>
<path d="M42.9401 149.964L42.1574 137.943" stroke="white" stroke-width="2"/>
<path d="M42 133.89L43.0975 121.894" stroke="white" stroke-width="2"/>
<path d="M42.8796 117.845L42.2179 105.817" stroke="white" stroke-width="2"/>
<path d="M42.1667 101.78L42.9308 89.759" stroke="white" stroke-width="2"/>
<path d="M43.0109 85.7144L42.0866 73.7042" stroke="white" stroke-width="2"/>
<path d="M42.3029 69.6656L42.7946 57.6299" stroke="white" stroke-width="2"/>
<path d="M42.5487 53.6098L42.5487 41.564" stroke="white" stroke-width="2"/>
<path d="M135.129 237L123.133 235.903" stroke="white" stroke-width="2"/>
<path d="M119.084 236.12L107.056 236.782" stroke="white" stroke-width="2"/>
<path d="M103.02 236.833L90.998 236.069" stroke="white" stroke-width="2"/>
<path d="M86.9534 235.989L74.9432 236.913" stroke="white" stroke-width="2"/>
<path d="M70.9047 236.697L58.8689 236.205" stroke="white" stroke-width="2"/>
<path d="M54.8488 236.451L42.8031 236.451" stroke="white" stroke-width="2"/>
<path d="M117.655 168.116L116.141 170.084C116.141 170.084 115.939 170.387 115.536 170.992C115.132 171.598 114.728 172.203 114.325 172.809C113.921 173.414 113.316 174.07 112.508 174.776C111.701 175.483 111.096 176.038 110.692 176.441C110.288 176.845 110.187 177.4 110.389 178.106C111.297 179.015 112.306 179.317 113.417 179.015C114.527 178.611 115.485 178.409 116.292 178.409C117.201 178.409 118.008 178.561 118.714 178.863C119.522 179.065 120.278 179.015 120.985 178.712C121.792 178.308 122.347 178.157 122.65 178.258C123.255 178.46 124.113 178.258 125.223 177.652C126.333 176.946 127.14 176.643 127.645 176.744C128.25 176.744 128.806 176.795 129.31 176.896C129.916 176.996 130.37 176.996 130.672 176.896C131.076 176.694 131.379 176.845 131.581 177.35C132.186 178.561 132.085 180.226 131.278 182.345C130.773 182.547 129.916 182.698 128.705 182.799C127.595 182.799 126.838 182.547 126.434 182.042C126.03 182.244 125.475 182.597 124.769 183.102C124.164 183.505 123.457 183.707 122.65 183.707C121.944 183.707 121.389 183.858 120.985 184.161C120.48 183.757 119.976 183.657 119.471 183.858C119.068 183.959 118.26 184.01 117.049 184.01C115.939 183.909 114.88 184.06 113.871 184.464C112.962 184.767 112.004 184.514 110.995 183.707C109.279 184.514 107.362 185.069 105.243 185.372C103.224 185.574 101.559 185.978 100.248 186.583C99.0366 187.088 98.078 187.592 97.3716 188.097C96.7661 188.5 95.9588 188.551 94.9497 188.248C94.5461 188.349 94.1929 188.5 93.8901 188.702C93.6883 188.904 93.2847 188.904 92.6792 188.702C91.8719 188.097 91.2664 187.592 90.8628 187.188C90.661 186.684 90.7114 186.179 91.0142 185.675C91.4178 185.17 91.6701 184.565 91.771 183.858C91.9728 183.152 92.326 182.547 92.8306 182.042C93.2342 181.235 93.4865 180.781 93.5874 180.68C93.7892 180.579 94.0415 180.226 94.3442 179.62C94.647 179.015 95.0506 178.46 95.5552 177.955C96.0597 177.451 96.6652 176.441 97.3716 174.928C98.1789 173.414 98.6834 172.657 98.8853 172.657C99.0871 172.657 99.8944 171.244 101.307 168.419C102.72 165.493 103.527 163.727 103.729 163.121C104.032 162.516 104.587 161.658 105.394 160.548C106.201 159.438 106.958 157.521 107.665 154.796C108.169 153.585 108.421 152.727 108.421 152.223C108.522 151.617 108.674 150.86 108.875 149.952C109.178 149.044 109.531 148.035 109.935 146.925C110.44 145.714 110.692 144.806 110.692 144.2C110.692 143.494 110.793 142.787 110.995 142.081C111.196 141.375 111.449 140.567 111.751 139.659C112.155 138.65 112.407 137.742 112.508 136.935C112.71 136.026 112.811 135.37 112.811 134.967C112.811 134.462 112.861 134.008 112.962 133.604C113.164 133.201 113.316 132.848 113.417 132.545C113.517 132.242 113.618 131.939 113.719 131.637C113.921 131.334 114.022 131.031 114.022 130.729C114.123 130.426 114.325 129.82 114.627 128.912C115.031 127.903 115.233 126.793 115.233 125.582L114.93 123.766C115.435 122.353 115.687 121.445 115.687 121.041C115.687 120.234 115.838 119.073 116.141 117.56L116.292 115.289C116.494 114.28 116.494 113.624 116.292 113.321C116.091 112.918 115.99 112.413 115.99 111.808C115.99 111.202 116.04 110.496 116.141 109.688C116.343 108.78 116.242 107.923 115.838 107.115C115.536 106.308 115.435 105.854 115.536 105.753C115.637 105.551 115.485 105.147 115.082 104.542C114.678 103.836 114.426 103.281 114.325 102.877C114.224 102.372 114.072 101.918 113.871 101.515C113.669 101.01 113.417 100.455 113.114 99.8496C112.811 99.2441 112.559 98.6387 112.357 98.0332C110.944 97.7305 109.733 97.2259 108.724 96.5195C107.715 95.7122 106.504 95.2077 105.091 95.0059C104.183 95.3086 103.224 95.7122 102.215 96.2168C101.307 96.6204 100.449 96.7214 99.6421 96.5195C99.3394 96.8223 99.0366 97.1755 98.7339 97.5791C98.4312 97.9827 97.9266 98.3864 97.2202 98.79C96.6147 99.0928 96.0597 99.6478 95.5552 100.455C95.0506 101.262 94.5461 101.918 94.0415 102.423C93.6379 102.927 93.1333 103.382 92.5278 103.785C91.9224 104.189 91.3674 104.643 90.8628 105.147C90.1564 106.358 89.8032 107.216 89.8032 107.721C89.8032 108.225 89.5509 108.578 89.0464 108.78C89.1473 109.789 89.0464 110.445 88.7437 110.748C88.5418 110.95 88.3905 111.202 88.2896 111.505C88.1886 111.808 88.1886 112.11 88.2896 112.413C88.3905 112.716 88.2896 113.372 87.9868 114.381C87.785 115.39 87.8859 116.399 88.2896 117.408C88.6932 118.316 89.2987 118.922 90.106 119.225C90.005 119.729 90.0555 120.082 90.2573 120.284C90.5601 120.486 90.661 120.789 90.5601 121.192C91.3674 121.091 91.9728 121.091 92.3765 121.192C92.881 121.192 93.4865 121.041 94.1929 120.738C94.8993 119.527 95.1515 118.316 94.9497 117.105C94.8488 115.794 95.0506 114.431 95.5552 113.019C96.3625 112.817 97.3716 112.918 98.5825 113.321C99.7935 113.624 100.651 114.028 101.156 114.532C101.156 114.936 101.206 115.289 101.307 115.592C101.509 115.794 101.66 116.197 101.761 116.803C101.862 117.307 101.711 117.913 101.307 118.619C101.004 119.225 101.055 120.082 101.458 121.192C100.954 121.899 100.5 122.605 100.096 123.312C99.7935 124.018 99.4403 124.573 99.0366 124.977C98.7339 125.279 98.3807 125.431 97.9771 125.431C97.6743 125.33 97.4725 125.481 97.3716 125.885C96.1606 125.784 95.5552 125.834 95.5552 126.036C95.5552 126.238 95.5552 126.44 95.5552 126.642C94.9497 126.339 94.4451 126.288 94.0415 126.49C93.6379 126.692 93.0324 126.743 92.2251 126.642C91.4178 126.44 90.6105 125.986 89.8032 125.279C88.9959 124.573 88.0373 124.169 86.9272 124.068C86.6245 123.766 86.4227 123.463 86.3218 123.16C86.2209 122.757 85.9181 122.151 85.4136 121.344C85.0099 120.536 84.6567 119.981 84.354 119.679C84.1522 119.275 83.9504 118.771 83.7485 118.165C83.6476 117.459 83.6981 116.651 83.8999 115.743C84.2026 114.734 84.1017 113.725 83.5972 112.716C84.0008 112.11 84.1522 111.454 84.0513 110.748C83.9504 110.042 83.9504 109.487 84.0513 109.083C84.1522 108.578 84.3035 108.074 84.5054 107.569C84.8081 107.065 85.0604 106.56 85.2622 106.056C85.464 105.45 85.6659 104.895 85.8677 104.391C86.1704 103.785 86.4227 103.18 86.6245 102.574C86.9272 101.868 87.4318 101.161 88.1382 100.455C88.8446 99.6478 89.2987 98.79 89.5005 97.8818C90.3078 97.3773 90.9637 96.8223 91.4683 96.2168C92.0737 95.5104 92.881 95.0563 93.8901 94.8545C93.8901 94.1481 94.0415 93.694 94.3442 93.4922C94.647 93.2904 94.8488 92.9372 94.9497 92.4326C96.4634 91.9281 97.9771 91.3226 99.4907 90.6162C101.004 89.8089 102.014 89.4053 102.518 89.4053C103.023 89.3044 103.981 89.2035 105.394 89.1025L107.967 88.7998C108.976 89.3044 109.733 89.5566 110.238 89.5566C110.742 89.5566 111.297 89.6576 111.903 89.8594C112.609 89.9603 113.517 90.0612 114.627 90.1621C115.737 90.263 116.747 90.6162 117.655 91.2217C118.664 91.8271 119.522 92.3317 120.228 92.7354C121.338 93.6436 122.044 94.1481 122.347 94.249C122.65 94.249 123.003 94.4004 123.407 94.7031C123.81 95.0059 124.164 95.46 124.466 96.0654C124.769 96.6709 125.223 96.9736 125.829 96.9736C126.131 98.6891 127.04 100.051 128.553 101.061C128.351 101.464 128.351 101.817 128.553 102.12C128.856 102.423 129.058 102.776 129.159 103.18C129.361 103.583 129.461 103.987 129.461 104.391C129.562 104.794 129.764 105.349 130.067 106.056C130.37 106.762 130.672 107.519 130.975 108.326C131.278 109.033 131.379 109.537 131.278 109.84C131.177 110.042 131.177 110.395 131.278 110.899C131.48 111.404 131.681 112.06 131.883 112.867C133.094 116.197 133.447 119.83 132.943 123.766L133.094 124.371C132.388 124.876 132.085 125.632 132.186 126.642C132.287 127.55 132.236 128.508 132.035 129.518C131.934 130.426 131.782 131.233 131.581 131.939C131.48 132.545 131.581 133.1 131.883 133.604C131.278 134.412 130.925 135.37 130.824 136.48C130.723 137.59 130.521 138.549 130.218 139.356C130.016 140.164 129.815 140.769 129.613 141.173C129.411 141.576 129.159 142.182 128.856 142.989C128.654 143.797 128.503 144.705 128.402 145.714C128.402 146.723 127.897 147.379 126.888 147.682C126.989 148.691 126.636 149.599 125.829 150.406C125.93 150.709 125.829 151.415 125.526 152.525C125.526 153.635 125.324 154.443 124.92 154.947C124.517 155.452 124.214 155.956 124.012 156.461C123.81 156.865 123.76 157.268 123.861 157.672C123.962 158.076 123.861 158.631 123.558 159.337C123.255 159.942 122.7 160.75 121.893 161.759C121.187 162.667 120.632 163.373 120.228 163.878C119.925 164.282 119.572 164.736 119.168 165.24C119.068 165.644 118.916 165.947 118.714 166.148C118.613 166.35 118.563 166.703 118.563 167.208C117.958 167.713 117.655 168.015 117.655 168.116ZM182.894 120.436L182.44 123.16C182.44 123.665 182.44 124.119 182.44 124.522C182.541 124.825 182.541 125.33 182.44 126.036C182.339 126.642 182.188 127.398 181.986 128.307C181.784 129.114 181.834 130.073 182.137 131.183C182.541 131.586 182.591 132.898 182.289 135.118C181.986 137.338 182.389 140.012 183.5 143.141C182.995 144.553 182.844 146.118 183.045 147.833C183.247 149.448 183.298 150.81 183.197 151.92C183.197 153.03 182.995 154.392 182.591 156.007C182.289 157.521 182.238 159.387 182.44 161.607C182.642 163.827 182.743 165.997 182.743 168.116C182.743 170.235 182.591 171.648 182.289 172.354C181.986 173.061 181.734 173.717 181.532 174.322C181.33 174.928 181.179 175.634 181.078 176.441C180.977 177.249 180.775 178.359 180.472 179.771C180.27 181.083 180.169 182.446 180.169 183.858C179.564 184.868 178.706 185.624 177.596 186.129C176.486 186.533 175.427 187.088 174.417 187.794C173.509 187.592 172.752 187.542 172.147 187.643C171.642 187.743 170.986 187.693 170.179 187.491C169.977 187.289 169.725 186.936 169.422 186.432C169.12 185.826 168.766 185.322 168.363 184.918C168.06 184.514 167.858 184.111 167.757 183.707C167.656 183.202 167.656 182.748 167.757 182.345C167.858 181.941 167.909 181.336 167.909 180.528C168.01 179.62 167.959 178.46 167.757 177.047C167.556 175.634 167.707 174.524 168.211 173.717C167.909 173.212 167.808 172.657 167.909 172.052C168.01 171.345 168.06 170.689 168.06 170.084L167.455 167.511C167.556 166.703 167.455 165.745 167.152 164.635L167.455 162.516C167.455 159.186 167.101 157.016 166.395 156.007C166.597 155.704 166.698 155.3 166.698 154.796C166.698 154.291 166.849 153.938 167.152 153.736C167.253 153.232 167.101 152.879 166.698 152.677C166.395 152.475 166.546 151.466 167.152 149.649C166.647 146.622 166.395 144.099 166.395 142.081L167 140.113C167 139.811 166.9 139.508 166.698 139.205C166.597 138.801 166.698 137.944 167 136.632C167.404 135.219 167.556 133.604 167.455 131.788C167.455 129.972 167.455 128.256 167.455 126.642L168.06 124.674L167.757 122.555C167.757 120.94 167.505 119.729 167 118.922C166.294 118.922 165.739 119.174 165.335 119.679C164.73 120.688 164.125 121.192 163.519 121.192C162.813 122.302 162.308 122.958 162.005 123.16C161.804 123.261 161.652 123.412 161.551 123.614C156.708 124.119 153.377 124.926 151.561 126.036C151.056 125.733 150.451 125.683 149.745 125.885C149.139 125.986 148.534 126.036 147.928 126.036C146.314 125.532 145.153 125.279 144.447 125.279C143.841 125.279 143.135 125.178 142.328 124.977C142.025 124.068 142.025 123.009 142.328 121.798C142.832 121.394 143.286 121.192 143.69 121.192C144.094 121.091 144.649 120.89 145.355 120.587C146.162 120.284 146.717 120.234 147.02 120.436C147.424 120.536 148.281 120.486 149.593 120.284C150.905 119.981 152.469 119.527 154.286 118.922C156.203 118.215 157.515 117.761 158.221 117.56C159.432 117.156 160.441 116.55 161.249 115.743C162.359 115.34 163.014 115.188 163.216 115.289C163.519 114.785 163.923 114.381 164.427 114.078C164.932 113.674 165.134 112.968 165.033 111.959C165.537 111.454 166.042 111.051 166.546 110.748C167.051 110.445 167.253 109.89 167.152 109.083C167.656 109.083 168.211 108.78 168.817 108.175C169.523 107.468 169.977 106.913 170.179 106.51C170.381 106.005 170.431 105.602 170.331 105.299C170.23 104.895 170.28 104.492 170.482 104.088C171.087 103.684 171.441 103.281 171.542 102.877C171.743 102.372 172.097 102.019 172.601 101.817C173.408 102.019 174.216 102.019 175.023 101.817C175.83 101.515 176.587 101.414 177.293 101.515C179.009 102.221 179.968 102.826 180.169 103.331C180.472 103.735 180.825 104.542 181.229 105.753C181.834 106.762 182.087 107.519 181.986 108.023C181.986 108.427 182.036 108.881 182.137 109.386C182.238 109.789 182.389 110.193 182.591 110.597C182.793 110.899 182.944 111.454 183.045 112.262C183.247 112.968 183.247 114.33 183.045 116.349C182.844 118.266 182.793 119.376 182.894 119.679C182.995 119.981 182.995 120.234 182.894 120.436Z" fill="white"/>
</g>
<defs>
<clipPath id="clip0_593_34">
<rect width="274" height="274" fill="white"/>
</clipPath>
</defs>
</svg>
