<svg width="137" height="274" viewBox="0 0 137 274" fill="none" xmlns="http://www.w3.org/2000/svg">
<g clip-path="url(#clip0_593_49)">
<rect width="274" height="274" fill="#C99F5C"/>
<line x1="-289.354" y1="340.646" x2="333.646" y2="-282.354" stroke="#F5F5F5"/>
<line x1="-262.354" y1="364.646" x2="360.646" y2="-258.354" stroke="#F5F5F5"/>
<line x1="-235.354" y1="388.646" x2="387.646" y2="-234.354" stroke="#F5F5F5"/>
<line x1="-208.354" y1="412.646" x2="414.646" y2="-210.354" stroke="#F5F5F5"/>
<line x1="-181.354" y1="436.646" x2="441.646" y2="-186.354" stroke="#F5F5F5"/>
<line x1="-154.354" y1="460.646" x2="468.646" y2="-162.354" stroke="#F5F5F5"/>
<line x1="-127.354" y1="484.646" x2="495.646" y2="-138.354" stroke="#F5F5F5"/>
<line x1="-100.354" y1="508.646" x2="522.646" y2="-114.354" stroke="#F5F5F5"/>
<line x1="-73.3536" y1="532.646" x2="549.646" y2="-90.3535" stroke="#F5F5F5"/>
<line x1="-46.3536" y1="556.646" x2="576.646" y2="-66.3535" stroke="#F5F5F5"/>
<path d="M84.5 97L138.778 32L194 97L168 93.3941L232 178L200 170L260 274H8L74.5 170L40.5 174L106.084 93.3941L84.5 97Z" fill="#4B4949"/>
<path d="M110.189 165.116L108.676 167.084C108.676 167.084 108.474 167.387 108.07 167.992C107.667 168.598 107.263 169.203 106.859 169.809C106.456 170.414 105.85 171.07 105.043 171.776C104.236 172.483 103.63 173.038 103.227 173.441C102.823 173.845 102.722 174.4 102.924 175.106C103.832 176.015 104.841 176.317 105.951 176.015C107.061 175.611 108.02 175.409 108.827 175.409C109.735 175.409 110.543 175.561 111.249 175.863C112.056 176.065 112.813 176.015 113.52 175.712C114.327 175.308 114.882 175.157 115.185 175.258C115.79 175.46 116.648 175.258 117.758 174.652C118.868 173.946 119.675 173.643 120.18 173.744C120.785 173.744 121.34 173.795 121.845 173.896C122.45 173.996 122.904 173.996 123.207 173.896C123.611 173.694 123.913 173.845 124.115 174.35C124.721 175.561 124.62 177.226 123.812 179.345C123.308 179.547 122.45 179.698 121.239 179.799C120.129 179.799 119.372 179.547 118.969 179.042C118.565 179.244 118.01 179.597 117.304 180.102C116.698 180.505 115.992 180.707 115.185 180.707C114.478 180.707 113.923 180.858 113.52 181.161C113.015 180.757 112.51 180.657 112.006 180.858C111.602 180.959 110.795 181.01 109.584 181.01C108.474 180.909 107.414 181.06 106.405 181.464C105.497 181.767 104.538 181.514 103.529 180.707C101.814 181.514 99.8965 182.069 97.7773 182.372C95.7591 182.574 94.0941 182.978 92.7822 183.583C91.5713 184.088 90.6126 184.592 89.9062 185.097C89.3008 185.5 88.4935 185.551 87.4844 185.248C87.0807 185.349 86.7275 185.5 86.4248 185.702C86.223 185.904 85.8193 185.904 85.2139 185.702C84.4066 185.097 83.8011 184.592 83.3975 184.188C83.1956 183.684 83.2461 183.179 83.5488 182.675C83.9525 182.17 84.2048 181.565 84.3057 180.858C84.5075 180.152 84.8607 179.547 85.3652 179.042C85.7689 178.235 86.0212 177.781 86.1221 177.68C86.3239 177.579 86.5762 177.226 86.8789 176.62C87.1816 176.015 87.5853 175.46 88.0898 174.955C88.5944 174.451 89.1999 173.441 89.9062 171.928C90.7135 170.414 91.2181 169.657 91.4199 169.657C91.6217 169.657 92.429 168.244 93.8418 165.419C95.2546 162.493 96.0618 160.727 96.2637 160.121C96.5664 159.516 97.1214 158.658 97.9287 157.548C98.736 156.438 99.4928 154.521 100.199 151.796C100.704 150.585 100.956 149.727 100.956 149.223C101.057 148.617 101.208 147.86 101.41 146.952C101.713 146.044 102.066 145.035 102.47 143.925C102.974 142.714 103.227 141.806 103.227 141.2C103.227 140.494 103.327 139.787 103.529 139.081C103.731 138.375 103.983 137.567 104.286 136.659C104.69 135.65 104.942 134.742 105.043 133.935C105.245 133.026 105.346 132.37 105.346 131.967C105.346 131.462 105.396 131.008 105.497 130.604C105.699 130.201 105.85 129.848 105.951 129.545C106.052 129.242 106.153 128.939 106.254 128.637C106.456 128.334 106.557 128.031 106.557 127.729C106.658 127.426 106.859 126.82 107.162 125.912C107.566 124.903 107.768 123.793 107.768 122.582L107.465 120.766C107.969 119.353 108.222 118.445 108.222 118.041C108.222 117.234 108.373 116.073 108.676 114.56L108.827 112.289C109.029 111.28 109.029 110.624 108.827 110.321C108.625 109.918 108.524 109.413 108.524 108.808C108.524 108.202 108.575 107.496 108.676 106.688C108.878 105.78 108.777 104.923 108.373 104.115C108.07 103.308 107.969 102.854 108.07 102.753C108.171 102.551 108.02 102.147 107.616 101.542C107.213 100.836 106.96 100.281 106.859 99.877C106.758 99.3724 106.607 98.9183 106.405 98.5146C106.203 98.0101 105.951 97.4551 105.648 96.8496C105.346 96.2441 105.093 95.6387 104.892 95.0332C103.479 94.7305 102.268 94.2259 101.259 93.5195C100.25 92.7122 99.0387 92.2077 97.626 92.0059C96.7178 92.3086 95.7591 92.7122 94.75 93.2168C93.8418 93.6204 92.984 93.7214 92.1768 93.5195C91.874 93.8223 91.5713 94.1755 91.2686 94.5791C90.9658 94.9827 90.4613 95.3864 89.7549 95.79C89.1494 96.0928 88.5944 96.6478 88.0898 97.4551C87.5853 98.2624 87.0807 98.9183 86.5762 99.4229C86.1725 99.9274 85.668 100.382 85.0625 100.785C84.457 101.189 83.902 101.643 83.3975 102.147C82.6911 103.358 82.3379 104.216 82.3379 104.721C82.3379 105.225 82.0856 105.578 81.5811 105.78C81.682 106.789 81.5811 107.445 81.2783 107.748C81.0765 107.95 80.9251 108.202 80.8242 108.505C80.7233 108.808 80.7233 109.11 80.8242 109.413C80.9251 109.716 80.8242 110.372 80.5215 111.381C80.3197 112.39 80.4206 113.399 80.8242 114.408C81.2279 115.316 81.8333 115.922 82.6406 116.225C82.5397 116.729 82.5902 117.082 82.792 117.284C83.0947 117.486 83.1956 117.789 83.0947 118.192C83.902 118.091 84.5075 118.091 84.9111 118.192C85.4157 118.192 86.0212 118.041 86.7275 117.738C87.4339 116.527 87.6862 115.316 87.4844 114.105C87.3835 112.794 87.5853 111.431 88.0898 110.019C88.8971 109.817 89.9062 109.918 91.1172 110.321C92.3281 110.624 93.1859 111.028 93.6904 111.532C93.6904 111.936 93.7409 112.289 93.8418 112.592C94.0436 112.794 94.195 113.197 94.2959 113.803C94.3968 114.307 94.2454 114.913 93.8418 115.619C93.5391 116.225 93.5895 117.082 93.9932 118.192C93.4886 118.899 93.0345 119.605 92.6309 120.312C92.3281 121.018 91.9749 121.573 91.5713 121.977C91.2686 122.279 90.9154 122.431 90.5117 122.431C90.209 122.33 90.0072 122.481 89.9062 122.885C88.6953 122.784 88.0898 122.834 88.0898 123.036C88.0898 123.238 88.0898 123.44 88.0898 123.642C87.4844 123.339 86.9798 123.288 86.5762 123.49C86.1725 123.692 85.5671 123.743 84.7598 123.642C83.9525 123.44 83.1452 122.986 82.3379 122.279C81.5306 121.573 80.5719 121.169 79.4619 121.068C79.1592 120.766 78.9574 120.463 78.8564 120.16C78.7555 119.757 78.4528 119.151 77.9482 118.344C77.5446 117.536 77.1914 116.981 76.8887 116.679C76.6868 116.275 76.485 115.771 76.2832 115.165C76.1823 114.459 76.2327 113.651 76.4346 112.743C76.7373 111.734 76.6364 110.725 76.1318 109.716C76.5355 109.11 76.6868 108.454 76.5859 107.748C76.485 107.042 76.485 106.487 76.5859 106.083C76.6868 105.578 76.8382 105.074 77.04 104.569C77.3428 104.065 77.5951 103.56 77.7969 103.056C77.9987 102.45 78.2005 101.895 78.4023 101.391C78.7051 100.785 78.9574 100.18 79.1592 99.5742C79.4619 98.8678 79.9665 98.1615 80.6729 97.4551C81.3792 96.6478 81.8333 95.79 82.0352 94.8818C82.8424 94.3773 83.4984 93.8223 84.0029 93.2168C84.6084 92.5104 85.4157 92.0563 86.4248 91.8545C86.4248 91.1481 86.5762 90.694 86.8789 90.4922C87.1816 90.2904 87.3835 89.9372 87.4844 89.4326C88.998 88.9281 90.5117 88.3226 92.0254 87.6162C93.5391 86.8089 94.5482 86.4053 95.0527 86.4053C95.5573 86.3044 96.516 86.2035 97.9287 86.1025L100.502 85.7998C101.511 86.3044 102.268 86.5566 102.772 86.5566C103.277 86.5566 103.832 86.6576 104.438 86.8594C105.144 86.9603 106.052 87.0612 107.162 87.1621C108.272 87.263 109.281 87.6162 110.189 88.2217C111.199 88.8271 112.056 89.3317 112.763 89.7354C113.873 90.6436 114.579 91.1481 114.882 91.249C115.185 91.249 115.538 91.4004 115.941 91.7031C116.345 92.0059 116.698 92.46 117.001 93.0654C117.304 93.6709 117.758 93.9736 118.363 93.9736C118.666 95.6891 119.574 97.0514 121.088 98.0605C120.886 98.4642 120.886 98.8174 121.088 99.1201C121.391 99.4229 121.592 99.776 121.693 100.18C121.895 100.583 121.996 100.987 121.996 101.391C122.097 101.794 122.299 102.349 122.602 103.056C122.904 103.762 123.207 104.519 123.51 105.326C123.812 106.033 123.913 106.537 123.812 106.84C123.712 107.042 123.712 107.395 123.812 107.899C124.014 108.404 124.216 109.06 124.418 109.867C125.629 113.197 125.982 116.83 125.478 120.766L125.629 121.371C124.923 121.876 124.62 122.632 124.721 123.642C124.822 124.55 124.771 125.508 124.569 126.518C124.468 127.426 124.317 128.233 124.115 128.939C124.014 129.545 124.115 130.1 124.418 130.604C123.812 131.412 123.459 132.37 123.358 133.48C123.257 134.59 123.056 135.549 122.753 136.356C122.551 137.164 122.349 137.769 122.147 138.173C121.946 138.576 121.693 139.182 121.391 139.989C121.189 140.797 121.037 141.705 120.937 142.714C120.937 143.723 120.432 144.379 119.423 144.682C119.524 145.691 119.171 146.599 118.363 147.406C118.464 147.709 118.363 148.415 118.061 149.525C118.061 150.635 117.859 151.443 117.455 151.947C117.051 152.452 116.749 152.956 116.547 153.461C116.345 153.865 116.295 154.268 116.396 154.672C116.496 155.076 116.396 155.631 116.093 156.337C115.79 156.942 115.235 157.75 114.428 158.759C113.721 159.667 113.166 160.373 112.763 160.878C112.46 161.282 112.107 161.736 111.703 162.24C111.602 162.644 111.451 162.947 111.249 163.148C111.148 163.35 111.098 163.703 111.098 164.208C110.492 164.713 110.189 165.015 110.189 165.116ZM171.342 165.116L169.828 167.084C169.828 167.084 169.626 167.387 169.223 167.992C168.819 168.598 168.415 169.203 168.012 169.809C167.608 170.414 167.003 171.07 166.195 171.776C165.388 172.483 164.783 173.038 164.379 173.441C163.975 173.845 163.874 174.4 164.076 175.106C164.984 176.015 165.993 176.317 167.104 176.015C168.214 175.611 169.172 175.409 169.979 175.409C170.888 175.409 171.695 175.561 172.401 175.863C173.209 176.065 173.965 176.015 174.672 175.712C175.479 175.308 176.034 175.157 176.337 175.258C176.942 175.46 177.8 175.258 178.91 174.652C180.02 173.946 180.827 173.643 181.332 173.744C181.938 173.744 182.493 173.795 182.997 173.896C183.603 173.996 184.057 173.996 184.359 173.896C184.763 173.694 185.066 173.845 185.268 174.35C185.873 175.561 185.772 177.226 184.965 179.345C184.46 179.547 183.603 179.698 182.392 179.799C181.282 179.799 180.525 179.547 180.121 179.042C179.717 179.244 179.162 179.597 178.456 180.102C177.851 180.505 177.144 180.707 176.337 180.707C175.631 180.707 175.076 180.858 174.672 181.161C174.167 180.757 173.663 180.657 173.158 180.858C172.755 180.959 171.947 181.01 170.736 181.01C169.626 180.909 168.567 181.06 167.558 181.464C166.649 181.767 165.691 181.514 164.682 180.707C162.966 181.514 161.049 182.069 158.93 182.372C156.911 182.574 155.246 182.978 153.935 183.583C152.724 184.088 151.765 184.592 151.059 185.097C150.453 185.5 149.646 185.551 148.637 185.248C148.233 185.349 147.88 185.5 147.577 185.702C147.375 185.904 146.972 185.904 146.366 185.702C145.559 185.097 144.953 184.592 144.55 184.188C144.348 183.684 144.398 183.179 144.701 182.675C145.105 182.17 145.357 181.565 145.458 180.858C145.66 180.152 146.013 179.547 146.518 179.042C146.921 178.235 147.174 177.781 147.274 177.68C147.476 177.579 147.729 177.226 148.031 176.62C148.334 176.015 148.738 175.46 149.242 174.955C149.747 174.451 150.352 173.441 151.059 171.928C151.866 170.414 152.37 169.657 152.572 169.657C152.774 169.657 153.581 168.244 154.994 165.419C156.407 162.493 157.214 160.727 157.416 160.121C157.719 159.516 158.274 158.658 159.081 157.548C159.888 156.438 160.645 154.521 161.352 151.796C161.856 150.585 162.108 149.727 162.108 149.223C162.209 148.617 162.361 147.86 162.562 146.952C162.865 146.044 163.218 145.035 163.622 143.925C164.127 142.714 164.379 141.806 164.379 141.2C164.379 140.494 164.48 139.787 164.682 139.081C164.883 138.375 165.136 137.567 165.438 136.659C165.842 135.65 166.094 134.742 166.195 133.935C166.397 133.026 166.498 132.37 166.498 131.967C166.498 131.462 166.549 131.008 166.649 130.604C166.851 130.201 167.003 129.848 167.104 129.545C167.204 129.242 167.305 128.939 167.406 128.637C167.608 128.334 167.709 128.031 167.709 127.729C167.81 127.426 168.012 126.82 168.314 125.912C168.718 124.903 168.92 123.793 168.92 122.582L168.617 120.766C169.122 119.353 169.374 118.445 169.374 118.041C169.374 117.234 169.525 116.073 169.828 114.56L169.979 112.289C170.181 111.28 170.181 110.624 169.979 110.321C169.778 109.918 169.677 109.413 169.677 108.808C169.677 108.202 169.727 107.496 169.828 106.688C170.03 105.78 169.929 104.923 169.525 104.115C169.223 103.308 169.122 102.854 169.223 102.753C169.324 102.551 169.172 102.147 168.769 101.542C168.365 100.836 168.113 100.281 168.012 99.877C167.911 99.3724 167.759 98.9183 167.558 98.5146C167.356 98.0101 167.104 97.4551 166.801 96.8496C166.498 96.2441 166.246 95.6387 166.044 95.0332C164.631 94.7305 163.42 94.2259 162.411 93.5195C161.402 92.7122 160.191 92.2077 158.778 92.0059C157.87 92.3086 156.911 92.7122 155.902 93.2168C154.994 93.6204 154.136 93.7214 153.329 93.5195C153.026 93.8223 152.724 94.1755 152.421 94.5791C152.118 94.9827 151.614 95.3864 150.907 95.79C150.302 96.0928 149.747 96.6478 149.242 97.4551C148.738 98.2624 148.233 98.9183 147.729 99.4229C147.325 99.9274 146.82 100.382 146.215 100.785C145.609 101.189 145.054 101.643 144.55 102.147C143.843 103.358 143.49 104.216 143.49 104.721C143.49 105.225 143.238 105.578 142.733 105.78C142.834 106.789 142.733 107.445 142.431 107.748C142.229 107.95 142.077 108.202 141.977 108.505C141.876 108.808 141.876 109.11 141.977 109.413C142.077 109.716 141.977 110.372 141.674 111.381C141.472 112.39 141.573 113.399 141.977 114.408C142.38 115.316 142.986 115.922 143.793 116.225C143.692 116.729 143.743 117.082 143.944 117.284C144.247 117.486 144.348 117.789 144.247 118.192C145.054 118.091 145.66 118.091 146.063 118.192C146.568 118.192 147.174 118.041 147.88 117.738C148.586 116.527 148.839 115.316 148.637 114.105C148.536 112.794 148.738 111.431 149.242 110.019C150.049 109.817 151.059 109.918 152.27 110.321C153.48 110.624 154.338 111.028 154.843 111.532C154.843 111.936 154.893 112.289 154.994 112.592C155.196 112.794 155.347 113.197 155.448 113.803C155.549 114.307 155.398 114.913 154.994 115.619C154.691 116.225 154.742 117.082 155.146 118.192C154.641 118.899 154.187 119.605 153.783 120.312C153.48 121.018 153.127 121.573 152.724 121.977C152.421 122.279 152.068 122.431 151.664 122.431C151.361 122.33 151.16 122.481 151.059 122.885C149.848 122.784 149.242 122.834 149.242 123.036C149.242 123.238 149.242 123.44 149.242 123.642C148.637 123.339 148.132 123.288 147.729 123.49C147.325 123.692 146.719 123.743 145.912 123.642C145.105 123.44 144.298 122.986 143.49 122.279C142.683 121.573 141.724 121.169 140.614 121.068C140.312 120.766 140.11 120.463 140.009 120.16C139.908 119.757 139.605 119.151 139.101 118.344C138.697 117.536 138.344 116.981 138.041 116.679C137.839 116.275 137.637 115.771 137.436 115.165C137.335 114.459 137.385 113.651 137.587 112.743C137.89 111.734 137.789 110.725 137.284 109.716C137.688 109.11 137.839 108.454 137.738 107.748C137.637 107.042 137.637 106.487 137.738 106.083C137.839 105.578 137.991 105.074 138.192 104.569C138.495 104.065 138.747 103.56 138.949 103.056C139.151 102.45 139.353 101.895 139.555 101.391C139.857 100.785 140.11 100.18 140.312 99.5742C140.614 98.8678 141.119 98.1615 141.825 97.4551C142.532 96.6478 142.986 95.79 143.188 94.8818C143.995 94.3773 144.651 93.8223 145.155 93.2168C145.761 92.5104 146.568 92.0563 147.577 91.8545C147.577 91.1481 147.729 90.694 148.031 90.4922C148.334 90.2904 148.536 89.9372 148.637 89.4326C150.15 88.9281 151.664 88.3226 153.178 87.6162C154.691 86.8089 155.701 86.4053 156.205 86.4053C156.71 86.3044 157.668 86.2035 159.081 86.1025L161.654 85.7998C162.663 86.3044 163.42 86.5566 163.925 86.5566C164.429 86.5566 164.984 86.6576 165.59 86.8594C166.296 86.9603 167.204 87.0612 168.314 87.1621C169.424 87.263 170.434 87.6162 171.342 88.2217C172.351 88.8271 173.209 89.3317 173.915 89.7354C175.025 90.6436 175.731 91.1481 176.034 91.249C176.337 91.249 176.69 91.4004 177.094 91.7031C177.497 92.0059 177.851 92.46 178.153 93.0654C178.456 93.6709 178.91 93.9736 179.516 93.9736C179.818 95.6891 180.727 97.0514 182.24 98.0605C182.038 98.4642 182.038 98.8174 182.24 99.1201C182.543 99.4229 182.745 99.776 182.846 100.18C183.048 100.583 183.148 100.987 183.148 101.391C183.249 101.794 183.451 102.349 183.754 103.056C184.057 103.762 184.359 104.519 184.662 105.326C184.965 106.033 185.066 106.537 184.965 106.84C184.864 107.042 184.864 107.395 184.965 107.899C185.167 108.404 185.368 109.06 185.57 109.867C186.781 113.197 187.134 116.83 186.63 120.766L186.781 121.371C186.075 121.876 185.772 122.632 185.873 123.642C185.974 124.55 185.924 125.508 185.722 126.518C185.621 127.426 185.469 128.233 185.268 128.939C185.167 129.545 185.268 130.1 185.57 130.604C184.965 131.412 184.612 132.37 184.511 133.48C184.41 134.59 184.208 135.549 183.905 136.356C183.703 137.164 183.502 137.769 183.3 138.173C183.098 138.576 182.846 139.182 182.543 139.989C182.341 140.797 182.19 141.705 182.089 142.714C182.089 143.723 181.584 144.379 180.575 144.682C180.676 145.691 180.323 146.599 179.516 147.406C179.617 147.709 179.516 148.415 179.213 149.525C179.213 150.635 179.011 151.443 178.607 151.947C178.204 152.452 177.901 152.956 177.699 153.461C177.497 153.865 177.447 154.268 177.548 154.672C177.649 155.076 177.548 155.631 177.245 156.337C176.942 156.942 176.387 157.75 175.58 158.759C174.874 159.667 174.319 160.373 173.915 160.878C173.612 161.282 173.259 161.736 172.855 162.24C172.755 162.644 172.603 162.947 172.401 163.148C172.3 163.35 172.25 163.703 172.25 164.208C171.645 164.713 171.342 165.015 171.342 165.116Z" fill="white"/>
</g>
<defs>
<clipPath id="clip0_593_49">
<rect width="274" height="274" fill="white"/>
</clipPath>
</defs>
</svg>
