<svg width="274" height="274" viewBox="0 0 274 274" fill="none" xmlns="http://www.w3.org/2000/svg">
<g clip-path="url(#clip0_600_3)">
<path d="M118 80H0V135.374H94.1115C111.02 135.374 124.587 149.34 124.099 166.241L121 273.5H189V151C189 111.788 157.212 80 118 80Z" fill="#AC0B0E"/>
<path d="M35.2135 79.6626L9.80252 134.361C9.15687 135.751 10.25 137.321 11.7774 137.197L15.1688 136.923C15.8868 136.865 16.5181 136.426 16.8216 135.772L42.2326 81.0738C42.8783 79.6841 41.7852 78.1143 40.2578 78.2377L36.8663 78.5117C36.1483 78.5697 35.517 79.0093 35.2135 79.6626Z" fill="white"/>
<path d="M18.405 78.7013L-7.00602 133.4C-7.65166 134.79 -6.55858 136.359 -5.03113 136.236L-1.63969 135.962C-0.921719 135.904 -0.290406 135.464 0.0130733 134.811L25.4241 80.1125C26.0697 78.7228 24.9767 77.153 23.4492 77.2764L20.0578 77.5504C19.3398 77.6084 18.7085 78.048 18.405 78.7013Z" fill="white"/>
<path d="M52.405 79.7013L26.994 134.4C26.3483 135.79 27.4414 137.359 28.9689 137.236L32.3603 136.962C33.0783 136.904 33.7096 136.464 34.0131 135.811L59.4241 81.1125C60.0697 79.7228 58.9767 78.153 57.4492 78.2764L54.0578 78.5504C53.3398 78.6084 52.7085 79.048 52.405 79.7013Z" fill="white"/>
<path d="M69.5965 79.74L44.1855 134.438C43.5398 135.828 44.6329 137.398 46.1603 137.275L49.5518 137.001C50.2697 136.943 50.9011 136.503 51.2045 135.85L76.6156 81.1512C77.2612 79.7614 76.1681 78.1917 74.6407 78.3151L71.2492 78.5891C70.5313 78.6471 69.9 79.0867 69.5965 79.74Z" fill="white"/>
<path d="M86.788 79.7787L61.3769 134.477C60.7313 135.867 61.8244 137.437 63.3518 137.313L66.7432 137.039C67.4612 136.981 68.0925 136.542 68.396 135.888L93.807 81.1899C94.4527 79.8001 93.3596 78.2304 91.8322 78.3538L88.4407 78.6278C87.7227 78.6858 87.0914 79.1254 86.788 79.7787Z" fill="white"/>
<path d="M103.979 79.8173L78.5684 134.516C77.9227 135.906 79.0158 137.475 80.5433 137.352L83.9347 137.078C84.6527 137.02 85.284 136.58 85.5875 135.927L110.999 81.2286C111.644 79.8388 110.551 78.2691 109.024 78.3925L105.632 78.6665C104.914 78.7245 104.283 79.1641 103.979 79.8173Z" fill="white"/>
<path d="M121.171 79.856L95.7599 134.555C95.1142 135.944 96.2073 137.514 97.7347 137.391L101.126 137.117C101.844 137.059 102.475 136.619 102.779 135.966L128.19 81.2673C128.836 79.8775 127.743 78.3078 126.215 78.4312L122.824 78.7052C122.106 78.7632 121.474 79.2028 121.171 79.856Z" fill="white"/>
<path d="M138.57 84.4723L108.97 139.163C108.246 140.502 109.223 142.127 110.745 142.115L114.235 142.088C114.964 142.082 115.632 141.681 115.978 141.04L145.578 86.3488C146.302 85.0102 145.325 83.385 143.803 83.397L140.313 83.4243C139.584 83.43 138.916 83.8315 138.57 84.4723Z" fill="white"/>
<path d="M159.148 95.6543L116.244 145.647C115.264 146.788 115.848 148.562 117.314 148.898L120.886 149.718C121.611 149.885 122.368 149.636 122.852 149.072L165.756 99.0793C166.736 97.9378 166.152 96.164 164.686 95.8275L161.113 95.0075C160.389 94.8412 159.632 95.0903 159.148 95.6543Z" fill="white"/>
<path d="M175.406 112.952L119.794 148.269C118.524 149.075 118.565 150.942 119.87 151.691L123.048 153.517C123.692 153.887 124.489 153.869 125.116 153.471L180.728 118.154C181.998 117.347 181.956 115.48 180.652 114.731L177.474 112.906C176.83 112.535 176.033 112.553 175.406 112.952Z" fill="white"/>
<path d="M184.457 133.938L121.179 152.263C119.734 152.682 119.251 154.485 120.293 155.57L122.833 158.213C123.348 158.748 124.117 158.955 124.831 158.748L188.11 140.423C189.554 140.004 190.038 138.2 188.995 137.116L186.456 134.473C185.941 133.937 185.171 133.731 184.457 133.938Z" fill="white"/>
<path d="M188.96 159.036L123.082 159.027C121.577 159.027 120.611 160.625 121.311 161.957L123.014 165.202C123.36 165.86 124.042 166.272 124.785 166.272L190.663 166.281C192.168 166.281 193.134 164.683 192.435 163.351L190.731 160.106C190.385 159.448 189.703 159.036 188.96 159.036Z" fill="white"/>
<path d="M188.007 175.916L122.301 171.153C120.8 171.045 119.722 172.569 120.323 173.948L121.788 177.307C122.085 177.988 122.735 178.449 123.477 178.502L189.183 183.265C190.683 183.374 191.762 181.85 191.161 180.471L189.696 177.111C189.399 176.43 188.748 175.97 188.007 175.916Z" fill="white"/>
<path d="M188.007 190.916L122.301 186.153C120.8 186.045 119.722 187.569 120.323 188.948L121.788 192.307C122.085 192.988 122.735 193.449 123.477 193.502L189.183 198.265C190.683 198.374 191.762 196.85 191.161 195.471L189.696 192.111C189.399 191.43 188.748 190.97 188.007 190.916Z" fill="white"/>
<path d="M188.007 205.916L122.301 201.153C120.8 201.045 119.722 202.569 120.323 203.948L121.788 207.307C122.085 207.988 122.735 208.449 123.477 208.502L189.183 213.265C190.683 213.374 191.762 211.85 191.161 210.471L189.696 207.111C189.399 206.43 188.748 205.97 188.007 205.916Z" fill="white"/>
<path d="M188.007 220.916L122.301 216.153C120.8 216.045 119.722 217.569 120.323 218.948L121.788 222.307C122.085 222.988 122.735 223.449 123.477 223.502L189.183 228.265C190.683 228.374 191.762 226.85 191.161 225.471L189.696 222.111C189.399 221.43 188.748 220.97 188.007 220.916Z" fill="white"/>
<path d="M188.007 235.916L122.301 231.153C120.8 231.045 119.722 232.569 120.323 233.948L121.788 237.307C122.085 237.988 122.735 238.449 123.477 238.502L189.183 243.265C190.683 243.374 191.762 241.85 191.161 240.471L189.696 237.111C189.399 236.43 188.748 235.97 188.007 235.916Z" fill="white"/>
<path d="M187.958 250.505L121.277 246.129C119.782 246.031 118.714 247.551 119.313 248.924L120.784 252.298C121.083 252.984 121.74 253.446 122.487 253.495L189.167 257.87C190.663 257.968 191.731 256.449 191.132 255.075L189.66 251.701C189.361 251.015 188.704 250.554 187.958 250.505Z" fill="white"/>
<path d="M187.007 265.916L121.301 261.153C119.8 261.045 118.722 262.569 119.323 263.948L120.788 267.307C121.085 267.988 121.735 268.449 122.477 268.502L188.183 273.265C189.683 273.374 190.762 271.85 190.161 270.471L188.696 267.111C188.399 266.43 187.748 265.97 187.007 265.916Z" fill="white"/>
<rect x="118" y="267" width="76" height="7" rx="3.5" fill="#4B4949"/>
<rect y="148" width="77" height="7" rx="3.5" transform="rotate(-90 0 148)" fill="#4B4949"/>
</g>
<defs>
<clipPath id="clip0_600_3">
<rect width="274" height="274" fill="white"/>
</clipPath>
</defs>
</svg>
