<svg width="730" height="730" viewBox="0 0 730 730" fill="none" xmlns="http://www.w3.org/2000/svg">
<g id="button" clip-path="url(#clip0_617_6)">
<rect id="Rectangle 5" width="730" height="730" rx="94" fill="#D9D9D9"/>
<rect id="Rectangle 6" x="29" y="29" width="672" height="672" rx="94" fill="#FFC805"/>
<circle id="Ellipse 83" cx="364.5" cy="364.5" r="145.5" fill="#AC0B0E"/>
<path id="Vector 140" d="M586.054 442.353L544.199 401.997L592.503 368.634L590.483 391.727L669.967 398.681L667.791 423.549L588.307 416.596L586.054 442.353Z" fill="black"/>
<path id="Vector 143" d="M142.933 286.954L184.788 327.31L136.484 360.672L138.504 337.58L59.0204 330.626L61.1961 305.757L140.68 312.711L142.933 286.954Z" fill="black"/>
<path id="Vector 142" d="M592.49 360.672L544.264 328.198L586.041 286.954L588.061 310.046L667.545 303.093L669.72 327.961L590.237 334.915L592.49 360.672Z" fill="black"/>
<path id="Vector 144" d="M136.497 368.634L184.724 401.109L142.946 442.353L140.926 419.26L61.4425 426.214L59.2667 401.345L138.75 394.391L136.497 368.634Z" fill="black"/>
<circle id="Ellipse 86" cx="80" cy="81" r="16" fill="#4B4949"/>
<circle id="Ellipse 87" cx="656" cy="81" r="16" fill="#4B4949"/>
<circle id="Ellipse 88" cx="80" cy="649" r="16" fill="#4B4949"/>
<circle id="Ellipse 89" cx="656" cy="649" r="16" fill="#4B4949"/>
<g id="Group 12">
<path id="C&#226;&#128;&#153;EST" d="M193.895 193.383L187.449 191.82C186.277 190.648 184.65 189.802 182.566 189.281C182.306 188.24 181.655 187.654 180.613 187.523C179.702 187.263 178.921 186.807 178.27 186.156C177.618 185.896 176.707 185.766 175.535 185.766C174.363 185.766 173.517 185.44 172.996 184.789C172.475 184.008 171.368 183.096 169.676 182.055C168.113 180.883 166.941 179.711 166.16 178.539C165.509 177.367 164.988 176.651 164.598 176.391C164.207 176 163.816 175.544 163.426 175.023C163.035 174.503 162.579 174.047 162.059 173.656C162.189 173.005 162.124 172.549 161.863 172.289C161.603 172.029 161.603 171.508 161.863 170.727C160.952 169.424 160.04 168.188 159.129 167.016C158.348 165.844 157.762 164.411 157.371 162.719C155.158 160.766 153.855 159.203 153.465 158.031C153.204 156.729 152.618 155.622 151.707 154.711C150.796 153.799 150.145 152.823 149.754 151.781C149.363 150.74 149.168 149.568 149.168 148.266C149.298 146.833 149.168 145.271 148.777 143.578C148.126 142.146 147.801 141.234 147.801 140.844C147.931 140.323 147.931 139.802 147.801 139.281C147.801 138.76 147.671 138.174 147.41 137.523C147.28 136.872 147.02 136.026 146.629 134.984C146.238 133.812 146.108 133.031 146.238 132.641C146.368 132.12 146.434 131.469 146.434 130.688C146.434 129.906 146.368 128.799 146.238 127.367C146.238 125.935 146.303 123.591 146.434 120.336C146.694 117.081 146.954 114.151 147.215 111.547C147.605 108.943 147.801 107.055 147.801 105.883C147.671 104.19 147.996 102.693 148.777 101.391C149.559 100.089 149.949 98.9818 149.949 98.0703C149.949 97.0286 150.21 96.0521 150.73 95.1406C151.382 94.2292 151.642 93.5781 151.512 93.1875C151.512 92.7969 151.902 92.0807 152.684 91.0391C153.595 89.8672 153.986 89.0208 153.855 88.5C153.855 87.9792 154.116 87.3281 154.637 86.5469C155.288 85.7656 155.678 85.1797 155.809 84.7891C156.069 84.2682 156.525 83.5521 157.176 82.6406C157.957 81.7292 158.413 81.0781 158.543 80.6875C158.803 80.1667 159.129 79.5807 159.52 78.9297C160.04 78.1484 160.496 77.6276 160.887 77.3672C161.277 76.9766 161.798 76.3906 162.449 75.6094C163.1 74.8281 163.556 74.4375 163.816 74.4375C164.858 74.4375 165.77 73.0703 166.551 70.3359C166.811 70.0755 167.202 69.8802 167.723 69.75C168.243 69.4896 168.699 69.2292 169.09 68.9688C169.611 68.0573 170.262 67.276 171.043 66.625C171.824 65.974 172.54 65.1927 173.191 64.2812C173.973 63.3698 175.535 62.0677 177.879 60.375C179.051 59.2031 179.702 58.6823 179.832 58.8125C180.092 58.8125 180.548 58.487 181.199 57.8359C181.98 57.0547 182.762 56.599 183.543 56.4688C184.454 56.3385 185.301 56.013 186.082 55.4922C186.863 54.9714 187.449 54.5156 187.84 54.125C188.23 53.7344 188.882 53.2786 189.793 52.7578C190.835 52.237 191.746 51.9115 192.527 51.7812C193.309 51.5208 194.025 51.3255 194.676 51.1953C195.457 50.9349 196.043 50.8047 196.434 50.8047C196.824 50.8047 197.28 50.7396 197.801 50.6094C198.452 50.4792 198.908 50.2839 199.168 50.0234C199.559 49.763 200.014 49.5677 200.535 49.4375C201.056 49.1771 201.642 49.112 202.293 49.2422C202.944 49.2422 204.246 49.0469 206.199 48.6562C208.283 48.1354 210.04 48.0052 211.473 48.2656C212.905 48.3958 214.272 48.4609 215.574 48.4609C216.876 48.4609 217.918 48.6562 218.699 49.0469C219.48 49.4375 220.262 49.6979 221.043 49.8281C221.824 49.9583 222.605 50.0234 223.387 50.0234C224.298 49.8932 225.014 49.9583 225.535 50.2188C226.056 50.349 226.577 50.5443 227.098 50.8047C228.921 51.7161 230.158 52.3021 230.809 52.5625C231.46 52.6927 232.566 53.3438 234.129 54.5156C235.822 55.5573 237.645 56.2734 239.598 56.6641C241.551 57.0547 242.723 57.3151 243.113 57.4453C243.634 57.4453 244.025 57.6406 244.285 58.0312C244.546 58.4219 244.936 58.4219 245.457 58.0312C246.499 57.5104 247.15 56.3385 247.41 54.5156C247.801 53.9948 248.257 53.6042 248.777 53.3438C249.428 53.0833 249.884 52.6276 250.145 51.9766C251.316 52.1068 252.098 51.9115 252.488 51.3906C252.879 50.8698 253.66 50.7396 254.832 51C255.743 51.9115 256.395 53.0833 256.785 54.5156C257.176 55.8177 257.697 57.0547 258.348 58.2266C258.217 58.7474 258.152 59.2031 258.152 59.5938C258.152 59.9844 258.087 60.375 257.957 60.7656L257.566 65.8438C258.087 67.4062 258.087 68.6432 257.566 69.5547C257.046 70.4661 256.655 71.1823 256.395 71.7031C256.264 72.224 256.199 72.7448 256.199 73.2656C256.329 73.6562 256.264 74.2422 256.004 75.0234C255.743 75.8047 255.678 76.4557 255.809 76.9766C255.939 77.3672 255.939 77.888 255.809 78.5391C255.809 79.0599 255.678 79.9062 255.418 81.0781C255.288 82.25 255.353 83.5521 255.613 84.9844C254.962 86.026 254.441 87.1328 254.051 88.3047C253.66 89.3464 253.074 90.1927 252.293 90.8438C250.73 90.5833 249.754 90.5833 249.363 90.8438C249.103 90.974 248.191 91.1042 246.629 91.2344C246.238 90.8438 246.043 90.5182 246.043 90.2578C246.043 89.8672 245.717 89.5417 245.066 89.2812C244.936 88.3698 244.676 87.6536 244.285 87.1328C243.895 86.4818 243.569 85.5703 243.309 84.3984C243.178 83.2266 243.374 81.7292 243.895 79.9062C244.415 78.0833 244.546 76.1953 244.285 74.2422C243.243 73.3307 242.592 72.3542 242.332 71.3125C240.639 69.6198 239.337 68.6432 238.426 68.3828C237.514 68.1224 236.863 67.862 236.473 67.6016C236.212 67.2109 236.017 66.8203 235.887 66.4297C235.757 66.0391 235.105 65.5833 233.934 65.0625C232.762 64.5417 231.525 64.3464 230.223 64.4766C229.832 63.5651 229.181 62.9141 228.27 62.5234C227.488 62.1328 226.707 61.7422 225.926 61.3516C225.145 60.9609 224.559 60.7656 224.168 60.7656C223.908 60.6354 223.517 60.4401 222.996 60.1797C221.043 60.3099 219.415 60.1146 218.113 59.5938C216.811 59.0729 215.574 58.8125 214.402 58.8125C213.361 58.8125 212.514 58.6172 211.863 58.2266C211.212 57.7057 210.691 57.5755 210.301 57.8359C209.91 58.0964 209.454 58.2266 208.934 58.2266L206.199 57.4453L203.465 57.8359C202.944 57.9661 202.553 58.0312 202.293 58.0312C201.642 57.7708 200.47 58.1615 198.777 59.2031L196.629 60.1797C196.108 60.8307 195.066 61.6771 193.504 62.7188C191.941 63.7604 190.639 64.4115 189.598 64.6719C189.467 65.7135 189.012 66.4297 188.23 66.8203C187.449 67.0807 186.798 67.4714 186.277 67.9922C185.887 68.513 185.626 69.0339 185.496 69.5547C185.366 70.0755 185.105 70.6615 184.715 71.3125C184.454 71.8333 184.129 72.4844 183.738 73.2656C183.348 74.0469 182.892 74.6979 182.371 75.2188C181.98 75.6094 181.655 76.0651 181.395 76.5859C181.134 76.9766 180.678 77.1068 180.027 76.9766C179.376 79.8411 177.944 82.3802 175.73 84.5938C175.6 84.9844 175.535 85.375 175.535 85.7656C175.665 86.1562 175.6 86.6771 175.34 87.3281C175.079 87.849 174.949 88.6953 174.949 89.8672C174.949 91.0391 174.819 92.1458 174.559 93.1875C174.428 94.099 174.233 94.8802 173.973 95.5312C173.712 96.0521 173.452 96.638 173.191 97.2891C173.061 97.8099 173.061 98.2656 173.191 98.6562C173.452 99.0469 173.257 100.479 172.605 102.953C172.085 105.297 171.889 108.161 172.02 111.547C172.15 114.932 171.629 118.057 170.457 120.922C171.499 126.26 171.824 129.711 171.434 131.273C171.173 132.706 171.108 133.943 171.238 134.984C172.02 136.938 172.28 138.695 172.02 140.258C171.889 141.82 172.345 143.969 173.387 146.703C174.428 149.307 175.145 151.456 175.535 153.148C176.056 154.711 176.512 156.013 176.902 157.055C177.423 157.966 177.684 158.682 177.684 159.203C177.684 159.594 177.814 160.049 178.074 160.57C178.465 161.091 178.921 161.742 179.441 162.523C180.092 163.174 180.678 164.021 181.199 165.062C181.72 166.104 182.111 166.625 182.371 166.625C182.632 166.625 183.087 167.211 183.738 168.383C184.52 169.555 185.691 170.987 187.254 172.68C188.947 174.242 190.314 175.74 191.355 177.172C193.048 177.953 194.741 178.93 196.434 180.102C198.257 181.143 199.819 181.924 201.121 182.445C202.553 182.966 203.53 183.227 204.051 183.227C204.572 183.096 205.223 183.227 206.004 183.617C206.785 183.878 207.892 184.333 209.324 184.984C214.533 187.589 218.113 188.109 220.066 186.547C221.629 185.635 222.996 185.44 224.168 185.961C225.47 186.352 226.837 186.286 228.27 185.766C229.702 185.115 230.939 184.594 231.98 184.203C233.022 183.812 233.934 183.487 234.715 183.227C235.496 182.836 236.212 182.576 236.863 182.445C237.514 182.185 238.165 181.924 238.816 181.664C240.9 180.232 242.462 179.06 243.504 178.148C244.676 177.237 245.392 176.065 245.652 174.633C246.564 174.503 247.215 174.177 247.605 173.656C247.996 173.135 248.517 172.615 249.168 172.094C249.689 171.052 250.014 170.596 250.145 170.727C250.405 170.727 250.6 170.596 250.73 170.336C250.991 170.076 251.316 169.555 251.707 168.773C252.098 167.992 252.488 167.471 252.879 167.211C253.4 166.82 253.79 166.495 254.051 166.234C254.441 165.453 255.223 164.607 256.395 163.695C257.697 162.784 258.803 162.654 259.715 163.305C260.887 164.607 261.603 166.169 261.863 167.992C262.254 169.815 262.254 171.247 261.863 172.289C261.473 173.331 260.04 174.568 257.566 176C257.436 176.781 256.915 177.562 256.004 178.344C255.223 179.125 254.572 179.841 254.051 180.492C253.66 181.013 253.27 181.534 252.879 182.055C252.488 182.576 251.837 183.227 250.926 184.008C250.014 184.789 249.233 185.44 248.582 185.961C247.931 186.482 247.345 187.068 246.824 187.719C246.303 188.24 245.783 188.63 245.262 188.891C244.871 189.151 244.35 189.281 243.699 189.281C243.048 189.281 242.202 189.477 241.16 189.867C240.249 190.258 239.207 190.909 238.035 191.82C236.863 192.602 235.236 192.992 233.152 192.992L229.637 194.945H227.879C227.228 194.945 226.772 194.815 226.512 194.555C225.21 195.596 224.428 196.052 224.168 195.922C223.908 195.792 223.257 195.987 222.215 196.508C221.303 196.898 219.871 197.094 217.918 197.094C216.095 197.094 214.272 197.029 212.449 196.898C210.757 196.768 209.454 196.703 208.543 196.703C207.762 196.573 206.98 196.768 206.199 197.289C205.809 197.029 205.483 196.833 205.223 196.703C204.962 196.443 204.572 196.182 204.051 195.922C203.53 195.531 202.879 195.271 202.098 195.141C201.447 195.01 200.796 194.815 200.145 194.555C199.624 194.294 199.168 194.034 198.777 193.773C198.517 193.513 198.126 193.383 197.605 193.383C197.215 193.253 196.564 193.188 195.652 193.188C194.741 193.188 194.155 193.253 193.895 193.383ZM299.949 67.6016L298.582 71.7031C298.582 72.6146 298.257 73.3958 297.605 74.0469C297.085 74.5677 296.694 75.1536 296.434 75.8047C296.303 76.3255 295.913 77.1068 295.262 78.1484C294.611 79.0599 294.025 79.9062 293.504 80.6875C291.941 83.5521 290.509 84.9844 289.207 84.9844C288.686 86.2865 288.23 87.3281 287.84 88.1094C287.319 88.5 286.863 88.8255 286.473 89.0859C286.212 89.3464 285.822 89.5417 285.301 89.6719C283.999 92.6667 282.176 94.6849 279.832 95.7266C278.66 95.4661 277.814 94.9453 277.293 94.1641C276.772 93.3828 276.186 92.6667 275.535 92.0156C275.275 91.2344 275.275 90.5833 275.535 90.0625C275.796 89.5417 275.861 88.8906 275.73 88.1094C276.902 87.4583 277.879 86.6771 278.66 85.7656C279.572 84.8542 280.613 84.138 281.785 83.6172C282.046 82.9661 282.436 82.3802 282.957 81.8594C283.478 81.3385 283.868 80.6224 284.129 79.7109C285.171 78.1484 286.017 76.9115 286.668 76C287.449 74.9583 287.84 74.2422 287.84 73.8516C287.84 73.4609 288.1 72.8099 288.621 71.8984C289.142 70.8568 289.337 70.0755 289.207 69.5547C289.207 69.0339 289.272 68.1875 289.402 67.0156C289.533 65.8438 288.882 64.4766 287.449 62.9141C285.105 64.6068 282.892 65.4531 280.809 65.4531C280.027 65.7135 278.79 65.6484 277.098 65.2578C276.707 64.9974 276.382 64.6068 276.121 64.0859C275.861 63.4349 275.405 63.3698 274.754 63.8906C274.493 62.4583 273.712 61.4818 272.41 60.9609C272.15 59.138 272.085 57.9661 272.215 57.4453C272.475 56.7943 272.605 56.2734 272.605 55.8828C272.605 55.362 272.671 54.8411 272.801 54.3203C273.061 53.7995 273.712 53.0182 274.754 51.9766C275.926 50.9349 276.837 50.0885 277.488 49.4375C287.645 49.4375 294.22 52.0417 297.215 57.25C299.038 60.7656 299.949 64.2161 299.949 67.6016ZM341.551 68.9688C342.202 70.5312 342.527 73.526 342.527 77.9531C342.918 79.9062 343.113 81.013 343.113 81.2734L342.723 84.9844C342.723 85.1146 342.983 87.263 343.504 91.4297C343.243 92.7318 343.178 93.9036 343.309 94.9453C343.569 95.8568 343.634 96.7031 343.504 97.4844L343.113 101.195C343.113 102.107 343.243 103.018 343.504 103.93C343.764 104.841 343.569 105.753 342.918 106.664C343.309 108.227 343.634 109.203 343.895 109.594C343.243 111.156 342.918 112.719 342.918 114.281L343.504 119.359L342.527 124.438L343.113 131.664C342.462 134.919 342.137 137.003 342.137 137.914C342.137 138.826 342.202 139.997 342.332 141.43C342.592 142.732 342.592 143.708 342.332 144.359C342.202 145.01 342.267 145.661 342.527 146.312C343.048 147.224 343.829 147.615 344.871 147.484C345.913 147.354 347.02 147.419 348.191 147.68C349.493 147.94 350.405 148.005 350.926 147.875C351.577 147.745 352.228 147.745 352.879 147.875L356.59 148.266L360.691 147.875C361.733 147.745 362.645 147.81 363.426 148.07C364.337 148.331 365.184 148.396 365.965 148.266C367.137 147.224 367.723 145.727 367.723 143.773C367.723 141.82 367.983 139.932 368.504 138.109C369.155 137.458 371.238 137.328 374.754 137.719C375.796 138.63 376.316 140.258 376.316 142.602C376.447 144.945 376.577 147.484 376.707 150.219L376.902 153.93C376.902 154.19 376.967 154.516 377.098 154.906C377.228 155.297 377.228 156.013 377.098 157.055C376.967 157.966 376.967 158.682 377.098 159.203C377.228 159.724 377.228 160.44 377.098 161.352C376.967 162.133 376.967 162.654 377.098 162.914C377.228 163.174 377.228 163.63 377.098 164.281C376.967 164.932 376.447 165.844 375.535 167.016C374.624 168.057 373.712 168.578 372.801 168.578C372.02 168.578 371.499 168.513 371.238 168.383C370.978 168.122 370.652 167.862 370.262 167.602C370.001 167.341 369.676 167.081 369.285 166.82C369.025 166.43 368.504 166.234 367.723 166.234C367.462 164.411 367.007 163.044 366.355 162.133C365.704 161.221 365.509 159.789 365.77 157.836C363.816 157.185 361.798 156.859 359.715 156.859C357.762 156.859 355.874 156.99 354.051 157.25C352.358 157.38 350.926 157.38 349.754 157.25C348.712 157.12 347.736 157.25 346.824 157.641C345.913 157.901 345.066 158.161 344.285 158.422C343.634 158.682 342.853 158.943 341.941 159.203V165.453L340.965 177.367L341.551 182.055C341.551 182.836 341.355 183.682 340.965 184.594C340.574 185.505 340.444 186.286 340.574 186.938C340.704 187.589 340.9 188.174 341.16 188.695C341.551 189.086 341.811 189.542 341.941 190.062C342.592 190.323 343.243 190.453 343.895 190.453C344.546 190.453 345.132 190.518 345.652 190.648C346.173 190.779 346.629 190.974 347.02 191.234C347.41 191.365 347.801 191.43 348.191 191.43L351.121 191.234L353.855 191.43L358.934 190.453C359.845 190.844 361.473 190.648 363.816 189.867L370.066 190.648L372.41 190.258C373.191 190.258 373.973 190.388 374.754 190.648C375.535 190.779 376.251 190.583 376.902 190.062C377.944 190.844 379.246 191.169 380.809 191.039C382.501 190.909 384.064 190.974 385.496 191.234C386.147 191.104 387.059 190.258 388.23 188.695C388.491 187.784 388.621 187.068 388.621 186.547C388.621 186.026 388.816 185.375 389.207 184.594C389.728 183.812 390.184 183.096 390.574 182.445C391.095 181.794 391.551 181.143 391.941 180.492C392.462 179.841 393.243 179.451 394.285 179.32C395.327 179.19 396.173 179.711 396.824 180.883C397.605 181.924 397.996 182.836 397.996 183.617C397.996 184.398 397.996 185.049 397.996 185.57C398.126 185.961 397.996 186.742 397.605 187.914C397.215 189.086 397.085 189.997 397.215 190.648C397.345 191.169 397.215 192.016 396.824 193.188C396.434 194.229 396.303 195.206 396.434 196.117C396.564 196.898 396.564 197.875 396.434 199.047C396.303 200.089 396.303 200.935 396.434 201.586C396.694 202.237 396.759 202.888 396.629 203.539C396.629 204.19 396.499 204.906 396.238 205.688C396.108 206.469 395.978 207.185 395.848 207.836C394.676 208.487 393.699 209.073 392.918 209.594C392.267 210.245 391.03 210.44 389.207 210.18C388.556 209.529 388.035 208.812 387.645 208.031C387.254 207.25 386.798 206.534 386.277 205.883C386.147 205.102 386.147 204.255 386.277 203.344C386.408 202.562 386.342 201.977 386.082 201.586C384.78 200.674 383.934 200.154 383.543 200.023C383.152 199.893 382.697 199.763 382.176 199.633C381.785 199.372 381.199 199.307 380.418 199.438C379.767 199.568 379.246 199.242 378.855 198.461C378.204 198.721 377.423 198.852 376.512 198.852C375.6 198.721 374.819 198.786 374.168 199.047C373.517 199.307 373.061 199.242 372.801 198.852C372.671 198.331 372.15 198.201 371.238 198.461C369.936 199.372 368.895 199.958 368.113 200.219C367.462 200.349 366.941 200.674 366.551 201.195C365.9 200.935 365.249 200.609 364.598 200.219C363.947 199.828 363.23 199.633 362.449 199.633C361.798 199.503 361.147 199.568 360.496 199.828C359.975 200.089 359.194 200.154 358.152 200.023C357.111 199.763 356.395 199.763 356.004 200.023C355.743 200.154 355.483 200.219 355.223 200.219L353.074 199.828L349.168 200.805L346.238 200.609L343.309 199.828C340.444 199.828 338.361 200.284 337.059 201.195C335.887 202.107 334.78 202.628 333.738 202.758L331.199 202.562C330.678 202.693 330.223 203.018 329.832 203.539C329.572 204.19 329.181 204.516 328.66 204.516C328.139 204.516 327.163 204.19 325.73 203.539C324.428 202.888 323.191 202.562 322.02 202.562C320.848 202.693 319.546 202.888 318.113 203.148C316.681 203.539 315.249 203.604 313.816 203.344L313.426 201C312.905 198.786 313.491 197.224 315.184 196.312C315.965 195.922 317.137 195.466 318.699 194.945C320.392 194.424 321.564 193.773 322.215 192.992L321.629 190.062C321.499 189.542 321.499 188.826 321.629 187.914C321.889 187.003 321.694 185.896 321.043 184.594L322.215 182.055L322.02 179.711L322.41 177.367C322.41 175.935 322.215 174.242 321.824 172.289L321.629 170.141L322.02 167.211C322.02 164.737 321.889 162.068 321.629 159.203L322.801 149.047C322.801 148.005 322.54 147.029 322.02 146.117C321.889 145.466 321.889 144.88 322.02 144.359C322.28 143.708 322.41 143.188 322.41 142.797C322.41 142.406 322.215 141.43 321.824 139.867L322.215 134.008C321.564 131.794 321.303 129.906 321.434 128.344C321.694 126.781 321.824 125.284 321.824 123.852L321.629 99.0469V91.8203L322.02 88.3047L321.629 83.2266L322.02 80.2969L321.824 76.9766L321.434 73.0703C321.173 71.2474 321.173 69.9453 321.434 69.1641C321.694 68.3828 321.759 67.4714 321.629 66.4297C321.238 65.388 320.652 64.6719 319.871 64.2812C319.22 63.8906 318.374 63.5 317.332 63.1094C316.421 62.5885 315.704 62.1328 315.184 61.7422C314.793 61.3516 314.337 61.0911 313.816 60.9609C313.947 60.0495 313.751 59.2031 313.23 58.4219C312.84 57.5104 312.775 56.5339 313.035 55.4922C313.816 54.7109 315.509 54.3203 318.113 54.3203C320.717 54.3203 322.475 53.8646 323.387 52.9531C324.038 52.8229 324.428 52.9531 324.559 53.3438C324.819 53.6042 325.275 53.7344 325.926 53.7344C326.707 53.6042 327.488 53.6693 328.27 53.9297C329.051 54.0599 329.767 53.9948 330.418 53.7344C331.72 53.9948 332.697 54.125 333.348 54.125C334.129 54.125 334.715 53.9948 335.105 53.7344C335.626 53.474 336.147 53.2786 336.668 53.1484C337.319 53.0182 338.1 53.0833 339.012 53.3438C340.053 53.6042 341.551 53.6693 343.504 53.5391C345.457 53.4089 347.215 53.474 348.777 53.7344C350.34 53.9948 351.316 54.0599 351.707 53.9297C352.098 53.6693 352.553 53.474 353.074 53.3438L356.395 53.1484C358.348 53.5391 359.454 53.7344 359.715 53.7344C359.975 53.7344 360.301 53.6693 360.691 53.5391C361.082 53.4089 361.473 53.2786 361.863 53.1484C362.384 53.0182 362.84 53.0182 363.23 53.1484C363.751 53.2786 364.142 53.0182 364.402 52.3672C364.793 52.7578 365.509 53.2135 366.551 53.7344C367.462 53.3438 368.374 53.2786 369.285 53.5391C370.327 53.6693 371.564 53.7995 372.996 53.9297C374.428 53.9297 375.405 53.7995 375.926 53.5391C376.577 53.2786 377.358 53.0833 378.27 52.9531C379.311 52.8229 380.353 52.8229 381.395 52.9531C382.566 53.0833 383.478 52.9531 384.129 52.5625C385.301 50.6094 386.017 48.6562 386.277 46.7031C386.538 44.75 387.059 43.2526 387.84 42.2109C390.444 41.2995 392.267 41.0391 393.309 41.4297C394.22 42.7318 394.806 43.513 395.066 43.7734C395.978 44.4245 396.564 45.987 396.824 48.4609C397.085 50.8047 397.801 52.7578 398.973 54.3203C398.582 55.362 398.387 56.5339 398.387 57.8359C398.517 59.138 398.191 60.1146 397.41 60.7656C397.54 61.8073 397.736 62.7839 397.996 63.6953C398.257 64.6068 398.257 65.7135 397.996 67.0156C397.345 68.1875 397.085 68.7734 397.215 68.7734C397.345 68.7734 397.41 69.3594 397.41 70.5312C397.41 71.5729 397.345 72.6797 397.215 73.8516C397.085 74.8932 396.954 76 396.824 77.1719C395.783 78.6042 394.22 79.5156 392.137 79.9062C389.923 80.6875 388.23 80.4922 387.059 79.3203C386.798 79.1901 386.408 79.0599 385.887 78.9297C385.496 78.6693 385.171 78.4089 384.91 78.1484C385.171 77.4974 385.171 76.8464 384.91 76.1953C384.78 75.4141 384.65 74.763 384.52 74.2422C384.52 73.7214 384.585 73.2656 384.715 72.875C384.845 72.3542 384.78 71.3125 384.52 69.75C384.259 68.1875 384.259 67.2109 384.52 66.8203C384.91 66.2995 384.78 65.388 384.129 64.0859C383.348 63.6953 382.436 63.5 381.395 63.5C380.483 63.5 379.051 63.6302 377.098 63.8906C375.275 64.151 373.842 63.9557 372.801 63.3047C372.54 63.8255 372.085 64.0208 371.434 63.8906C370.783 63.6302 370.327 63.7604 370.066 64.2812C369.025 63.5 367.983 63.2396 366.941 63.5C365.9 63.6302 364.858 63.5651 363.816 63.3047L361.082 62.5234H359.324C357.632 62.5234 356.46 62.7839 355.809 63.3047C355.288 63.6953 354.181 63.8906 352.488 63.8906L347.801 64.6719C347.15 65.3229 346.694 65.7135 346.434 65.8438C345.001 66.1042 343.374 67.1458 341.551 68.9688ZM444.48 46.1172L450.926 44.5547C451.707 44.9453 452.488 45.3359 453.27 45.7266C454.181 45.987 455.027 46.3125 455.809 46.7031C456.59 48.3958 457.632 49.3073 458.934 49.4375C460.757 49.4375 462.189 50.349 463.23 52.1719C464.142 53.474 465.053 54.5807 465.965 55.4922C468.439 56.6641 470.392 56.599 471.824 55.2969L474.559 52.1719C475.991 50.8698 477.423 51.2604 478.855 53.3438C479.637 54.3854 479.897 55.6224 479.637 57.0547C478.986 58.487 478.465 59.8542 478.074 61.1562C477.814 62.3281 477.488 63.3047 477.098 64.0859C476.837 64.8672 476.316 65.8438 475.535 67.0156C474.754 68.0573 474.363 68.9688 474.363 69.75C471.238 72.0938 469.546 74.8281 469.285 77.9531C467.983 79.5156 467.202 80.7526 466.941 81.6641C465.77 81.7943 464.728 82.0547 463.816 82.4453C462.905 82.8359 461.928 82.8359 460.887 82.4453C460.626 81.4036 460.366 80.5573 460.105 79.9062C459.845 79.125 459.715 78.0833 459.715 76.7812C459.845 75.4792 460.496 74.0469 461.668 72.4844C462.84 70.7917 463.1 69.099 462.449 67.4062C461.928 65.5833 461.212 64.5417 460.301 64.2812C459.52 63.8906 458.999 62.9792 458.738 61.5469C456.785 60.6354 455.092 59.2682 453.66 57.4453C451.837 57.5755 450.47 56.8594 449.559 55.2969C447.866 55.1667 446.434 55.6224 445.262 56.6641L442.527 59.2031C441.876 59.724 441.16 60.1797 440.379 60.5703C439.077 62.7839 438.426 64.8672 438.426 66.8203C438.556 68.6432 438.491 70.2057 438.23 71.5078C438.1 72.6797 438.165 73.8516 438.426 75.0234C438.686 76.1953 438.947 77.237 439.207 78.1484C439.467 78.9297 439.533 80.0365 439.402 81.4688C439.402 82.7708 439.533 84.138 439.793 85.5703C440.184 86.8724 440.509 88.0443 440.77 89.0859C441.16 90.1276 441.421 91.1042 441.551 92.0156C441.681 92.7969 442.072 93.9688 442.723 95.5312C443.504 97.0938 444.025 98.526 444.285 99.8281C444.546 101 444.936 102.107 445.457 103.148C446.499 104.32 447.28 105.622 447.801 107.055C448.322 108.487 448.973 109.854 449.754 111.156C450.535 112.458 451.316 113.565 452.098 114.477C453.009 115.388 453.66 116.43 454.051 117.602C455.223 118.383 456.264 118.773 457.176 118.773C457.176 120.076 457.371 121.508 457.762 123.07C458.152 123.852 458.608 124.633 459.129 125.414C459.78 126.195 460.301 127.042 460.691 127.953C461.082 128.734 461.473 129.581 461.863 130.492C462.254 131.404 462.645 132.315 463.035 133.227C463.556 134.008 464.077 134.854 464.598 135.766C465.249 136.547 465.77 137.328 466.16 138.109C467.072 139.151 467.462 139.802 467.332 140.062C467.332 140.323 467.592 140.844 468.113 141.625C468.634 142.406 469.48 144.49 470.652 147.875C471.824 151.13 473.061 153.409 474.363 154.711C474.103 155.753 474.038 156.729 474.168 157.641C474.428 158.552 474.559 159.529 474.559 160.57C474.559 161.612 474.689 163.174 474.949 165.258C475.21 167.211 475.145 169.034 474.754 170.727C474.363 172.289 474.168 173.331 474.168 173.852C474.298 174.242 474.103 174.893 473.582 175.805C473.061 176.586 472.605 177.367 472.215 178.148C471.824 178.93 471.434 179.646 471.043 180.297C470.783 180.818 470.522 181.339 470.262 181.859C470.001 182.25 469.806 182.706 469.676 183.227C469.546 183.747 469.415 184.138 469.285 184.398C468.113 185.18 467.527 185.635 467.527 185.766C467.527 186.026 466.681 186.742 464.988 187.914L463.816 189.672C462.645 191.755 461.668 192.992 460.887 193.383C459.454 193.773 458.673 194.099 458.543 194.359C458.543 194.62 458.413 194.555 458.152 194.164C457.501 195.206 457.046 195.727 456.785 195.727C456.655 195.596 456.46 195.661 456.199 195.922C456.069 196.052 455.874 196.312 455.613 196.703C455.483 196.964 455.158 197.289 454.637 197.68C454.246 197.94 453.66 198.201 452.879 198.461C452.228 198.591 451.642 198.786 451.121 199.047C450.6 199.177 450.145 199.307 449.754 199.438L447.41 200.219C444.806 201.13 443.048 202.042 442.137 202.953C441.746 202.823 441.421 202.628 441.16 202.367C440.9 202.107 440.314 201.977 439.402 201.977C438.491 202.107 437.97 202.562 437.84 203.344C437.059 202.823 436.212 202.693 435.301 202.953C434.389 203.344 433.543 203.539 432.762 203.539L430.027 203.148C428.074 203.409 426.772 203.344 426.121 202.953C425.47 202.693 424.428 202.302 422.996 201.781C421.564 201.26 420.457 200.935 419.676 200.805C419.025 200.544 418.634 199.763 418.504 198.461C417.462 198.461 416.355 198.201 415.184 197.68C414.142 197.029 413.491 196.508 413.23 196.117C412.97 195.727 412.449 195.141 411.668 194.359C410.887 193.578 410.366 192.927 410.105 192.406C409.845 191.885 409.65 191.234 409.52 190.453C409.52 189.542 409.389 188.63 409.129 187.719C408.348 186.547 407.957 185.635 407.957 184.984C408.087 184.203 407.632 183.682 406.59 183.422C406.72 182.641 406.655 182.055 406.395 181.664C406.134 181.273 406.004 180.622 406.004 179.711C406.004 178.799 405.678 178.279 405.027 178.148C404.376 178.018 404.051 177.497 404.051 176.586C404.051 175.674 404.181 174.828 404.441 174.047C405.483 170.922 405.678 168.513 405.027 166.82C406.329 164.997 407.501 163.305 408.543 161.742C409.715 160.18 410.887 158.617 412.059 157.055C414.272 156.924 416.03 155.948 417.332 154.125C418.243 154.776 419.09 154.711 419.871 153.93C420.652 153.148 421.434 152.823 422.215 152.953C422.996 153.083 423.582 153.018 423.973 152.758C424.493 152.367 425.796 152.367 427.879 152.758C429.962 152.758 431.655 153.018 432.957 153.539C434.389 153.93 435.105 154.32 435.105 154.711C437.319 155.753 438.686 156.729 439.207 157.641C439.728 158.422 440.314 159.333 440.965 160.375C441.225 160.375 441.486 160.635 441.746 161.156C442.007 161.677 442.267 162.133 442.527 162.523C444.09 164.346 444.676 167.602 444.285 172.289C444.285 173.461 444.025 174.633 443.504 175.805C443.113 176.846 442.853 177.953 442.723 179.125C442.462 181.729 440.77 182.836 437.645 182.445C436.863 182.445 436.147 181.99 435.496 181.078C434.975 180.036 434.259 179.451 433.348 179.32C433.087 178.018 432.762 176.781 432.371 175.609C432.111 174.438 431.785 173.135 431.395 171.703C430.223 165.844 428.986 162.719 427.684 162.328C427.033 162.068 425.991 162.068 424.559 162.328C423.126 162.458 422.085 162.914 421.434 163.695C420.913 164.346 420.457 164.672 420.066 164.672C419.806 164.542 419.415 164.672 418.895 165.062C418.374 165.453 417.788 166.039 417.137 166.82C416.616 167.471 416.03 167.992 415.379 168.383C413.296 174.633 413.816 178.93 416.941 181.273C416.941 182.576 417.137 183.422 417.527 183.812C417.658 184.854 417.788 185.505 417.918 185.766C418.048 185.896 418.113 186.612 418.113 187.914C418.895 188.565 419.611 189.151 420.262 189.672C421.043 190.193 421.629 190.974 422.02 192.016C423.582 192.016 424.754 192.406 425.535 193.188C426.316 193.969 427.228 194.685 428.27 195.336C429.311 194.945 430.158 194.88 430.809 195.141C431.59 195.401 432.501 195.727 433.543 196.117C437.71 195.727 441.551 194.294 445.066 191.82C445.587 191.169 446.108 190.844 446.629 190.844C447.15 190.714 448.257 189.607 449.949 187.523C451.382 186.482 452.228 185.766 452.488 185.375C452.749 184.854 453.66 183.682 455.223 181.859C456.785 180.036 457.436 178.474 457.176 177.172C456.915 175.87 456.915 174.438 457.176 172.875C456.915 171.312 456.785 170.141 456.785 169.359C456.915 168.578 456.785 167.797 456.395 167.016C456.134 166.234 455.874 165.453 455.613 164.672C455.483 163.891 455.092 162.784 454.441 161.352C453.921 159.919 452.944 158.227 451.512 156.273C450.21 154.32 449.428 151.846 449.168 148.852C448.387 147.549 447.54 146.443 446.629 145.531C445.848 144.49 445.132 143.318 444.48 142.016C443.569 140.974 442.658 139.932 441.746 138.891C440.965 137.849 440.379 136.482 439.988 134.789C438.816 133.617 437.84 132.25 437.059 130.688C436.277 129.125 435.431 127.823 434.52 126.781C433.738 125.609 433.348 124.828 433.348 124.438C433.348 123.656 432.827 122.875 431.785 122.094C430.743 121.182 430.223 119.229 430.223 116.234C429.572 115.844 429.116 115.323 428.855 114.672C428.074 113.109 427.033 111.807 425.73 110.766C423.777 108.943 423.126 106.339 423.777 102.953C423.517 102.172 423.126 101.651 422.605 101.391C422.215 101.13 421.889 100.674 421.629 100.023C421.499 99.2422 421.368 98.4609 421.238 97.6797C421.238 96.7682 421.108 95.9219 420.848 95.1406C420.717 94.3594 420.522 93.6432 420.262 92.9922C420.132 92.2109 420.132 91.4948 420.262 90.8438L420.066 87.9141C420.066 87.7839 419.806 86.9375 419.285 85.375L418.895 82.0547L419.676 79.125L419.285 75.4141C419.285 71.5078 419.546 69.0339 420.066 67.9922C420.587 66.9505 420.913 65.974 421.043 65.0625C421.303 64.151 421.434 63.3047 421.434 62.5234C421.564 61.612 421.954 60.7656 422.605 59.9844C423.647 59.2031 424.103 58.6823 423.973 58.4219C423.973 58.1615 424.168 57.7057 424.559 57.0547C425.079 56.2734 425.6 55.6875 426.121 55.2969C426.642 54.9062 427.098 54.5156 427.488 54.125C428.009 53.6042 428.4 53.1484 428.66 52.7578C428.921 52.237 429.246 51.8464 429.637 51.5859C430.158 51.3255 430.548 51.1953 430.809 51.1953C431.199 51.0651 432.176 50.6745 433.738 50.0234C435.301 49.2422 436.668 48.3958 437.84 47.4844C439.012 46.5729 439.988 46.0521 440.77 45.9219C441.681 45.6615 442.332 45.6615 442.723 45.9219C443.113 46.0521 443.699 46.1172 444.48 46.1172ZM586.277 76.9766L585.496 79.125C585.496 79.9062 585.626 80.6875 585.887 81.4688C586.277 82.25 586.342 83.1615 586.082 84.2031C585.952 85.1146 585.496 86.026 584.715 86.9375C583.934 87.849 583.152 88.8255 582.371 89.8672C581.85 89.9974 581.395 89.9323 581.004 89.6719C580.743 89.2812 580.353 89.151 579.832 89.2812C579.311 88.5 578.595 87.7188 577.684 86.9375C576.772 86.1562 576.251 84.8542 576.121 83.0312C575.991 81.2083 575.535 79.6458 574.754 78.3438C574.103 76.9115 573.647 75.8698 573.387 75.2188C572.605 75.349 570.001 75.0885 565.574 74.4375C564.272 74.8281 563.23 74.9583 562.449 74.8281C561.668 74.6979 561.147 74.6328 560.887 74.6328C559.585 74.6328 558.283 74.9583 556.98 75.6094C555.678 76.2604 554.572 76.3906 553.66 76C552.749 75.6094 551.707 75.4792 550.535 75.6094C549.493 75.6094 548.842 75.6094 548.582 75.6094C548.322 75.4792 548.061 75.4792 547.801 75.6094C546.889 76.7812 546.694 78.4089 547.215 80.4922C547.736 82.5755 547.931 83.8776 547.801 84.3984C547.671 84.9193 547.801 85.8958 548.191 87.3281C548.712 88.7604 548.777 90.0625 548.387 91.2344C548.126 92.4062 548.126 93.3828 548.387 94.1641C548.647 94.8151 548.647 95.4661 548.387 96.1172C548.126 96.638 547.996 97.224 547.996 97.875L548.582 101C548.712 102.042 548.712 103.018 548.582 103.93C548.582 104.711 548.777 105.753 549.168 107.055C549.559 108.227 549.689 109.073 549.559 109.594C549.428 109.984 549.363 111.286 549.363 113.5C549.363 115.714 549.689 119.424 550.34 124.633L549.754 127.562L551.121 141.234L550.73 145.727L551.121 149.828L552.098 154.125L552.488 157.25C552.488 157.901 552.358 158.617 552.098 159.398C551.967 160.18 551.837 161.091 551.707 162.133C551.577 163.174 551.577 164.411 551.707 165.844C551.967 167.146 552.098 168.318 552.098 169.359C552.098 170.271 552.033 170.987 551.902 171.508C551.772 172.029 551.772 172.81 551.902 173.852C552.033 174.893 551.967 175.674 551.707 176.195C551.577 176.716 551.512 177.237 551.512 177.758L552.098 184.203V189.281C552.098 190.193 552.228 191.299 552.488 192.602C553.66 194.034 554.441 194.685 554.832 194.555C555.353 194.294 555.939 194.164 556.59 194.164L558.348 195.727C558.868 195.596 559.845 195.727 561.277 196.117C565.053 197.159 566.486 198.656 565.574 200.609C565.053 202.042 564.272 203.344 563.23 204.516C562.579 204.776 561.928 204.711 561.277 204.32C560.757 204.06 560.236 203.93 559.715 203.93C558.413 204.971 556.915 205.427 555.223 205.297C553.66 205.167 552.163 205.167 550.73 205.297C549.428 205.557 548.387 205.753 547.605 205.883C546.824 206.013 545.913 206.078 544.871 206.078C543.829 206.208 542.853 206.208 541.941 206.078C541.03 205.948 539.988 205.948 538.816 206.078C537.645 206.339 536.473 206.664 535.301 207.055C534.259 207.576 533.087 207.771 531.785 207.641C530.483 207.641 529.311 207.51 528.27 207.25C527.228 206.99 526.056 206.859 524.754 206.859C523.452 206.99 522.15 207.25 520.848 207.641C519.546 208.161 518.634 208.357 518.113 208.227C517.592 208.096 517.072 207.771 516.551 207.25C516.16 206.729 515.704 206.339 515.184 206.078C515.444 203.995 515.704 202.497 515.965 201.586C517.007 200.935 518.178 200.544 519.48 200.414C520.783 200.284 521.824 200.089 522.605 199.828C523.517 199.568 524.298 199.307 524.949 199.047C525.6 198.786 526.316 198.526 527.098 198.266C527.879 198.005 528.66 197.81 529.441 197.68C530.223 197.549 530.939 197.159 531.59 196.508C532.371 195.857 532.762 195.466 532.762 195.336C532.892 195.206 533.283 194.555 533.934 193.383C534.715 192.211 534.975 191.365 534.715 190.844C534.585 190.193 534.52 189.477 534.52 188.695L534.91 186.352C534.65 184.789 534.52 182.901 534.52 180.688C534.52 178.474 534.389 177.107 534.129 176.586C533.999 175.935 533.803 175.349 533.543 174.828C533.413 174.177 533.478 173.656 533.738 173.266C533.999 172.745 534.129 172.159 534.129 171.508C532.957 168.904 532.371 164.802 532.371 159.203C532.371 153.604 532.241 148.982 531.98 145.336L532.371 142.406L531.98 139.477C532.241 137.654 532.111 136.286 531.59 135.375C532.762 132.38 532.306 129.19 530.223 125.805C530.874 125.154 531.134 124.503 531.004 123.852C530.874 123.07 530.939 121.964 531.199 120.531C531.46 118.969 531.46 117.797 531.199 117.016C530.939 116.234 530.743 115.453 530.613 114.672C530.483 113.891 530.418 113.24 530.418 112.719C530.548 112.198 530.613 111.612 530.613 110.961L529.832 108.812L530.223 106.273C530.223 104.32 530.288 103.279 530.418 103.148C529.767 101.846 529.441 100.089 529.441 97.875V90.8438L529.246 82.4453C529.246 82.1849 529.311 81.7292 529.441 81.0781C529.572 80.2969 529.572 79.776 529.441 79.5156C529.311 79.125 529.051 78.7995 528.66 78.5391C528.27 78.2786 528.204 77.8229 528.465 77.1719C527.553 76.9115 526.902 77.0417 526.512 77.5625C526.251 77.9531 525.73 78.1484 524.949 78.1484L515.77 77.7578L513.035 77.1719L505.418 77.3672C504.637 77.7578 503.921 78.2786 503.27 78.9297C502.749 79.4505 501.902 79.6458 500.73 79.5156C500.079 80.1667 499.233 80.7526 498.191 81.2734C497.15 81.6641 496.499 82.1849 496.238 82.8359C496.499 84.7891 496.173 86.2214 495.262 87.1328C494.48 87.9141 493.895 88.6953 493.504 89.4766C493.243 90.2578 493.048 91.1693 492.918 92.2109C492.918 93.1224 492.397 93.513 491.355 93.3828C490.314 93.1224 489.272 92.9922 488.23 92.9922C487.319 92.862 486.928 92.276 487.059 91.2344C486.408 90.8438 486.082 90.5833 486.082 90.4531C486.082 90.1927 486.277 89.3464 486.668 87.9141C487.059 86.4818 487.059 84.8542 486.668 83.0312C486.928 81.4688 486.928 80.2969 486.668 79.5156C486.538 78.6042 486.473 77.8229 486.473 77.1719L487.059 72.6797C487.059 72.0286 486.863 71.5078 486.473 71.1172C486.212 70.5964 486.408 70.2057 487.059 69.9453C486.277 69.1641 485.952 68.2526 486.082 67.2109C486.212 66.0391 485.952 64.9323 485.301 63.8906C486.342 62.3281 486.538 60.4401 485.887 58.2266C487.319 56.4036 489.793 55.9479 493.309 56.8594C494.09 58.1615 494.676 59.6589 495.066 61.3516C495.457 63.0443 495.913 64.8021 496.434 66.625C497.736 67.5365 499.363 67.9922 501.316 67.9922L504.441 67.4062C506.395 67.7969 508.152 67.862 509.715 67.6016C511.408 67.2109 512.905 66.9505 514.207 66.8203C515.509 66.6901 516.941 66.6901 518.504 66.8203C520.066 66.9505 521.173 67.0807 521.824 67.2109C522.475 67.3411 523.126 67.276 523.777 67.0156C524.949 67.1458 525.665 67.1458 525.926 67.0156C526.186 66.7552 526.512 66.5599 526.902 66.4297L530.613 66.625L534.324 66.4297C535.105 66.4297 538.23 66.2344 543.699 65.8438C545.783 65.974 547.801 65.8438 549.754 65.4531C551.967 65.3229 554.311 65.388 556.785 65.6484C559.259 65.7786 561.603 65.8438 563.816 65.8438C565.249 65.4531 566.03 65.3229 566.16 65.4531C566.29 65.5833 566.616 65.6484 567.137 65.6484C568.699 64.8672 569.806 64.4766 570.457 64.4766C571.238 64.4766 571.824 64.3464 572.215 64.0859C572.736 63.8255 573.387 63.5 574.168 63.1094C575.079 62.5885 575.796 62.0677 576.316 61.5469V60.375L577.488 57.25C577.358 56.9896 577.488 56.5339 577.879 55.8828C578.4 55.2318 578.66 54.7109 578.66 54.3203C578.66 53.9297 578.986 53.0182 579.637 51.5859C580.418 50.0234 581.264 49.2422 582.176 49.2422C583.217 49.112 583.999 49.5026 584.52 50.4141C585.171 51.1953 585.952 51.9115 586.863 52.5625C586.993 53.9948 586.993 55.1667 586.863 56.0781C586.863 56.8594 586.863 57.901 586.863 59.2031L587.254 61.3516C586.733 62.5234 586.538 63.3047 586.668 63.6953C586.928 63.9557 587.124 64.4115 587.254 65.0625C586.603 65.3229 586.342 65.7786 586.473 66.4297C586.603 66.9505 586.538 67.9271 586.277 69.3594C586.017 70.7917 585.887 72.3542 585.887 74.0469L586.277 76.9766Z" fill="black"/>
</g>
<path id="PARTI" d="M186.473 527.711H189.207C189.467 528.232 189.858 528.557 190.379 528.688C190.9 528.688 191.29 528.948 191.551 529.469C192.853 529.208 193.895 529.339 194.676 529.859C195.457 530.38 196.238 530.836 197.02 531.227C197.801 531.487 198.452 531.682 198.973 531.812C200.014 532.073 200.926 532.594 201.707 533.375L203.27 534.938C203.66 535.198 203.986 535.523 204.246 535.914C204.507 536.174 205.027 536.76 205.809 537.672C206.72 538.453 207.241 539.104 207.371 539.625C207.632 540.146 207.892 540.536 208.152 540.797C208.413 541.057 208.803 541.643 209.324 542.555C209.975 543.466 210.561 544.638 211.082 546.07C211.733 547.372 212.254 548.479 212.645 549.391C213.035 550.172 213.426 551.148 213.816 552.32C214.337 553.492 214.598 554.469 214.598 555.25C214.598 556.031 214.923 556.682 215.574 557.203C215.835 560.328 216.225 562.997 216.746 565.211C217.397 567.294 217.723 568.727 217.723 569.508C217.723 570.159 217.853 571.331 218.113 573.023C218.374 574.716 218.374 576.083 218.113 577.125C217.853 578.167 217.723 578.883 217.723 579.273C217.723 579.664 217.592 580.185 217.332 580.836C217.202 581.487 216.746 582.203 215.965 582.984C215.314 583.766 215.053 584.807 215.184 586.109C214.663 586.5 214.272 586.956 214.012 587.477C213.751 587.867 213.361 588.193 212.84 588.453C212.319 591.057 211.473 593.271 210.301 595.094C209.129 596.786 208.022 598.674 206.98 600.758C206.199 601.018 205.483 601.409 204.832 601.93C202.618 604.013 200.34 604.924 197.996 604.664C197.475 604.924 197.215 605.445 197.215 606.227C197.345 606.878 197.15 607.333 196.629 607.594C195.978 608.245 195.197 608.701 194.285 608.961C193.374 609.221 192.788 609.872 192.527 610.914C191.616 610.784 190.965 610.979 190.574 611.5C190.314 612.021 189.923 612.411 189.402 612.672C186.668 612.802 184.65 613.128 183.348 613.648C182.046 614.169 181.069 614.495 180.418 614.625C179.767 614.625 178.986 614.755 178.074 615.016C177.163 615.146 176.056 615.211 174.754 615.211C173.452 615.211 172.085 615.081 170.652 614.82C169.35 614.56 168.374 614.755 167.723 615.406C167.072 615.927 166.486 616.708 165.965 617.75C165.574 618.661 165.314 619.378 165.184 619.898C165.053 620.419 164.598 621.461 163.816 623.023C163.165 624.586 162.97 625.823 163.23 626.734C163.491 627.516 163.621 628.232 163.621 628.883L163.426 634.352C163.426 637.086 163.751 639.885 164.402 642.75C163.751 643.401 163.556 644.117 163.816 644.898C164.207 645.68 164.402 646.591 164.402 647.633L164.012 651.734C164.272 653.818 164.337 655.38 164.207 656.422C164.207 657.464 164.728 658.18 165.77 658.57C165.9 659.221 165.965 659.807 165.965 660.328C166.095 660.719 166.355 661.174 166.746 661.695C168.439 661.174 169.611 660.914 170.262 660.914H171.824C173.257 661.174 174.233 661.891 174.754 663.062C175.405 664.234 175.665 665.276 175.535 666.188C175.535 666.969 175.079 667.815 174.168 668.727C173.257 669.508 172.345 670.029 171.434 670.289C170.652 670.419 170.001 670.354 169.48 670.094C168.96 669.833 168.439 669.703 167.918 669.703C167.397 669.703 166.941 669.833 166.551 670.094C166.16 670.354 165.704 670.549 165.184 670.68C164.663 670.81 164.012 670.745 163.23 670.484C162.579 670.094 161.928 670.289 161.277 671.07C159.064 670.419 157.111 670.81 155.418 672.242C152.553 671.721 150.926 671.721 150.535 672.242C150.275 672.633 149.949 672.958 149.559 673.219C147.736 672.958 145.132 673.349 141.746 674.391C138.491 675.432 135.887 675.562 133.934 674.781C133.283 673.609 133.152 672.438 133.543 671.266C134.064 669.964 134.715 668.987 135.496 668.336C136.928 668.596 138.1 668.401 139.012 667.75C140.053 666.969 141.095 666.578 142.137 666.578C142.267 665.797 142.462 665.406 142.723 665.406C143.113 665.276 143.439 664.885 143.699 664.234C143.96 663.453 144.155 662.867 144.285 662.477C144.546 662.086 144.741 661.63 144.871 661.109C145.132 660.589 145.197 660.133 145.066 659.742C145.066 659.221 145.132 658.766 145.262 658.375C145.522 657.854 145.327 657.203 144.676 656.422C144.025 655.641 143.895 654.664 144.285 653.492C144.676 652.19 144.806 651.344 144.676 650.953C144.676 650.432 144.741 649.911 144.871 649.391L145.457 646.461L144.871 642.945C144.741 642.424 144.611 641.839 144.48 641.188C144.35 640.536 144.22 639.951 144.09 639.43L143.309 637.086C143.699 635.133 143.764 633.701 143.504 632.789C143.243 631.878 143.048 631.031 142.918 630.25C142.788 629.469 142.723 628.753 142.723 628.102C142.723 627.451 142.658 626.799 142.527 626.148L141.941 623.219L142.332 620.875C141.811 611.5 141.551 605.836 141.551 603.883C141.681 601.799 141.551 600.172 141.16 599C141.03 597.568 141.03 596.07 141.16 594.508C141.29 592.945 141.29 591.708 141.16 590.797L140.965 575.562V573.414C141.095 571.591 141.03 570.354 140.77 569.703C140.639 569.052 140.509 567.62 140.379 565.406C140.379 563.193 140.118 560.068 139.598 556.031C139.077 551.995 138.816 548.089 138.816 544.312L138.426 541.383C138.426 540.341 138.556 539.169 138.816 537.867C139.207 536.435 139.272 535.328 139.012 534.547C138.882 533.635 138.621 532.984 138.23 532.594C137.84 532.073 137.449 531.487 137.059 530.836C135.626 530.706 134.389 530.836 133.348 531.227C132.436 531.487 131.199 531.617 129.637 531.617C128.204 531.617 127.163 531.292 126.512 530.641C125.861 529.99 125.21 529.013 124.559 527.711C125.47 525.237 126.121 523.805 126.512 523.414C130.288 523.414 132.697 522.828 133.738 521.656C134.91 521.917 135.952 521.852 136.863 521.461C137.905 520.94 138.947 521.07 139.988 521.852C140.9 521.461 141.876 521.461 142.918 521.852C143.96 522.112 145.001 522.242 146.043 522.242L152.098 521.852L155.809 522.633L160.691 522.242L164.012 523.023C166.355 522.763 167.918 522.763 168.699 523.023C169.611 523.284 170.457 523.414 171.238 523.414H172.996C173.387 523.414 173.842 523.479 174.363 523.609C175.275 524.26 175.796 524.586 175.926 524.586C176.186 524.456 177.358 524.651 179.441 525.172C181.655 525.562 183.999 526.409 186.473 527.711ZM174.363 536.305L165.77 535.719C163.296 535.458 161.798 535.979 161.277 537.281C160.757 538.453 160.626 539.43 160.887 540.211C161.277 540.862 161.538 541.643 161.668 542.555C160.887 543.727 160.626 546.201 160.887 549.977C161.277 553.622 161.538 556.487 161.668 558.57C161.928 560.654 162.059 562.672 162.059 564.625C162.059 566.448 161.798 568.076 161.277 569.508C161.928 570.159 162.189 571.07 162.059 572.242C162.059 573.414 162.059 574.195 162.059 574.586L162.645 579.469C162.775 581.943 162.775 584.352 162.645 586.695C162.514 588.909 162.775 590.862 163.426 592.555C162.775 593.076 162.514 593.792 162.645 594.703C162.905 595.484 162.905 596.526 162.645 597.828C162.514 599.13 162.775 600.497 163.426 601.93C164.077 602.711 164.467 603.362 164.598 603.883C164.858 604.404 165.118 604.794 165.379 605.055C166.681 605.706 167.332 606.096 167.332 606.227C167.332 606.357 167.462 606.487 167.723 606.617C170.066 605.966 171.889 605.641 173.191 605.641L179.246 604.859C180.288 604.859 181.004 604.469 181.395 603.688C181.785 602.906 182.176 602.385 182.566 602.125C183.087 601.734 183.608 601.474 184.129 601.344C184.65 601.083 185.171 600.823 185.691 600.562C186.082 599.521 186.668 598.87 187.449 598.609C188.361 598.349 189.142 597.893 189.793 597.242C190.184 596.201 190.444 595.68 190.574 595.68C190.835 595.68 191.03 595.549 191.16 595.289C191.421 594.898 191.551 594.508 191.551 594.117C191.681 593.596 191.876 593.076 192.137 592.555C192.527 592.034 192.918 591.383 193.309 590.602C193.699 589.82 194.155 589.104 194.676 588.453C194.546 586.63 194.741 585.133 195.262 583.961C195.783 582.789 196.173 581.487 196.434 580.055C196.824 578.622 197.085 577.06 197.215 575.367C197.345 573.674 197.736 572.047 198.387 570.484C197.475 566.578 197.345 563.258 197.996 560.523C197.475 549.326 195.001 542.424 190.574 539.82C190.314 539.299 189.988 539.234 189.598 539.625C189.337 540.016 188.947 540.081 188.426 539.82C187.905 538.909 185.822 537.932 182.176 536.891C180.743 536.24 179.441 535.979 178.27 536.109C177.228 536.24 175.926 536.305 174.363 536.305ZM304.441 621.656L306.395 625.758L306.004 627.906C306.785 629.469 307.176 630.51 307.176 631.031C307.697 632.203 307.892 632.984 307.762 633.375C307.762 633.635 307.827 633.961 307.957 634.352C308.217 634.742 308.413 635.198 308.543 635.719C308.803 636.24 309.064 636.956 309.324 637.867C309.715 638.648 310.105 639.495 310.496 640.406C310.887 641.188 311.212 641.969 311.473 642.75C311.863 643.531 312.059 644.247 312.059 644.898C312.189 645.419 312.384 646.005 312.645 646.656C312.905 647.177 313.165 647.698 313.426 648.219C313.816 648.609 314.142 649.13 314.402 649.781C314.793 650.432 315.053 651.148 315.184 651.93C315.444 652.581 315.77 653.557 316.16 654.859C316.681 656.161 317.202 657.268 317.723 658.18C318.374 659.091 318.895 659.938 319.285 660.719C319.025 661.5 319.09 662.281 319.48 663.062C319.871 663.844 320.197 664.755 320.457 665.797C320.717 666.708 320.978 667.815 321.238 669.117C321.629 670.289 322.02 671.266 322.41 672.047C322.931 672.698 323.126 673.154 322.996 673.414C322.996 673.544 323.126 673.935 323.387 674.586C324.038 675.237 324.689 675.953 325.34 676.734C326.121 677.516 326.902 677.971 327.684 678.102C328.595 678.362 329.311 678.362 329.832 678.102C330.483 677.841 331.199 677.906 331.98 678.297C334.715 676.344 336.863 676.018 338.426 677.32C340.77 678.232 341.941 679.664 341.941 681.617C342.072 683.57 341.551 684.807 340.379 685.328C338.556 685.849 337.449 686.305 337.059 686.695C336.538 686.695 335.952 686.63 335.301 686.5C334.65 686.37 333.934 686.37 333.152 686.5C332.501 686.76 331.785 687.086 331.004 687.477C330.223 687.997 329.181 688.583 327.879 689.234C326.707 690.016 325.405 690.081 323.973 689.43C322.931 689.82 321.824 690.471 320.652 691.383C320.001 691.122 319.415 691.188 318.895 691.578C318.504 691.969 317.983 692.229 317.332 692.359C316.811 692.49 316.225 692.49 315.574 692.359C315.053 692.359 314.402 692.359 313.621 692.359C311.928 693.01 310.887 693.336 310.496 693.336L305.613 694.508C304.832 694.378 304.116 694.052 303.465 693.531C302.814 693.01 302.163 692.555 301.512 692.164V688.062C302.033 687.932 302.358 687.607 302.488 687.086C302.749 686.695 303.074 686.37 303.465 686.109C303.986 685.849 304.507 685.719 305.027 685.719C306.85 685.719 308.152 685.133 308.934 683.961C309.194 682.919 309.064 682.073 308.543 681.422C308.022 680.771 308.022 680.055 308.543 679.273C307.892 678.753 307.632 677.971 307.762 676.93C308.022 675.888 307.827 674.977 307.176 674.195C306.655 673.544 306.264 672.893 306.004 672.242C305.743 671.461 305.613 670.615 305.613 669.703C305.743 668.661 305.613 667.685 305.223 666.773C304.962 665.862 304.507 664.951 303.855 664.039C303.335 663.128 303.009 661.891 302.879 660.328C301.707 660.068 300.405 659.807 298.973 659.547C297.54 659.156 296.303 659.286 295.262 659.938C294.611 659.807 294.025 659.612 293.504 659.352C293.113 658.961 292.202 658.635 290.77 658.375C289.467 658.115 287.775 658.18 285.691 658.57C283.738 658.831 281.915 658.505 280.223 657.594C279.441 657.854 278.725 657.984 278.074 657.984L275.73 657.203C275.079 657.203 274.298 657.398 273.387 657.789C272.605 658.18 271.694 658.505 270.652 658.766C269.611 658.896 268.439 658.896 267.137 658.766C264.272 658.245 261.798 658.115 259.715 658.375C256.85 659.026 254.832 659.286 253.66 659.156C252.488 658.896 251.316 659.026 250.145 659.547C248.973 659.938 248.126 660.068 247.605 659.938C247.085 659.807 246.564 659.872 246.043 660.133C245.522 660.263 245.001 660.719 244.48 661.5C243.96 662.151 243.374 662.607 242.723 662.867C242.592 664.039 242.137 665.146 241.355 666.188C241.225 666.708 241.16 667.229 241.16 667.75C241.29 668.271 241.16 669.052 240.77 670.094C240.509 671.135 240.444 671.852 240.574 672.242C240.704 672.633 240.639 673.089 240.379 673.609C240.249 674 239.923 674.456 239.402 674.977C239.012 675.497 238.686 676.083 238.426 676.734C238.165 677.516 237.97 678.232 237.84 678.883C237.71 679.664 237.449 680.38 237.059 681.031C237.319 682.073 237.71 682.789 238.23 683.18C238.882 683.701 239.728 684.221 240.77 684.742C241.941 685.263 243.309 685.523 244.871 685.523C246.564 685.523 247.931 685.914 248.973 686.695C249.233 687.346 249.363 688.258 249.363 689.43C249.493 690.602 249.233 691.383 248.582 691.773C248.061 691.904 247.605 692.034 247.215 692.164C246.954 692.424 246.564 692.49 246.043 692.359L243.895 691.773C243.113 691.643 242.267 691.643 241.355 691.773C240.574 692.034 239.793 692.034 239.012 691.773C238.361 691.513 237.84 691.188 237.449 690.797C237.059 690.536 236.668 690.276 236.277 690.016C235.626 690.276 234.91 690.276 234.129 690.016C233.478 689.755 232.762 689.69 231.98 689.82C231.199 690.081 230.613 690.276 230.223 690.406C229.962 690.536 229.637 690.667 229.246 690.797L226.316 690.406L212.254 690.797C210.561 689.625 209.389 689.234 208.738 689.625C208.087 690.016 207.436 690.146 206.785 690.016C206.785 689.365 206.525 688.974 206.004 688.844C205.483 688.844 205.353 688.453 205.613 687.672V683.961C207.176 683.57 208.803 683.44 210.496 683.57C212.189 683.701 213.621 683.635 214.793 683.375C215.965 683.245 216.746 683.049 217.137 682.789C217.658 682.529 218.243 682.529 218.895 682.789C219.285 682.138 219.415 681.487 219.285 680.836C219.155 680.185 219.285 679.339 219.676 678.297C220.066 677.385 220.132 676.669 219.871 676.148C219.611 675.628 219.676 674.911 220.066 674C220.457 673.219 220.717 672.372 220.848 671.461C221.108 670.549 221.173 669.508 221.043 668.336C221.043 667.164 221.434 666.122 222.215 665.211C222.345 664.69 222.28 664.365 222.02 664.234C221.759 663.974 221.954 663.062 222.605 661.5C223.257 659.807 223.777 657.529 224.168 654.664C224.689 651.669 225.405 648.935 226.316 646.461C226.186 646.201 226.186 645.81 226.316 645.289C226.447 644.638 226.316 644.312 225.926 644.312C227.358 640.797 228.139 638.062 228.27 636.109C228.79 635.589 229.246 634.807 229.637 633.766C230.158 632.594 230.288 631.617 230.027 630.836C230.548 630.706 230.809 630.445 230.809 630.055C230.939 629.664 231.134 629.339 231.395 629.078C231.915 626.083 232.241 623.349 232.371 620.875C232.501 618.271 233.217 615.992 234.52 614.039V610.328C235.952 608.245 236.538 606.552 236.277 605.25C236.017 603.167 236.473 600.953 237.645 598.609C237.775 597.568 237.97 596.917 238.23 596.656C238.491 596.266 238.751 595.875 239.012 595.484C239.012 594.833 239.142 593.857 239.402 592.555C240.184 590.471 240.509 589.104 240.379 588.453C240.379 587.672 240.509 586.565 240.77 585.133C241.03 583.57 241.551 581.878 242.332 580.055C243.113 578.232 243.569 576.409 243.699 574.586C244.22 573.544 244.676 572.372 245.066 571.07C245.457 569.638 245.848 568.336 246.238 567.164C246.759 565.862 247.15 564.625 247.41 563.453C247.801 562.281 248.517 561.174 249.559 560.133C249.819 559.221 250.014 558.375 250.145 557.594C250.405 556.682 250.665 555.836 250.926 555.055C251.837 553.753 252.228 552.906 252.098 552.516C252.098 552.125 252.358 551.344 252.879 550.172C253.4 548.87 253.66 547.698 253.66 546.656C254.702 546.005 255.223 545.224 255.223 544.312C255.223 543.271 255.418 542.294 255.809 541.383C256.72 540.471 257.111 539.951 256.98 539.82C256.98 539.56 257.176 539.234 257.566 538.844C257.957 538.323 258.543 537.672 259.324 536.891C260.105 536.109 260.691 535.263 261.082 534.352L261.473 531.227C263.556 528.492 265.77 527.385 268.113 527.906C269.676 528.427 270.457 529.469 270.457 531.031C270.457 531.422 270.587 531.812 270.848 532.203C271.759 532.984 272.345 533.896 272.605 534.938C272.866 535.849 273.387 536.956 274.168 538.258C275.079 539.43 275.796 540.211 276.316 540.602C276.837 540.862 277.293 541.448 277.684 542.359C278.074 543.271 278.465 544.182 278.855 545.094C279.376 545.875 279.832 546.721 280.223 547.633C280.613 548.414 280.809 549.521 280.809 550.953C280.809 552.255 281.46 553.167 282.762 553.688C283.152 554.859 283.413 555.445 283.543 555.445C283.673 555.445 283.868 555.771 284.129 556.422C284.52 557.333 285.04 558.701 285.691 560.523C286.342 562.346 286.277 563.648 285.496 564.43C286.147 564.82 286.473 565.471 286.473 566.383C286.603 567.164 286.733 568.01 286.863 568.922C287.514 569.964 287.775 570.68 287.645 571.07C287.905 571.721 288.751 572.893 290.184 574.586V576.93C290.835 578.492 291.421 579.924 291.941 581.227C292.592 582.398 292.853 583.31 292.723 583.961C292.592 584.612 292.658 585.393 292.918 586.305C293.178 587.086 293.504 587.867 293.895 588.648C294.415 589.43 294.546 590.276 294.285 591.188C294.676 591.969 295.066 592.685 295.457 593.336C295.848 593.857 296.043 594.378 296.043 594.898C296.173 595.289 296.434 595.94 296.824 596.852C297.345 597.763 297.605 598.479 297.605 599C297.605 599.391 297.866 599.977 298.387 600.758C298.908 601.539 299.103 602.255 298.973 602.906C298.973 603.557 299.168 604.534 299.559 605.836C299.949 607.008 299.949 608.18 299.559 609.352C300.47 610.523 300.926 611.305 300.926 611.695C300.926 612.086 301.121 612.737 301.512 613.648C301.902 614.43 302.293 614.951 302.684 615.211C303.074 615.471 303.27 616.253 303.27 617.555L304.441 621.656ZM287.254 602.516L285.691 597.828L284.715 592.945C284.715 592.164 284.52 591.513 284.129 590.992C283.738 590.341 283.543 589.82 283.543 589.43C283.673 588.909 283.673 588.388 283.543 587.867C283.413 587.216 283.283 586.63 283.152 586.109C283.022 585.458 282.957 584.872 282.957 584.352C283.087 583.701 283.022 583.115 282.762 582.594C282.501 581.943 282.111 581.292 281.59 580.641C281.069 579.99 280.743 579.339 280.613 578.688C280.483 577.906 280.418 577.32 280.418 576.93C280.548 576.409 280.613 575.823 280.613 575.172C278.921 573.219 278.074 570.745 278.074 567.75C277.293 567.49 276.707 566.969 276.316 566.188C276.056 565.276 275.405 564.69 274.363 564.43C274.493 563.388 274.559 562.672 274.559 562.281C274.559 561.891 274.428 561.174 274.168 560.133C272.605 559.612 271.499 559.482 270.848 559.742C270.197 560.914 269.611 562.151 269.09 563.453C268.699 564.755 268.309 565.797 267.918 566.578C267.527 567.359 267.332 568.01 267.332 568.531C267.332 568.922 267.267 569.573 267.137 570.484C266.486 571.135 266.16 571.591 266.16 571.852C266.16 572.112 265.835 572.893 265.184 574.195C264.663 575.367 264.337 576.93 264.207 578.883C263.947 579.273 263.621 579.664 263.23 580.055C262.84 580.315 262.579 580.966 262.449 582.008C262.449 582.919 262.319 583.505 262.059 583.766C261.928 584.026 261.798 584.417 261.668 584.938C261.538 585.458 261.473 586.174 261.473 587.086C261.603 587.867 261.408 589.039 260.887 590.602C260.366 592.164 259.78 593.596 259.129 594.898C258.608 596.201 258.348 597.633 258.348 599.195C257.176 600.107 256.46 602.255 256.199 605.641C255.809 605.901 255.809 606.227 256.199 606.617C256.72 606.878 256.785 607.268 256.395 607.789C256.134 608.18 255.809 608.57 255.418 608.961C255.027 609.221 254.832 609.677 254.832 610.328C254.441 610.849 254.246 611.63 254.246 612.672C254.376 613.583 254.181 614.625 253.66 615.797C253.27 616.839 252.944 617.49 252.684 617.75C252.423 618.01 252.358 618.401 252.488 618.922C252.618 619.443 252.618 619.768 252.488 619.898C252.488 619.898 252.358 620.224 252.098 620.875C251.967 621.526 251.642 622.242 251.121 623.023C250.6 623.674 250.275 624.521 250.145 625.562C250.145 626.604 250.014 627.711 249.754 628.883C249.624 630.055 249.559 631.357 249.559 632.789C248.908 633.44 248.517 634.156 248.387 634.938C248.387 635.719 248.191 636.695 247.801 637.867C247.41 638.909 247.215 639.625 247.215 640.016L245.262 645.875C245.262 646.266 245.197 646.721 245.066 647.242C245.848 648.544 246.303 649.195 246.434 649.195C246.694 649.065 247.02 649.26 247.41 649.781C247.801 650.172 248.257 650.367 248.777 650.367C249.428 650.367 249.949 650.497 250.34 650.758C250.861 650.888 251.251 651.083 251.512 651.344C252.163 651.734 253.074 651.799 254.246 651.539C255.418 651.279 256.395 651.344 257.176 651.734C258.087 652.125 258.803 652.385 259.324 652.516C261.928 651.865 264.598 651.604 267.332 651.734C270.066 651.734 272.671 651.344 275.145 650.562C275.665 650.693 275.991 650.888 276.121 651.148C276.382 651.279 276.902 651.474 277.684 651.734C278.595 651.865 279.637 651.799 280.809 651.539C282.111 651.279 283.478 651.148 284.91 651.148C288.035 651.669 289.793 651.93 290.184 651.93L293.895 651.539L297.02 652.32C299.103 651.93 300.145 651.083 300.145 649.781C300.275 649.13 300.079 648.609 299.559 648.219C299.038 647.828 298.712 647.307 298.582 646.656C298.582 645.875 298.387 645.224 297.996 644.703C297.736 644.182 297.475 643.596 297.215 642.945C297.085 642.164 297.02 640.927 297.02 639.234C297.02 637.411 296.173 635.263 294.48 632.789C294.871 632.138 294.871 631.292 294.48 630.25C294.09 629.208 294.09 628.297 294.48 627.516C293.178 625.823 292.397 622.698 292.137 618.141C291.486 617.359 290.965 616.513 290.574 615.602C290.314 614.69 289.858 613.388 289.207 611.695C288.556 609.872 288.23 608.375 288.23 607.203C288.23 605.901 287.905 604.924 287.254 604.273V602.516ZM344.871 563.062L345.652 557.789C345.652 557.398 345.522 557.008 345.262 556.617C345.132 556.096 345.132 555.12 345.262 553.688C345.392 552.255 345.587 550.497 345.848 548.414C346.238 546.201 346.368 543.987 346.238 541.773C343.634 542.034 340.965 542.099 338.23 541.969C335.626 541.839 333.087 541.969 330.613 542.359C330.223 541.708 329.832 541.057 329.441 540.406C329.051 539.755 328.79 538.909 328.66 537.867C329.311 537.607 329.767 537.151 330.027 536.5C330.288 535.849 330.874 535.589 331.785 535.719C332.306 535.458 332.762 535.198 333.152 534.938C333.543 534.547 334.259 534.286 335.301 534.156C336.342 534.026 337.254 533.766 338.035 533.375C338.816 532.984 339.858 532.919 341.16 533.18C342.462 533.44 343.96 533.44 345.652 533.18C347.475 532.789 348.582 532.594 348.973 532.594C349.363 532.464 349.624 532.138 349.754 531.617C350.275 531.617 350.6 531.812 350.73 532.203C350.991 532.464 351.577 532.594 352.488 532.594C353.4 532.464 354.246 532.008 355.027 531.227C355.548 531.617 356.069 531.747 356.59 531.617C357.241 531.357 357.892 531.227 358.543 531.227C359.194 531.096 359.78 531.096 360.301 531.227C360.952 531.227 361.798 531.031 362.84 530.641C363.882 530.25 364.793 530.185 365.574 530.445C366.486 530.576 367.202 530.315 367.723 529.664C368.374 529.924 369.285 530.055 370.457 530.055C371.759 530.055 372.736 529.794 373.387 529.273C375.47 529.794 376.772 529.924 377.293 529.664C377.944 529.404 379.051 529.469 380.613 529.859C382.176 530.12 384.585 530.315 387.84 530.445C391.095 530.445 393.569 530.641 395.262 531.031C396.954 531.292 398.257 531.552 399.168 531.812C400.21 531.943 400.991 532.008 401.512 532.008C402.033 532.008 402.749 532.268 403.66 532.789C404.572 533.31 405.223 533.896 405.613 534.547C406.134 535.068 406.655 535.458 407.176 535.719C407.827 535.979 408.478 536.24 409.129 536.5C409.91 536.76 410.691 537.086 411.473 537.477C412.254 537.737 413.035 538.258 413.816 539.039C414.598 539.82 415.639 540.341 416.941 540.602C418.113 542.034 419.22 542.945 420.262 543.336C420.652 544.378 421.694 545.419 423.387 546.461C423.517 547.372 423.842 548.154 424.363 548.805C424.884 549.326 425.275 549.846 425.535 550.367C425.926 550.888 426.121 551.344 426.121 551.734C426.251 552.125 426.512 552.711 426.902 553.492C427.293 554.273 427.684 555.12 428.074 556.031C428.595 556.812 429.116 558.049 429.637 559.742C430.288 561.305 431.069 562.802 431.98 564.234C431.72 565.797 431.785 567.294 432.176 568.727C432.566 570.029 432.762 570.875 432.762 571.266C432.762 571.656 433.022 572.633 433.543 574.195C434.194 575.628 434.259 576.93 433.738 578.102C433.217 579.143 432.892 579.99 432.762 580.641C432.632 581.161 432.566 581.812 432.566 582.594C432.697 583.245 432.632 584.091 432.371 585.133C432.241 586.174 432.241 586.826 432.371 587.086C432.501 587.346 432.501 587.672 432.371 588.062C431.199 589.104 430.613 589.82 430.613 590.211C430.613 590.602 430.483 591.122 430.223 591.773C430.092 592.424 429.767 593.01 429.246 593.531C428.725 593.922 428.465 594.898 428.465 596.461C427.944 596.721 427.618 597.112 427.488 597.633C427.358 598.023 427.163 598.479 426.902 599C426.642 599.391 426.447 599.846 426.316 600.367C426.186 600.758 425.926 601.214 425.535 601.734C425.145 602.125 424.559 602.581 423.777 603.102C423.126 603.622 422.671 604.273 422.41 605.055C421.889 604.924 421.499 605.185 421.238 605.836C421.108 606.357 420.652 606.487 419.871 606.227C419.22 606.747 418.699 607.333 418.309 607.984C417.918 608.505 417.332 608.896 416.551 609.156C415.9 609.417 415.379 609.677 414.988 609.938C414.598 610.068 413.882 610.263 412.84 610.523C411.928 610.784 411.082 611.174 410.301 611.695C409.52 611.695 408.934 611.956 408.543 612.477C408.152 612.867 407.697 612.932 407.176 612.672C406.525 613.583 405.548 614.169 404.246 614.43C403.074 614.56 402.163 615.146 401.512 616.188C401.772 617.75 402.553 619.182 403.855 620.484C405.158 621.656 406.46 622.763 407.762 623.805C407.892 624.846 409.129 627.19 411.473 630.836C413.947 634.352 415.314 636.891 415.574 638.453C415.965 639.885 416.29 640.862 416.551 641.383C416.811 641.904 417.202 642.88 417.723 644.312C418.243 645.615 418.764 647.047 419.285 648.609C419.806 650.042 420.327 651.474 420.848 652.906C421.368 654.208 421.694 655.12 421.824 655.641C422.085 656.031 422.345 656.552 422.605 657.203C422.996 657.724 423.257 658.245 423.387 658.766C423.517 659.156 423.777 660.133 424.168 661.695C424.689 663.258 425.34 665.602 426.121 668.727C426.902 671.852 427.488 673.87 427.879 674.781C428.27 675.693 428.595 676.474 428.855 677.125C429.116 677.906 429.376 678.688 429.637 679.469C430.027 680.38 430.353 681.161 430.613 681.812C431.004 682.594 431.264 683.245 431.395 683.766C431.525 684.286 431.85 684.872 432.371 685.523C432.892 686.305 433.413 687.151 433.934 688.062C434.454 688.583 434.845 689.234 435.105 690.016C435.496 690.927 436.017 691.708 436.668 692.359C437.97 692.75 438.621 693.01 438.621 693.141C438.751 693.271 439.012 693.401 439.402 693.531C440.444 694.052 442.527 694.117 445.652 693.727C448.908 693.466 450.796 693.01 451.316 692.359C451.837 691.708 452.684 691.122 453.855 690.602C455.158 690.211 455.939 689.755 456.199 689.234L457.762 687.281C458.152 685.719 458.478 684.742 458.738 684.352C459.129 683.961 459.389 683.375 459.52 682.594C459.78 681.943 459.845 681.031 459.715 679.859C459.585 678.818 459.52 677.776 459.52 676.734C459.78 676.214 459.585 675.758 458.934 675.367C458.413 675.107 458.087 674.651 457.957 674C457.827 673.349 457.632 672.893 457.371 672.633C456.98 672.372 456.59 672.047 456.199 671.656C455.939 671.266 455.288 670.875 454.246 670.484C453.204 669.964 452.033 670.224 450.73 671.266C449.428 672.177 448.322 673.414 447.41 674.977L442.918 674.781C442.007 674.13 441.421 673.219 441.16 672.047C440.9 670.875 440.444 669.768 439.793 668.727C439.793 667.815 440.184 666.969 440.965 666.188L442.723 664.43C443.113 664.039 443.439 663.518 443.699 662.867C445.522 662.346 446.564 662.086 446.824 662.086C447.085 661.956 447.475 661.76 447.996 661.5C448.647 661.24 449.689 660.719 451.121 659.938C452.684 659.156 453.986 659.091 455.027 659.742C456.069 660.263 457.241 660.654 458.543 660.914C458.803 661.174 458.934 661.565 458.934 662.086C459.064 662.477 459.259 662.802 459.52 663.062C460.431 663.583 461.082 664.104 461.473 664.625C461.863 665.016 462.449 665.276 463.23 665.406C464.142 666.708 464.988 668.076 465.77 669.508C466.681 670.81 467.007 672.568 466.746 674.781C467.527 677.255 467.853 679.339 467.723 681.031C467.592 682.724 467.592 683.766 467.723 684.156C467.853 684.677 467.658 685.393 467.137 686.305L465.77 689.234C464.467 691.578 463.426 693.076 462.645 693.727C461.993 694.508 461.408 695.224 460.887 695.875C460.366 696.656 459.65 697.438 458.738 698.219C457.957 699.13 457.111 699.586 456.199 699.586C455.418 699.586 454.637 699.846 453.855 700.367C453.074 701.018 451.577 701.344 449.363 701.344C447.15 701.344 445.783 701.148 445.262 700.758C442.918 702.711 440.249 702.776 437.254 700.953C436.082 700.302 434.78 700.172 433.348 700.562C430.092 698.349 427.423 696.917 425.34 696.266C425.079 696.005 424.949 695.549 424.949 694.898C425.079 694.378 425.145 693.792 425.145 693.141C424.103 693.141 423.322 693.076 422.801 692.945C422.801 692.685 422.345 691.839 421.434 690.406C420.522 689.104 419.871 688.062 419.48 687.281C419.09 686.63 418.829 686.24 418.699 686.109C417.527 685.589 416.746 685.003 416.355 684.352C416.095 683.831 415.835 683.44 415.574 683.18C415.314 683.049 414.858 682.333 414.207 681.031C412.775 678.167 411.342 675.302 409.91 672.438L408.934 670.289C408.543 669.247 408.022 667.945 407.371 666.383C404.116 658.57 402.488 653.948 402.488 652.516C401.967 651.995 401.447 651.474 400.926 650.953C400.535 648.87 399.949 647.633 399.168 647.242C399.428 646.201 399.298 645.419 398.777 644.898C398.257 644.378 398.126 643.596 398.387 642.555C397.475 641.904 396.564 640.081 395.652 637.086C394.871 634.091 394.48 632.398 394.48 632.008C394.48 631.487 394.415 630.966 394.285 630.445C394.285 629.794 394.09 629.208 393.699 628.688C393.309 628.167 393.113 627.385 393.113 626.344C392.072 625.172 390.9 624.065 389.598 623.023C388.426 621.982 387.319 620.745 386.277 619.312C383.152 618.922 380.223 617.49 377.488 615.016C376.967 614.885 376.512 614.885 376.121 615.016C375.73 615.016 375.21 614.951 374.559 614.82C374.038 614.69 373.452 614.43 372.801 614.039C372.28 613.648 371.564 613.583 370.652 613.844C369.871 613.974 369.415 614.169 369.285 614.43C369.285 614.56 368.895 615.146 368.113 616.188C367.332 617.099 367.202 618.271 367.723 619.703C368.243 621.005 368.439 622.307 368.309 623.609C368.309 624.911 368.178 626.409 367.918 628.102C367.788 629.664 367.723 630.706 367.723 631.227L368.504 643.531C368.504 644.182 368.309 645.094 367.918 646.266L368.113 650.172C367.983 651.344 367.918 652.646 367.918 654.078V657.789C367.658 658.701 367.592 659.286 367.723 659.547C367.853 659.677 367.788 660.263 367.527 661.305C367.397 662.346 367.397 663.323 367.527 664.234C367.658 665.146 367.658 666.448 367.527 668.141C367.397 669.703 367.137 671.461 366.746 673.414C366.355 675.367 366.616 677.255 367.527 679.078C369.611 679.729 371.108 679.99 372.02 679.859L374.168 679.273C375.73 679.664 376.772 679.794 377.293 679.664C377.944 679.664 378.79 679.794 379.832 680.055C380.092 680.445 380.223 680.901 380.223 681.422C380.353 681.943 380.483 682.464 380.613 682.984C381.134 683.115 381.329 683.505 381.199 684.156C381.069 684.807 381.004 685.458 381.004 686.109C379.441 687.281 377.423 687.542 374.949 686.891C374.298 686.76 373.973 687.021 373.973 687.672C373.973 688.323 373.712 688.648 373.191 688.648C372.801 688.258 372.41 688.193 372.02 688.453C371.759 688.844 371.238 689.039 370.457 689.039C369.676 689.169 368.829 689.104 367.918 688.844C365.704 687.932 363.882 688.518 362.449 690.602C361.798 690.081 360.822 689.82 359.52 689.82C358.217 689.82 357.306 690.211 356.785 690.992C356.264 690.341 355.678 690.081 355.027 690.211C354.507 690.471 353.921 690.732 353.27 690.992C352.228 690.211 351.186 690.081 350.145 690.602C349.103 691.122 347.866 691.448 346.434 691.578C345.132 691.839 344.22 692.164 343.699 692.555C343.309 693.076 342.658 693.336 341.746 693.336L341.16 693.141C340.379 693.141 339.598 693.336 338.816 693.727C337.124 694.638 335.496 693.987 333.934 691.773C334.194 690.992 334.324 690.276 334.324 689.625C334.454 688.974 334.65 688.388 334.91 687.867C335.431 687.346 335.952 687.151 336.473 687.281C337.514 687.411 338.491 687.021 339.402 686.109C339.663 685.979 340.835 685.654 342.918 685.133C345.001 684.612 346.043 684.221 346.043 683.961C346.043 683.831 346.564 683.701 347.605 683.57C348.777 683.44 349.624 682.854 350.145 681.812C350.275 680.771 350.145 679.924 349.754 679.273C349.493 678.753 349.233 678.036 348.973 677.125C349.233 675.302 349.168 673.479 348.777 671.656C348.387 669.703 348.257 668.206 348.387 667.164C348.517 665.992 348.647 665.211 348.777 664.82C348.908 664.299 348.973 663.844 348.973 663.453L348.582 660.328C348.452 659.807 348.452 659.352 348.582 658.961C348.712 658.44 348.647 657.008 348.387 654.664L347.996 651.148C348.387 649.977 348.582 649.065 348.582 648.414L348.191 644.508C348.061 643.857 347.996 643.206 347.996 642.555C348.126 641.773 348.191 641.057 348.191 640.406C347.671 638.714 347.475 637.802 347.605 637.672C347.736 637.542 347.736 637.216 347.605 636.695L347.02 632.789C346.759 630.966 346.759 629.078 347.02 627.125C347.28 625.172 347.41 623.479 347.41 622.047V617.359C347.41 615.797 347.345 614.495 347.215 613.453L346.824 610.328C346.694 608.896 346.694 607.138 346.824 605.055C347.085 602.841 347.15 601.474 347.02 600.953C346.889 600.432 346.824 599.846 346.824 599.195V595.094L345.066 586.695L345.262 583.18C345.522 581.617 345.652 579.99 345.652 578.297V575.562C345.652 575.172 345.522 574.846 345.262 574.586C345.132 574.195 345.001 573.609 344.871 572.828C344.741 571.917 344.806 570.745 345.066 569.312C345.327 567.88 345.457 566.773 345.457 565.992C345.457 565.211 345.262 564.234 344.871 563.062ZM387.84 538.062L374.168 538.453C371.824 540.406 369.415 541.188 366.941 540.797C366.681 541.448 366.095 541.969 365.184 542.359C364.402 542.75 363.751 543.596 363.23 544.898C362.84 546.201 363.035 547.633 363.816 549.195C364.728 550.758 365.184 552.125 365.184 553.297C365.314 554.339 365.574 555.25 365.965 556.031L366.16 561.695C366.29 563.909 366.29 566.122 366.16 568.336C366.03 570.419 365.965 572.372 365.965 574.195C365.965 575.888 366.03 577.385 366.16 578.688C366.29 579.99 366.355 581.227 366.355 582.398C366.486 583.57 366.486 584.742 366.355 585.914C366.225 587.086 366.29 588.518 366.551 590.211C366.941 591.773 367.072 592.945 366.941 593.727C366.811 594.508 366.811 595.419 366.941 596.461C367.202 597.503 367.332 598.674 367.332 599.977C367.332 601.279 367.592 602.255 368.113 602.906C368.243 603.427 368.178 604.013 367.918 604.664C367.788 605.315 368.048 605.576 368.699 605.445C368.829 606.096 369.155 606.357 369.676 606.227C370.327 605.966 371.954 606.031 374.559 606.422C377.293 606.682 379.572 606.292 381.395 605.25C385.691 607.333 389.663 607.333 393.309 605.25C394.741 604.469 396.303 603.948 397.996 603.688C398.647 602.646 399.363 601.93 400.145 601.539C401.056 601.018 401.902 600.432 402.684 599.781C402.944 599 403.204 598.479 403.465 598.219C403.855 597.828 403.921 597.177 403.66 596.266C405.353 595.615 406.655 594.052 407.566 591.578C407.697 591.057 407.957 590.797 408.348 590.797C408.868 590.797 409.129 590.471 409.129 589.82C409.389 589.82 409.389 589.56 409.129 589.039C408.999 588.388 409.194 587.477 409.715 586.305C410.366 585.133 410.691 583.57 410.691 581.617C411.863 580.576 412.384 579.143 412.254 577.32C412.124 575.367 412.449 573.544 413.23 571.852C412.449 570.68 411.928 569.247 411.668 567.555C411.798 567.034 411.798 566.318 411.668 565.406C411.668 564.495 411.668 563.779 411.668 563.258C411.798 562.737 411.798 562.151 411.668 561.5C411.538 560.719 411.277 560.068 410.887 559.547C410.626 558.896 410.626 558.18 410.887 557.398C409.715 555.836 408.934 553.883 408.543 551.539C407.501 550.497 406.915 550.042 406.785 550.172C406.655 550.172 406.264 549.846 405.613 549.195C405.092 548.414 404.637 547.698 404.246 547.047C403.855 546.266 403.335 545.745 402.684 545.484C402.033 544.573 401.382 543.987 400.73 543.727C400.079 543.466 399.559 543.206 399.168 542.945C398.908 542.555 398.582 542.294 398.191 542.164C397.931 542.034 397.605 541.839 397.215 541.578C395.392 539.495 393.634 538.518 391.941 538.648C390.249 538.779 388.882 538.583 387.84 538.062ZM543.309 549.977L542.527 552.125C542.527 552.906 542.658 553.688 542.918 554.469C543.309 555.25 543.374 556.161 543.113 557.203C542.983 558.115 542.527 559.026 541.746 559.938C540.965 560.849 540.184 561.826 539.402 562.867C538.882 562.997 538.426 562.932 538.035 562.672C537.775 562.281 537.384 562.151 536.863 562.281C536.342 561.5 535.626 560.719 534.715 559.938C533.803 559.156 533.283 557.854 533.152 556.031C533.022 554.208 532.566 552.646 531.785 551.344C531.134 549.911 530.678 548.87 530.418 548.219C529.637 548.349 527.033 548.089 522.605 547.438C521.303 547.828 520.262 547.958 519.48 547.828C518.699 547.698 518.178 547.633 517.918 547.633C516.616 547.633 515.314 547.958 514.012 548.609C512.71 549.26 511.603 549.391 510.691 549C509.78 548.609 508.738 548.479 507.566 548.609C506.525 548.609 505.874 548.609 505.613 548.609C505.353 548.479 505.092 548.479 504.832 548.609C503.921 549.781 503.725 551.409 504.246 553.492C504.767 555.576 504.962 556.878 504.832 557.398C504.702 557.919 504.832 558.896 505.223 560.328C505.743 561.76 505.809 563.062 505.418 564.234C505.158 565.406 505.158 566.383 505.418 567.164C505.678 567.815 505.678 568.466 505.418 569.117C505.158 569.638 505.027 570.224 505.027 570.875L505.613 574C505.743 575.042 505.743 576.018 505.613 576.93C505.613 577.711 505.809 578.753 506.199 580.055C506.59 581.227 506.72 582.073 506.59 582.594C506.46 582.984 506.395 584.286 506.395 586.5C506.395 588.714 506.72 592.424 507.371 597.633L506.785 600.562L508.152 614.234L507.762 618.727L508.152 622.828L509.129 627.125L509.52 630.25C509.52 630.901 509.389 631.617 509.129 632.398C508.999 633.18 508.868 634.091 508.738 635.133C508.608 636.174 508.608 637.411 508.738 638.844C508.999 640.146 509.129 641.318 509.129 642.359C509.129 643.271 509.064 643.987 508.934 644.508C508.803 645.029 508.803 645.81 508.934 646.852C509.064 647.893 508.999 648.674 508.738 649.195C508.608 649.716 508.543 650.237 508.543 650.758L509.129 657.203V662.281C509.129 663.193 509.259 664.299 509.52 665.602C510.691 667.034 511.473 667.685 511.863 667.555C512.384 667.294 512.97 667.164 513.621 667.164L515.379 668.727C515.9 668.596 516.876 668.727 518.309 669.117C522.085 670.159 523.517 671.656 522.605 673.609C522.085 675.042 521.303 676.344 520.262 677.516C519.611 677.776 518.96 677.711 518.309 677.32C517.788 677.06 517.267 676.93 516.746 676.93C515.444 677.971 513.947 678.427 512.254 678.297C510.691 678.167 509.194 678.167 507.762 678.297C506.46 678.557 505.418 678.753 504.637 678.883C503.855 679.013 502.944 679.078 501.902 679.078C500.861 679.208 499.884 679.208 498.973 679.078C498.061 678.948 497.02 678.948 495.848 679.078C494.676 679.339 493.504 679.664 492.332 680.055C491.29 680.576 490.118 680.771 488.816 680.641C487.514 680.641 486.342 680.51 485.301 680.25C484.259 679.99 483.087 679.859 481.785 679.859C480.483 679.99 479.181 680.25 477.879 680.641C476.577 681.161 475.665 681.357 475.145 681.227C474.624 681.096 474.103 680.771 473.582 680.25C473.191 679.729 472.736 679.339 472.215 679.078C472.475 676.995 472.736 675.497 472.996 674.586C474.038 673.935 475.21 673.544 476.512 673.414C477.814 673.284 478.855 673.089 479.637 672.828C480.548 672.568 481.329 672.307 481.98 672.047C482.632 671.786 483.348 671.526 484.129 671.266C484.91 671.005 485.691 670.81 486.473 670.68C487.254 670.549 487.97 670.159 488.621 669.508C489.402 668.857 489.793 668.466 489.793 668.336C489.923 668.206 490.314 667.555 490.965 666.383C491.746 665.211 492.007 664.365 491.746 663.844C491.616 663.193 491.551 662.477 491.551 661.695L491.941 659.352C491.681 657.789 491.551 655.901 491.551 653.688C491.551 651.474 491.421 650.107 491.16 649.586C491.03 648.935 490.835 648.349 490.574 647.828C490.444 647.177 490.509 646.656 490.77 646.266C491.03 645.745 491.16 645.159 491.16 644.508C489.988 641.904 489.402 637.802 489.402 632.203C489.402 626.604 489.272 621.982 489.012 618.336L489.402 615.406L489.012 612.477C489.272 610.654 489.142 609.286 488.621 608.375C489.793 605.38 489.337 602.19 487.254 598.805C487.905 598.154 488.165 597.503 488.035 596.852C487.905 596.07 487.97 594.964 488.23 593.531C488.491 591.969 488.491 590.797 488.23 590.016C487.97 589.234 487.775 588.453 487.645 587.672C487.514 586.891 487.449 586.24 487.449 585.719C487.579 585.198 487.645 584.612 487.645 583.961L486.863 581.812L487.254 579.273C487.254 577.32 487.319 576.279 487.449 576.148C486.798 574.846 486.473 573.089 486.473 570.875V563.844L486.277 555.445C486.277 555.185 486.342 554.729 486.473 554.078C486.603 553.297 486.603 552.776 486.473 552.516C486.342 552.125 486.082 551.799 485.691 551.539C485.301 551.279 485.236 550.823 485.496 550.172C484.585 549.911 483.934 550.042 483.543 550.562C483.283 550.953 482.762 551.148 481.98 551.148L472.801 550.758L470.066 550.172L462.449 550.367C461.668 550.758 460.952 551.279 460.301 551.93C459.78 552.451 458.934 552.646 457.762 552.516C457.111 553.167 456.264 553.753 455.223 554.273C454.181 554.664 453.53 555.185 453.27 555.836C453.53 557.789 453.204 559.221 452.293 560.133C451.512 560.914 450.926 561.695 450.535 562.477C450.275 563.258 450.079 564.169 449.949 565.211C449.949 566.122 449.428 566.513 448.387 566.383C447.345 566.122 446.303 565.992 445.262 565.992C444.35 565.862 443.96 565.276 444.09 564.234C443.439 563.844 443.113 563.583 443.113 563.453C443.113 563.193 443.309 562.346 443.699 560.914C444.09 559.482 444.09 557.854 443.699 556.031C443.96 554.469 443.96 553.297 443.699 552.516C443.569 551.604 443.504 550.823 443.504 550.172L444.09 545.68C444.09 545.029 443.895 544.508 443.504 544.117C443.243 543.596 443.439 543.206 444.09 542.945C443.309 542.164 442.983 541.253 443.113 540.211C443.243 539.039 442.983 537.932 442.332 536.891C443.374 535.328 443.569 533.44 442.918 531.227C444.35 529.404 446.824 528.948 450.34 529.859C451.121 531.161 451.707 532.659 452.098 534.352C452.488 536.044 452.944 537.802 453.465 539.625C454.767 540.536 456.395 540.992 458.348 540.992L461.473 540.406C463.426 540.797 465.184 540.862 466.746 540.602C468.439 540.211 469.936 539.951 471.238 539.82C472.54 539.69 473.973 539.69 475.535 539.82C477.098 539.951 478.204 540.081 478.855 540.211C479.507 540.341 480.158 540.276 480.809 540.016C481.98 540.146 482.697 540.146 482.957 540.016C483.217 539.755 483.543 539.56 483.934 539.43L487.645 539.625L491.355 539.43C492.137 539.43 495.262 539.234 500.73 538.844C502.814 538.974 504.832 538.844 506.785 538.453C508.999 538.323 511.342 538.388 513.816 538.648C516.29 538.779 518.634 538.844 520.848 538.844C522.28 538.453 523.061 538.323 523.191 538.453C523.322 538.583 523.647 538.648 524.168 538.648C525.73 537.867 526.837 537.477 527.488 537.477C528.27 537.477 528.855 537.346 529.246 537.086C529.767 536.826 530.418 536.5 531.199 536.109C532.111 535.589 532.827 535.068 533.348 534.547V533.375L534.52 530.25C534.389 529.99 534.52 529.534 534.91 528.883C535.431 528.232 535.691 527.711 535.691 527.32C535.691 526.93 536.017 526.018 536.668 524.586C537.449 523.023 538.296 522.242 539.207 522.242C540.249 522.112 541.03 522.503 541.551 523.414C542.202 524.195 542.983 524.911 543.895 525.562C544.025 526.995 544.025 528.167 543.895 529.078C543.895 529.859 543.895 530.901 543.895 532.203L544.285 534.352C543.764 535.523 543.569 536.305 543.699 536.695C543.96 536.956 544.155 537.411 544.285 538.062C543.634 538.323 543.374 538.779 543.504 539.43C543.634 539.951 543.569 540.927 543.309 542.359C543.048 543.792 542.918 545.354 542.918 547.047L543.309 549.977ZM588.035 618.336C587.645 620.159 587.71 622.503 588.23 625.367C588.751 628.232 589.012 630.901 589.012 633.375C589.012 635.719 589.467 638.258 590.379 640.992L590.184 643.922C590.184 646.135 590.379 647.698 590.77 648.609C591.16 649.521 591.421 650.367 591.551 651.148C591.681 651.93 591.616 652.906 591.355 654.078C591.225 655.25 591.746 656.161 592.918 656.812L596.043 657.789C597.866 657.138 599.559 657.138 601.121 657.789C602.684 658.44 603.66 659.221 604.051 660.133C604.311 661.435 604.051 662.542 603.27 663.453C602.618 664.365 601.967 665.341 601.316 666.383C599.493 666.253 597.345 666.253 594.871 666.383C593.96 666.122 593.504 666.253 593.504 666.773C593.634 667.294 593.374 667.49 592.723 667.359C592.072 667.229 591.486 667.229 590.965 667.359C590.444 667.49 589.858 667.685 589.207 667.945C588.686 668.076 588.1 668.141 587.449 668.141C586.928 668.141 586.408 667.945 585.887 667.555C583.673 668.466 581.98 669.508 580.809 670.68L579.637 670.094C579.767 670.224 579.181 670.289 577.879 670.289C576.707 670.289 575.991 670.354 575.73 670.484C574.428 671.266 573.452 671.656 572.801 671.656C572.28 671.526 571.694 671.721 571.043 672.242C570.392 672.763 569.741 673.089 569.09 673.219C568.439 673.219 567.723 673.089 566.941 672.828C566.29 672.438 565.509 672.242 564.598 672.242C563.947 671.591 563.556 670.615 563.426 669.312C563.296 667.88 563.426 666.839 563.816 666.188C564.207 665.406 564.793 665.016 565.574 665.016C566.486 665.016 567.397 664.755 568.309 664.234C569.22 663.714 569.741 663.453 569.871 663.453C570.783 663.453 572.28 661.891 574.363 658.766C574.624 657.594 574.624 656.682 574.363 656.031C574.233 655.25 574.038 654.339 573.777 653.297C573.517 652.125 573.387 651.083 573.387 650.172C573.387 649.26 573.322 648.479 573.191 647.828C573.061 647.177 572.866 646.656 572.605 646.266C572.475 645.745 572.28 644.898 572.02 643.727C571.889 642.424 571.889 640.927 572.02 639.234C572.15 637.542 572.085 636.109 571.824 634.938C571.694 633.635 571.499 632.659 571.238 632.008C571.108 631.227 570.978 630.51 570.848 629.859C570.848 629.208 570.913 628.622 571.043 628.102C571.173 627.451 570.913 626.799 570.262 626.148C570.522 624.195 570.522 622.763 570.262 621.852C570.001 620.94 569.936 620.224 570.066 619.703C570.197 619.182 570.132 618.466 569.871 617.555C569.611 616.643 569.546 615.992 569.676 615.602C569.806 615.211 569.806 614.755 569.676 614.234C569.546 613.714 569.415 613.128 569.285 612.477C569.285 611.826 569.22 611.109 569.09 610.328C569.09 609.417 568.895 608.44 568.504 607.398C568.374 606.096 568.178 605.38 567.918 605.25C567.788 604.99 567.658 604.729 567.527 604.469C567.527 604.078 567.527 603.688 567.527 603.297C567.658 602.776 567.332 601.018 566.551 598.023C565.9 595.029 565.704 593.141 565.965 592.359C566.225 591.448 566.29 590.732 566.16 590.211C566.03 589.56 565.77 588.844 565.379 588.062C565.118 587.151 564.858 586.37 564.598 585.719C564.467 584.938 564.402 584.352 564.402 583.961C564.533 583.44 564.533 582.919 564.402 582.398C564.402 581.878 564.272 581.422 564.012 581.031C563.361 579.339 563.035 576.865 563.035 573.609L562.449 569.117C562.319 568.076 562.449 566.904 562.84 565.602C563.23 564.299 563.035 562.477 562.254 560.133L561.863 556.031C561.473 554.339 561.277 552.906 561.277 551.734C561.277 550.562 561.082 549.977 560.691 549.977C560.431 549.977 560.04 549.651 559.52 549C558.999 549.13 556.98 549.195 553.465 549.195L549.363 548.805C549.233 548.154 548.973 547.763 548.582 547.633C548.191 547.503 547.866 547.177 547.605 546.656C547.866 544.964 548.322 543.661 548.973 542.75C550.275 542.099 550.991 541.904 551.121 542.164C551.251 542.294 551.577 542.294 552.098 542.164C552.618 542.034 553.27 541.839 554.051 541.578C554.962 541.188 556.004 540.927 557.176 540.797C558.348 540.536 559.715 540.406 561.277 540.406C562.97 540.406 564.207 539.885 564.988 538.844C565.77 539.234 566.551 539.234 567.332 538.844C568.243 538.323 569.155 537.997 570.066 537.867C571.108 537.607 572.085 537.411 572.996 537.281C574.038 537.021 574.754 536.565 575.145 535.914C577.488 536.826 578.921 537.216 579.441 537.086C579.962 536.826 580.418 536.63 580.809 536.5C581.329 536.24 582.046 536.174 582.957 536.305C584.65 535.523 585.561 535.198 585.691 535.328V536.109L591.355 533.57C592.137 534.091 592.853 534.417 593.504 534.547C594.155 534.677 594.48 535.263 594.48 536.305C595.001 537.997 595.327 538.974 595.457 539.234C595.717 539.365 595.783 539.755 595.652 540.406C593.439 541.448 591.811 542.294 590.77 542.945C589.728 543.466 588.491 543.857 587.059 544.117C586.538 544.898 585.887 545.484 585.105 545.875C584.454 546.135 583.803 546.591 583.152 547.242C582.632 547.893 582.371 548.609 582.371 549.391C582.371 550.172 582.046 550.888 581.395 551.539C581.134 552.581 581.134 553.818 581.395 555.25C581.655 556.552 581.785 557.919 581.785 559.352L581.59 563.258C581.72 564.43 581.915 565.602 582.176 566.773C582.436 567.815 582.632 568.987 582.762 570.289C582.892 571.461 582.892 572.633 582.762 573.805C582.762 574.977 582.957 576.214 583.348 577.516C583.738 578.688 583.868 579.339 583.738 579.469C583.608 579.599 583.543 579.794 583.543 580.055L584.52 584.156V586.305C584.52 587.216 584.585 588.062 584.715 588.844L584.91 591.383C584.91 593.596 585.105 595.224 585.496 596.266C586.017 597.177 586.342 598.284 586.473 599.586C586.603 600.758 586.538 601.995 586.277 603.297C586.147 604.469 586.082 605.641 586.082 606.812L587.059 610.133L587.254 614.234C587.254 614.755 587.189 615.406 587.059 616.188C587.059 616.839 587.384 617.555 588.035 618.336Z" fill="black"/>
<g id="BOUTTON">
<g id="Ellipse 84" filter="url(#filter0_d_617_6)">
<circle cx="364.5" cy="364.5" r="145.5" fill="#AC0B0E"/>
</g>
<circle id="Ellipse 85" cx="364.5" cy="364.5" r="115.5" fill="url(#paint0_linear_617_6)"/>
</g>
</g>
<defs>
<filter id="filter0_d_617_6" x="202.4" y="206.4" width="324.2" height="324.2" filterUnits="userSpaceOnUse" color-interpolation-filters="sRGB">
<feFlood flood-opacity="0" result="BackgroundImageFix"/>
<feColorMatrix in="SourceAlpha" type="matrix" values="0 0 0 0 0 0 0 0 0 0 0 0 0 0 0 0 0 0 127 0" result="hardAlpha"/>
<feMorphology radius="10" operator="dilate" in="SourceAlpha" result="effect1_dropShadow_617_6"/>
<feOffset dy="4"/>
<feGaussianBlur stdDeviation="3.3"/>
<feComposite in2="hardAlpha" operator="out"/>
<feColorMatrix type="matrix" values="0 0 0 0 0 0 0 0 0 0 0 0 0 0 0 0 0 0 0.25 0"/>
<feBlend mode="normal" in2="BackgroundImageFix" result="effect1_dropShadow_617_6"/>
<feBlend mode="normal" in="SourceGraphic" in2="effect1_dropShadow_617_6" result="shape"/>
</filter>
<linearGradient id="paint0_linear_617_6" x1="364.5" y1="249" x2="364.5" y2="480" gradientUnits="userSpaceOnUse">
<stop stop-color="#99070A"/>
<stop offset="1" stop-color="#81070A"/>
</linearGradient>
<clipPath id="clip0_617_6">
<rect width="730" height="730" fill="white"/>
</clipPath>
</defs>
</svg>
