<svg width="684" height="169" viewBox="0 0 684 169" fill="none" xmlns="http://www.w3.org/2000/svg">
<g clip-path="url(#clip0_617_60)">
<path d="M136 167H44.1405C28.5844 167 17.3062 164.007 10.3059 158.02C3.43531 151.903 0 142.011 0 128.345V28H27.0288V128.345C27.0288 133.812 28.2603 137.586 30.7234 139.669C33.1864 141.751 37.6588 142.792 44.1405 142.792H136V167Z" fill="#AC0B0E"/>
<path d="M115.911 73.775L98.3745 110.765C95.8172 115.697 92.6205 118.163 88.7845 118.163C85.0399 118.163 81.8889 115.56 79.3315 110.354L61.5215 73.775V132H42.4785V34.456H61.2475L88.7845 90.763L116.185 34.456H134.954V132H115.911V73.775Z" fill="#AC0B0E"/>
<path d="M168.036 29.8H189.596V147.4H225.072V167H168.036V29.8ZM266.771 168.96C256.318 168.96 248.347 166.02 242.859 160.14C237.371 154.129 234.627 145.571 234.627 134.464V29.8H256.187V136.032C256.187 140.736 257.102 144.133 258.931 146.224C260.891 148.315 263.635 149.36 267.163 149.36C270.691 149.36 273.37 148.315 275.199 146.224C277.159 144.133 278.139 140.736 278.139 136.032V29.8H298.915V134.464C298.915 145.571 296.171 154.129 290.683 160.14C285.195 166.02 277.224 168.96 266.771 168.96ZM345.63 168.96C335.177 168.96 327.206 166.02 321.718 160.14C316.23 154.129 313.486 145.571 313.486 134.464V29.8H335.046V136.032C335.046 140.736 335.961 144.133 337.79 146.224C339.75 148.315 342.494 149.36 346.022 149.36C349.55 149.36 352.229 148.315 354.058 146.224C356.018 144.133 356.998 140.736 356.998 136.032V29.8H377.774V134.464C377.774 145.571 375.03 154.129 369.542 160.14C364.054 166.02 356.084 168.96 345.63 168.96ZM320.934 0.595993H340.142V20.588H320.934V0.595993ZM351.118 0.595993H370.326V20.588H351.118V0.595993ZM393.13 29.8H423.902L437.622 127.996H438.014L451.734 29.8H482.506V167H462.122V63.12H461.73L446.05 167H428.018L412.338 63.12H411.946V167H393.13V29.8ZM515.255 29.8H544.459L566.803 167H545.243L541.323 139.756V140.148H516.823L512.903 167H492.911L515.255 29.8ZM538.775 121.528L529.171 53.712H528.779L519.371 121.528H538.775ZM577.263 29.8H598.823V167H577.263V29.8ZM614.97 29.8H636.53V147.4H672.006V167H614.97V29.8Z" fill="black"/>
</g>
<defs>
<clipPath id="clip0_617_60">
<rect width="684" height="169" fill="white"/>
</clipPath>
</defs>
</svg>
