<svg width="274" height="274" viewBox="0 0 274 274" fill="none" xmlns="http://www.w3.org/2000/svg">
<path d="M67.5371 70.8147L13.9604 103.416C13.364 103.779 13 104.426 13 105.124V154.887C13 156.459 14.7296 157.417 16.0617 156.582L50.8447 134.795C79.5048 116.843 117.383 127.119 133.041 157.094L140.23 170.855C150.231 189.999 170.04 202 191.638 202H251C252.105 202 253 201.105 253 200V145.5C253 144.395 252.105 143.5 251 143.5H211.064C190.034 143.5 170.652 132.117 160.409 113.75L148.342 92.1127C132.32 63.3838 95.6381 53.7155 67.5371 70.8147Z" fill="white"/>
<path d="M221.36 193.654L216 189.151L221.36 184.57L221.062 186.727L228.039 181.418L227.379 184.073L235.955 179.095L235.955 200L227.379 194.483L227.709 197.304L221.062 191.863L221.36 193.654Z" fill="#4B4949"/>
<rect x="235.321" y="191.765" width="4.11761" height="4.11761" transform="rotate(-90 235.321 191.765)" fill="#4B4949"/>
<path d="M188.36 193.654L183 189.151L188.36 184.57L188.062 186.727L195.039 181.418L194.379 184.073L202.955 179.095L202.955 200L194.379 194.483L194.709 197.304L188.062 191.863L188.36 193.654Z" fill="#C99F5C"/>
<rect x="202.321" y="191.765" width="4.11761" height="4.11761" transform="rotate(-90 202.321 191.765)" fill="#C99F5C"/>
<path d="M151.174 175.931L147.631 169.894L154.214 167.371L153.212 169.304L161.563 166.635L160.053 168.916L169.8 167.095L162.804 186.795L156.569 178.727L155.936 181.495L151.493 174.144L151.174 175.931Z" fill="#4B4949"/>
<rect x="164.963" y="178.823" width="4.11761" height="4.11761" transform="rotate(-70.4487 164.963 178.823)" fill="#4B4949"/>
<path d="M129.943 144.694L128.821 138.846L134.817 138.698L133.464 139.962L140.918 140.2L139.058 141.599L147.39 142.914L136.173 156.715L133.472 148.472L132.176 150.511L130.708 143.353L129.943 144.694Z" fill="#C99F5C"/>
<rect x="140.174" y="150.938" width="3.50286" height="3.50286" transform="rotate(-50.8974 140.174 150.938)" fill="#C99F5C"/>
<path d="M112.38 118.532L111.693 112.315L117.984 112.659L116.461 113.87L124.247 114.741L122.183 116.051L130.798 118.123L117.902 131.639L115.761 122.782L114.234 124.809L113.293 117.191L112.38 118.532Z" fill="#4B4949"/>
<rect x="122.573" y="125.924" width="3.67977" height="3.67977" transform="rotate(-46.346 122.573 125.924)" fill="#4B4949"/>
<path d="M87.9671 109.04L84.3381 103.178L90.7621 100.541L89.8202 102.468L97.9807 99.6474L96.5468 101.928L106.101 99.9099L99.669 119.468L93.3434 111.668L92.7841 114.408L88.2398 107.273L87.9671 109.04Z" fill="#C99F5C"/>
<rect x="101.61" y="111.568" width="4.05532" height="4.05532" transform="rotate(-71.7947 101.61 111.568)" fill="#C99F5C"/>
<path d="M65.2544 119.318L59.585 116.273L63.5474 111.143L63.6852 113.14L68.9656 107.051L68.8708 109.564L75.6528 103.474L79.5811 122.286L70.8272 118.933L71.654 121.41L64.6503 117.762L65.2544 119.318Z" fill="#4B4949"/>
<rect x="77.4635" y="114.994" width="3.78544" height="3.78544" transform="rotate(-101.795 77.4635 114.994)" fill="#4B4949"/>
<path d="M41.4047 126.34L36.4677 124.452L39.1594 119.859L39.4804 121.471L43.1455 115.959L43.331 118.016L48.2191 112.345L53.3862 127.26L45.9043 125.444L46.8368 127.374L40.75 125.136L41.4047 126.34Z" fill="#C99F5C"/>
<rect x="50.8987" y="121.541" width="3.10909" height="3.10909" transform="rotate(-109.108 50.8987 121.541)" fill="#C99F5C"/>
<path d="M221.36 164.559L216 160.056L221.36 155.475L221.062 157.632L228.039 152.323L227.379 154.977L235.955 150L235.955 170.905L227.379 165.388L227.709 168.209L221.062 162.768L221.36 164.559Z" fill="#C99F5C"/>
<rect x="235.321" y="162.67" width="4.11761" height="4.11761" transform="rotate(-90 235.321 162.67)" fill="#C99F5C"/>
<path d="M188.36 164.559L183 160.056L188.36 155.475L188.062 157.632L195.039 152.323L194.379 154.977L202.955 150L202.955 170.905L194.379 165.388L194.709 168.209L188.062 162.768L188.36 164.559Z" fill="#4B4949"/>
<rect x="202.321" y="162.67" width="4.11761" height="4.11761" transform="rotate(-90 202.321 162.67)" fill="#4B4949"/>
<path d="M160.911 148.513L157.367 142.476L163.951 139.953L162.949 141.886L171.3 139.218L169.79 141.498L179.537 139.678L172.541 159.377L166.306 151.309L165.673 154.077L161.23 146.726L160.911 148.513Z" fill="#C99F5C"/>
<rect x="174.7" y="151.405" width="4.11761" height="4.11761" transform="rotate(-70.4487 174.7 151.405)" fill="#C99F5C"/>
<path d="M145.554 125.487L144.432 119.639L150.428 119.49L149.074 120.754L156.529 120.993L154.669 122.391L163.001 123.707L151.784 137.507L149.083 129.264L147.787 131.303L146.319 124.145L145.554 125.487Z" fill="#4B4949"/>
<rect x="155.785" y="131.731" width="3.50286" height="3.50286" transform="rotate(-50.8974 155.785 131.731)" fill="#4B4949"/>
<path d="M130.329 99.7199L129.641 93.5021L135.933 93.8465L134.41 95.0577L142.196 95.9285L140.132 97.238L148.747 99.3099L135.851 112.827L133.709 103.97L132.183 105.997L131.241 98.3787L130.329 99.7199Z" fill="#C99F5C"/>
<rect x="140.522" y="107.111" width="3.67977" height="3.67977" transform="rotate(-46.346 140.522 107.111)" fill="#C99F5C"/>
<path d="M96.9195 82.2699L93.2906 76.4081L99.7145 73.7715L98.7727 75.6979L106.933 72.8774L105.499 75.158L115.054 73.14L108.621 92.6979L102.296 84.8981L101.737 87.6384L97.1923 80.5033L96.9195 82.2699Z" fill="#4B4949"/>
<rect x="110.563" y="84.7983" width="4.05532" height="4.05532" transform="rotate(-71.7947 110.563 84.7983)" fill="#4B4949"/>
<path d="M59.9973 93.499L54.3279 90.4541L58.2903 85.3245L58.428 87.3213L63.7085 81.2325L63.6137 83.7454L70.3957 77.6547L74.324 96.4673L65.5701 93.1144L66.3969 95.5906L59.3932 91.9435L59.9973 93.499Z" fill="#C99F5C"/>
<rect x="72.2064" y="89.1753" width="3.78544" height="3.78544" transform="rotate(-101.795 72.2064 89.1753)" fill="#C99F5C"/>
<path d="M34.4225 105.856L29.4856 103.968L32.1773 99.375L32.4983 100.987L36.1634 95.475L36.3489 97.532L41.237 91.8612L46.4041 106.776L38.9222 104.96L39.8547 106.891L33.7678 104.652L34.4225 105.856Z" fill="#4B4949"/>
<rect x="43.9166" y="101.057" width="3.10909" height="3.10909" transform="rotate(-109.108 43.9166 101.057)" fill="#4B4949"/>
<path d="M22.4225 135.856L17.4856 133.968L20.1773 129.375L20.4983 130.987L24.1634 125.475L24.3489 127.532L29.237 121.861L34.4041 136.776L26.9222 134.96L27.8547 136.891L21.7678 134.652L22.4225 135.856Z" fill="#4B4949"/>
<rect x="31.9166" y="131.057" width="3.10909" height="3.10909" transform="rotate(-109.108 31.9166 131.057)" fill="#4B4949"/>
<rect x="9" y="170" width="77" height="7" rx="3.5" transform="rotate(-90 9 170)" fill="#4B4949"/>
<rect x="249" y="214" width="77" height="7" rx="3.5" transform="rotate(-90 249 214)" fill="#4B4949"/>
</svg>
