<svg width="548" height="274" viewBox="0 0 548 274" fill="none" xmlns="http://www.w3.org/2000/svg">
<path d="M98 2.41846L98 115.418C98 154.389 129.412 186.076 168.381 186.415L487.305 189.196L545 221.418L545 95.3721L487.305 133.322L200.752 133.322C183.782 133.322 170.19 119.258 170.769 102.298L174.18 2.41847L98 2.41846Z" fill="#AC0B0E"/>
<rect x="178" y="10.4185" width="85" height="8.99999" rx="4.5" transform="rotate(-180 178 10.4185)" fill="#4B4949"/>
<rect x="548" y="86.4185" width="151" height="6.99999" rx="3.5" transform="rotate(90 548 86.4185)" fill="#4B4949"/>
<circle cx="134.5" cy="26.9185" r="9.5" fill="white"/>
<ellipse cx="111" cy="22.9185" rx="5" ry="5.5" fill="white" fill-opacity="0.37"/>
<ellipse cx="160.5" cy="23.4185" rx="5.5" ry="6" fill="white" fill-opacity="0.37"/>
<circle cx="131.5" cy="53.9185" r="9.5" fill="white"/>
<circle cx="107.5" cy="49.9185" r="5.5" fill="white" fill-opacity="0.37"/>
<circle cx="156.5" cy="49.9185" r="5.5" fill="white" fill-opacity="0.37"/>
<ellipse cx="134.5" cy="80.4185" rx="9.5" ry="10" fill="white"/>
<ellipse cx="111" cy="75.9185" rx="5" ry="5.5" fill="white" fill-opacity="0.37"/>
<ellipse cx="160.5" cy="76.4185" rx="5.5" ry="6" fill="white" fill-opacity="0.37"/>
<circle cx="131.5" cy="106.918" r="9.5" fill="white"/>
<circle cx="107.5" cy="102.918" r="5.5" fill="white" fill-opacity="0.37"/>
<circle cx="156.5" cy="102.918" r="5.5" fill="white" fill-opacity="0.37"/>
<ellipse cx="116.5" cy="123.418" rx="5.5" ry="6" fill="white" fill-opacity="0.37"/>
<ellipse cx="141.5" cy="134.418" rx="9.5" ry="9" fill="white"/>
<ellipse cx="160.5" cy="122.418" rx="5.5" ry="6" fill="white" fill-opacity="0.4"/>
<circle cx="119.5" cy="142.918" r="5.5" fill="white" fill-opacity="0.4"/>
<ellipse cx="167" cy="148.918" rx="9" ry="9.5" fill="white"/>
<ellipse cx="175" cy="133.918" rx="6" ry="5.5" fill="white" fill-opacity="0.4"/>
<circle cx="186.5" cy="147.918" r="5.5" fill="white" fill-opacity="0.4"/>
<ellipse cx="168.5" cy="169.418" rx="5.5" ry="6" fill="white" fill-opacity="0.4"/>
<circle cx="136.5" cy="154.918" r="5.5" fill="white" fill-opacity="0.4"/>
<circle cx="193.5" cy="163.918" r="9.5" fill="white"/>
<circle cx="204.5" cy="143.918" r="5.5" fill="white" fill-opacity="0.4"/>
<ellipse cx="206" cy="177.918" rx="6" ry="5.5" fill="white" fill-opacity="0.4"/>
<circle cx="150.5" cy="160.918" r="5.5" fill="white" fill-opacity="0.4"/>
<circle cx="190.5" cy="174.918" r="5.5" fill="white" fill-opacity="0.4"/>
<ellipse cx="220" cy="153.918" rx="10" ry="9.5" fill="white"/>
<ellipse cx="229" cy="139.918" rx="6" ry="5.5" fill="white" fill-opacity="0.4"/>
<circle cx="233.5" cy="167.918" r="5.5" fill="white" fill-opacity="0.4"/>
<circle cx="246.5" cy="163.918" r="9.5" fill="white"/>
<ellipse cx="256.5" cy="149.418" rx="5.5" ry="6" fill="white" fill-opacity="0.4"/>
<circle cx="259.5" cy="177.918" r="5.5" fill="white" fill-opacity="0.4"/>
<circle cx="300.5" cy="167.918" r="9.5" fill="white"/>
<circle cx="309.5" cy="153.918" r="5.5" fill="white" fill-opacity="0.4"/>
<circle cx="313.5" cy="181.918" r="5.5" fill="white" fill-opacity="0.4"/>
<ellipse cx="354" cy="163.918" rx="9" ry="9.5" fill="white"/>
<circle cx="364" cy="149.418" r="6" fill="white" fill-opacity="0.4"/>
<ellipse cx="367" cy="177.918" rx="6" ry="5.5" fill="white" fill-opacity="0.4"/>
<ellipse cx="408" cy="167.918" rx="10" ry="9.5" fill="white"/>
<ellipse cx="417" cy="153.918" rx="6" ry="5.5" fill="white" fill-opacity="0.4"/>
<circle cx="425.5" cy="177.918" r="5.5" fill="white" fill-opacity="0.4"/>
<circle cx="461.5" cy="167.918" r="9.5" fill="white"/>
<ellipse cx="471.5" cy="153.418" rx="5.5" ry="5" fill="white" fill-opacity="0.4"/>
<circle cx="478.5" cy="179.918" r="5.5" fill="white" fill-opacity="0.4"/>
<circle cx="273.5" cy="153.918" r="9.5" fill="white"/>
<circle cx="283.5" cy="139.918" r="5.5" fill="white" fill-opacity="0.4"/>
<ellipse cx="286.5" cy="168.418" rx="5.5" ry="6" fill="white" fill-opacity="0.4"/>
<ellipse cx="327" cy="158.918" rx="10" ry="9.5" fill="white"/>
<circle cx="336.5" cy="144.918" r="5.5" fill="white" fill-opacity="0.4"/>
<circle cx="339.5" cy="172.918" r="5.5" fill="white" fill-opacity="0.4"/>
<ellipse cx="381" cy="153.918" rx="9" ry="9.5" fill="white"/>
<circle cx="390.5" cy="139.918" r="5.5" fill="white" fill-opacity="0.4"/>
<circle cx="387" cy="170.418" r="6" fill="white" fill-opacity="0.4"/>
<circle cx="434.5" cy="158.918" r="9.5" fill="white"/>
<circle cx="443.5" cy="144.918" r="5.5" fill="white" fill-opacity="0.4"/>
<circle cx="447.5" cy="172.918" r="5.5" fill="white" fill-opacity="0.4"/>
<circle cx="488.5" cy="158.918" r="9.5" fill="white"/>
<circle cx="497.5" cy="144.918" r="5.5" fill="white" fill-opacity="0.4"/>
<ellipse cx="501" cy="172.918" rx="5" ry="5.5" fill="white" fill-opacity="0.4"/>
<ellipse cx="515" cy="168.918" rx="10" ry="9.5" fill="white"/>
<circle cx="515.5" cy="151.918" r="5.5" fill="white" fill-opacity="0.4"/>
<circle cx="519.5" cy="180.918" r="5.5" fill="white" fill-opacity="0.4"/>
<ellipse cx="531" cy="149.918" rx="10" ry="9.5" fill="white"/>
<circle cx="525.5" cy="134.918" r="5.5" fill="white" fill-opacity="0.4"/>
</svg>
