<svg width="137" height="274" viewBox="0 0 137 274" fill="none" xmlns="http://www.w3.org/2000/svg">
<g clip-path="url(#clip0_593_34)">
<rect width="274" height="274" transform="translate(-137)" fill="#AC0B0E"/>
<path d="M2.03165 12L16.9693 13.3667" stroke="white" stroke-width="2"/>
<path d="M22.011 13.0953L36.9884 12.2713" stroke="white" stroke-width="2"/>
<path d="M42.0154 12.2076L56.9852 13.1591" stroke="white" stroke-width="2"/>
<path d="M62.0217 13.2588L76.9775 12.1079" stroke="white" stroke-width="2"/>
<path d="M82.0065 12.3771L96.9939 12.9895" stroke="white" stroke-width="2"/>
<path d="M102 12.6833H117" stroke="white" stroke-width="2"/>
<path d="M117.683 17.6833L117.683 32.6833" stroke="white" stroke-width="2"/>
<path d="M117.331 37.6914L118.036 52.6748" stroke="white" stroke-width="2"/>
<path d="M118.158 57.6987L117.209 72.6686" stroke="white" stroke-width="2"/>
<path d="M117.194 77.699L118.173 92.667" stroke="white" stroke-width="2"/>
<path d="M118.354 97.7138L117.012 112.654" stroke="white" stroke-width="2"/>
<path d="M117.196 117.699L118.171 132.667" stroke="white" stroke-width="2"/>
<path d="M118.367 137.715L117 152.653" stroke="white" stroke-width="2"/>
<path d="M117.271 157.694L118.095 172.672" stroke="white" stroke-width="2"/>
<path d="M118.159 177.699L117.208 192.669" stroke="white" stroke-width="2"/>
<path d="M117.108 197.705L118.259 212.661" stroke="white" stroke-width="2"/>
<path d="M117.99 217.69L117.377 232.677" stroke="white" stroke-width="2"/>
<path d="M117.683 237.683L117.683 252.683" stroke="white" stroke-width="2"/>
<path d="M117 260.367L102 260.367" stroke="white" stroke-width="2"/>
<path d="M96.9919 260.014L82.0085 260.719" stroke="white" stroke-width="2"/>
<path d="M76.9846 260.841L62.0147 259.892" stroke="white" stroke-width="2"/>
<path d="M56.9843 259.877L42.0163 260.856" stroke="white" stroke-width="2"/>
<path d="M36.9695 261.038L22.0296 259.696" stroke="white" stroke-width="2"/>
<path d="M16.9845 259.879L2.01617 260.854" stroke="white" stroke-width="2"/>
<path d="M2.19463 37L14.1903 38.0975" stroke="white" stroke-width="2"/>
<path d="M18.2391 37.8796L30.2667 37.2179" stroke="white" stroke-width="2"/>
<path d="M34.3037 37.1667L46.3252 37.9309" stroke="white" stroke-width="2"/>
<path d="M50.3698 38.0109L62.38 37.0866" stroke="white" stroke-width="2"/>
<path d="M66.4185 37.3029L78.4542 37.7946" stroke="white" stroke-width="2"/>
<path d="M82.4743 37.5487H94.5201" stroke="white" stroke-width="2"/>
<path d="M95.0689 41.564L95.0689 53.6098" stroke="white" stroke-width="2"/>
<path d="M94.7858 57.6315L95.352 69.6639" stroke="white" stroke-width="2"/>
<path d="M95.45 73.6984L94.6878 85.72" stroke="white" stroke-width="2"/>
<path d="M94.6758 89.7596L95.462 101.78" stroke="white" stroke-width="2"/>
<path d="M95.6077 105.833L94.53 117.83" stroke="white" stroke-width="2"/>
<path d="M94.6775 121.882L95.4602 133.902" stroke="white" stroke-width="2"/>
<path d="M95.6176 137.956L94.5201 149.951" stroke="white" stroke-width="2"/>
<path d="M94.738 154L95.3998 166.028" stroke="white" stroke-width="2"/>
<path d="M95.4509 170.065L94.6868 182.086" stroke="white" stroke-width="2"/>
<path d="M94.6067 186.131L95.531 198.141" stroke="white" stroke-width="2"/>
<path d="M95.3147 202.179L94.823 214.215" stroke="white" stroke-width="2"/>
<path d="M95.0689 218.235L95.0689 230.281" stroke="white" stroke-width="2"/>
<path d="M94.5201 236.451L82.4743 236.451" stroke="white" stroke-width="2"/>
<path d="M78.4526 236.168L66.4202 236.734" stroke="white" stroke-width="2"/>
<path d="M62.3857 236.832L50.3641 236.07" stroke="white" stroke-width="2"/>
<path d="M46.3244 236.058L34.3044 236.844" stroke="white" stroke-width="2"/>
<path d="M30.2515 236.99L18.254 235.912" stroke="white" stroke-width="2"/>
<path d="M14.2025 236.06L2.1822 236.843" stroke="white" stroke-width="2"/>
<path d="M-19.3452 168.116L-20.8589 170.084C-20.8589 170.084 -21.0607 170.387 -21.4644 170.992C-21.868 171.598 -22.2716 172.203 -22.6753 172.809C-23.0789 173.414 -23.6844 174.07 -24.4917 174.776C-25.299 175.483 -25.9045 176.038 -26.3081 176.441C-26.7118 176.845 -26.8127 177.4 -26.6108 178.106C-25.7026 179.015 -24.6935 179.317 -23.5835 179.015C-22.4735 178.611 -21.5148 178.409 -20.7075 178.409C-19.7993 178.409 -18.992 178.561 -18.2856 178.863C-17.4784 179.065 -16.7215 179.015 -16.0151 178.712C-15.2078 178.308 -14.6528 178.157 -14.3501 178.258C-13.7446 178.46 -12.8869 178.258 -11.7769 177.652C-10.6668 176.946 -9.85954 176.643 -9.35498 176.744C-8.74951 176.744 -8.1945 176.795 -7.68994 176.896C-7.08447 176.996 -6.63037 176.996 -6.32764 176.896C-5.92399 176.694 -5.62126 176.845 -5.41943 177.35C-4.81396 178.561 -4.91488 180.226 -5.72217 182.345C-6.22673 182.547 -7.08447 182.698 -8.29541 182.799C-9.40544 182.799 -10.1623 182.547 -10.5659 182.042C-10.9696 182.244 -11.5246 182.597 -12.231 183.102C-12.8364 183.505 -13.5428 183.707 -14.3501 183.707C-15.0565 183.707 -15.6115 183.858 -16.0151 184.161C-16.5197 183.757 -17.0243 183.657 -17.5288 183.858C-17.9325 183.959 -18.7397 184.01 -19.9507 184.01C-21.0607 183.909 -22.1203 184.06 -23.1294 184.464C-24.0376 184.767 -24.9963 184.514 -26.0054 183.707C-27.7209 184.514 -29.6382 185.069 -31.7573 185.372C-33.7756 185.574 -35.4406 185.978 -36.7524 186.583C-37.9634 187.088 -38.922 187.592 -39.6284 188.097C-40.2339 188.5 -41.0412 188.551 -42.0503 188.248C-42.4539 188.349 -42.8071 188.5 -43.1099 188.702C-43.3117 188.904 -43.7153 188.904 -44.3208 188.702C-45.1281 188.097 -45.7336 187.592 -46.1372 187.188C-46.339 186.684 -46.2886 186.179 -45.9858 185.675C-45.5822 185.17 -45.3299 184.565 -45.229 183.858C-45.0272 183.152 -44.674 182.547 -44.1694 182.042C-43.7658 181.235 -43.5135 180.781 -43.4126 180.68C-43.2108 180.579 -42.9585 180.226 -42.6558 179.62C-42.353 179.015 -41.9494 178.46 -41.4448 177.955C-40.9403 177.451 -40.3348 176.441 -39.6284 174.928C-38.8211 173.414 -38.3166 172.657 -38.1147 172.657C-37.9129 172.657 -37.1056 171.244 -35.6929 168.419C-34.2801 165.493 -33.4728 163.727 -33.271 163.121C-32.9683 162.516 -32.4132 161.658 -31.606 160.548C-30.7987 159.438 -30.0418 157.521 -29.3354 154.796C-28.8309 153.585 -28.5786 152.727 -28.5786 152.223C-28.4777 151.617 -28.3263 150.86 -28.1245 149.952C-27.8218 149.044 -27.4686 148.035 -27.0649 146.925C-26.5604 145.714 -26.3081 144.806 -26.3081 144.2C-26.3081 143.494 -26.2072 142.787 -26.0054 142.081C-25.8035 141.375 -25.5513 140.567 -25.2485 139.659C-24.8449 138.65 -24.5926 137.742 -24.4917 136.935C-24.2899 136.026 -24.189 135.37 -24.189 134.967C-24.189 134.462 -24.1385 134.008 -24.0376 133.604C-23.8358 133.201 -23.6844 132.848 -23.5835 132.545C-23.4826 132.242 -23.3817 131.939 -23.2808 131.637C-23.0789 131.334 -22.978 131.031 -22.978 130.729C-22.8771 130.426 -22.6753 129.82 -22.3726 128.912C-21.9689 127.903 -21.7671 126.793 -21.7671 125.582L-22.0698 123.766C-21.5653 122.353 -21.313 121.445 -21.313 121.041C-21.313 120.234 -21.1616 119.073 -20.8589 117.56L-20.7075 115.289C-20.5057 114.28 -20.5057 113.624 -20.7075 113.321C-20.9093 112.918 -21.0103 112.413 -21.0103 111.808C-21.0103 111.202 -20.9598 110.496 -20.8589 109.688C-20.6571 108.78 -20.758 107.923 -21.1616 107.115C-21.4644 106.308 -21.5653 105.854 -21.4644 105.753C-21.3634 105.551 -21.5148 105.147 -21.9185 104.542C-22.3221 103.836 -22.5744 103.281 -22.6753 102.877C-22.7762 102.372 -22.9276 101.918 -23.1294 101.515C-23.3312 101.01 -23.5835 100.455 -23.8862 99.8496C-24.189 99.2441 -24.4412 98.6387 -24.6431 98.0332C-26.0558 97.7305 -27.2668 97.2259 -28.2759 96.5195C-29.285 95.7122 -30.4959 95.2077 -31.9087 95.0059C-32.8169 95.3086 -33.7756 95.7122 -34.7847 96.2168C-35.6929 96.6204 -36.5506 96.7214 -37.3579 96.5195C-37.6606 96.8223 -37.9634 97.1755 -38.2661 97.5791C-38.5688 97.9827 -39.0734 98.3864 -39.7798 98.79C-40.3853 99.0928 -40.9403 99.6478 -41.4448 100.455C-41.9494 101.262 -42.4539 101.918 -42.9585 102.423C-43.3621 102.927 -43.8667 103.382 -44.4722 103.785C-45.0776 104.189 -45.6326 104.643 -46.1372 105.147C-46.8436 106.358 -47.1968 107.216 -47.1968 107.721C-47.1968 108.225 -47.4491 108.578 -47.9536 108.78C-47.8527 109.789 -47.9536 110.445 -48.2563 110.748C-48.4582 110.95 -48.6095 111.202 -48.7104 111.505C-48.8114 111.808 -48.8114 112.11 -48.7104 112.413C-48.6095 112.716 -48.7104 113.372 -49.0132 114.381C-49.215 115.39 -49.1141 116.399 -48.7104 117.408C-48.3068 118.316 -47.7013 118.922 -46.894 119.225C-46.995 119.729 -46.9445 120.082 -46.7427 120.284C-46.4399 120.486 -46.339 120.789 -46.4399 121.192C-45.6326 121.091 -45.0272 121.091 -44.6235 121.192C-44.119 121.192 -43.5135 121.041 -42.8071 120.738C-42.1007 119.527 -41.8485 118.316 -42.0503 117.105C-42.1512 115.794 -41.9494 114.431 -41.4448 113.019C-40.6375 112.817 -39.6284 112.918 -38.4175 113.321C-37.2065 113.624 -36.3488 114.028 -35.8442 114.532C-35.8442 114.936 -35.7938 115.289 -35.6929 115.592C-35.491 115.794 -35.3397 116.197 -35.2388 116.803C-35.1379 117.307 -35.2892 117.913 -35.6929 118.619C-35.9956 119.225 -35.9451 120.082 -35.5415 121.192C-36.0461 121.899 -36.5002 122.605 -36.9038 123.312C-37.2065 124.018 -37.5597 124.573 -37.9634 124.977C-38.2661 125.279 -38.6193 125.431 -39.0229 125.431C-39.3257 125.33 -39.5275 125.481 -39.6284 125.885C-40.8394 125.784 -41.4448 125.834 -41.4448 126.036C-41.4448 126.238 -41.4448 126.44 -41.4448 126.642C-42.0503 126.339 -42.5549 126.288 -42.9585 126.49C-43.3621 126.692 -43.9676 126.743 -44.7749 126.642C-45.5822 126.44 -46.3895 125.986 -47.1968 125.279C-48.0041 124.573 -48.9627 124.169 -50.0728 124.068C-50.3755 123.766 -50.5773 123.463 -50.6782 123.16C-50.7791 122.757 -51.0819 122.151 -51.5864 121.344C-51.9901 120.536 -52.3433 119.981 -52.646 119.679C-52.8478 119.275 -53.0496 118.771 -53.2515 118.165C-53.3524 117.459 -53.3019 116.651 -53.1001 115.743C-52.7974 114.734 -52.8983 113.725 -53.4028 112.716C-52.9992 112.11 -52.8478 111.454 -52.9487 110.748C-53.0496 110.042 -53.0496 109.487 -52.9487 109.083C-52.8478 108.578 -52.6965 108.074 -52.4946 107.569C-52.1919 107.065 -51.9396 106.56 -51.7378 106.056C-51.536 105.45 -51.3341 104.895 -51.1323 104.391C-50.8296 103.785 -50.5773 103.18 -50.3755 102.574C-50.0728 101.868 -49.5682 101.161 -48.8618 100.455C-48.1554 99.6478 -47.7013 98.79 -47.4995 97.8818C-46.6922 97.3773 -46.0363 96.8223 -45.5317 96.2168C-44.9263 95.5104 -44.119 95.0563 -43.1099 94.8545C-43.1099 94.1481 -42.9585 93.694 -42.6558 93.4922C-42.353 93.2904 -42.1512 92.9372 -42.0503 92.4326C-40.5366 91.9281 -39.0229 91.3226 -37.5093 90.6162C-35.9956 89.8089 -34.9865 89.4053 -34.4819 89.4053C-33.9774 89.3044 -33.0187 89.2035 -31.606 89.1025L-29.0327 88.7998C-28.0236 89.3044 -27.2668 89.5566 -26.7622 89.5566C-26.2576 89.5566 -25.7026 89.6576 -25.0972 89.8594C-24.3908 89.9603 -23.4826 90.0612 -22.3726 90.1621C-21.2625 90.263 -20.2534 90.6162 -19.3452 91.2217C-18.3361 91.8271 -17.4784 92.3317 -16.772 92.7354C-15.6619 93.6436 -14.9556 94.1481 -14.6528 94.249C-14.3501 94.249 -13.9969 94.4004 -13.5933 94.7031C-13.1896 95.0059 -12.8364 95.46 -12.5337 96.0654C-12.231 96.6709 -11.7769 96.9736 -11.1714 96.9736C-10.8687 98.6891 -9.96045 100.051 -8.44678 101.061C-8.6486 101.464 -8.6486 101.817 -8.44678 102.12C-8.14404 102.423 -7.94222 102.776 -7.84131 103.18C-7.63949 103.583 -7.53857 103.987 -7.53857 104.391C-7.43766 104.794 -7.23584 105.349 -6.93311 106.056C-6.63037 106.762 -6.32764 107.519 -6.0249 108.326C-5.72217 109.033 -5.62126 109.537 -5.72217 109.84C-5.82308 110.042 -5.82308 110.395 -5.72217 110.899C-5.52035 111.404 -5.31852 112.06 -5.1167 112.867C-3.90576 116.197 -3.55257 119.83 -4.05713 123.766L-3.90576 124.371C-4.61214 124.876 -4.91488 125.632 -4.81396 126.642C-4.71305 127.55 -4.76351 128.508 -4.96533 129.518C-5.06624 130.426 -5.21761 131.233 -5.41943 131.939C-5.52035 132.545 -5.41943 133.1 -5.1167 133.604C-5.72217 134.412 -6.07536 135.37 -6.17627 136.48C-6.27718 137.59 -6.479 138.549 -6.78174 139.356C-6.98356 140.164 -7.18538 140.769 -7.38721 141.173C-7.58903 141.576 -7.84131 142.182 -8.14404 142.989C-8.34587 143.797 -8.49723 144.705 -8.59814 145.714C-8.59814 146.723 -9.1027 147.379 -10.1118 147.682C-10.0109 148.691 -10.3641 149.599 -11.1714 150.406C-11.0705 150.709 -11.1714 151.415 -11.4741 152.525C-11.4741 153.635 -11.6759 154.443 -12.0796 154.947C-12.4832 155.452 -12.786 155.956 -12.9878 156.461C-13.1896 156.865 -13.2401 157.268 -13.1392 157.672C-13.0382 158.076 -13.1392 158.631 -13.4419 159.337C-13.7446 159.942 -14.2996 160.75 -15.1069 161.759C-15.8133 162.667 -16.3683 163.373 -16.772 163.878C-17.0747 164.282 -17.4279 164.736 -17.8315 165.24C-17.9325 165.644 -18.0838 165.947 -18.2856 166.148C-18.3866 166.35 -18.437 166.703 -18.437 167.208C-19.0425 167.713 -19.3452 168.015 -19.3452 168.116ZM45.894 120.436L45.4399 123.16C45.4399 123.665 45.4399 124.119 45.4399 124.522C45.5409 124.825 45.5409 125.33 45.4399 126.036C45.339 126.642 45.1877 127.398 44.9858 128.307C44.784 129.114 44.8345 130.073 45.1372 131.183C45.5409 131.586 45.5913 132.898 45.2886 135.118C44.9858 137.338 45.3895 140.012 46.4995 143.141C45.995 144.553 45.8436 146.118 46.0454 147.833C46.2472 149.448 46.2977 150.81 46.1968 151.92C46.1968 153.03 45.995 154.392 45.5913 156.007C45.2886 157.521 45.2381 159.387 45.4399 161.607C45.6418 163.827 45.7427 165.997 45.7427 168.116C45.7427 170.235 45.5913 171.648 45.2886 172.354C44.9858 173.061 44.7336 173.717 44.5317 174.322C44.3299 174.928 44.1785 175.634 44.0776 176.441C43.9767 177.249 43.7749 178.359 43.4722 179.771C43.2703 181.083 43.1694 182.446 43.1694 183.858C42.564 184.868 41.7062 185.624 40.5962 186.129C39.4862 186.533 38.4266 187.088 37.4175 187.794C36.5093 187.592 35.7524 187.542 35.147 187.643C34.6424 187.743 33.9865 187.693 33.1792 187.491C32.9774 187.289 32.7251 186.936 32.4224 186.432C32.1196 185.826 31.7664 185.322 31.3628 184.918C31.0601 184.514 30.8582 184.111 30.7573 183.707C30.6564 183.202 30.6564 182.748 30.7573 182.345C30.8582 181.941 30.9087 181.336 30.9087 180.528C31.0096 179.62 30.9591 178.46 30.7573 177.047C30.5555 175.634 30.7069 174.524 31.2114 173.717C30.9087 173.212 30.8078 172.657 30.9087 172.052C31.0096 171.345 31.0601 170.689 31.0601 170.084L30.4546 167.511C30.5555 166.703 30.4546 165.745 30.1519 164.635L30.4546 162.516C30.4546 159.186 30.1014 157.016 29.395 156.007C29.5968 155.704 29.6978 155.3 29.6978 154.796C29.6978 154.291 29.8491 153.938 30.1519 153.736C30.2528 153.232 30.1014 152.879 29.6978 152.677C29.395 152.475 29.5464 151.466 30.1519 149.649C29.6473 146.622 29.395 144.099 29.395 142.081L30.0005 140.113C30.0005 139.811 29.8996 139.508 29.6978 139.205C29.5968 138.801 29.6978 137.944 30.0005 136.632C30.4041 135.219 30.5555 133.604 30.4546 131.788C30.4546 129.972 30.4546 128.256 30.4546 126.642L31.0601 124.674L30.7573 122.555C30.7573 120.94 30.505 119.729 30.0005 118.922C29.2941 118.922 28.7391 119.174 28.3354 119.679C27.73 120.688 27.1245 121.192 26.519 121.192C25.8127 122.302 25.3081 122.958 25.0054 123.16C24.8035 123.261 24.6522 123.412 24.5513 123.614C19.7075 124.119 16.3774 124.926 14.561 126.036C14.0565 125.733 13.451 125.683 12.7446 125.885C12.1392 125.986 11.5337 126.036 10.9282 126.036C9.31364 125.532 8.15316 125.279 7.44678 125.279C6.84131 125.279 6.13493 125.178 5.32764 124.977C5.0249 124.068 5.0249 123.009 5.32764 121.798C5.83219 121.394 6.2863 121.192 6.68994 121.192C7.09359 121.091 7.6486 120.89 8.35498 120.587C9.16227 120.284 9.71729 120.234 10.02 120.436C10.4237 120.536 11.2814 120.486 12.5933 120.284C13.9051 119.981 15.4692 119.527 17.2856 118.922C19.203 118.215 20.5148 117.761 21.2212 117.56C22.4321 117.156 23.4412 116.55 24.2485 115.743C25.3586 115.34 26.0145 115.188 26.2163 115.289C26.519 114.785 26.9227 114.381 27.4272 114.078C27.9318 113.674 28.1336 112.968 28.0327 111.959C28.5373 111.454 29.0418 111.051 29.5464 110.748C30.0509 110.445 30.2528 109.89 30.1519 109.083C30.6564 109.083 31.2114 108.78 31.8169 108.175C32.5233 107.468 32.9774 106.913 33.1792 106.51C33.381 106.005 33.4315 105.602 33.3306 105.299C33.2297 104.895 33.2801 104.492 33.4819 104.088C34.0874 103.684 34.4406 103.281 34.5415 102.877C34.7433 102.372 35.0965 102.019 35.6011 101.817C36.4084 102.019 37.2157 102.019 38.0229 101.817C38.8302 101.515 39.5871 101.414 40.2935 101.515C42.009 102.221 42.9676 102.826 43.1694 103.331C43.4722 103.735 43.8254 104.542 44.229 105.753C44.8345 106.762 45.0868 107.519 44.9858 108.023C44.9858 108.427 45.0363 108.881 45.1372 109.386C45.2381 109.789 45.3895 110.193 45.5913 110.597C45.7931 110.899 45.9445 111.454 46.0454 112.262C46.2472 112.968 46.2472 114.33 46.0454 116.349C45.8436 118.266 45.7931 119.376 45.894 119.679C45.995 119.981 45.995 120.234 45.894 120.436Z" fill="white"/>
</g>
<defs>
<clipPath id="clip0_593_34">
<rect width="274" height="274" fill="white" transform="translate(-137)"/>
</clipPath>
</defs>
</svg>
