<svg width="137" height="274" viewBox="0 0 137 274" fill="none" xmlns="http://www.w3.org/2000/svg">
<g clip-path="url(#clip0_593_149)">
<rect width="274" height="274" transform="translate(-137)" fill="#AC0B0E"/>
<path d="M-68.495 32.6729C-93.2735 34.0736 -104.223 34.3152 -104.383 34.3152C-104.278 37.8915 -104.495 45.494 -104.383 48C-104.153 52.0015 -104.226 54.1862 -104.875 87.3445C-105.622 97.0844 -106.966 106.107 -108.762 129.501C-110.558 152.896 -108.84 180.34 -109.585 199.5C-110.393 220.241 -109.585 234.5 -109.585 241.715C-109.585 250.457 -92.4603 245.738 -55.9745 244.424C-40.8118 243.877 -20.0148 244.209 -5.75271 244.371C16.0083 244.618 27.3356 243.713 39.2396 243.299C59.545 242.594 76.0858 243.876 85.7548 244.339C97.128 244.884 105.438 245.075 105.906 242.922C106.43 240.514 105.753 237.549 106.181 211.686C106.584 187.319 107.677 141.475 108.23 110.007C108.784 78.5389 108.817 61.9497 108.791 52.3267C108.758 40.125 108.965 34.9406 106.7 34.496C104.526 34.0693 93.9615 36.211 77.2917 36.2026C52.3229 36.19 42.0099 33.1756 21.8268 31.0169C11.5292 29.9155 -4.64922 28.6139 -21.3034 29.0291C-37.9576 29.4444 -54.5578 31.8851 -68.495 32.6729Z" stroke="white" stroke-width="2" stroke-linecap="round"/>
<path d="M106.519 33.9831C106.954 32.2126 109.769 25.3673 112.815 20.5045C121.898 10.725 134.269 -1.40435 136.784 -3.74212C137.84 -4.79251 138.449 -5.5669 139.075 -6.36475" stroke="white" stroke-width="2" stroke-linecap="round"/>
<path d="M76.909 35.3125C76.909 35.2441 76.9957 27.8779 78.3144 13.1121C79.5463 5.67736 81.9207 -1.63898 83.8224 -6.68257C85.7241 -11.7262 87.0811 -14.2753 88.6014 -17.2274" stroke="white" stroke-width="2" stroke-linecap="round"/>
<path d="M47.8027 33.1072C47.8027 33.0363 48.152 22.9902 49.1284 6.22227C49.7554 -0.536089 50.6494 -3.73989 52.7816 -9.316C54.9137 -14.8921 58.2567 -22.7434 61.7011 -30.8327" stroke="white" stroke-width="2" stroke-linecap="round"/>
<path d="M21.7086 29.7667C21.7086 29.6665 21.7086 29.5663 21.7086 14.0014C21.7086 -1.56354 21.7086 -32.5902 20.9535 -67.0592" stroke="white" stroke-width="2" stroke-linecap="round"/>
<path d="M105.776 242.502C109.078 244.242 120.128 251.939 125.305 256.708C129.036 261.327 144.281 272.069 156.61 281.822C158.188 283.478 159.299 284.932 160.722 287.084" stroke="white" stroke-width="2" stroke-linecap="round"/>
<path d="M107.405 224.748C107.475 224.856 107.546 224.963 119.64 233.754C131.734 242.545 155.849 260.017 169.277 270.031C182.706 280.045 184.717 282.072 186.79 284.161" stroke="white" stroke-width="2" stroke-linecap="round"/>
<path d="M106.979 201.059C108.171 201.219 112.876 202.858 121.799 210.039C126.253 214.208 133.575 221.342 147.935 231.734C162.294 242.126 183.469 255.559 205.285 269.4" stroke="white" stroke-width="2" stroke-linecap="round"/>
<path d="M107.004 181.999C109.985 182.039 117.877 182.566 137.598 188.317C154.435 193.624 185.141 203.781 201.748 209.165C218.355 214.549 219.933 214.853 221.559 215.166" stroke="white" stroke-width="2" stroke-linecap="round"/>
<path d="M108.107 160.892C108.071 160.892 108.036 160.892 128.726 161.068C149.417 161.243 190.834 161.594 233.506 161.955" stroke="white" stroke-width="2" stroke-linecap="round"/>
<path d="M107.751 140.361C107.787 140.361 107.822 140.361 133.093 140.148C158.365 139.934 208.871 139.506 245.969 137.765C283.067 136.024 305.228 132.983 328.06 129.85" stroke="white" stroke-width="2" stroke-linecap="round"/>
<path d="M108.981 123.854C109.158 123.817 109.336 123.78 134.704 107.619C160.073 91.4578 210.628 59.173 245.038 38.9028C279.448 18.6327 296.182 11.3554 313.422 3.8576" stroke="white" stroke-width="2" stroke-linecap="round"/>
<path d="M109.115 97.889C109.337 97.7192 109.559 97.5494 137.722 75.0799C165.885 52.6104 221.981 7.84633 253.603 -16.9099C285.225 -41.6661 290.673 -45.058 296.285 -48.5527" stroke="white" stroke-width="2" stroke-linecap="round"/>
<path d="M108.773 64.6846C109.634 62.1591 114.391 54.0776 122.006 46.3906C126.613 42.0857 132.727 36.9606 155.421 21.3745C178.114 5.78838 217.201 -20.1034 257.472 -46.7798" stroke="white" stroke-width="2" stroke-linecap="round"/>
<path d="M-5.28867 245.004C-5.28867 245.111 -5.28867 245.217 -3.94265 266.749C-2.59664 288.28 0.0953851 331.234 2.86899 375.49" stroke="white" stroke-width="2" stroke-linecap="round"/>
<path d="M18.3071 246.104C18.3071 246.209 18.3071 246.314 18.3284 261.248C18.3498 276.182 18.3926 305.942 18.6186 321.748C18.8446 337.553 19.2525 338.502 20.4636 340.14C21.6748 341.779 23.6767 344.077 25.7393 346.446" stroke="white" stroke-width="2" stroke-linecap="round"/>
<path d="M43.9533 244.12C43.9533 248.98 44.845 264.673 54.2668 285.071C60.3712 295.304 71.1075 312.133 77.7865 322.048C84.4655 331.963 86.7618 334.455 89.1276 337.022" stroke="white" stroke-width="2" stroke-linecap="round"/>
<path d="M69.9771 245.156C69.9771 245.437 70.3509 248.306 77.0854 265.367C82.8443 279.956 95.7826 305.573 103.048 320.343C112.133 338.003 115.515 342.795 118.368 346.102C119.715 347.592 120.854 348.701 122.028 349.844" stroke="white" stroke-width="2" stroke-linecap="round"/>
<path d="M93.8949 244.482C93.8949 244.675 94.7988 247.29 108.624 271.31C121.546 292.815 146.458 333.235 166.909 362.527C187.36 391.819 202.595 408.759 218.292 426.212" stroke="white" stroke-width="2" stroke-linecap="round"/>
<path d="M-22.5835 165.116L-24.0972 167.084C-24.0972 167.084 -24.299 167.387 -24.7026 167.992C-25.1063 168.598 -25.5099 169.203 -25.9136 169.809C-26.3172 170.414 -26.9227 171.07 -27.73 171.776C-28.5373 172.483 -29.1427 173.038 -29.5464 173.441C-29.95 173.845 -30.0509 174.4 -29.8491 175.106C-28.9409 176.015 -27.9318 176.317 -26.8218 176.015C-25.7118 175.611 -24.7531 175.409 -23.9458 175.409C-23.0376 175.409 -22.2303 175.561 -21.5239 175.863C-20.7166 176.065 -19.9598 176.015 -19.2534 175.712C-18.4461 175.308 -17.8911 175.157 -17.5884 175.258C-16.9829 175.46 -16.1252 175.258 -15.0151 174.652C-13.9051 173.946 -13.0978 173.643 -12.5933 173.744C-11.9878 173.744 -11.4328 173.795 -10.9282 173.896C-10.3228 173.996 -9.86865 173.996 -9.56592 173.896C-9.16227 173.694 -8.85954 173.845 -8.65771 174.35C-8.05225 175.561 -8.15316 177.226 -8.96045 179.345C-9.46501 179.547 -10.3228 179.698 -11.5337 179.799C-12.6437 179.799 -13.4006 179.547 -13.8042 179.042C-14.2078 179.244 -14.7629 179.597 -15.4692 180.102C-16.0747 180.505 -16.7811 180.707 -17.5884 180.707C-18.2948 180.707 -18.8498 180.858 -19.2534 181.161C-19.758 180.757 -20.2625 180.657 -20.7671 180.858C-21.1707 180.959 -21.978 181.01 -23.189 181.01C-24.299 180.909 -25.3586 181.06 -26.3677 181.464C-27.2759 181.767 -28.2345 181.514 -29.2437 180.707C-30.9591 181.514 -32.8765 182.069 -34.9956 182.372C-37.0138 182.574 -38.6789 182.978 -39.9907 183.583C-41.2017 184.088 -42.1603 184.592 -42.8667 185.097C-43.4722 185.5 -44.2795 185.551 -45.2886 185.248C-45.6922 185.349 -46.0454 185.5 -46.3481 185.702C-46.55 185.904 -46.9536 185.904 -47.5591 185.702C-48.3664 185.097 -48.9718 184.592 -49.3755 184.188C-49.5773 183.684 -49.5269 183.179 -49.2241 182.675C-48.8205 182.17 -48.5682 181.565 -48.4673 180.858C-48.2655 180.152 -47.9123 179.547 -47.4077 179.042C-47.0041 178.235 -46.7518 177.781 -46.6509 177.68C-46.4491 177.579 -46.1968 177.226 -45.894 176.62C-45.5913 176.015 -45.1877 175.46 -44.6831 174.955C-44.1785 174.451 -43.5731 173.441 -42.8667 171.928C-42.0594 170.414 -41.5549 169.657 -41.353 169.657C-41.1512 169.657 -40.3439 168.244 -38.9312 165.419C-37.5184 162.493 -36.7111 160.727 -36.5093 160.121C-36.2065 159.516 -35.6515 158.658 -34.8442 157.548C-34.0369 156.438 -33.2801 154.521 -32.5737 151.796C-32.0692 150.585 -31.8169 149.727 -31.8169 149.223C-31.716 148.617 -31.5646 147.86 -31.3628 146.952C-31.0601 146.044 -30.7069 145.035 -30.3032 143.925C-29.7987 142.714 -29.5464 141.806 -29.5464 141.2C-29.5464 140.494 -29.4455 139.787 -29.2437 139.081C-29.0418 138.375 -28.7896 137.567 -28.4868 136.659C-28.0832 135.65 -27.8309 134.742 -27.73 133.935C-27.5282 133.026 -27.4272 132.37 -27.4272 131.967C-27.4272 131.462 -27.3768 131.008 -27.2759 130.604C-27.0741 130.201 -26.9227 129.848 -26.8218 129.545C-26.7209 129.242 -26.62 128.939 -26.519 128.637C-26.3172 128.334 -26.2163 128.031 -26.2163 127.729C-26.1154 127.426 -25.9136 126.82 -25.6108 125.912C-25.2072 124.903 -25.0054 123.793 -25.0054 122.582L-25.3081 120.766C-24.8035 119.353 -24.5513 118.445 -24.5513 118.041C-24.5513 117.234 -24.3999 116.073 -24.0972 114.56L-23.9458 112.289C-23.744 111.28 -23.744 110.624 -23.9458 110.321C-24.1476 109.918 -24.2485 109.413 -24.2485 108.808C-24.2485 108.202 -24.1981 107.496 -24.0972 106.688C-23.8953 105.78 -23.9963 104.923 -24.3999 104.115C-24.7026 103.308 -24.8035 102.854 -24.7026 102.753C-24.6017 102.551 -24.7531 102.147 -25.1567 101.542C-25.5604 100.836 -25.8127 100.281 -25.9136 99.877C-26.0145 99.3724 -26.1659 98.9183 -26.3677 98.5146C-26.5695 98.0101 -26.8218 97.4551 -27.1245 96.8496C-27.4272 96.2441 -27.6795 95.6387 -27.8813 95.0332C-29.2941 94.7305 -30.505 94.2259 -31.5142 93.5195C-32.5233 92.7122 -33.7342 92.2077 -35.147 92.0059C-36.0552 92.3086 -37.0138 92.7122 -38.0229 93.2168C-38.9312 93.6204 -39.7889 93.7214 -40.5962 93.5195C-40.8989 93.8223 -41.2017 94.1755 -41.5044 94.5791C-41.8071 94.9827 -42.3117 95.3864 -43.0181 95.79C-43.6235 96.0928 -44.1785 96.6478 -44.6831 97.4551C-45.1877 98.2624 -45.6922 98.9183 -46.1968 99.4229C-46.6004 99.9274 -47.105 100.382 -47.7104 100.785C-48.3159 101.189 -48.8709 101.643 -49.3755 102.147C-50.0819 103.358 -50.4351 104.216 -50.4351 104.721C-50.4351 105.225 -50.6873 105.578 -51.1919 105.78C-51.091 106.789 -51.1919 107.445 -51.4946 107.748C-51.6965 107.95 -51.8478 108.202 -51.9487 108.505C-52.0496 108.808 -52.0496 109.11 -51.9487 109.413C-51.8478 109.716 -51.9487 110.372 -52.2515 111.381C-52.4533 112.39 -52.3524 113.399 -51.9487 114.408C-51.5451 115.316 -50.9396 115.922 -50.1323 116.225C-50.2332 116.729 -50.1828 117.082 -49.981 117.284C-49.6782 117.486 -49.5773 117.789 -49.6782 118.192C-48.8709 118.091 -48.2655 118.091 -47.8618 118.192C-47.3573 118.192 -46.7518 118.041 -46.0454 117.738C-45.339 116.527 -45.0868 115.316 -45.2886 114.105C-45.3895 112.794 -45.1877 111.431 -44.6831 110.019C-43.8758 109.817 -42.8667 109.918 -41.6558 110.321C-40.4448 110.624 -39.5871 111.028 -39.0825 111.532C-39.0825 111.936 -39.0321 112.289 -38.9312 112.592C-38.7293 112.794 -38.578 113.197 -38.4771 113.803C-38.3761 114.307 -38.5275 114.913 -38.9312 115.619C-39.2339 116.225 -39.1834 117.082 -38.7798 118.192C-39.2843 118.899 -39.7384 119.605 -40.1421 120.312C-40.4448 121.018 -40.798 121.573 -41.2017 121.977C-41.5044 122.279 -41.8576 122.431 -42.2612 122.431C-42.564 122.33 -42.7658 122.481 -42.8667 122.885C-44.0776 122.784 -44.6831 122.834 -44.6831 123.036C-44.6831 123.238 -44.6831 123.44 -44.6831 123.642C-45.2886 123.339 -45.7931 123.288 -46.1968 123.49C-46.6004 123.692 -47.2059 123.743 -48.0132 123.642C-48.8205 123.44 -49.6278 122.986 -50.4351 122.279C-51.2424 121.573 -52.201 121.169 -53.311 121.068C-53.6138 120.766 -53.8156 120.463 -53.9165 120.16C-54.0174 119.757 -54.3201 119.151 -54.8247 118.344C-55.2284 117.536 -55.5815 116.981 -55.8843 116.679C-56.0861 116.275 -56.2879 115.771 -56.4897 115.165C-56.5907 114.459 -56.5402 113.651 -56.3384 112.743C-56.0356 111.734 -56.1366 110.725 -56.6411 109.716C-56.2375 109.11 -56.0861 108.454 -56.187 107.748C-56.2879 107.042 -56.2879 106.487 -56.187 106.083C-56.0861 105.578 -55.9347 105.074 -55.7329 104.569C-55.4302 104.065 -55.1779 103.56 -54.9761 103.056C-54.7743 102.45 -54.5724 101.895 -54.3706 101.391C-54.0679 100.785 -53.8156 100.18 -53.6138 99.5742C-53.311 98.8678 -52.8065 98.1615 -52.1001 97.4551C-51.3937 96.6478 -50.9396 95.79 -50.7378 94.8818C-49.9305 94.3773 -49.2746 93.8223 -48.77 93.2168C-48.1646 92.5104 -47.3573 92.0563 -46.3481 91.8545C-46.3481 91.1481 -46.1968 90.694 -45.894 90.4922C-45.5913 90.2904 -45.3895 89.9372 -45.2886 89.4326C-43.7749 88.9281 -42.2612 88.3226 -40.7476 87.6162C-39.2339 86.8089 -38.2248 86.4053 -37.7202 86.4053C-37.2157 86.3044 -36.257 86.2035 -34.8442 86.1025L-32.271 85.7998C-31.2619 86.3044 -30.505 86.5566 -30.0005 86.5566C-29.4959 86.5566 -28.9409 86.6576 -28.3354 86.8594C-27.6291 86.9603 -26.7209 87.0612 -25.6108 87.1621C-24.5008 87.263 -23.4917 87.6162 -22.5835 88.2217C-21.5744 88.8271 -20.7166 89.3317 -20.0103 89.7354C-18.9002 90.6436 -18.1938 91.1481 -17.8911 91.249C-17.5884 91.249 -17.2352 91.4004 -16.8315 91.7031C-16.4279 92.0059 -16.0747 92.46 -15.772 93.0654C-15.4692 93.6709 -15.0151 93.9736 -14.4097 93.9736C-14.1069 95.6891 -13.1987 97.0514 -11.6851 98.0605C-11.8869 98.4642 -11.8869 98.8174 -11.6851 99.1201C-11.3823 99.4229 -11.1805 99.776 -11.0796 100.18C-10.8778 100.583 -10.7769 100.987 -10.7769 101.391C-10.6759 101.794 -10.4741 102.349 -10.1714 103.056C-9.86865 103.762 -9.56592 104.519 -9.26318 105.326C-8.96045 106.033 -8.85954 106.537 -8.96045 106.84C-9.06136 107.042 -9.06136 107.395 -8.96045 107.899C-8.75863 108.404 -8.5568 109.06 -8.35498 109.867C-7.14404 113.197 -6.79085 116.83 -7.29541 120.766L-7.14404 121.371C-7.85042 121.876 -8.15316 122.632 -8.05225 123.642C-7.95133 124.55 -8.00179 125.508 -8.20361 126.518C-8.30452 127.426 -8.45589 128.233 -8.65771 128.939C-8.75863 129.545 -8.65771 130.1 -8.35498 130.604C-8.96045 131.412 -9.31364 132.37 -9.41455 133.48C-9.51546 134.59 -9.71729 135.549 -10.02 136.356C-10.2218 137.164 -10.4237 137.769 -10.6255 138.173C-10.8273 138.576 -11.0796 139.182 -11.3823 139.989C-11.5841 140.797 -11.7355 141.705 -11.8364 142.714C-11.8364 143.723 -12.341 144.379 -13.3501 144.682C-13.2492 145.691 -13.6024 146.599 -14.4097 147.406C-14.3088 147.709 -14.4097 148.415 -14.7124 149.525C-14.7124 150.635 -14.9142 151.443 -15.3179 151.947C-15.7215 152.452 -16.0243 152.956 -16.2261 153.461C-16.4279 153.865 -16.4784 154.268 -16.3774 154.672C-16.2765 155.076 -16.3774 155.631 -16.6802 156.337C-16.9829 156.942 -17.5379 157.75 -18.3452 158.759C-19.0516 159.667 -19.6066 160.373 -20.0103 160.878C-20.313 161.282 -20.6662 161.736 -21.0698 162.24C-21.1707 162.644 -21.3221 162.947 -21.5239 163.148C-21.6248 163.35 -21.6753 163.703 -21.6753 164.208C-22.2808 164.713 -22.5835 165.015 -22.5835 165.116ZM47.9536 91.249L49.4673 92.0059C52.9992 93.3177 54.0588 95.9414 52.646 99.877C52.4442 100.684 52.1414 101.391 51.7378 101.996C51.4351 102.602 51.1323 103.409 50.8296 104.418C50.2241 104.822 49.7196 105.326 49.3159 105.932C48.9123 106.436 48.4077 106.84 47.8022 107.143C47.7013 107.647 47.4995 108.101 47.1968 108.505C46.894 108.808 46.6922 109.211 46.5913 109.716C46.2886 109.918 46.0363 110.17 45.8345 110.473C45.6326 110.674 45.3299 110.775 44.9263 110.775C44.6235 111.885 43.8667 113.147 42.6558 114.56C41.5457 115.972 40.7889 117.335 40.3853 118.646C39.8807 118.848 39.4771 119.151 39.1743 119.555C38.9725 119.958 38.4175 120.614 37.5093 121.522C36.6011 122.431 35.6929 123.339 34.7847 124.247C33.8765 125.155 33.1196 126.164 32.5142 127.274C32.9178 128.082 33.7756 128.637 35.0874 128.939C36.3993 129.242 37.4084 129.848 38.1147 130.756C39.0229 130.554 40.0321 130.806 41.1421 131.513C42.2521 132.219 43.1603 132.572 43.8667 132.572C44.7749 133.38 45.5317 134.338 46.1372 135.448C46.7427 136.558 47.6004 137.517 48.7104 138.324C49.215 140.948 49.8709 142.916 50.6782 144.228L51.5864 147.86C51.9901 148.97 52.1414 149.778 52.0405 150.282C52.0405 150.686 52.2424 151.039 52.646 151.342C52.7469 153.663 52.8478 155.832 52.9487 157.851C53.0496 159.869 52.8478 161.988 52.3433 164.208C51.0314 167.639 50.0728 170.414 49.4673 172.533C47.2472 174.047 45.9858 175.813 45.6831 177.831C44.9767 178.336 44.2199 178.79 43.4126 179.193C42.6053 179.496 41.9494 180.051 41.4448 180.858C39.9312 181.262 38.6698 181.817 37.6606 182.523C36.7524 183.129 36.0965 183.482 35.6929 183.583C35.2892 183.583 34.9865 183.785 34.7847 184.188L32.8169 184.037C32.3123 184.239 31.7573 184.441 31.1519 184.643C30.5464 184.844 29.7896 185.299 28.8813 186.005C28.0741 186.61 26.6108 186.711 24.4917 186.308C22.3726 185.904 21.2625 185.652 21.1616 185.551C21.0607 185.349 20.8084 185.198 20.4048 185.097C20.1021 184.996 19.7489 185.046 19.3452 185.248C19.0425 185.349 18.437 185.198 17.5288 184.794C16.6206 184.39 16.0151 183.886 15.7124 183.28C15.4097 182.675 15.006 182.372 14.5015 182.372C14.0978 182.372 13.5428 182.17 12.8364 181.767C12.231 181.363 11.9787 181.06 12.0796 180.858C12.1805 180.657 11.9282 180.303 11.3228 179.799C10.7173 179.294 10.3136 178.891 10.1118 178.588C9.90999 178.285 9.45589 177.68 8.74951 176.771C8.04313 175.762 7.58903 175.006 7.38721 174.501C7.18538 173.896 6.93311 173.492 6.63037 173.29C6.42855 173.088 6.22673 172.836 6.0249 172.533C5.92399 171.928 5.77262 171.474 5.5708 171.171C5.36898 170.868 5.26807 170.414 5.26807 169.809V168.295C5.26807 167.891 5.21761 167.538 5.1167 167.235V165.268L6.17627 160.424C6.17627 159.919 6.37809 159.364 6.78174 158.759C7.2863 158.153 7.53857 157.75 7.53857 157.548C7.53857 157.346 7.58903 157.094 7.68994 156.791C7.89176 156.488 8.14404 156.186 8.44678 155.883C8.85042 155.58 9.1027 155.176 9.20361 154.672C10.5155 153.865 11.8778 153.36 13.2905 153.158C14.8042 152.855 15.8638 152.603 16.4692 152.401C17.1756 152.2 17.7811 152.149 18.2856 152.25C18.8911 152.25 19.4966 152.452 20.1021 152.855L21.9185 153.31C22.9276 153.41 23.5835 153.562 23.8862 153.764C24.2899 153.965 24.7944 154.016 25.3999 153.915C25.8035 154.42 26.0558 155.025 26.1567 155.731C26.2576 156.438 26.3586 157.144 26.4595 157.851C26.6613 158.557 26.7622 159.112 26.7622 159.516C26.7622 159.818 26.5099 160.424 26.0054 161.332C25.6017 162.139 24.8953 162.593 23.8862 162.694C22.8771 162.694 22.2212 162.442 21.9185 161.938C21.6157 161.332 20.8589 160.979 19.6479 160.878C19.2443 160.373 18.8911 159.919 18.5884 159.516C18.3866 159.011 17.7811 158.607 16.772 158.305C15.7629 157.901 13.9969 158.759 11.4741 160.878C11.4741 161.685 11.2723 162.19 10.8687 162.392C10.5659 162.593 10.3136 162.896 10.1118 163.3C10.2127 163.905 10.2632 164.713 10.2632 165.722C10.2632 166.63 10.0109 167.286 9.50635 167.689C9.50635 168.295 9.70817 168.749 10.1118 169.052C10.5155 169.354 10.6164 169.859 10.4146 170.565C11.5246 171.675 12.231 172.785 12.5337 173.896C14.3501 174.703 15.4097 175.661 15.7124 176.771C16.9233 177.074 18.1847 177.882 19.4966 179.193C20.1021 179.395 20.8589 179.547 21.7671 179.647C22.7762 179.647 23.5835 179.799 24.189 180.102C24.8953 180.001 25.3999 179.748 25.7026 179.345C26.1063 178.84 26.7118 178.588 27.519 178.588C28.4272 177.074 29.0327 176.166 29.3354 175.863C29.7391 175.561 29.9409 175.258 29.9409 174.955C30.0418 174.652 30.2437 174.148 30.5464 173.441C30.95 172.735 31.2528 172.13 31.4546 171.625C31.6564 171.12 31.8582 170.717 32.0601 170.414C32.2619 170.111 32.2114 169.657 31.9087 169.052C32.5142 168.345 32.8674 167.538 32.9683 166.63C33.1701 165.621 33.3719 164.713 33.5737 163.905C33.8765 162.997 34.1287 162.291 34.3306 161.786C34.5324 161.181 34.6838 160.575 34.7847 159.97C34.8856 159.263 34.936 158.658 34.936 158.153C34.936 157.548 35.0369 156.791 35.2388 155.883C35.4406 154.874 35.6929 153.915 35.9956 153.007C36.2983 151.998 36.5002 151.19 36.6011 150.585C36.8029 149.979 36.8534 149.475 36.7524 149.071C36.6515 148.668 36.7524 148.012 37.0552 147.104C37.3579 146.195 37.5093 145.338 37.5093 144.53V142.26C37.5093 141.654 37.5093 140.998 37.5093 140.292C37.6102 139.485 37.5093 138.778 37.2065 138.173C37.0047 137.567 36.3993 137.113 35.3901 136.811C34.381 136.508 33.6242 135.953 33.1196 135.146C32.2114 135.448 31.2528 135.499 30.2437 135.297C29.2345 135.095 28.0236 135.246 26.6108 135.751C25.1981 136.155 24.0376 136.558 23.1294 136.962C22.2212 137.265 21.4139 137.921 20.7075 138.93C19.7993 139.031 18.8911 139.333 17.9829 139.838C17.0747 140.242 16.217 140.292 15.4097 139.989C13.2905 139.182 12.13 137.921 11.9282 136.205C11.7264 133.682 12.4832 131.563 14.1987 129.848L16.0151 128.031C16.5197 127.527 17.0243 126.921 17.5288 126.215C18.0334 125.508 18.3361 125.155 18.437 125.155C18.5379 125.155 18.6388 125.054 18.7397 124.853C18.9416 124.55 19.1938 124.247 19.4966 123.944C19.9002 123.642 20.3039 123.288 20.7075 122.885C20.8084 122.481 21.0103 122.178 21.313 121.977C21.6157 121.674 21.8175 121.27 21.9185 120.766C22.423 120.766 22.8267 120.564 23.1294 120.16C23.4321 119.757 23.7853 119.302 24.189 118.798C24.6935 118.293 25.3494 117.436 26.1567 116.225C27.0649 114.913 27.5695 114.257 27.6704 114.257C27.8722 114.156 28.0741 113.954 28.2759 113.651C28.5786 113.248 28.9318 112.693 29.3354 111.986C29.7391 111.28 30.0923 110.775 30.395 110.473C30.6978 110.069 30.95 109.766 31.1519 109.564C31.3537 109.262 31.5555 108.909 31.7573 108.505C31.9591 108.101 32.3123 107.597 32.8169 106.991C33.3215 106.386 33.5737 105.932 33.5737 105.629C33.6746 105.326 34.0783 104.721 34.7847 103.812C35.491 102.803 35.8442 101.693 35.8442 100.482C34.7342 99.3724 33.1196 99.1201 31.0005 99.7256C28.8813 100.23 27.2668 100.331 26.1567 100.028L23.4321 101.088C23.0285 100.886 22.423 100.886 21.6157 101.088C20.8084 101.189 19.9507 100.785 19.0425 99.877C18.5379 99.877 18.1343 99.9274 17.8315 100.028C17.5288 100.028 17.1756 99.877 16.772 99.5742L15.7124 97.1523C15.6115 96.7487 15.4601 96.2946 15.2583 95.79C15.1574 95.1846 15.3088 94.5286 15.7124 93.8223C16.217 93.5195 16.7215 93.3177 17.2261 93.2168C17.7306 93.1159 18.3361 93.015 19.0425 92.9141C19.7489 92.7122 20.4552 92.6618 21.1616 92.7627C21.868 92.7627 22.6753 92.6618 23.5835 92.46C24.5926 92.1572 25.2485 92.1068 25.5513 92.3086C25.854 92.5104 27.2668 92.4095 29.7896 92.0059L32.8169 92.1572H36.147C37.6606 92.6618 38.922 92.7627 39.9312 92.46C41.0412 92.0563 41.7476 91.9049 42.0503 92.0059C42.4539 92.0059 43.009 91.9049 43.7153 91.7031C44.5226 91.5013 45.0776 91.4508 45.3804 91.5518C45.6831 91.6527 46.0363 91.7031 46.4399 91.7031C46.8436 91.7031 47.3481 91.5518 47.9536 91.249Z" fill="white"/>
</g>
<defs>
<clipPath id="clip0_593_149">
<rect width="274" height="274" fill="white" transform="translate(-137)"/>
</clipPath>
</defs>
</svg>
