<svg width="274" height="274" viewBox="0 0 274 274" fill="none" xmlns="http://www.w3.org/2000/svg">
<g clip-path="url(#clip0_593_64)">
<rect width="548" height="274" transform="translate(-274)" fill="#AC0B0E"/>
<path d="M16 17.3595L16.176 17.3595" stroke="white" stroke-width="8" stroke-linecap="round"/>
<path d="M141 18.3195L141.176 18.3195" stroke="white" stroke-width="8" stroke-linecap="round"/>
<path d="M124.296 20.4805L124.12 20.4805" stroke="white" stroke-width="8" stroke-linecap="round"/>
<path d="M249.296 21.4405L249.12 21.4405" stroke="white" stroke-width="8" stroke-linecap="round"/>
<path d="M38.1198 19.88L38.2958 19.88" stroke="white" stroke-width="8" stroke-linecap="round"/>
<path d="M163.12 20.84L163.296 20.84" stroke="white" stroke-width="8" stroke-linecap="round"/>
<path d="M102.176 17.96L102 17.96" stroke="white" stroke-width="8" stroke-linecap="round"/>
<path d="M227.176 18.92L227 18.92" stroke="white" stroke-width="8" stroke-linecap="round"/>
<path d="M60.1198 17L60.2958 17" stroke="white" stroke-width="8" stroke-linecap="round"/>
<path d="M185.12 17.96L185.296 17.96" stroke="white" stroke-width="8" stroke-linecap="round"/>
<path d="M80.176 20.84L80 20.84" stroke="white" stroke-width="8" stroke-linecap="round"/>
<path d="M205.176 21.8L205 21.8" stroke="white" stroke-width="8" stroke-linecap="round"/>
<path d="M252.626 135.926L252.626 136.094" stroke="white" stroke-width="8" stroke-linecap="round"/>
<path d="M250.374 119.888L250.374 119.72" stroke="white" stroke-width="8" stroke-linecap="round"/>
<path d="M249.374 239.888L249.374 239.72" stroke="white" stroke-width="8" stroke-linecap="round"/>
<path d="M251 37.1607L251 37.3289" stroke="white" stroke-width="8" stroke-linecap="round"/>
<path d="M250 157.161L250 157.329" stroke="white" stroke-width="8" stroke-linecap="round"/>
<path d="M253 98.6532L253 98.485" stroke="white" stroke-width="8" stroke-linecap="round"/>
<path d="M252 218.653L252 218.485" stroke="white" stroke-width="8" stroke-linecap="round"/>
<path d="M254 58.2807L254 58.4489" stroke="white" stroke-width="8" stroke-linecap="round"/>
<path d="M253 178.281L253 178.449" stroke="white" stroke-width="8" stroke-linecap="round"/>
<path d="M250 77.5332L250 77.365" stroke="white" stroke-width="8" stroke-linecap="round"/>
<path d="M249 197.533L249 197.365" stroke="white" stroke-width="8" stroke-linecap="round"/>
<path d="M16 252.56L16.176 252.56" stroke="white" stroke-width="8" stroke-linecap="round"/>
<path d="M141 253.52L141.176 253.52" stroke="white" stroke-width="8" stroke-linecap="round"/>
<path d="M124.296 255.68L124.12 255.68" stroke="white" stroke-width="8" stroke-linecap="round"/>
<path d="M249.296 256.641L249.12 256.641" stroke="white" stroke-width="8" stroke-linecap="round"/>
<path d="M38.1198 255.08L38.2958 255.08" stroke="white" stroke-width="8" stroke-linecap="round"/>
<path d="M163.12 256.04L163.296 256.04" stroke="white" stroke-width="8" stroke-linecap="round"/>
<path d="M102.176 253.16L102 253.16" stroke="white" stroke-width="8" stroke-linecap="round"/>
<path d="M227.176 254.12L227 254.12" stroke="white" stroke-width="8" stroke-linecap="round"/>
<path d="M60.1198 252.2L60.2958 252.2" stroke="white" stroke-width="8" stroke-linecap="round"/>
<path d="M185.12 253.16L185.296 253.16" stroke="white" stroke-width="8" stroke-linecap="round"/>
<path d="M80.176 256.04L80 256.04" stroke="white" stroke-width="8" stroke-linecap="round"/>
<path d="M205.176 257L205 257" stroke="white" stroke-width="8" stroke-linecap="round"/>
<path d="M-15.772 117.436L-16.2261 120.16C-16.2261 120.665 -16.2261 121.119 -16.2261 121.522C-16.1252 121.825 -16.1252 122.33 -16.2261 123.036C-16.327 123.642 -16.4784 124.398 -16.6802 125.307C-16.882 126.114 -16.8315 127.073 -16.5288 128.183C-16.1252 128.586 -16.0747 129.898 -16.3774 132.118C-16.6802 134.338 -16.2765 137.012 -15.1665 140.141C-15.6711 141.553 -15.8224 143.118 -15.6206 144.833C-15.4188 146.448 -15.3683 147.81 -15.4692 148.92C-15.4692 150.03 -15.6711 151.392 -16.0747 153.007C-16.3774 154.521 -16.4279 156.387 -16.2261 158.607C-16.0243 160.827 -15.9233 162.997 -15.9233 165.116C-15.9233 167.235 -16.0747 168.648 -16.3774 169.354C-16.6802 170.061 -16.9325 170.717 -17.1343 171.322C-17.3361 171.928 -17.4875 172.634 -17.5884 173.441C-17.6893 174.249 -17.8911 175.359 -18.1938 176.771C-18.3957 178.083 -18.4966 179.446 -18.4966 180.858C-19.1021 181.868 -19.9598 182.624 -21.0698 183.129C-22.1799 183.533 -23.2394 184.088 -24.2485 184.794C-25.1567 184.592 -25.9136 184.542 -26.519 184.643C-27.0236 184.743 -27.6795 184.693 -28.4868 184.491C-28.6886 184.289 -28.9409 183.936 -29.2437 183.432C-29.5464 182.826 -29.8996 182.322 -30.3032 181.918C-30.606 181.514 -30.8078 181.111 -30.9087 180.707C-31.0096 180.202 -31.0096 179.748 -30.9087 179.345C-30.8078 178.941 -30.7573 178.336 -30.7573 177.528C-30.6564 176.62 -30.7069 175.46 -30.9087 174.047C-31.1105 172.634 -30.9591 171.524 -30.4546 170.717C-30.7573 170.212 -30.8582 169.657 -30.7573 169.052C-30.6564 168.345 -30.606 167.689 -30.606 167.084L-31.2114 164.511C-31.1105 163.703 -31.2114 162.745 -31.5142 161.635L-31.2114 159.516C-31.2114 156.186 -31.5646 154.016 -32.271 153.007C-32.0692 152.704 -31.9683 152.3 -31.9683 151.796C-31.9683 151.291 -31.8169 150.938 -31.5142 150.736C-31.4132 150.232 -31.5646 149.879 -31.9683 149.677C-32.271 149.475 -32.1196 148.466 -31.5142 146.649C-32.0187 143.622 -32.271 141.099 -32.271 139.081L-31.6655 137.113C-31.6655 136.811 -31.7664 136.508 -31.9683 136.205C-32.0692 135.801 -31.9683 134.944 -31.6655 133.632C-31.2619 132.219 -31.1105 130.604 -31.2114 128.788C-31.2114 126.972 -31.2114 125.256 -31.2114 123.642L-30.606 121.674L-30.9087 119.555C-30.9087 117.94 -31.161 116.729 -31.6655 115.922C-32.3719 115.922 -32.9269 116.174 -33.3306 116.679C-33.936 117.688 -34.5415 118.192 -35.147 118.192C-35.8534 119.302 -36.3579 119.958 -36.6606 120.16C-36.8625 120.261 -37.0138 120.412 -37.1147 120.614C-41.9585 121.119 -45.2886 121.926 -47.105 123.036C-47.6095 122.733 -48.215 122.683 -48.9214 122.885C-49.5269 122.986 -50.1323 123.036 -50.7378 123.036C-52.3524 122.532 -53.5129 122.279 -54.2192 122.279C-54.8247 122.279 -55.5311 122.178 -56.3384 121.977C-56.6411 121.068 -56.6411 120.009 -56.3384 118.798C-55.8338 118.394 -55.3797 118.192 -54.9761 118.192C-54.5724 118.091 -54.0174 117.89 -53.311 117.587C-52.5037 117.284 -51.9487 117.234 -51.646 117.436C-51.2424 117.536 -50.3846 117.486 -49.0728 117.284C-47.7609 116.981 -46.1968 116.527 -44.3804 115.922C-42.4631 115.215 -41.1512 114.761 -40.4448 114.56C-39.2339 114.156 -38.2248 113.55 -37.4175 112.743C-36.3075 112.34 -35.6515 112.188 -35.4497 112.289C-35.147 111.785 -34.7433 111.381 -34.2388 111.078C-33.7342 110.674 -33.5324 109.968 -33.6333 108.959C-33.1287 108.454 -32.6242 108.051 -32.1196 107.748C-31.6151 107.445 -31.4132 106.89 -31.5142 106.083C-31.0096 106.083 -30.4546 105.78 -29.8491 105.175C-29.1427 104.468 -28.6886 103.913 -28.4868 103.51C-28.285 103.005 -28.2345 102.602 -28.3354 102.299C-28.4364 101.895 -28.3859 101.492 -28.1841 101.088C-27.5786 100.684 -27.2254 100.281 -27.1245 99.877C-26.9227 99.3724 -26.5695 99.0192 -26.0649 98.8174C-25.2576 99.0192 -24.4504 99.0192 -23.6431 98.8174C-22.8358 98.5146 -22.0789 98.4137 -21.3726 98.5146C-19.6571 99.221 -18.6984 99.8265 -18.4966 100.331C-18.1938 100.735 -17.8407 101.542 -17.437 102.753C-16.8315 103.762 -16.5793 104.519 -16.6802 105.023C-16.6802 105.427 -16.6297 105.881 -16.5288 106.386C-16.4279 106.789 -16.2765 107.193 -16.0747 107.597C-15.8729 107.899 -15.7215 108.454 -15.6206 109.262C-15.4188 109.968 -15.4188 111.33 -15.6206 113.349C-15.8224 115.266 -15.8729 116.376 -15.772 116.679C-15.6711 116.981 -15.6711 117.234 -15.772 117.436ZM37.9634 176.015L36.147 176.317C35.5415 176.721 35.0874 177.276 34.7847 177.982C33.8765 178.083 33.0187 178.437 32.2114 179.042C31.505 179.547 30.6978 180.051 29.7896 180.556C28.9823 181.06 28.2254 181.464 27.519 181.767C26.8127 182.069 26.2576 182.322 25.854 182.523C25.4504 182.725 24.9963 182.927 24.4917 183.129C24.0881 183.23 23.533 183.28 22.8267 183.28C22.2212 183.179 21.5653 183.179 20.8589 183.28C20.2534 183.381 19.6479 183.533 19.0425 183.734C18.437 183.936 17.6802 183.987 16.772 183.886C15.9647 183.785 15.0565 183.381 14.0474 182.675C13.0382 181.968 11.9282 181.615 10.7173 181.615C10.3136 180.808 9.65771 180.303 8.74951 180.102C7.94222 179.9 7.13493 179.698 6.32764 179.496C6.12581 178.992 5.92399 178.437 5.72217 177.831C5.52035 177.125 5.26807 176.519 4.96533 176.015C4.35986 173.996 4.25895 172.281 4.6626 170.868C5.06624 169.455 5.77262 168.547 6.78174 168.144C7.89176 168.749 8.54769 169.809 8.74951 171.322C8.95133 172.735 9.15316 174.198 9.35498 175.712C9.85954 175.611 10.2632 175.51 10.5659 175.409C10.9696 175.308 11.4237 175.308 11.9282 175.409C14.1483 177.326 15.9647 178.285 17.3774 178.285L19.9507 177.528C21.9689 177.528 24.4917 175.813 27.519 172.382C29.9409 170.565 31.3032 169.102 31.606 167.992C31.7069 167.589 32.0096 167.084 32.5142 166.479C33.0187 165.873 33.2205 165.52 33.1196 165.419C33.1196 165.217 33.1701 164.965 33.271 164.662C33.4728 164.258 33.7251 163.855 34.0278 163.451C34.3306 162.947 34.5828 162.392 34.7847 161.786C35.0874 161.483 35.2892 161.08 35.3901 160.575C35.592 159.97 35.8947 159.263 36.2983 158.456C36.702 157.649 37.0552 156.438 37.3579 154.823C37.7616 153.108 38.0643 151.897 38.2661 151.19C38.4679 150.383 38.6193 149.677 38.7202 149.071C38.8211 148.365 38.8211 147.759 38.7202 147.255C38.7202 146.649 38.7707 145.59 38.8716 144.076C38.9725 142.462 38.7707 140.746 38.2661 138.93C37.5597 138.829 37.0552 138.98 36.7524 139.384C36.5506 139.787 36.147 139.989 35.5415 139.989C35.2388 141.604 34.5324 142.815 33.4224 143.622C32.3123 144.328 31.3032 145.085 30.395 145.893C29.6886 145.691 28.9823 145.741 28.2759 146.044C27.6704 146.347 27.1154 146.296 26.6108 145.893C26.1063 145.893 25.8035 146.044 25.7026 146.347C25.6017 146.549 25.3494 146.7 24.9458 146.801C23.3312 146.296 22.0194 146.498 21.0103 147.406C19.9002 146.902 18.6388 146.851 17.2261 147.255C15.9142 147.659 14.6528 147.659 13.4419 147.255C12.231 146.851 11.4237 146.649 11.02 146.649C10.6164 146.549 10.2127 146.397 9.80908 146.195C9.50635 145.993 9.15316 145.741 8.74951 145.438C8.44678 145.035 7.89176 144.631 7.08447 144.228C6.27718 143.824 5.77262 143.622 5.5708 143.622C5.36898 143.521 5.16715 143.42 4.96533 143.319C4.46077 142.209 4.10758 141.705 3.90576 141.806C3.80485 141.806 3.65348 141.705 3.45166 141.503C3.45166 140.797 3.14893 139.989 2.54346 139.081C1.93799 138.173 1.68571 137.214 1.78662 136.205C1.48389 135.801 1.23161 135.398 1.02979 134.994C0.928874 134.59 0.676595 134.288 0.272949 134.086C0.575684 133.581 0.323405 132.27 -0.483887 130.15C-0.584798 129.646 -0.534342 129.242 -0.33252 128.939C-0.130697 128.536 0.0206706 128.082 0.121582 127.577L-0.181152 124.701C-0.181152 124.197 -0.0802409 123.642 0.121582 123.036C0.424316 122.431 0.424316 121.876 0.121582 121.371C0.626139 121.472 0.878418 121.27 0.878418 120.766C0.878418 120.261 1.08024 119.908 1.48389 119.706C1.5848 117.789 1.98844 116.326 2.69482 115.316C3.50212 114.206 4.00667 112.844 4.2085 111.229C4.71305 110.624 5.21761 109.918 5.72217 109.11C6.22673 108.202 6.83219 107.395 7.53857 106.688C8.24495 105.982 8.6486 105.427 8.74951 105.023C8.95133 104.62 9.15316 104.317 9.35498 104.115C10.3641 103.51 11.1714 102.904 11.7769 102.299C12.3823 101.693 13.2905 101.239 14.5015 100.937C15.3088 100.432 15.8638 100.23 16.1665 100.331C16.5701 100.331 16.9738 100.23 17.3774 100.028C17.7811 99.8265 18.1847 99.4733 18.5884 98.9688C19.0929 98.3633 19.6479 97.9596 20.2534 97.7578C20.8589 97.4551 22.0194 97.4046 23.7349 97.6064C25.4504 97.7074 26.6108 97.7074 27.2163 97.6064C27.8218 97.5055 28.4777 97.556 29.1841 97.7578C29.9914 97.9596 30.6473 98.4137 31.1519 99.1201C31.6564 99.7256 32.4637 100.23 33.5737 100.634C33.8765 101.946 34.5324 102.803 35.5415 103.207C36.5506 103.611 37.4588 104.216 38.2661 105.023C39.3761 105.225 40.0321 105.629 40.2339 106.234C40.4357 106.84 40.7889 107.042 41.2935 106.84C41.798 108.656 42.5044 109.766 43.4126 110.17C43.6144 111.986 44.119 113.399 44.9263 114.408C45.7336 115.417 46.1877 115.922 46.2886 115.922C46.3895 115.922 46.5409 115.972 46.7427 116.073C47.2472 117.486 47.6004 118.546 47.8022 119.252C48.0041 120.665 48.4582 122.077 49.1646 123.49C49.8709 124.903 50.2746 125.963 50.3755 126.669C50.5773 127.375 50.8296 128.031 51.1323 128.637C51.4351 129.141 51.536 129.494 51.4351 129.696C51.4351 129.797 51.5864 130.302 51.8892 131.21C52.1919 132.017 52.2928 132.825 52.1919 133.632C52.1919 134.439 52.1919 135.297 52.1919 136.205L52.7974 140.897C52.7974 141.301 52.6965 141.755 52.4946 142.26C52.3937 142.663 52.2424 143.42 52.0405 144.53C51.9396 145.64 51.8892 147.204 51.8892 149.223C51.9901 151.14 51.5864 152.755 50.6782 154.066V156.488C49.5682 158.305 48.8618 159.97 48.5591 161.483C48.0545 161.685 47.7013 162.089 47.4995 162.694C47.3986 163.199 46.995 163.502 46.2886 163.603C46.1877 164.612 45.7336 165.57 44.9263 166.479C44.2199 167.387 43.7658 168.043 43.564 168.446C43.3621 168.749 43.0594 168.9 42.6558 168.9C42.5549 169.405 42.4035 169.809 42.2017 170.111C41.9998 170.313 41.7476 170.666 41.4448 171.171C41.1421 171.575 40.7384 172.029 40.2339 172.533C39.8302 173.038 39.4266 173.593 39.0229 174.198C38.7202 174.703 38.5184 175.106 38.4175 175.409C38.3166 175.611 38.1652 175.813 37.9634 176.015ZM35.8442 128.183L35.2388 125.609C35.2388 125.206 35.2388 124.802 35.2388 124.398C35.3397 123.995 35.2388 123.339 34.936 122.431C34.6333 121.522 34.3306 120.463 34.0278 119.252C33.7251 117.94 33.3719 116.981 32.9683 116.376C32.6655 115.67 32.5142 114.913 32.5142 114.105C31.8078 113.096 31.3537 112.592 31.1519 112.592C30.95 112.491 30.7482 112.289 30.5464 111.986C30.3446 111.583 30.1932 111.129 30.0923 110.624C30.0923 110.019 29.9409 109.514 29.6382 109.11C28.73 108.404 28.0236 107.849 27.519 107.445C27.0145 107.042 26.6108 106.739 26.3081 106.537C24.4917 105.528 22.1707 105.528 19.3452 106.537C19.1434 107.546 18.7902 108.555 18.2856 109.564C15.9647 114.206 14.8042 117.688 14.8042 120.009L13.896 126.82L14.5015 130.604C14.6024 131.412 14.5519 132.169 14.3501 132.875C14.2492 133.581 14.2492 134.187 14.3501 134.691C14.5519 135.196 14.8042 135.751 15.1069 136.356C15.5106 136.861 15.7629 137.416 15.8638 138.021C16.6711 138.627 17.327 139.081 17.8315 139.384C18.3361 139.586 18.6893 139.787 18.8911 139.989C19.1938 140.09 19.9002 140.242 21.0103 140.443C22.2212 140.544 23.533 140.393 24.9458 139.989C26.3586 139.586 27.6704 139.283 28.8813 139.081C29.1841 138.576 29.5877 138.173 30.0923 137.87C30.6978 137.466 31.2528 137.012 31.7573 136.508C32.161 135.701 32.9178 134.439 34.0278 132.724C35.2388 131.008 35.8442 129.494 35.8442 128.183Z" fill="white"/>
</g>
<defs>
<clipPath id="clip0_593_64">
<rect width="548" height="274" fill="white" transform="translate(-274)"/>
</clipPath>
</defs>
</svg>
