<svg width="137" height="274" viewBox="0 0 137 274" fill="none" xmlns="http://www.w3.org/2000/svg">
<g clip-path="url(#clip0_593_49)">
<rect width="274" height="274" transform="translate(-137)" fill="#C99F5C"/>
<line x1="-426.354" y1="340.646" x2="196.646" y2="-282.354" stroke="#F5F5F5"/>
<line x1="-399.354" y1="364.646" x2="223.646" y2="-258.354" stroke="#F5F5F5"/>
<line x1="-372.354" y1="388.646" x2="250.646" y2="-234.354" stroke="#F5F5F5"/>
<line x1="-345.354" y1="412.646" x2="277.646" y2="-210.354" stroke="#F5F5F5"/>
<line x1="-318.354" y1="436.646" x2="304.646" y2="-186.354" stroke="#F5F5F5"/>
<line x1="-291.354" y1="460.646" x2="331.646" y2="-162.354" stroke="#F5F5F5"/>
<line x1="-264.354" y1="484.646" x2="358.646" y2="-138.354" stroke="#F5F5F5"/>
<line x1="-237.354" y1="508.646" x2="385.646" y2="-114.354" stroke="#F5F5F5"/>
<line x1="-210.354" y1="532.646" x2="412.646" y2="-90.3535" stroke="#F5F5F5"/>
<line x1="-183.354" y1="556.646" x2="439.646" y2="-66.3535" stroke="#F5F5F5"/>
<path d="M-52.5 97L1.77844 32L57 97L31 93.3941L95 178L63 170L123 274H-129L-62.5 170L-96.5 174L-30.9162 93.3941L-52.5 97Z" fill="#4B4949"/>
<path d="M-26.8105 165.116L-28.3242 167.084C-28.3242 167.084 -28.526 167.387 -28.9297 167.992C-29.3333 168.598 -29.737 169.203 -30.1406 169.809C-30.5443 170.414 -31.1497 171.07 -31.957 171.776C-32.7643 172.483 -33.3698 173.038 -33.7734 173.441C-34.1771 173.845 -34.278 174.4 -34.0762 175.106C-33.168 176.015 -32.1589 176.317 -31.0488 176.015C-29.9388 175.611 -28.9801 175.409 -28.1729 175.409C-27.2646 175.409 -26.4574 175.561 -25.751 175.863C-24.9437 176.065 -24.1868 176.015 -23.4805 175.712C-22.6732 175.308 -22.1182 175.157 -21.8154 175.258C-21.21 175.46 -20.3522 175.258 -19.2422 174.652C-18.1322 173.946 -17.3249 173.643 -16.8203 173.744C-16.2148 173.744 -15.6598 173.795 -15.1553 173.896C-14.5498 173.996 -14.0957 173.996 -13.793 173.896C-13.3893 173.694 -13.0866 173.845 -12.8848 174.35C-12.2793 175.561 -12.3802 177.226 -13.1875 179.345C-13.6921 179.547 -14.5498 179.698 -15.7607 179.799C-16.8708 179.799 -17.6276 179.547 -18.0312 179.042C-18.4349 179.244 -18.9899 179.597 -19.6963 180.102C-20.3018 180.505 -21.0081 180.707 -21.8154 180.707C-22.5218 180.707 -23.0768 180.858 -23.4805 181.161C-23.985 180.757 -24.4896 180.657 -24.9941 180.858C-25.3978 180.959 -26.2051 181.01 -27.416 181.01C-28.526 180.909 -29.5856 181.06 -30.5947 181.464C-31.5029 181.767 -32.4616 181.514 -33.4707 180.707C-35.1862 181.514 -37.1035 182.069 -39.2227 182.372C-41.2409 182.574 -42.9059 182.978 -44.2178 183.583C-45.4287 184.088 -46.3874 184.592 -47.0938 185.097C-47.6992 185.5 -48.5065 185.551 -49.5156 185.248C-49.9193 185.349 -50.2725 185.5 -50.5752 185.702C-50.777 185.904 -51.1807 185.904 -51.7861 185.702C-52.5934 185.097 -53.1989 184.592 -53.6025 184.188C-53.8044 183.684 -53.7539 183.179 -53.4512 182.675C-53.0475 182.17 -52.7952 181.565 -52.6943 180.858C-52.4925 180.152 -52.1393 179.547 -51.6348 179.042C-51.2311 178.235 -50.9788 177.781 -50.8779 177.68C-50.6761 177.579 -50.4238 177.226 -50.1211 176.62C-49.8184 176.015 -49.4147 175.46 -48.9102 174.955C-48.4056 174.451 -47.8001 173.441 -47.0938 171.928C-46.2865 170.414 -45.7819 169.657 -45.5801 169.657C-45.3783 169.657 -44.571 168.244 -43.1582 165.419C-41.7454 162.493 -40.9382 160.727 -40.7363 160.121C-40.4336 159.516 -39.8786 158.658 -39.0713 157.548C-38.264 156.438 -37.5072 154.521 -36.8008 151.796C-36.2962 150.585 -36.0439 149.727 -36.0439 149.223C-35.943 148.617 -35.7917 147.86 -35.5898 146.952C-35.2871 146.044 -34.9339 145.035 -34.5303 143.925C-34.0257 142.714 -33.7734 141.806 -33.7734 141.2C-33.7734 140.494 -33.6725 139.787 -33.4707 139.081C-33.2689 138.375 -33.0166 137.567 -32.7139 136.659C-32.3102 135.65 -32.0579 134.742 -31.957 133.935C-31.7552 133.026 -31.6543 132.37 -31.6543 131.967C-31.6543 131.462 -31.6038 131.008 -31.5029 130.604C-31.3011 130.201 -31.1497 129.848 -31.0488 129.545C-30.9479 129.242 -30.847 128.939 -30.7461 128.637C-30.5443 128.334 -30.4434 128.031 -30.4434 127.729C-30.3424 127.426 -30.1406 126.82 -29.8379 125.912C-29.4342 124.903 -29.2324 123.793 -29.2324 122.582L-29.5352 120.766C-29.0306 119.353 -28.7783 118.445 -28.7783 118.041C-28.7783 117.234 -28.627 116.073 -28.3242 114.56L-28.1729 112.289C-27.971 111.28 -27.971 110.624 -28.1729 110.321C-28.3747 109.918 -28.4756 109.413 -28.4756 108.808C-28.4756 108.202 -28.4251 107.496 -28.3242 106.688C-28.1224 105.78 -28.2233 104.923 -28.627 104.115C-28.9297 103.308 -29.0306 102.854 -28.9297 102.753C-28.8288 102.551 -28.9801 102.147 -29.3838 101.542C-29.7874 100.836 -30.0397 100.281 -30.1406 99.877C-30.2415 99.3724 -30.3929 98.9183 -30.5947 98.5146C-30.7965 98.0101 -31.0488 97.4551 -31.3516 96.8496C-31.6543 96.2441 -31.9066 95.6387 -32.1084 95.0332C-33.5212 94.7305 -34.7321 94.2259 -35.7412 93.5195C-36.7503 92.7122 -37.9613 92.2077 -39.374 92.0059C-40.2822 92.3086 -41.2409 92.7122 -42.25 93.2168C-43.1582 93.6204 -44.016 93.7214 -44.8232 93.5195C-45.126 93.8223 -45.4287 94.1755 -45.7314 94.5791C-46.0342 94.9827 -46.5387 95.3864 -47.2451 95.79C-47.8506 96.0928 -48.4056 96.6478 -48.9102 97.4551C-49.4147 98.2624 -49.9193 98.9183 -50.4238 99.4229C-50.8275 99.9274 -51.332 100.382 -51.9375 100.785C-52.543 101.189 -53.098 101.643 -53.6025 102.147C-54.3089 103.358 -54.6621 104.216 -54.6621 104.721C-54.6621 105.225 -54.9144 105.578 -55.4189 105.78C-55.318 106.789 -55.4189 107.445 -55.7217 107.748C-55.9235 107.95 -56.0749 108.202 -56.1758 108.505C-56.2767 108.808 -56.2767 109.11 -56.1758 109.413C-56.0749 109.716 -56.1758 110.372 -56.4785 111.381C-56.6803 112.39 -56.5794 113.399 -56.1758 114.408C-55.7721 115.316 -55.1667 115.922 -54.3594 116.225C-54.4603 116.729 -54.4098 117.082 -54.208 117.284C-53.9053 117.486 -53.8044 117.789 -53.9053 118.192C-53.098 118.091 -52.4925 118.091 -52.0889 118.192C-51.5843 118.192 -50.9788 118.041 -50.2725 117.738C-49.5661 116.527 -49.3138 115.316 -49.5156 114.105C-49.6165 112.794 -49.4147 111.431 -48.9102 110.019C-48.1029 109.817 -47.0938 109.918 -45.8828 110.321C-44.6719 110.624 -43.8141 111.028 -43.3096 111.532C-43.3096 111.936 -43.2591 112.289 -43.1582 112.592C-42.9564 112.794 -42.805 113.197 -42.7041 113.803C-42.6032 114.307 -42.7546 114.913 -43.1582 115.619C-43.4609 116.225 -43.4105 117.082 -43.0068 118.192C-43.5114 118.899 -43.9655 119.605 -44.3691 120.312C-44.6719 121.018 -45.0251 121.573 -45.4287 121.977C-45.7314 122.279 -46.0846 122.431 -46.4883 122.431C-46.791 122.33 -46.9928 122.481 -47.0938 122.885C-48.3047 122.784 -48.9102 122.834 -48.9102 123.036C-48.9102 123.238 -48.9102 123.44 -48.9102 123.642C-49.5156 123.339 -50.0202 123.288 -50.4238 123.49C-50.8275 123.692 -51.4329 123.743 -52.2402 123.642C-53.0475 123.44 -53.8548 122.986 -54.6621 122.279C-55.4694 121.573 -56.4281 121.169 -57.5381 121.068C-57.8408 120.766 -58.0426 120.463 -58.1436 120.16C-58.2445 119.757 -58.5472 119.151 -59.0518 118.344C-59.4554 117.536 -59.8086 116.981 -60.1113 116.679C-60.3132 116.275 -60.515 115.771 -60.7168 115.165C-60.8177 114.459 -60.7673 113.651 -60.5654 112.743C-60.2627 111.734 -60.3636 110.725 -60.8682 109.716C-60.4645 109.11 -60.3132 108.454 -60.4141 107.748C-60.515 107.042 -60.515 106.487 -60.4141 106.083C-60.3132 105.578 -60.1618 105.074 -59.96 104.569C-59.6572 104.065 -59.4049 103.56 -59.2031 103.056C-59.0013 102.45 -58.7995 101.895 -58.5977 101.391C-58.2949 100.785 -58.0426 100.18 -57.8408 99.5742C-57.5381 98.8678 -57.0335 98.1615 -56.3271 97.4551C-55.6208 96.6478 -55.1667 95.79 -54.9648 94.8818C-54.1576 94.3773 -53.5016 93.8223 -52.9971 93.2168C-52.3916 92.5104 -51.5843 92.0563 -50.5752 91.8545C-50.5752 91.1481 -50.4238 90.694 -50.1211 90.4922C-49.8184 90.2904 -49.6165 89.9372 -49.5156 89.4326C-48.002 88.9281 -46.4883 88.3226 -44.9746 87.6162C-43.4609 86.8089 -42.4518 86.4053 -41.9473 86.4053C-41.4427 86.3044 -40.484 86.2035 -39.0713 86.1025L-36.498 85.7998C-35.4889 86.3044 -34.7321 86.5566 -34.2275 86.5566C-33.723 86.5566 -33.168 86.6576 -32.5625 86.8594C-31.8561 86.9603 -30.9479 87.0612 -29.8379 87.1621C-28.7279 87.263 -27.7188 87.6162 -26.8105 88.2217C-25.8014 88.8271 -24.9437 89.3317 -24.2373 89.7354C-23.1273 90.6436 -22.4209 91.1481 -22.1182 91.249C-21.8154 91.249 -21.4622 91.4004 -21.0586 91.7031C-20.6549 92.0059 -20.3018 92.46 -19.999 93.0654C-19.6963 93.6709 -19.2422 93.9736 -18.6367 93.9736C-18.334 95.6891 -17.4258 97.0514 -15.9121 98.0605C-16.1139 98.4642 -16.1139 98.8174 -15.9121 99.1201C-15.6094 99.4229 -15.4076 99.776 -15.3066 100.18C-15.1048 100.583 -15.0039 100.987 -15.0039 101.391C-14.903 101.794 -14.7012 102.349 -14.3984 103.056C-14.0957 103.762 -13.793 104.519 -13.4902 105.326C-13.1875 106.033 -13.0866 106.537 -13.1875 106.84C-13.2884 107.042 -13.2884 107.395 -13.1875 107.899C-12.9857 108.404 -12.7839 109.06 -12.582 109.867C-11.3711 113.197 -11.0179 116.83 -11.5225 120.766L-11.3711 121.371C-12.0775 121.876 -12.3802 122.632 -12.2793 123.642C-12.1784 124.55 -12.2288 125.508 -12.4307 126.518C-12.5316 127.426 -12.6829 128.233 -12.8848 128.939C-12.9857 129.545 -12.8848 130.1 -12.582 130.604C-13.1875 131.412 -13.5407 132.37 -13.6416 133.48C-13.7425 134.59 -13.9443 135.549 -14.2471 136.356C-14.4489 137.164 -14.6507 137.769 -14.8525 138.173C-15.0544 138.576 -15.3066 139.182 -15.6094 139.989C-15.8112 140.797 -15.9626 141.705 -16.0635 142.714C-16.0635 143.723 -16.568 144.379 -17.5771 144.682C-17.4762 145.691 -17.8294 146.599 -18.6367 147.406C-18.5358 147.709 -18.6367 148.415 -18.9395 149.525C-18.9395 150.635 -19.1413 151.443 -19.5449 151.947C-19.9486 152.452 -20.2513 152.956 -20.4531 153.461C-20.6549 153.865 -20.7054 154.268 -20.6045 154.672C-20.5036 155.076 -20.6045 155.631 -20.9072 156.337C-21.21 156.942 -21.765 157.75 -22.5723 158.759C-23.2786 159.667 -23.8337 160.373 -24.2373 160.878C-24.54 161.282 -24.8932 161.736 -25.2969 162.24C-25.3978 162.644 -25.5492 162.947 -25.751 163.148C-25.8519 163.35 -25.9023 163.703 -25.9023 164.208C-26.5078 164.713 -26.8105 165.015 -26.8105 165.116ZM34.3418 165.116L32.8281 167.084C32.8281 167.084 32.6263 167.387 32.2227 167.992C31.819 168.598 31.4154 169.203 31.0117 169.809C30.6081 170.414 30.0026 171.07 29.1953 171.776C28.388 172.483 27.7826 173.038 27.3789 173.441C26.9753 173.845 26.8743 174.4 27.0762 175.106C27.9844 176.015 28.9935 176.317 30.1035 176.015C31.2135 175.611 32.1722 175.409 32.9795 175.409C33.8877 175.409 34.695 175.561 35.4014 175.863C36.2087 176.065 36.9655 176.015 37.6719 175.712C38.4792 175.308 39.0342 175.157 39.3369 175.258C39.9424 175.46 40.8001 175.258 41.9102 174.652C43.0202 173.946 43.8275 173.643 44.332 173.744C44.9375 173.744 45.4925 173.795 45.9971 173.896C46.6025 173.996 47.0566 173.996 47.3594 173.896C47.763 173.694 48.0658 173.845 48.2676 174.35C48.873 175.561 48.7721 177.226 47.9648 179.345C47.4603 179.547 46.6025 179.698 45.3916 179.799C44.2816 179.799 43.5247 179.547 43.1211 179.042C42.7174 179.244 42.1624 179.597 41.4561 180.102C40.8506 180.505 40.1442 180.707 39.3369 180.707C38.6305 180.707 38.0755 180.858 37.6719 181.161C37.1673 180.757 36.6628 180.657 36.1582 180.858C35.7546 180.959 34.9473 181.01 33.7363 181.01C32.6263 180.909 31.5667 181.06 30.5576 181.464C29.6494 181.767 28.6908 181.514 27.6816 180.707C25.9661 181.514 24.0488 182.069 21.9297 182.372C19.9115 182.574 18.2464 182.978 16.9346 183.583C15.7236 184.088 14.765 184.592 14.0586 185.097C13.4531 185.5 12.6458 185.551 11.6367 185.248C11.2331 185.349 10.8799 185.5 10.5771 185.702C10.3753 185.904 9.97168 185.904 9.36621 185.702C8.55892 185.097 7.95345 184.592 7.5498 184.188C7.34798 183.684 7.39844 183.179 7.70117 182.675C8.10482 182.17 8.3571 181.565 8.45801 180.858C8.65983 180.152 9.01302 179.547 9.51758 179.042C9.92122 178.235 10.1735 177.781 10.2744 177.68C10.4762 177.579 10.7285 177.226 11.0312 176.62C11.334 176.015 11.7376 175.46 12.2422 174.955C12.7467 174.451 13.3522 173.441 14.0586 171.928C14.8659 170.414 15.3704 169.657 15.5723 169.657C15.7741 169.657 16.5814 168.244 17.9941 165.419C19.4069 162.493 20.2142 160.727 20.416 160.121C20.7188 159.516 21.2738 158.658 22.0811 157.548C22.8883 156.438 23.6452 154.521 24.3516 151.796C24.8561 150.585 25.1084 149.727 25.1084 149.223C25.2093 148.617 25.3607 147.86 25.5625 146.952C25.8652 146.044 26.2184 145.035 26.6221 143.925C27.1266 142.714 27.3789 141.806 27.3789 141.2C27.3789 140.494 27.4798 139.787 27.6816 139.081C27.8835 138.375 28.1357 137.567 28.4385 136.659C28.8421 135.65 29.0944 134.742 29.1953 133.935C29.3971 133.026 29.498 132.37 29.498 131.967C29.498 131.462 29.5485 131.008 29.6494 130.604C29.8512 130.201 30.0026 129.848 30.1035 129.545C30.2044 129.242 30.3053 128.939 30.4062 128.637C30.6081 128.334 30.709 128.031 30.709 127.729C30.8099 127.426 31.0117 126.82 31.3145 125.912C31.7181 124.903 31.9199 123.793 31.9199 122.582L31.6172 120.766C32.1217 119.353 32.374 118.445 32.374 118.041C32.374 117.234 32.5254 116.073 32.8281 114.56L32.9795 112.289C33.1813 111.28 33.1813 110.624 32.9795 110.321C32.7777 109.918 32.6768 109.413 32.6768 108.808C32.6768 108.202 32.7272 107.496 32.8281 106.688C33.0299 105.78 32.929 104.923 32.5254 104.115C32.2227 103.308 32.1217 102.854 32.2227 102.753C32.3236 102.551 32.1722 102.147 31.7686 101.542C31.3649 100.836 31.1126 100.281 31.0117 99.877C30.9108 99.3724 30.7594 98.9183 30.5576 98.5146C30.3558 98.0101 30.1035 97.4551 29.8008 96.8496C29.498 96.2441 29.2458 95.6387 29.0439 95.0332C27.6312 94.7305 26.4202 94.2259 25.4111 93.5195C24.402 92.7122 23.1911 92.2077 21.7783 92.0059C20.8701 92.3086 19.9115 92.7122 18.9023 93.2168C17.9941 93.6204 17.1364 93.7214 16.3291 93.5195C16.0264 93.8223 15.7236 94.1755 15.4209 94.5791C15.1182 94.9827 14.6136 95.3864 13.9072 95.79C13.3018 96.0928 12.7467 96.6478 12.2422 97.4551C11.7376 98.2624 11.2331 98.9183 10.7285 99.4229C10.3249 99.9274 9.82031 100.382 9.21484 100.785C8.60938 101.189 8.05436 101.643 7.5498 102.147C6.84342 103.358 6.49023 104.216 6.49023 104.721C6.49023 105.225 6.23796 105.578 5.7334 105.78C5.83431 106.789 5.7334 107.445 5.43066 107.748C5.22884 107.95 5.07747 108.202 4.97656 108.505C4.87565 108.808 4.87565 109.11 4.97656 109.413C5.07747 109.716 4.97656 110.372 4.67383 111.381C4.47201 112.39 4.57292 113.399 4.97656 114.408C5.38021 115.316 5.98568 115.922 6.79297 116.225C6.69206 116.729 6.74251 117.082 6.94434 117.284C7.24707 117.486 7.34798 117.789 7.24707 118.192C8.05436 118.091 8.65983 118.091 9.06348 118.192C9.56803 118.192 10.1735 118.041 10.8799 117.738C11.5863 116.527 11.8385 115.316 11.6367 114.105C11.5358 112.794 11.7376 111.431 12.2422 110.019C13.0495 109.817 14.0586 109.918 15.2695 110.321C16.4805 110.624 17.3382 111.028 17.8428 111.532C17.8428 111.936 17.8932 112.289 17.9941 112.592C18.196 112.794 18.3473 113.197 18.4482 113.803C18.5492 114.307 18.3978 114.913 17.9941 115.619C17.6914 116.225 17.7419 117.082 18.1455 118.192C17.641 118.899 17.1868 119.605 16.7832 120.312C16.4805 121.018 16.1273 121.573 15.7236 121.977C15.4209 122.279 15.0677 122.431 14.6641 122.431C14.3613 122.33 14.1595 122.481 14.0586 122.885C12.8477 122.784 12.2422 122.834 12.2422 123.036C12.2422 123.238 12.2422 123.44 12.2422 123.642C11.6367 123.339 11.1322 123.288 10.7285 123.49C10.3249 123.692 9.7194 123.743 8.91211 123.642C8.10482 123.44 7.29753 122.986 6.49023 122.279C5.68294 121.573 4.72428 121.169 3.61426 121.068C3.31152 120.766 3.1097 120.463 3.00879 120.16C2.90788 119.757 2.60514 119.151 2.10059 118.344C1.69694 117.536 1.34375 116.981 1.04102 116.679C0.839193 116.275 0.63737 115.771 0.435547 115.165C0.334635 114.459 0.385091 113.651 0.586914 112.743C0.889648 111.734 0.788737 110.725 0.28418 109.716C0.687826 109.11 0.839193 108.454 0.738281 107.748C0.63737 107.042 0.63737 106.487 0.738281 106.083C0.839193 105.578 0.99056 105.074 1.19238 104.569C1.49512 104.065 1.7474 103.56 1.94922 103.056C2.15104 102.45 2.35286 101.895 2.55469 101.391C2.85742 100.785 3.1097 100.18 3.31152 99.5742C3.61426 98.8678 4.11882 98.1615 4.8252 97.4551C5.53158 96.6478 5.98568 95.79 6.1875 94.8818C6.99479 94.3773 7.65072 93.8223 8.15527 93.2168C8.76074 92.5104 9.56803 92.0563 10.5771 91.8545C10.5771 91.1481 10.7285 90.694 11.0312 90.4922C11.334 90.2904 11.5358 89.9372 11.6367 89.4326C13.1504 88.9281 14.6641 88.3226 16.1777 87.6162C17.6914 86.8089 18.7005 86.4053 19.2051 86.4053C19.7096 86.3044 20.6683 86.2035 22.0811 86.1025L24.6543 85.7998C25.6634 86.3044 26.4202 86.5566 26.9248 86.5566C27.4294 86.5566 27.9844 86.6576 28.5898 86.8594C29.2962 86.9603 30.2044 87.0612 31.3145 87.1621C32.4245 87.263 33.4336 87.6162 34.3418 88.2217C35.3509 88.8271 36.2087 89.3317 36.915 89.7354C38.0251 90.6436 38.7314 91.1481 39.0342 91.249C39.3369 91.249 39.6901 91.4004 40.0938 91.7031C40.4974 92.0059 40.8506 92.46 41.1533 93.0654C41.4561 93.6709 41.9102 93.9736 42.5156 93.9736C42.8184 95.6891 43.7266 97.0514 45.2402 98.0605C45.0384 98.4642 45.0384 98.8174 45.2402 99.1201C45.543 99.4229 45.7448 99.776 45.8457 100.18C46.0475 100.583 46.1484 100.987 46.1484 101.391C46.2493 101.794 46.4512 102.349 46.7539 103.056C47.0566 103.762 47.3594 104.519 47.6621 105.326C47.9648 106.033 48.0658 106.537 47.9648 106.84C47.8639 107.042 47.8639 107.395 47.9648 107.899C48.1667 108.404 48.3685 109.06 48.5703 109.867C49.7812 113.197 50.1344 116.83 49.6299 120.766L49.7812 121.371C49.0749 121.876 48.7721 122.632 48.873 123.642C48.974 124.55 48.9235 125.508 48.7217 126.518C48.6208 127.426 48.4694 128.233 48.2676 128.939C48.1667 129.545 48.2676 130.1 48.5703 130.604C47.9648 131.412 47.6117 132.37 47.5107 133.48C47.4098 134.59 47.208 135.549 46.9053 136.356C46.7035 137.164 46.5016 137.769 46.2998 138.173C46.098 138.576 45.8457 139.182 45.543 139.989C45.3411 140.797 45.1898 141.705 45.0889 142.714C45.0889 143.723 44.5843 144.379 43.5752 144.682C43.6761 145.691 43.3229 146.599 42.5156 147.406C42.6165 147.709 42.5156 148.415 42.2129 149.525C42.2129 150.635 42.0111 151.443 41.6074 151.947C41.2038 152.452 40.901 152.956 40.6992 153.461C40.4974 153.865 40.4469 154.268 40.5479 154.672C40.6488 155.076 40.5479 155.631 40.2451 156.337C39.9424 156.942 39.3874 157.75 38.5801 158.759C37.8737 159.667 37.3187 160.373 36.915 160.878C36.6123 161.282 36.2591 161.736 35.8555 162.24C35.7546 162.644 35.6032 162.947 35.4014 163.148C35.3005 163.35 35.25 163.703 35.25 164.208C34.6445 164.713 34.3418 165.015 34.3418 165.116Z" fill="white"/>
</g>
<defs>
<clipPath id="clip0_593_49">
<rect width="274" height="274" fill="white" transform="translate(-137)"/>
</clipPath>
</defs>
</svg>
