<svg width="137" height="274" viewBox="0 0 137 274" fill="none" xmlns="http://www.w3.org/2000/svg">
<g clip-path="url(#clip0_593_149)">
<rect width="274" height="274" fill="#AC0B0E"/>
<path d="M68.505 32.6729C43.7265 34.0736 32.777 34.3152 32.617 34.3152C32.7216 37.8915 32.5051 45.494 32.617 48C32.8472 52.0015 32.7741 54.1862 32.1249 87.3445C31.3776 97.0844 30.0344 106.107 28.2381 129.501C26.4417 152.896 28.1603 180.34 27.4146 199.5C26.6074 220.241 27.4146 234.5 27.4146 241.715C27.4146 250.457 44.5397 245.738 81.0255 244.424C96.1882 243.877 116.985 244.209 131.247 244.371C153.008 244.618 164.336 243.713 176.24 243.299C196.545 242.594 213.086 243.876 222.755 244.339C234.128 244.884 242.438 245.075 242.906 242.922C243.43 240.514 242.753 237.549 243.181 211.686C243.584 187.319 244.677 141.475 245.23 110.007C245.784 78.5389 245.817 61.9497 245.791 52.3267C245.758 40.125 245.965 34.9406 243.7 34.496C241.526 34.0693 230.961 36.211 214.292 36.2026C189.323 36.19 179.01 33.1756 158.827 31.0169C148.529 29.9155 132.351 28.6139 115.697 29.0291C99.0424 29.4444 82.4422 31.8851 68.505 32.6729Z" stroke="white" stroke-width="2" stroke-linecap="round"/>
<path d="M132.596 -15.0486V27.3941" stroke="white" stroke-width="2" stroke-linecap="round"/>
<path d="M114.452 28.3268C114.452 28.1949 111.471 14.3102 106.156 -8.90901C103.822 -18.3114 102.227 -22.8808 100.685 -26.4012C99.1422 -29.9215 97.7009 -32.2545 96.2159 -34.6581" stroke="white" stroke-width="2" stroke-linecap="round"/>
<path d="M88.0493 29.9369C87.9761 27.228 86.9356 17.8075 81.9851 6.90122C78.7931 -0.130922 68.3714 -11.397 56.6046 -25.2817C50.1022 -33.604 46.9562 -38.7538 44.809 -43.2991C43.8697 -45.4845 43.2358 -47.4241 42.5826 -49.4225" stroke="white" stroke-width="2" stroke-linecap="round"/>
<path d="M64.3049 30.9702C64.2365 30.8334 62.5328 29.0273 52.5633 20.5927C44.4198 13.703 29.3791 2.28409 19.122 -6.41066C8.86495 -15.1054 3.68488 -20.5334 0.274949 -24.4442C-3.13498 -28.355 -4.61779 -30.5841 -6.14554 -32.8808" stroke="white" stroke-width="2" stroke-linecap="round"/>
<path d="M33.7455 33.3532C33.5329 33.1407 23.321 22.5648 7.12207 6.06048C-7.58952 -5.06476 -19.1245 -10.9888 -21.7889 -12.8924C-23.0535 -13.8737 -24.1406 -14.8863 -25.2606 -15.9295" stroke="white" stroke-width="2" stroke-linecap="round"/>
<path d="M33.0681 59.1809C32.7994 59.1809 30.4148 58.415 18.8529 52.3195C9.53725 46.9898 -6.77979 37.1194 -15.7089 31.8155C-24.6381 26.5115 -25.6848 26.073 -26.7633 25.6212" stroke="white" stroke-width="2" stroke-linecap="round"/>
<path d="M27.9436 243.898C27.7384 243.898 20.4348 250.067 8.9622 259.965C3.55398 264.794 -0.0200596 267.795 -5.93402 273.684C-9.44178 277.705 -13.9782 283.823 -20.0733 291.681" stroke="white" stroke-width="2" stroke-linecap="round"/>
<path d="M32.1021 77.3098C29.7304 77.2572 22.1484 76.5704 4.94611 71.4762C-9.15787 67.2995 -33.7533 58.5319 -50.3572 52.0784C-66.9612 45.6249 -74.7209 41.4037 -79.6094 38.6092C-84.4978 35.8147 -86.2799 34.575 -88.116 33.2977" stroke="white" stroke-width="2" stroke-linecap="round"/>
<path d="M31.0287 102.778C30.9579 102.778 30.887 102.778 2.06454 102.243C-26.7579 101.707 -84.3299 100.636 -143.646 99.5323" stroke="white" stroke-width="2" stroke-linecap="round"/>
<path d="M27.1842 127.792C27.084 127.792 26.9839 127.792 0.975708 127.751C-25.0324 127.711 -76.9455 127.631 -130.432 127.547" stroke="white" stroke-width="2" stroke-linecap="round"/>
<path d="M26.4816 155.13C26.4474 155.13 26.4132 155.13 -0.299347 156.462C-27.0119 157.795 -80.4017 160.46 -135.409 163.206" stroke="white" stroke-width="2" stroke-linecap="round"/>
<path d="M26.9627 174.232C26.8943 174.232 26.8259 174.232 12.7669 175.845C-1.29218 177.459 -29.3398 180.686 -52.3581 184.654C-75.3764 188.623 -92.5155 193.235 -112.567 201.559C-132.618 209.884 -155.061 221.78 -178.185 234.037" stroke="white" stroke-width="2" stroke-linecap="round"/>
<path d="M26.9627 192.838C26.3984 192.838 23.82 193.162 17.804 194.419C14.0758 195.352 8.9763 196.885 -37.2856 215.761C-83.5474 234.637 -170.817 270.809 -260.731 308.078" stroke="white" stroke-width="2" stroke-linecap="round"/>
<path d="M27.2477 213.795C27.2123 213.795 27.1769 213.795 18.2129 218.944C9.24894 224.093 -8.64254 234.391 -38.5955 246.978C-68.5485 259.565 -110.021 274.129 -134.25 282.977C-158.48 291.824 -164.209 294.514 -170.113 297.285" stroke="white" stroke-width="2" stroke-linecap="round"/>
<path d="M49.2495 246.81C45.5133 249.861 36.5958 258.54 26.7055 276.029C20.7915 285.389 10.5327 300.624 4.96087 309.016C-0.610982 317.407 -1.18505 318.494 -1.77652 319.614" stroke="white" stroke-width="2" stroke-linecap="round"/>
<path d="M68.8929 245.878C68.8929 245.984 68.8929 246.09 64.2937 254.249C59.6944 262.407 50.4958 278.614 43.3833 292.948C36.2708 307.282 31.5231 319.252 26.6316 331.585" stroke="white" stroke-width="2" stroke-linecap="round"/>
<path d="M90.031 245.608C90.031 245.642 90.031 245.676 89.5321 248.364C89.0331 251.053 88.0352 256.394 82.6587 275.409C77.2821 294.424 67.5571 326.95 57.5374 360.463" stroke="white" stroke-width="2" stroke-linecap="round"/>
<path d="M108.489 246.799V343.322" stroke="white" stroke-width="2" stroke-linecap="round"/>
<path d="M131.711 245.004C131.711 245.111 131.711 245.217 133.057 266.749C134.403 288.28 137.095 331.234 139.869 375.49" stroke="white" stroke-width="2" stroke-linecap="round"/>
<path d="M114.417 165.116L112.903 167.084C112.903 167.084 112.701 167.387 112.297 167.992C111.894 168.598 111.49 169.203 111.086 169.809C110.683 170.414 110.077 171.07 109.27 171.776C108.463 172.483 107.857 173.038 107.454 173.441C107.05 173.845 106.949 174.4 107.151 175.106C108.059 176.015 109.068 176.317 110.178 176.015C111.288 175.611 112.247 175.409 113.054 175.409C113.962 175.409 114.77 175.561 115.476 175.863C116.283 176.065 117.04 176.015 117.747 175.712C118.554 175.308 119.109 175.157 119.412 175.258C120.017 175.46 120.875 175.258 121.985 174.652C123.095 173.946 123.902 173.643 124.407 173.744C125.012 173.744 125.567 173.795 126.072 173.896C126.677 173.996 127.131 173.996 127.434 173.896C127.838 173.694 128.14 173.845 128.342 174.35C128.948 175.561 128.847 177.226 128.04 179.345C127.535 179.547 126.677 179.698 125.466 179.799C124.356 179.799 123.599 179.547 123.196 179.042C122.792 179.244 122.237 179.597 121.531 180.102C120.925 180.505 120.219 180.707 119.412 180.707C118.705 180.707 118.15 180.858 117.747 181.161C117.242 180.757 116.737 180.657 116.233 180.858C115.829 180.959 115.022 181.01 113.811 181.01C112.701 180.909 111.641 181.06 110.632 181.464C109.724 181.767 108.765 181.514 107.756 180.707C106.041 181.514 104.124 182.069 102.004 182.372C99.9862 182.574 98.3211 182.978 97.0093 183.583C95.7983 184.088 94.8397 184.592 94.1333 185.097C93.5278 185.5 92.7205 185.551 91.7114 185.248C91.3078 185.349 90.9546 185.5 90.6519 185.702C90.45 185.904 90.0464 185.904 89.4409 185.702C88.6336 185.097 88.0282 184.592 87.6245 184.188C87.4227 183.684 87.4731 183.179 87.7759 182.675C88.1795 182.17 88.4318 181.565 88.5327 180.858C88.7345 180.152 89.0877 179.547 89.5923 179.042C89.9959 178.235 90.2482 177.781 90.3491 177.68C90.5509 177.579 90.8032 177.226 91.106 176.62C91.4087 176.015 91.8123 175.46 92.3169 174.955C92.8215 174.451 93.4269 173.441 94.1333 171.928C94.9406 170.414 95.4451 169.657 95.647 169.657C95.8488 169.657 96.6561 168.244 98.0688 165.419C99.4816 162.493 100.289 160.727 100.491 160.121C100.793 159.516 101.348 158.658 102.156 157.548C102.963 156.438 103.72 154.521 104.426 151.796C104.931 150.585 105.183 149.727 105.183 149.223C105.284 148.617 105.435 147.86 105.637 146.952C105.94 146.044 106.293 145.035 106.697 143.925C107.201 142.714 107.454 141.806 107.454 141.2C107.454 140.494 107.555 139.787 107.756 139.081C107.958 138.375 108.21 137.567 108.513 136.659C108.917 135.65 109.169 134.742 109.27 133.935C109.472 133.026 109.573 132.37 109.573 131.967C109.573 131.462 109.623 131.008 109.724 130.604C109.926 130.201 110.077 129.848 110.178 129.545C110.279 129.242 110.38 128.939 110.481 128.637C110.683 128.334 110.784 128.031 110.784 127.729C110.885 127.426 111.086 126.82 111.389 125.912C111.793 124.903 111.995 123.793 111.995 122.582L111.692 120.766C112.196 119.353 112.449 118.445 112.449 118.041C112.449 117.234 112.6 116.073 112.903 114.56L113.054 112.289C113.256 111.28 113.256 110.624 113.054 110.321C112.852 109.918 112.751 109.413 112.751 108.808C112.751 108.202 112.802 107.496 112.903 106.688C113.105 105.78 113.004 104.923 112.6 104.115C112.297 103.308 112.196 102.854 112.297 102.753C112.398 102.551 112.247 102.147 111.843 101.542C111.44 100.836 111.187 100.281 111.086 99.877C110.986 99.3724 110.834 98.9183 110.632 98.5146C110.431 98.0101 110.178 97.4551 109.875 96.8496C109.573 96.2441 109.32 95.6387 109.119 95.0332C107.706 94.7305 106.495 94.2259 105.486 93.5195C104.477 92.7122 103.266 92.2077 101.853 92.0059C100.945 92.3086 99.9862 92.7122 98.9771 93.2168C98.0688 93.6204 97.2111 93.7214 96.4038 93.5195C96.1011 93.8223 95.7983 94.1755 95.4956 94.5791C95.1929 94.9827 94.6883 95.3864 93.9819 95.79C93.3765 96.0928 92.8215 96.6478 92.3169 97.4551C91.8123 98.2624 91.3078 98.9183 90.8032 99.4229C90.3996 99.9274 89.895 100.382 89.2896 100.785C88.6841 101.189 88.1291 101.643 87.6245 102.147C86.9181 103.358 86.5649 104.216 86.5649 104.721C86.5649 105.225 86.3127 105.578 85.8081 105.78C85.909 106.789 85.8081 107.445 85.5054 107.748C85.3035 107.95 85.1522 108.202 85.0513 108.505C84.9504 108.808 84.9504 109.11 85.0513 109.413C85.1522 109.716 85.0513 110.372 84.7485 111.381C84.5467 112.39 84.6476 113.399 85.0513 114.408C85.4549 115.316 86.0604 115.922 86.8677 116.225C86.7668 116.729 86.8172 117.082 87.019 117.284C87.3218 117.486 87.4227 117.789 87.3218 118.192C88.1291 118.091 88.7345 118.091 89.1382 118.192C89.6427 118.192 90.2482 118.041 90.9546 117.738C91.661 116.527 91.9132 115.316 91.7114 114.105C91.6105 112.794 91.8123 111.431 92.3169 110.019C93.1242 109.817 94.1333 109.918 95.3442 110.321C96.5552 110.624 97.4129 111.028 97.9175 111.532C97.9175 111.936 97.9679 112.289 98.0688 112.592C98.2707 112.794 98.422 113.197 98.5229 113.803C98.6239 114.307 98.4725 114.913 98.0688 115.619C97.7661 116.225 97.8166 117.082 98.2202 118.192C97.7157 118.899 97.2616 119.605 96.8579 120.312C96.5552 121.018 96.202 121.573 95.7983 121.977C95.4956 122.279 95.1424 122.431 94.7388 122.431C94.436 122.33 94.2342 122.481 94.1333 122.885C92.9224 122.784 92.3169 122.834 92.3169 123.036C92.3169 123.238 92.3169 123.44 92.3169 123.642C91.7114 123.339 91.2069 123.288 90.8032 123.49C90.3996 123.692 89.7941 123.743 88.9868 123.642C88.1795 123.44 87.3722 122.986 86.5649 122.279C85.7576 121.573 84.799 121.169 83.689 121.068C83.3862 120.766 83.1844 120.463 83.0835 120.16C82.9826 119.757 82.6799 119.151 82.1753 118.344C81.7716 117.536 81.4185 116.981 81.1157 116.679C80.9139 116.275 80.7121 115.771 80.5103 115.165C80.4093 114.459 80.4598 113.651 80.6616 112.743C80.9644 111.734 80.8634 110.725 80.3589 109.716C80.7625 109.11 80.9139 108.454 80.813 107.748C80.7121 107.042 80.7121 106.487 80.813 106.083C80.9139 105.578 81.0653 105.074 81.2671 104.569C81.5698 104.065 81.8221 103.56 82.0239 103.056C82.2257 102.45 82.4276 101.895 82.6294 101.391C82.9321 100.785 83.1844 100.18 83.3862 99.5742C83.689 98.8678 84.1935 98.1615 84.8999 97.4551C85.6063 96.6478 86.0604 95.79 86.2622 94.8818C87.0695 94.3773 87.7254 93.8223 88.23 93.2168C88.8354 92.5104 89.6427 92.0563 90.6519 91.8545C90.6519 91.1481 90.8032 90.694 91.106 90.4922C91.4087 90.2904 91.6105 89.9372 91.7114 89.4326C93.2251 88.9281 94.7388 88.3226 96.2524 87.6162C97.7661 86.8089 98.7752 86.4053 99.2798 86.4053C99.7843 86.3044 100.743 86.2035 102.156 86.1025L104.729 85.7998C105.738 86.3044 106.495 86.5566 107 86.5566C107.504 86.5566 108.059 86.6576 108.665 86.8594C109.371 86.9603 110.279 87.0612 111.389 87.1621C112.499 87.263 113.508 87.6162 114.417 88.2217C115.426 88.8271 116.283 89.3317 116.99 89.7354C118.1 90.6436 118.806 91.1481 119.109 91.249C119.412 91.249 119.765 91.4004 120.168 91.7031C120.572 92.0059 120.925 92.46 121.228 93.0654C121.531 93.6709 121.985 93.9736 122.59 93.9736C122.893 95.6891 123.801 97.0514 125.315 98.0605C125.113 98.4642 125.113 98.8174 125.315 99.1201C125.618 99.4229 125.819 99.776 125.92 100.18C126.122 100.583 126.223 100.987 126.223 101.391C126.324 101.794 126.526 102.349 126.829 103.056C127.131 103.762 127.434 104.519 127.737 105.326C128.04 106.033 128.14 106.537 128.04 106.84C127.939 107.042 127.939 107.395 128.04 107.899C128.241 108.404 128.443 109.06 128.645 109.867C129.856 113.197 130.209 116.83 129.705 120.766L129.856 121.371C129.15 121.876 128.847 122.632 128.948 123.642C129.049 124.55 128.998 125.508 128.796 126.518C128.695 127.426 128.544 128.233 128.342 128.939C128.241 129.545 128.342 130.1 128.645 130.604C128.04 131.412 127.686 132.37 127.585 133.48C127.485 134.59 127.283 135.549 126.98 136.356C126.778 137.164 126.576 137.769 126.375 138.173C126.173 138.576 125.92 139.182 125.618 139.989C125.416 140.797 125.264 141.705 125.164 142.714C125.164 143.723 124.659 144.379 123.65 144.682C123.751 145.691 123.398 146.599 122.59 147.406C122.691 147.709 122.59 148.415 122.288 149.525C122.288 150.635 122.086 151.443 121.682 151.947C121.278 152.452 120.976 152.956 120.774 153.461C120.572 153.865 120.522 154.268 120.623 154.672C120.723 155.076 120.623 155.631 120.32 156.337C120.017 156.942 119.462 157.75 118.655 158.759C117.948 159.667 117.393 160.373 116.99 160.878C116.687 161.282 116.334 161.736 115.93 162.24C115.829 162.644 115.678 162.947 115.476 163.148C115.375 163.35 115.325 163.703 115.325 164.208C114.719 164.713 114.417 165.015 114.417 165.116ZM184.954 91.249L186.467 92.0059C189.999 93.3177 191.059 95.9414 189.646 99.877C189.444 100.684 189.141 101.391 188.738 101.996C188.435 102.602 188.132 103.409 187.83 104.418C187.224 104.822 186.72 105.326 186.316 105.932C185.912 106.436 185.408 106.84 184.802 107.143C184.701 107.647 184.5 108.101 184.197 108.505C183.894 108.808 183.692 109.211 183.591 109.716C183.289 109.918 183.036 110.17 182.834 110.473C182.633 110.674 182.33 110.775 181.926 110.775C181.624 111.885 180.867 113.147 179.656 114.56C178.546 115.972 177.789 117.335 177.385 118.646C176.881 118.848 176.477 119.151 176.174 119.555C175.972 119.958 175.417 120.614 174.509 121.522C173.601 122.431 172.693 123.339 171.785 124.247C170.876 125.155 170.12 126.164 169.514 127.274C169.918 128.082 170.776 128.637 172.087 128.939C173.399 129.242 174.408 129.848 175.115 130.756C176.023 130.554 177.032 130.806 178.142 131.513C179.252 132.219 180.16 132.572 180.867 132.572C181.775 133.38 182.532 134.338 183.137 135.448C183.743 136.558 184.6 137.517 185.71 138.324C186.215 140.948 186.871 142.916 187.678 144.228L188.586 147.86C188.99 148.97 189.141 149.778 189.041 150.282C189.041 150.686 189.242 151.039 189.646 151.342C189.747 153.663 189.848 155.832 189.949 157.851C190.05 159.869 189.848 161.988 189.343 164.208C188.031 167.639 187.073 170.414 186.467 172.533C184.247 174.047 182.986 175.813 182.683 177.831C181.977 178.336 181.22 178.79 180.413 179.193C179.605 179.496 178.949 180.051 178.445 180.858C176.931 181.262 175.67 181.817 174.661 182.523C173.752 183.129 173.097 183.482 172.693 183.583C172.289 183.583 171.986 183.785 171.785 184.188L169.817 184.037C169.312 184.239 168.757 184.441 168.152 184.643C167.546 184.844 166.79 185.299 165.881 186.005C165.074 186.61 163.611 186.711 161.492 186.308C159.373 185.904 158.263 185.652 158.162 185.551C158.061 185.349 157.808 185.198 157.405 185.097C157.102 184.996 156.749 185.046 156.345 185.248C156.042 185.349 155.437 185.198 154.529 184.794C153.621 184.39 153.015 183.886 152.712 183.28C152.41 182.675 152.006 182.372 151.501 182.372C151.098 182.372 150.543 182.17 149.836 181.767C149.231 181.363 148.979 181.06 149.08 180.858C149.181 180.657 148.928 180.303 148.323 179.799C147.717 179.294 147.314 178.891 147.112 178.588C146.91 178.285 146.456 177.68 145.75 176.771C145.043 175.762 144.589 175.006 144.387 174.501C144.185 173.896 143.933 173.492 143.63 173.29C143.429 173.088 143.227 172.836 143.025 172.533C142.924 171.928 142.773 171.474 142.571 171.171C142.369 170.868 142.268 170.414 142.268 169.809V168.295C142.268 167.891 142.218 167.538 142.117 167.235V165.268L143.176 160.424C143.176 159.919 143.378 159.364 143.782 158.759C144.286 158.153 144.539 157.75 144.539 157.548C144.539 157.346 144.589 157.094 144.69 156.791C144.892 156.488 145.144 156.186 145.447 155.883C145.85 155.58 146.103 155.176 146.204 154.672C147.515 153.865 148.878 153.36 150.291 153.158C151.804 152.855 152.864 152.603 153.469 152.401C154.176 152.2 154.781 152.149 155.286 152.25C155.891 152.25 156.497 152.452 157.102 152.855L158.918 153.31C159.928 153.41 160.583 153.562 160.886 153.764C161.29 153.965 161.794 154.016 162.4 153.915C162.804 154.42 163.056 155.025 163.157 155.731C163.258 156.438 163.359 157.144 163.459 157.851C163.661 158.557 163.762 159.112 163.762 159.516C163.762 159.818 163.51 160.424 163.005 161.332C162.602 162.139 161.895 162.593 160.886 162.694C159.877 162.694 159.221 162.442 158.918 161.938C158.616 161.332 157.859 160.979 156.648 160.878C156.244 160.373 155.891 159.919 155.588 159.516C155.387 159.011 154.781 158.607 153.772 158.305C152.763 157.901 150.997 158.759 148.474 160.878C148.474 161.685 148.272 162.19 147.869 162.392C147.566 162.593 147.314 162.896 147.112 163.3C147.213 163.905 147.263 164.713 147.263 165.722C147.263 166.63 147.011 167.286 146.506 167.689C146.506 168.295 146.708 168.749 147.112 169.052C147.515 169.354 147.616 169.859 147.415 170.565C148.525 171.675 149.231 172.785 149.534 173.896C151.35 174.703 152.41 175.661 152.712 176.771C153.923 177.074 155.185 177.882 156.497 179.193C157.102 179.395 157.859 179.547 158.767 179.647C159.776 179.647 160.583 179.799 161.189 180.102C161.895 180.001 162.4 179.748 162.703 179.345C163.106 178.84 163.712 178.588 164.519 178.588C165.427 177.074 166.033 176.166 166.335 175.863C166.739 175.561 166.941 175.258 166.941 174.955C167.042 174.652 167.244 174.148 167.546 173.441C167.95 172.735 168.253 172.13 168.455 171.625C168.656 171.12 168.858 170.717 169.06 170.414C169.262 170.111 169.211 169.657 168.909 169.052C169.514 168.345 169.867 167.538 169.968 166.63C170.17 165.621 170.372 164.713 170.574 163.905C170.876 162.997 171.129 162.291 171.331 161.786C171.532 161.181 171.684 160.575 171.785 159.97C171.886 159.263 171.936 158.658 171.936 158.153C171.936 157.548 172.037 156.791 172.239 155.883C172.441 154.874 172.693 153.915 172.996 153.007C173.298 151.998 173.5 151.19 173.601 150.585C173.803 149.979 173.853 149.475 173.752 149.071C173.652 148.668 173.752 148.012 174.055 147.104C174.358 146.195 174.509 145.338 174.509 144.53V142.26C174.509 141.654 174.509 140.998 174.509 140.292C174.61 139.485 174.509 138.778 174.207 138.173C174.005 137.567 173.399 137.113 172.39 136.811C171.381 136.508 170.624 135.953 170.12 135.146C169.211 135.448 168.253 135.499 167.244 135.297C166.235 135.095 165.024 135.246 163.611 135.751C162.198 136.155 161.038 136.558 160.129 136.962C159.221 137.265 158.414 137.921 157.708 138.93C156.799 139.031 155.891 139.333 154.983 139.838C154.075 140.242 153.217 140.292 152.41 139.989C150.291 139.182 149.13 137.921 148.928 136.205C148.726 133.682 149.483 131.563 151.199 129.848L153.015 128.031C153.52 127.527 154.024 126.921 154.529 126.215C155.033 125.508 155.336 125.155 155.437 125.155C155.538 125.155 155.639 125.054 155.74 124.853C155.942 124.55 156.194 124.247 156.497 123.944C156.9 123.642 157.304 123.288 157.708 122.885C157.808 122.481 158.01 122.178 158.313 121.977C158.616 121.674 158.818 121.27 158.918 120.766C159.423 120.766 159.827 120.564 160.129 120.16C160.432 119.757 160.785 119.302 161.189 118.798C161.694 118.293 162.349 117.436 163.157 116.225C164.065 114.913 164.569 114.257 164.67 114.257C164.872 114.156 165.074 113.954 165.276 113.651C165.579 113.248 165.932 112.693 166.335 111.986C166.739 111.28 167.092 110.775 167.395 110.473C167.698 110.069 167.95 109.766 168.152 109.564C168.354 109.262 168.556 108.909 168.757 108.505C168.959 108.101 169.312 107.597 169.817 106.991C170.321 106.386 170.574 105.932 170.574 105.629C170.675 105.326 171.078 104.721 171.785 103.812C172.491 102.803 172.844 101.693 172.844 100.482C171.734 99.3724 170.12 99.1201 168 99.7256C165.881 100.23 164.267 100.331 163.157 100.028L160.432 101.088C160.028 100.886 159.423 100.886 158.616 101.088C157.808 101.189 156.951 100.785 156.042 99.877C155.538 99.877 155.134 99.9274 154.832 100.028C154.529 100.028 154.176 99.877 153.772 99.5742L152.712 97.1523C152.611 96.7487 152.46 96.2946 152.258 95.79C152.157 95.1846 152.309 94.5286 152.712 93.8223C153.217 93.5195 153.722 93.3177 154.226 93.2168C154.731 93.1159 155.336 93.015 156.042 92.9141C156.749 92.7122 157.455 92.6618 158.162 92.7627C158.868 92.7627 159.675 92.6618 160.583 92.46C161.593 92.1572 162.249 92.1068 162.551 92.3086C162.854 92.5104 164.267 92.4095 166.79 92.0059L169.817 92.1572H173.147C174.661 92.6618 175.922 92.7627 176.931 92.46C178.041 92.0563 178.748 91.9049 179.05 92.0059C179.454 92.0059 180.009 91.9049 180.715 91.7031C181.523 91.5013 182.078 91.4508 182.38 91.5518C182.683 91.6527 183.036 91.7031 183.44 91.7031C183.844 91.7031 184.348 91.5518 184.954 91.249Z" fill="white"/>
</g>
<defs>
<clipPath id="clip0_593_149">
<rect width="274" height="274" fill="white"/>
</clipPath>
</defs>
</svg>
